<?xml version="1.0" encoding="utf-8"?>
<svg xmlns="http://www.w3.org/2000/svg" xmlns:xlink="http://www.w3.org/1999/xlink" width="600" height="400" viewBox="0 0 2400 1600">
<defs>
  <clipPath id="clip130">
    <rect x="0" y="0" width="2400" height="1600"/>
  </clipPath>
</defs>
<path clip-path="url(#clip130)" d="
M0 1600 L2400 1600 L2400 0 L0 0  Z
  " fill="#ffffff" fill-rule="evenodd" fill-opacity="1"/>
<defs>
  <clipPath id="clip131">
    <rect x="480" y="0" width="1681" height="1600"/>
  </clipPath>
</defs>
<path clip-path="url(#clip130)" d="
M156.112 1486.45 L2352.76 1486.45 L2352.76 47.2441 L156.112 47.2441  Z
  " fill="#ffffff" fill-rule="evenodd" fill-opacity="1"/>
<defs>
  <clipPath id="clip132">
    <rect x="156" y="47" width="2198" height="1440"/>
  </clipPath>
</defs>
<polyline clip-path="url(#clip132)" style="stroke:#000000; stroke-linecap:butt; stroke-linejoin:round; stroke-width:2; stroke-opacity:0.1; fill:none" points="
  218.281,1486.45 218.281,47.2441 
  "/>
<polyline clip-path="url(#clip132)" style="stroke:#000000; stroke-linecap:butt; stroke-linejoin:round; stroke-width:2; stroke-opacity:0.1; fill:none" points="
  909.05,1486.45 909.05,47.2441 
  "/>
<polyline clip-path="url(#clip132)" style="stroke:#000000; stroke-linecap:butt; stroke-linejoin:round; stroke-width:2; stroke-opacity:0.1; fill:none" points="
  1599.82,1486.45 1599.82,47.2441 
  "/>
<polyline clip-path="url(#clip132)" style="stroke:#000000; stroke-linecap:butt; stroke-linejoin:round; stroke-width:2; stroke-opacity:0.1; fill:none" points="
  2290.59,1486.45 2290.59,47.2441 
  "/>
<polyline clip-path="url(#clip130)" style="stroke:#000000; stroke-linecap:butt; stroke-linejoin:round; stroke-width:4; stroke-opacity:1; fill:none" points="
  156.112,1486.45 2352.76,1486.45 
  "/>
<polyline clip-path="url(#clip130)" style="stroke:#000000; stroke-linecap:butt; stroke-linejoin:round; stroke-width:4; stroke-opacity:1; fill:none" points="
  218.281,1486.45 218.281,1467.55 
  "/>
<polyline clip-path="url(#clip130)" style="stroke:#000000; stroke-linecap:butt; stroke-linejoin:round; stroke-width:4; stroke-opacity:1; fill:none" points="
  909.05,1486.45 909.05,1467.55 
  "/>
<polyline clip-path="url(#clip130)" style="stroke:#000000; stroke-linecap:butt; stroke-linejoin:round; stroke-width:4; stroke-opacity:1; fill:none" points="
  1599.82,1486.45 1599.82,1467.55 
  "/>
<polyline clip-path="url(#clip130)" style="stroke:#000000; stroke-linecap:butt; stroke-linejoin:round; stroke-width:4; stroke-opacity:1; fill:none" points="
  2290.59,1486.45 2290.59,1467.55 
  "/>
<path clip-path="url(#clip130)" d="M150.423 1517.37 Q146.812 1517.37 144.983 1520.93 Q143.178 1524.47 143.178 1531.6 Q143.178 1538.71 144.983 1542.27 Q146.812 1545.82 150.423 1545.82 Q154.057 1545.82 155.863 1542.27 Q157.691 1538.71 157.691 1531.6 Q157.691 1524.47 155.863 1520.93 Q154.057 1517.37 150.423 1517.37 M150.423 1513.66 Q156.233 1513.66 159.289 1518.27 Q162.367 1522.85 162.367 1531.6 Q162.367 1540.33 159.289 1544.94 Q156.233 1549.52 150.423 1549.52 Q144.613 1549.52 141.534 1544.94 Q138.478 1540.33 138.478 1531.6 Q138.478 1522.85 141.534 1518.27 Q144.613 1513.66 150.423 1513.66 Z" fill="#000000" fill-rule="evenodd" fill-opacity="1" /><path clip-path="url(#clip130)" d="M170.585 1542.97 L175.469 1542.97 L175.469 1548.85 L170.585 1548.85 L170.585 1542.97 Z" fill="#000000" fill-rule="evenodd" fill-opacity="1" /><path clip-path="url(#clip130)" d="M195.654 1517.37 Q192.043 1517.37 190.214 1520.93 Q188.409 1524.47 188.409 1531.6 Q188.409 1538.71 190.214 1542.27 Q192.043 1545.82 195.654 1545.82 Q199.288 1545.82 201.094 1542.27 Q202.923 1538.71 202.923 1531.6 Q202.923 1524.47 201.094 1520.93 Q199.288 1517.37 195.654 1517.37 M195.654 1513.66 Q201.464 1513.66 204.52 1518.27 Q207.598 1522.85 207.598 1531.6 Q207.598 1540.33 204.52 1544.94 Q201.464 1549.52 195.654 1549.52 Q189.844 1549.52 186.765 1544.94 Q183.71 1540.33 183.71 1531.6 Q183.71 1522.85 186.765 1518.27 Q189.844 1513.66 195.654 1513.66 Z" fill="#000000" fill-rule="evenodd" fill-opacity="1" /><path clip-path="url(#clip130)" d="M225.816 1517.37 Q222.205 1517.37 220.376 1520.93 Q218.571 1524.47 218.571 1531.6 Q218.571 1538.71 220.376 1542.27 Q222.205 1545.82 225.816 1545.82 Q229.45 1545.82 231.256 1542.27 Q233.084 1538.71 233.084 1531.6 Q233.084 1524.47 231.256 1520.93 Q229.45 1517.37 225.816 1517.37 M225.816 1513.66 Q231.626 1513.66 234.682 1518.27 Q237.76 1522.85 237.76 1531.6 Q237.76 1540.33 234.682 1544.94 Q231.626 1549.52 225.816 1549.52 Q220.006 1549.52 216.927 1544.94 Q213.872 1540.33 213.872 1531.6 Q213.872 1522.85 216.927 1518.27 Q220.006 1513.66 225.816 1513.66 Z" fill="#000000" fill-rule="evenodd" fill-opacity="1" /><path clip-path="url(#clip130)" d="M255.978 1517.37 Q252.367 1517.37 250.538 1520.93 Q248.733 1524.47 248.733 1531.6 Q248.733 1538.71 250.538 1542.27 Q252.367 1545.82 255.978 1545.82 Q259.612 1545.82 261.418 1542.27 Q263.246 1538.71 263.246 1531.6 Q263.246 1524.47 261.418 1520.93 Q259.612 1517.37 255.978 1517.37 M255.978 1513.66 Q261.788 1513.66 264.844 1518.27 Q267.922 1522.85 267.922 1531.6 Q267.922 1540.33 264.844 1544.94 Q261.788 1549.52 255.978 1549.52 Q250.168 1549.52 247.089 1544.94 Q244.033 1540.33 244.033 1531.6 Q244.033 1522.85 247.089 1518.27 Q250.168 1513.66 255.978 1513.66 Z" fill="#000000" fill-rule="evenodd" fill-opacity="1" /><path clip-path="url(#clip130)" d="M286.14 1517.37 Q282.529 1517.37 280.7 1520.93 Q278.894 1524.47 278.894 1531.6 Q278.894 1538.71 280.7 1542.27 Q282.529 1545.82 286.14 1545.82 Q289.774 1545.82 291.58 1542.27 Q293.408 1538.71 293.408 1531.6 Q293.408 1524.47 291.58 1520.93 Q289.774 1517.37 286.14 1517.37 M286.14 1513.66 Q291.95 1513.66 295.005 1518.27 Q298.084 1522.85 298.084 1531.6 Q298.084 1540.33 295.005 1544.94 Q291.95 1549.52 286.14 1549.52 Q280.33 1549.52 277.251 1544.94 Q274.195 1540.33 274.195 1531.6 Q274.195 1522.85 277.251 1518.27 Q280.33 1513.66 286.14 1513.66 Z" fill="#000000" fill-rule="evenodd" fill-opacity="1" /><path clip-path="url(#clip130)" d="M841.805 1517.37 Q838.194 1517.37 836.365 1520.93 Q834.559 1524.47 834.559 1531.6 Q834.559 1538.71 836.365 1542.27 Q838.194 1545.82 841.805 1545.82 Q845.439 1545.82 847.245 1542.27 Q849.073 1538.71 849.073 1531.6 Q849.073 1524.47 847.245 1520.93 Q845.439 1517.37 841.805 1517.37 M841.805 1513.66 Q847.615 1513.66 850.67 1518.27 Q853.749 1522.85 853.749 1531.6 Q853.749 1540.33 850.67 1544.94 Q847.615 1549.52 841.805 1549.52 Q835.995 1549.52 832.916 1544.94 Q829.86 1540.33 829.86 1531.6 Q829.86 1522.85 832.916 1518.27 Q835.995 1513.66 841.805 1513.66 Z" fill="#000000" fill-rule="evenodd" fill-opacity="1" /><path clip-path="url(#clip130)" d="M861.967 1542.97 L866.851 1542.97 L866.851 1548.85 L861.967 1548.85 L861.967 1542.97 Z" fill="#000000" fill-rule="evenodd" fill-opacity="1" /><path clip-path="url(#clip130)" d="M887.036 1517.37 Q883.425 1517.37 881.596 1520.93 Q879.791 1524.47 879.791 1531.6 Q879.791 1538.71 881.596 1542.27 Q883.425 1545.82 887.036 1545.82 Q890.67 1545.82 892.476 1542.27 Q894.304 1538.71 894.304 1531.6 Q894.304 1524.47 892.476 1520.93 Q890.67 1517.37 887.036 1517.37 M887.036 1513.66 Q892.846 1513.66 895.902 1518.27 Q898.98 1522.85 898.98 1531.6 Q898.98 1540.33 895.902 1544.94 Q892.846 1549.52 887.036 1549.52 Q881.226 1549.52 878.147 1544.94 Q875.092 1540.33 875.092 1531.6 Q875.092 1522.85 878.147 1518.27 Q881.226 1513.66 887.036 1513.66 Z" fill="#000000" fill-rule="evenodd" fill-opacity="1" /><path clip-path="url(#clip130)" d="M917.198 1517.37 Q913.587 1517.37 911.758 1520.93 Q909.953 1524.47 909.953 1531.6 Q909.953 1538.71 911.758 1542.27 Q913.587 1545.82 917.198 1545.82 Q920.832 1545.82 922.638 1542.27 Q924.466 1538.71 924.466 1531.6 Q924.466 1524.47 922.638 1520.93 Q920.832 1517.37 917.198 1517.37 M917.198 1513.66 Q923.008 1513.66 926.064 1518.27 Q929.142 1522.85 929.142 1531.6 Q929.142 1540.33 926.064 1544.94 Q923.008 1549.52 917.198 1549.52 Q911.388 1549.52 908.309 1544.94 Q905.253 1540.33 905.253 1531.6 Q905.253 1522.85 908.309 1518.27 Q911.388 1513.66 917.198 1513.66 Z" fill="#000000" fill-rule="evenodd" fill-opacity="1" /><path clip-path="url(#clip130)" d="M947.36 1517.37 Q943.749 1517.37 941.92 1520.93 Q940.114 1524.47 940.114 1531.6 Q940.114 1538.71 941.92 1542.27 Q943.749 1545.82 947.36 1545.82 Q950.994 1545.82 952.8 1542.27 Q954.628 1538.71 954.628 1531.6 Q954.628 1524.47 952.8 1520.93 Q950.994 1517.37 947.36 1517.37 M947.36 1513.66 Q953.17 1513.66 956.225 1518.27 Q959.304 1522.85 959.304 1531.6 Q959.304 1540.33 956.225 1544.94 Q953.17 1549.52 947.36 1549.52 Q941.55 1549.52 938.471 1544.94 Q935.415 1540.33 935.415 1531.6 Q935.415 1522.85 938.471 1518.27 Q941.55 1513.66 947.36 1513.66 Z" fill="#000000" fill-rule="evenodd" fill-opacity="1" /><path clip-path="url(#clip130)" d="M968.332 1544.91 L975.971 1544.91 L975.971 1518.55 L967.661 1520.21 L967.661 1515.95 L975.924 1514.29 L980.6 1514.29 L980.6 1544.91 L988.239 1544.91 L988.239 1548.85 L968.332 1548.85 L968.332 1544.91 Z" fill="#000000" fill-rule="evenodd" fill-opacity="1" /><path clip-path="url(#clip130)" d="M1532.76 1517.37 Q1529.15 1517.37 1527.32 1520.93 Q1525.51 1524.47 1525.51 1531.6 Q1525.51 1538.71 1527.32 1542.27 Q1529.15 1545.82 1532.76 1545.82 Q1536.39 1545.82 1538.2 1542.27 Q1540.03 1538.71 1540.03 1531.6 Q1540.03 1524.47 1538.2 1520.93 Q1536.39 1517.37 1532.76 1517.37 M1532.76 1513.66 Q1538.57 1513.66 1541.62 1518.27 Q1544.7 1522.85 1544.7 1531.6 Q1544.7 1540.33 1541.62 1544.94 Q1538.57 1549.52 1532.76 1549.52 Q1526.95 1549.52 1523.87 1544.94 Q1520.81 1540.33 1520.81 1531.6 Q1520.81 1522.85 1523.87 1518.27 Q1526.95 1513.66 1532.76 1513.66 Z" fill="#000000" fill-rule="evenodd" fill-opacity="1" /><path clip-path="url(#clip130)" d="M1552.92 1542.97 L1557.8 1542.97 L1557.8 1548.85 L1552.92 1548.85 L1552.92 1542.97 Z" fill="#000000" fill-rule="evenodd" fill-opacity="1" /><path clip-path="url(#clip130)" d="M1577.99 1517.37 Q1574.38 1517.37 1572.55 1520.93 Q1570.74 1524.47 1570.74 1531.6 Q1570.74 1538.71 1572.55 1542.27 Q1574.38 1545.82 1577.99 1545.82 Q1581.62 1545.82 1583.43 1542.27 Q1585.26 1538.71 1585.26 1531.6 Q1585.26 1524.47 1583.43 1520.93 Q1581.62 1517.37 1577.99 1517.37 M1577.99 1513.66 Q1583.8 1513.66 1586.86 1518.27 Q1589.93 1522.85 1589.93 1531.6 Q1589.93 1540.33 1586.86 1544.94 Q1583.8 1549.52 1577.99 1549.52 Q1572.18 1549.52 1569.1 1544.94 Q1566.05 1540.33 1566.05 1531.6 Q1566.05 1522.85 1569.1 1518.27 Q1572.18 1513.66 1577.99 1513.66 Z" fill="#000000" fill-rule="evenodd" fill-opacity="1" /><path clip-path="url(#clip130)" d="M1608.15 1517.37 Q1604.54 1517.37 1602.71 1520.93 Q1600.91 1524.47 1600.91 1531.6 Q1600.91 1538.71 1602.71 1542.27 Q1604.54 1545.82 1608.15 1545.82 Q1611.79 1545.82 1613.59 1542.27 Q1615.42 1538.71 1615.42 1531.6 Q1615.42 1524.47 1613.59 1520.93 Q1611.79 1517.37 1608.15 1517.37 M1608.15 1513.66 Q1613.96 1513.66 1617.02 1518.27 Q1620.1 1522.85 1620.1 1531.6 Q1620.1 1540.33 1617.02 1544.94 Q1613.96 1549.52 1608.15 1549.52 Q1602.34 1549.52 1599.26 1544.94 Q1596.21 1540.33 1596.21 1531.6 Q1596.21 1522.85 1599.26 1518.27 Q1602.34 1513.66 1608.15 1513.66 Z" fill="#000000" fill-rule="evenodd" fill-opacity="1" /><path clip-path="url(#clip130)" d="M1638.31 1517.37 Q1634.7 1517.37 1632.87 1520.93 Q1631.07 1524.47 1631.07 1531.6 Q1631.07 1538.71 1632.87 1542.27 Q1634.7 1545.82 1638.31 1545.82 Q1641.95 1545.82 1643.75 1542.27 Q1645.58 1538.71 1645.58 1531.6 Q1645.58 1524.47 1643.75 1520.93 Q1641.95 1517.37 1638.31 1517.37 M1638.31 1513.66 Q1644.12 1513.66 1647.18 1518.27 Q1650.26 1522.85 1650.26 1531.6 Q1650.26 1540.33 1647.18 1544.94 Q1644.12 1549.52 1638.31 1549.52 Q1632.5 1549.52 1629.42 1544.94 Q1626.37 1540.33 1626.37 1531.6 Q1626.37 1522.85 1629.42 1518.27 Q1632.5 1513.66 1638.31 1513.66 Z" fill="#000000" fill-rule="evenodd" fill-opacity="1" /><path clip-path="url(#clip130)" d="M1662.5 1544.91 L1678.82 1544.91 L1678.82 1548.85 L1656.88 1548.85 L1656.88 1544.91 Q1659.54 1542.16 1664.12 1537.53 Q1668.73 1532.88 1669.91 1531.53 Q1672.16 1529.01 1673.04 1527.27 Q1673.94 1525.51 1673.94 1523.82 Q1673.94 1521.07 1671.99 1519.33 Q1670.07 1517.6 1666.97 1517.6 Q1664.77 1517.6 1662.32 1518.36 Q1659.89 1519.13 1657.11 1520.68 L1657.11 1515.95 Q1659.93 1514.82 1662.39 1514.24 Q1664.84 1513.66 1666.88 1513.66 Q1672.25 1513.66 1675.44 1516.35 Q1678.64 1519.03 1678.64 1523.52 Q1678.64 1525.65 1677.83 1527.57 Q1677.04 1529.47 1674.93 1532.07 Q1674.35 1532.74 1671.25 1535.95 Q1668.15 1539.15 1662.5 1544.91 Z" fill="#000000" fill-rule="evenodd" fill-opacity="1" /><path clip-path="url(#clip130)" d="M2223.05 1517.37 Q2219.44 1517.37 2217.61 1520.93 Q2215.81 1524.47 2215.81 1531.6 Q2215.81 1538.71 2217.61 1542.27 Q2219.44 1545.82 2223.05 1545.82 Q2226.69 1545.82 2228.49 1542.27 Q2230.32 1538.71 2230.32 1531.6 Q2230.32 1524.47 2228.49 1520.93 Q2226.69 1517.37 2223.05 1517.37 M2223.05 1513.66 Q2228.86 1513.66 2231.92 1518.27 Q2235 1522.85 2235 1531.6 Q2235 1540.33 2231.92 1544.94 Q2228.86 1549.52 2223.05 1549.52 Q2217.24 1549.52 2214.16 1544.94 Q2211.11 1540.33 2211.11 1531.6 Q2211.11 1522.85 2214.16 1518.27 Q2217.24 1513.66 2223.05 1513.66 Z" fill="#000000" fill-rule="evenodd" fill-opacity="1" /><path clip-path="url(#clip130)" d="M2243.21 1542.97 L2248.1 1542.97 L2248.1 1548.85 L2243.21 1548.85 L2243.21 1542.97 Z" fill="#000000" fill-rule="evenodd" fill-opacity="1" /><path clip-path="url(#clip130)" d="M2268.28 1517.37 Q2264.67 1517.37 2262.84 1520.93 Q2261.04 1524.47 2261.04 1531.6 Q2261.04 1538.71 2262.84 1542.27 Q2264.67 1545.82 2268.28 1545.82 Q2271.92 1545.82 2273.72 1542.27 Q2275.55 1538.71 2275.55 1531.6 Q2275.55 1524.47 2273.72 1520.93 Q2271.92 1517.37 2268.28 1517.37 M2268.28 1513.66 Q2274.09 1513.66 2277.15 1518.27 Q2280.23 1522.85 2280.23 1531.6 Q2280.23 1540.33 2277.15 1544.94 Q2274.09 1549.52 2268.28 1549.52 Q2262.47 1549.52 2259.39 1544.94 Q2256.34 1540.33 2256.34 1531.6 Q2256.34 1522.85 2259.39 1518.27 Q2262.47 1513.66 2268.28 1513.66 Z" fill="#000000" fill-rule="evenodd" fill-opacity="1" /><path clip-path="url(#clip130)" d="M2298.45 1517.37 Q2294.83 1517.37 2293.01 1520.93 Q2291.2 1524.47 2291.2 1531.6 Q2291.2 1538.71 2293.01 1542.27 Q2294.83 1545.82 2298.45 1545.82 Q2302.08 1545.82 2303.89 1542.27 Q2305.71 1538.71 2305.71 1531.6 Q2305.71 1524.47 2303.89 1520.93 Q2302.08 1517.37 2298.45 1517.37 M2298.45 1513.66 Q2304.26 1513.66 2307.31 1518.27 Q2310.39 1522.85 2310.39 1531.6 Q2310.39 1540.33 2307.31 1544.94 Q2304.26 1549.52 2298.45 1549.52 Q2292.64 1549.52 2289.56 1544.94 Q2286.5 1540.33 2286.5 1531.6 Q2286.5 1522.85 2289.56 1518.27 Q2292.64 1513.66 2298.45 1513.66 Z" fill="#000000" fill-rule="evenodd" fill-opacity="1" /><path clip-path="url(#clip130)" d="M2328.61 1517.37 Q2325 1517.37 2323.17 1520.93 Q2321.36 1524.47 2321.36 1531.6 Q2321.36 1538.71 2323.17 1542.27 Q2325 1545.82 2328.61 1545.82 Q2332.24 1545.82 2334.05 1542.27 Q2335.88 1538.71 2335.88 1531.6 Q2335.88 1524.47 2334.05 1520.93 Q2332.24 1517.37 2328.61 1517.37 M2328.61 1513.66 Q2334.42 1513.66 2337.47 1518.27 Q2340.55 1522.85 2340.55 1531.6 Q2340.55 1540.33 2337.47 1544.94 Q2334.42 1549.52 2328.61 1549.52 Q2322.8 1549.52 2319.72 1544.94 Q2316.66 1540.33 2316.66 1531.6 Q2316.66 1522.85 2319.72 1518.27 Q2322.8 1513.66 2328.61 1513.66 Z" fill="#000000" fill-rule="evenodd" fill-opacity="1" /><path clip-path="url(#clip130)" d="M2362.94 1530.21 Q2366.29 1530.93 2368.17 1533.2 Q2370.07 1535.47 2370.07 1538.8 Q2370.07 1543.92 2366.55 1546.72 Q2363.03 1549.52 2356.55 1549.52 Q2354.37 1549.52 2352.06 1549.08 Q2349.76 1548.66 2347.31 1547.81 L2347.31 1543.29 Q2349.26 1544.43 2351.57 1545.01 Q2353.89 1545.58 2356.41 1545.58 Q2360.81 1545.58 2363.1 1543.85 Q2365.41 1542.11 2365.41 1538.8 Q2365.41 1535.75 2363.26 1534.03 Q2361.13 1532.3 2357.31 1532.3 L2353.28 1532.3 L2353.28 1528.45 L2357.5 1528.45 Q2360.95 1528.45 2362.77 1527.09 Q2364.6 1525.7 2364.6 1523.11 Q2364.6 1520.45 2362.7 1519.03 Q2360.83 1517.6 2357.31 1517.6 Q2355.39 1517.6 2353.19 1518.01 Q2350.99 1518.43 2348.35 1519.31 L2348.35 1515.14 Q2351.01 1514.4 2353.33 1514.03 Q2355.67 1513.66 2357.73 1513.66 Q2363.05 1513.66 2366.15 1516.09 Q2369.26 1518.5 2369.26 1522.62 Q2369.26 1525.49 2367.61 1527.48 Q2365.97 1529.45 2362.94 1530.21 Z" fill="#000000" fill-rule="evenodd" fill-opacity="1" /><polyline clip-path="url(#clip132)" style="stroke:#000000; stroke-linecap:butt; stroke-linejoin:round; stroke-width:2; stroke-opacity:0.1; fill:none" points="
  156.112,1486.45 2352.76,1486.45 
  "/>
<polyline clip-path="url(#clip132)" style="stroke:#000000; stroke-linecap:butt; stroke-linejoin:round; stroke-width:2; stroke-opacity:0.1; fill:none" points="
  156.112,1051.6 2352.76,1051.6 
  "/>
<polyline clip-path="url(#clip132)" style="stroke:#000000; stroke-linecap:butt; stroke-linejoin:round; stroke-width:2; stroke-opacity:0.1; fill:none" points="
  156.112,616.761 2352.76,616.761 
  "/>
<polyline clip-path="url(#clip132)" style="stroke:#000000; stroke-linecap:butt; stroke-linejoin:round; stroke-width:2; stroke-opacity:0.1; fill:none" points="
  156.112,181.918 2352.76,181.918 
  "/>
<polyline clip-path="url(#clip130)" style="stroke:#000000; stroke-linecap:butt; stroke-linejoin:round; stroke-width:4; stroke-opacity:1; fill:none" points="
  156.112,1486.45 156.112,47.2441 
  "/>
<polyline clip-path="url(#clip130)" style="stroke:#000000; stroke-linecap:butt; stroke-linejoin:round; stroke-width:4; stroke-opacity:1; fill:none" points="
  156.112,1486.45 175.01,1486.45 
  "/>
<polyline clip-path="url(#clip130)" style="stroke:#000000; stroke-linecap:butt; stroke-linejoin:round; stroke-width:4; stroke-opacity:1; fill:none" points="
  156.112,1051.6 175.01,1051.6 
  "/>
<polyline clip-path="url(#clip130)" style="stroke:#000000; stroke-linecap:butt; stroke-linejoin:round; stroke-width:4; stroke-opacity:1; fill:none" points="
  156.112,616.761 175.01,616.761 
  "/>
<polyline clip-path="url(#clip130)" style="stroke:#000000; stroke-linecap:butt; stroke-linejoin:round; stroke-width:4; stroke-opacity:1; fill:none" points="
  156.112,181.918 175.01,181.918 
  "/>
<path clip-path="url(#clip130)" d="M62.9365 1472.25 Q59.3254 1472.25 57.4967 1475.81 Q55.6912 1479.35 55.6912 1486.48 Q55.6912 1493.59 57.4967 1497.15 Q59.3254 1500.7 62.9365 1500.7 Q66.5707 1500.7 68.3763 1497.15 Q70.205 1493.59 70.205 1486.48 Q70.205 1479.35 68.3763 1475.81 Q66.5707 1472.25 62.9365 1472.25 M62.9365 1468.54 Q68.7467 1468.54 71.8022 1473.15 Q74.8809 1477.73 74.8809 1486.48 Q74.8809 1495.21 71.8022 1499.82 Q68.7467 1504.4 62.9365 1504.4 Q57.1264 1504.4 54.0477 1499.82 Q50.9921 1495.21 50.9921 1486.48 Q50.9921 1477.73 54.0477 1473.15 Q57.1264 1468.54 62.9365 1468.54 Z" fill="#000000" fill-rule="evenodd" fill-opacity="1" /><path clip-path="url(#clip130)" d="M83.0984 1497.85 L87.9827 1497.85 L87.9827 1503.73 L83.0984 1503.73 L83.0984 1497.85 Z" fill="#000000" fill-rule="evenodd" fill-opacity="1" /><path clip-path="url(#clip130)" d="M108.168 1472.25 Q104.557 1472.25 102.728 1475.81 Q100.922 1479.35 100.922 1486.48 Q100.922 1493.59 102.728 1497.15 Q104.557 1500.7 108.168 1500.7 Q111.802 1500.7 113.608 1497.15 Q115.436 1493.59 115.436 1486.48 Q115.436 1479.35 113.608 1475.81 Q111.802 1472.25 108.168 1472.25 M108.168 1468.54 Q113.978 1468.54 117.033 1473.15 Q120.112 1477.73 120.112 1486.48 Q120.112 1495.21 117.033 1499.82 Q113.978 1504.4 108.168 1504.4 Q102.358 1504.4 99.2789 1499.82 Q96.2234 1495.21 96.2234 1486.48 Q96.2234 1477.73 99.2789 1473.15 Q102.358 1468.54 108.168 1468.54 Z" fill="#000000" fill-rule="evenodd" fill-opacity="1" /><path clip-path="url(#clip130)" d="M64.1634 1037.4 Q60.5523 1037.4 58.7236 1040.97 Q56.918 1044.51 56.918 1051.64 Q56.918 1058.75 58.7236 1062.31 Q60.5523 1065.85 64.1634 1065.85 Q67.7976 1065.85 69.6031 1062.31 Q71.4318 1058.75 71.4318 1051.64 Q71.4318 1044.51 69.6031 1040.97 Q67.7976 1037.4 64.1634 1037.4 M64.1634 1033.7 Q69.9735 1033.7 73.029 1038.31 Q76.1077 1042.89 76.1077 1051.64 Q76.1077 1060.37 73.029 1064.97 Q69.9735 1069.56 64.1634 1069.56 Q58.3532 1069.56 55.2745 1064.97 Q52.219 1060.37 52.219 1051.64 Q52.219 1042.89 55.2745 1038.31 Q58.3532 1033.7 64.1634 1033.7 Z" fill="#000000" fill-rule="evenodd" fill-opacity="1" /><path clip-path="url(#clip130)" d="M84.3253 1063 L89.2095 1063 L89.2095 1068.88 L84.3253 1068.88 L84.3253 1063 Z" fill="#000000" fill-rule="evenodd" fill-opacity="1" /><path clip-path="url(#clip130)" d="M100.205 1064.95 L107.844 1064.95 L107.844 1038.58 L99.5335 1040.25 L99.5335 1035.99 L107.797 1034.32 L112.473 1034.32 L112.473 1064.95 L120.112 1064.95 L120.112 1068.88 L100.205 1068.88 L100.205 1064.95 Z" fill="#000000" fill-rule="evenodd" fill-opacity="1" /><path clip-path="url(#clip130)" d="M64.5337 602.56 Q60.9226 602.56 59.0939 606.125 Q57.2884 609.666 57.2884 616.796 Q57.2884 623.902 59.0939 627.467 Q60.9226 631.009 64.5337 631.009 Q68.168 631.009 69.9735 627.467 Q71.8022 623.902 71.8022 616.796 Q71.8022 609.666 69.9735 606.125 Q68.168 602.56 64.5337 602.56 M64.5337 598.856 Q70.3439 598.856 73.3994 603.463 Q76.4781 608.046 76.4781 616.796 Q76.4781 625.523 73.3994 630.129 Q70.3439 634.713 64.5337 634.713 Q58.7236 634.713 55.6449 630.129 Q52.5893 625.523 52.5893 616.796 Q52.5893 608.046 55.6449 603.463 Q58.7236 598.856 64.5337 598.856 Z" fill="#000000" fill-rule="evenodd" fill-opacity="1" /><path clip-path="url(#clip130)" d="M84.6956 628.162 L89.5799 628.162 L89.5799 634.041 L84.6956 634.041 L84.6956 628.162 Z" fill="#000000" fill-rule="evenodd" fill-opacity="1" /><path clip-path="url(#clip130)" d="M103.793 630.106 L120.112 630.106 L120.112 634.041 L98.1678 634.041 L98.1678 630.106 Q100.83 627.351 105.413 622.722 Q110.02 618.069 111.2 616.726 Q113.445 614.203 114.325 612.467 Q115.228 610.708 115.228 609.018 Q115.228 606.264 113.283 604.527 Q111.362 602.791 108.26 602.791 Q106.061 602.791 103.608 603.555 Q101.177 604.319 98.3993 605.87 L98.3993 601.148 Q101.223 600.014 103.677 599.435 Q106.131 598.856 108.168 598.856 Q113.538 598.856 116.733 601.541 Q119.927 604.227 119.927 608.717 Q119.927 610.847 119.117 612.768 Q118.33 614.666 116.223 617.259 Q115.645 617.93 112.543 621.148 Q109.441 624.342 103.793 630.106 Z" fill="#000000" fill-rule="evenodd" fill-opacity="1" /><path clip-path="url(#clip130)" d="M63.5847 167.717 Q59.9736 167.717 58.1449 171.281 Q56.3393 174.823 56.3393 181.953 Q56.3393 189.059 58.1449 192.624 Q59.9736 196.165 63.5847 196.165 Q67.2189 196.165 69.0244 192.624 Q70.8531 189.059 70.8531 181.953 Q70.8531 174.823 69.0244 171.281 Q67.2189 167.717 63.5847 167.717 M63.5847 164.013 Q69.3948 164.013 72.4503 168.619 Q75.529 173.203 75.529 181.953 Q75.529 190.679 72.4503 195.286 Q69.3948 199.869 63.5847 199.869 Q57.7745 199.869 54.6958 195.286 Q51.6403 190.679 51.6403 181.953 Q51.6403 173.203 54.6958 168.619 Q57.7745 164.013 63.5847 164.013 Z" fill="#000000" fill-rule="evenodd" fill-opacity="1" /><path clip-path="url(#clip130)" d="M83.7466 193.318 L88.6308 193.318 L88.6308 199.198 L83.7466 199.198 L83.7466 193.318 Z" fill="#000000" fill-rule="evenodd" fill-opacity="1" /><path clip-path="url(#clip130)" d="M112.983 180.564 Q116.339 181.281 118.214 183.55 Q120.112 185.818 120.112 189.152 Q120.112 194.267 116.594 197.068 Q113.075 199.869 106.594 199.869 Q104.418 199.869 102.103 199.429 Q99.8113 199.013 97.3576 198.156 L97.3576 193.642 Q99.3021 194.777 101.617 195.355 Q103.932 195.934 106.455 195.934 Q110.853 195.934 113.145 194.198 Q115.459 192.462 115.459 189.152 Q115.459 186.096 113.307 184.383 Q111.177 182.647 107.358 182.647 L103.33 182.647 L103.33 178.804 L107.543 178.804 Q110.992 178.804 112.82 177.439 Q114.649 176.05 114.649 173.457 Q114.649 170.795 112.751 169.383 Q110.876 167.948 107.358 167.948 Q105.436 167.948 103.237 168.365 Q101.038 168.781 98.3993 169.661 L98.3993 165.494 Q101.061 164.754 103.376 164.383 Q105.714 164.013 107.774 164.013 Q113.098 164.013 116.2 166.443 Q119.302 168.851 119.302 172.971 Q119.302 175.842 117.658 177.832 Q116.015 179.8 112.983 180.564 Z" fill="#000000" fill-rule="evenodd" fill-opacity="1" /><polyline clip-path="url(#clip132)" style="stroke:#009af9; stroke-linecap:butt; stroke-linejoin:round; stroke-width:4; stroke-opacity:1; fill:none" points="
  218.281,1486.45 220.356,1486.45 222.43,1486.45 224.504,1486.45 226.579,1486.45 228.653,1486.45 230.728,1486.45 232.802,1486.45 234.876,1486.45 236.951,1486.45 
  239.025,1486.45 241.099,1486.45 243.174,1486.45 245.248,1486.45 247.323,1486.45 249.397,1486.45 251.471,1486.45 253.546,1486.45 255.62,1486.45 257.695,1486.45 
  259.769,1486.45 261.843,1486.45 263.918,1486.45 265.992,1486.45 268.066,1486.45 270.141,1486.45 272.215,1486.45 274.29,1486.45 276.364,1486.45 278.438,1486.45 
  280.513,1486.45 282.587,1486.45 284.661,1486.45 286.736,1486.45 288.81,1486.45 290.885,1486.45 292.959,1486.45 295.033,1486.45 297.108,1486.45 299.182,1486.45 
  301.256,1486.45 303.331,1486.45 305.405,1486.45 307.48,1486.45 309.554,1486.45 311.628,1486.45 313.703,1486.45 315.777,1486.45 317.852,1486.45 319.926,1486.45 
  322,1486.45 324.075,1486.45 326.149,1486.45 328.223,1486.45 330.298,1486.45 332.372,1486.45 334.447,1486.45 336.521,1486.45 338.595,1486.45 340.67,1486.45 
  342.744,1486.45 344.818,1486.45 346.893,1486.45 348.967,1486.45 351.042,1486.45 353.116,1486.45 355.19,1486.45 357.265,1486.45 359.339,1486.45 361.413,1486.45 
  363.488,1486.45 365.562,1486.45 367.637,1486.45 369.711,1486.45 371.785,1486.45 373.86,1486.45 375.934,1486.45 378.009,1486.45 380.083,1486.45 382.157,1486.45 
  384.232,1486.45 386.306,1486.45 388.38,1486.45 390.455,1486.45 392.529,1486.45 394.604,1486.45 396.678,1486.45 398.752,1486.45 400.827,1486.45 402.901,1486.45 
  404.975,1486.45 407.05,1486.45 409.124,1486.45 411.199,1486.45 413.273,1486.45 415.347,1486.45 417.422,1486.45 419.496,1486.45 421.571,1486.45 423.645,1486.45 
  425.719,1486.45 427.794,1486.45 429.868,1486.45 431.942,1486.45 434.017,1486.45 436.091,1486.45 438.166,1486.45 440.24,1486.45 442.314,1486.45 444.389,1486.45 
  446.463,1486.45 448.537,1486.45 450.612,1486.45 452.686,1486.45 454.761,1486.45 456.835,1486.45 458.909,1486.45 460.984,1486.45 463.058,1486.45 465.132,1486.45 
  467.207,1486.45 469.281,1486.45 471.356,1486.45 473.43,1486.45 475.504,1486.45 477.579,1486.45 479.653,1486.45 481.728,1486.45 483.802,1486.45 485.876,1486.45 
  487.951,1486.45 490.025,1486.45 492.099,1486.45 494.174,1486.45 496.248,1486.45 498.323,1486.45 500.397,1486.45 502.471,1486.45 504.546,1486.45 506.62,1486.45 
  508.694,1486.45 510.769,1486.45 512.843,1486.45 514.918,1486.45 516.992,1486.45 519.066,1486.45 521.141,1486.45 523.215,1486.45 525.29,1486.45 527.364,1486.45 
  529.438,1486.45 531.513,1486.45 533.587,1486.45 535.661,1486.45 537.736,1486.45 539.81,1486.45 541.885,1486.45 543.959,1486.45 546.033,1486.45 548.108,1486.45 
  550.182,1486.45 552.256,1486.45 554.331,1486.45 556.405,1486.45 558.48,1486.45 560.554,1486.45 562.628,1486.45 564.703,1486.45 566.777,1486.45 568.851,1486.45 
  570.926,1486.45 573,1486.45 575.075,1486.45 577.149,1486.45 579.223,1486.45 581.298,1486.45 583.372,1486.45 585.447,1486.45 587.521,1486.45 589.595,1486.45 
  591.67,1486.45 593.744,1486.45 595.818,1486.45 597.893,1486.45 599.967,1486.45 602.042,1486.45 604.116,1486.45 606.19,1486.45 608.265,1486.45 610.339,1486.45 
  612.413,1486.45 614.488,1486.45 616.562,1486.45 618.637,1486.45 620.711,1486.45 622.785,1486.45 624.86,1486.45 626.934,1486.45 629.008,1486.45 631.083,1486.45 
  633.157,1486.45 635.232,1486.45 637.306,1486.45 639.38,1486.45 641.455,1486.45 643.529,1486.45 645.604,1486.45 647.678,1486.45 649.752,1486.45 651.827,1486.45 
  653.901,1486.45 655.975,1486.45 658.05,1486.45 660.124,1486.45 662.199,1486.45 664.273,1486.45 666.347,1486.45 668.422,1486.45 670.496,1486.45 672.57,1486.45 
  674.645,1486.45 676.719,1486.45 678.794,1486.45 680.868,1486.45 682.942,1486.45 685.017,1486.45 687.091,1486.45 689.166,1486.45 691.24,1486.45 693.314,1486.45 
  695.389,1486.45 697.463,1486.45 699.537,1486.45 701.612,1486.45 703.686,1486.45 705.761,1486.45 707.835,1486.45 709.909,1486.45 711.984,1486.45 714.058,1486.45 
  716.132,1486.45 718.207,1486.45 720.281,1486.45 722.356,1486.45 724.43,1486.45 726.504,1486.45 728.579,1486.45 730.653,1486.45 732.727,1486.45 734.802,1486.45 
  736.876,1486.45 738.951,1486.45 741.025,1486.45 743.099,1486.45 745.174,1486.45 747.248,1486.45 749.323,1486.45 751.397,1486.45 753.471,1486.45 755.546,1486.45 
  757.62,1486.45 759.694,1486.45 761.769,1486.45 763.843,1486.45 765.918,1486.45 767.992,1486.45 770.066,1486.45 772.141,1486.45 774.215,1486.45 776.289,1486.45 
  778.364,1486.45 780.438,1486.45 782.513,1486.45 784.587,1486.45 786.661,1486.45 788.736,1486.45 790.81,1486.45 792.885,1486.45 794.959,1486.45 797.033,1486.45 
  799.108,1486.45 801.182,1486.45 803.256,1486.45 805.331,1486.45 807.405,1486.45 809.48,1486.45 811.554,1486.45 813.628,1486.45 815.703,1486.45 817.777,1486.45 
  819.851,1486.45 821.926,1486.45 824,1486.45 826.075,1486.45 828.149,1486.45 830.223,1486.45 832.298,1486.45 834.372,1486.45 836.446,1486.45 838.521,1486.45 
  840.595,1486.45 842.67,1486.45 844.744,1486.45 846.818,1486.45 848.893,1486.45 850.967,1486.45 853.042,1486.45 855.116,1486.45 857.19,1486.45 859.265,1486.45 
  861.339,1486.45 863.413,1486.45 865.488,1486.45 867.562,1486.45 869.637,1486.45 871.711,1486.45 873.785,1486.45 875.86,1486.45 877.934,1486.45 880.008,1486.45 
  882.083,1486.45 884.157,1486.45 886.232,1486.45 888.306,1486.45 890.38,1486.45 892.455,1486.45 894.529,1486.45 896.603,1486.45 898.678,1486.45 900.752,1486.45 
  902.827,1486.45 904.901,1486.45 906.975,1486.45 909.05,1486.45 911.124,1486.45 913.199,1486.45 915.273,1486.45 917.347,1486.45 919.422,1486.45 921.496,1486.45 
  923.57,1486.45 925.645,1486.45 927.719,1486.45 929.794,1486.45 931.868,1486.45 933.942,1486.45 936.017,1486.45 938.091,1486.45 940.165,1486.45 942.24,1486.45 
  944.314,1486.45 946.389,1486.44 948.463,1486.44 950.537,1486.44 952.612,1486.43 954.686,1486.42 956.761,1486.4 958.835,1486.38 960.909,1486.34 962.984,1486.3 
  965.058,1486.24 967.132,1486.16 969.207,1486.06 971.281,1485.94 973.356,1485.78 975.43,1485.6 977.504,1485.37 979.579,1485.1 981.653,1484.77 983.727,1484.39 
  985.802,1483.95 987.876,1483.44 989.951,1482.85 992.025,1482.18 994.099,1481.41 996.174,1480.56 998.248,1479.59 1000.32,1478.52 1002.4,1477.32 1004.47,1476 
  1006.55,1474.54 1008.62,1472.95 1010.69,1471.2 1012.77,1469.29 1014.84,1467.22 1016.92,1464.97 1018.99,1462.54 1021.07,1459.93 1023.14,1457.11 1025.22,1454.09 
  1027.29,1450.86 1029.36,1447.41 1031.44,1443.72 1033.51,1439.8 1035.59,1435.64 1037.66,1431.23 1039.74,1426.55 1041.81,1421.61 1043.88,1416.4 1045.96,1410.9 
  1048.03,1405.11 1050.11,1399.02 1052.18,1392.62 1054.26,1385.92 1056.33,1378.89 1058.41,1371.53 1060.48,1363.84 1062.55,1355.8 1064.63,1347.42 1066.7,1338.67 
  1068.78,1329.56 1070.85,1320.07 1072.93,1310.2 1075,1299.94 1077.07,1289.28 1079.15,1278.22 1081.22,1266.74 1083.3,1254.85 1085.37,1242.52 1087.45,1229.76 
  1089.52,1216.56 1091.6,1202.91 1093.67,1188.8 1095.74,1174.23 1097.82,1159.18 1099.89,1143.65 1101.97,1127.64 1104.04,1111.13 1106.12,1094.13 1108.19,1076.61 
  1110.26,1058.59 1112.34,1040.04 1114.41,1020.97 1116.49,1001.36 1118.56,981.222 1120.64,960.537 1122.71,939.302 1124.79,917.514 1126.86,895.167 1128.93,872.257 
  1131.01,848.78 1133.08,824.732 1135.16,800.109 1137.23,774.908 1139.31,749.128 1141.38,722.765 1143.45,695.817 1145.53,668.285 1147.6,640.166 1149.68,611.46 
  1151.75,582.169 1153.83,552.292 1155.9,521.832 1157.98,489.977 1160.05,457.63 1162.12,426.511 1164.2,396.639 1166.27,368.029 1168.35,340.697 1170.42,314.655 
  1172.5,289.913 1174.57,266.478 1176.64,244.355 1178.72,223.546 1180.79,204.05 1182.87,185.86 1184.94,168.97 1187.02,153.367 1189.09,139.032 1191.17,125.946 
  1193.24,114.081 1195.31,103.406 1197.39,93.8835 1199.46,85.4698 1201.54,78.1158 1203.61,71.7661 1205.69,66.3596 1207.76,61.8292 1209.83,58.1023 1211.91,55.1014 
  1213.98,52.7449 1216.06,50.9483 1218.13,49.6259 1220.21,48.6931 1222.28,48.0682 1224.36,47.6754 1226.43,47.4475 1228.5,47.3281 1230.58,47.2732 1232.65,47.2521 
  1234.73,47.2457 1236.8,47.2443 1238.88,47.2441 1240.95,47.2441 1243.02,47.2441 1245.1,47.2441 1247.17,47.2441 1249.25,47.2441 1251.32,47.2441 1253.4,47.2441 
  1255.47,47.2441 1257.55,47.2441 1259.62,47.2441 1261.69,47.2441 1263.77,47.2441 1265.84,47.2441 1267.92,47.2441 1269.99,47.2441 1272.07,47.2441 1274.14,47.2441 
  1276.22,47.2441 1278.29,47.2441 1280.36,47.2441 1282.44,47.2441 1284.51,47.2441 1286.59,47.2441 1288.66,47.2441 1290.74,47.2441 1292.81,47.2441 1294.88,47.2441 
  1296.96,47.2441 1299.03,47.2441 1301.11,47.2441 1303.18,47.2441 1305.26,47.2441 1307.33,47.2441 1309.41,47.2441 1311.48,47.2441 1313.55,47.2441 1315.63,47.2441 
  1317.7,47.2441 1319.78,47.2441 1321.85,47.2441 1323.93,47.2441 1326,47.2441 1328.07,47.2441 1330.15,47.2441 1332.22,47.2441 1334.3,47.2441 1336.37,47.2441 
  1338.45,47.2441 1340.52,47.2441 1342.6,47.2441 1344.67,47.2441 1346.74,47.2441 1348.82,47.2441 1350.89,47.2441 1352.97,47.2441 1355.04,47.2441 1357.12,47.2441 
  1359.19,47.2441 1361.26,47.2441 1363.34,47.2441 1365.41,47.2441 1367.49,47.2441 1369.56,47.2441 1371.64,47.2441 1373.71,47.2441 1375.79,47.2441 1377.86,47.2441 
  1379.93,47.2441 1382.01,47.2441 1384.08,47.2441 1386.16,47.2441 1388.23,47.2441 1390.31,47.2441 1392.38,47.2441 1394.45,47.2441 1396.53,47.2441 1398.6,47.2441 
  1400.68,47.2441 1402.75,47.2441 1404.83,47.2441 1406.9,47.2441 1408.98,47.2441 1411.05,47.2441 1413.12,47.2441 1415.2,47.2441 1417.27,47.2441 1419.35,47.2441 
  1421.42,47.2441 1423.5,47.2441 1425.57,47.2441 1427.64,47.2441 1429.72,47.2441 1431.79,47.2441 1433.87,47.2441 1435.94,47.2441 1438.02,47.2441 1440.09,47.2441 
  1442.17,47.2441 1444.24,47.2441 1446.31,47.2441 1448.39,47.2441 1450.46,47.2441 1452.54,47.2441 1454.61,47.2441 1456.69,47.2441 1458.76,47.2441 1460.83,47.2441 
  1462.91,47.2441 1464.98,47.2441 1467.06,47.2441 1469.13,47.2441 1471.21,47.2441 1473.28,47.2441 1475.36,47.2441 1477.43,47.2441 1479.5,47.2441 1481.58,47.2441 
  1483.65,47.2441 1485.73,47.2441 1487.8,47.2441 1489.88,47.2441 1491.95,47.2441 1494.02,47.2441 1496.1,47.2441 1498.17,47.2441 1500.25,47.2441 1502.32,47.2441 
  1504.4,47.2441 1506.47,47.2441 1508.55,47.2441 1510.62,47.2441 1512.69,47.2441 1514.77,47.2441 1516.84,47.2441 1518.92,47.2441 1520.99,47.2441 1523.07,47.2441 
  1525.14,47.2441 1527.21,47.2441 1529.29,47.2441 1531.36,47.2441 1533.44,47.2441 1535.51,47.2441 1537.59,47.2441 1539.66,47.2441 1541.74,47.2441 1543.81,47.2441 
  1545.88,47.2441 1547.96,47.2441 1550.03,47.2441 1552.11,47.2441 1554.18,47.2441 1556.26,47.2441 1558.33,47.2441 1560.41,47.2441 1562.48,47.2441 1564.55,47.2441 
  1566.63,47.2441 1568.7,47.2441 1570.78,47.2441 1572.85,47.2441 1574.93,47.2441 1577,47.2441 1579.07,47.2441 1581.15,47.2441 1583.22,47.2441 1585.3,47.2441 
  1587.37,47.2441 1589.45,47.2441 1591.52,47.2441 1593.6,47.2441 1595.67,47.2441 1597.74,47.2441 1599.82,47.2441 1601.89,47.2441 1603.97,47.2441 1606.04,47.2441 
  1608.12,47.2441 1610.19,47.2441 1612.26,47.2441 1614.34,47.2441 1616.41,47.2441 1618.49,47.2441 1620.56,47.2441 1622.64,47.2441 1624.71,47.2441 1626.79,47.2441 
  1628.86,47.2441 1630.93,47.2441 1633.01,47.2441 1635.08,47.2441 1637.16,47.2441 1639.23,47.2441 1641.31,47.2441 1643.38,47.2441 1645.45,47.2441 1647.53,47.2441 
  1649.6,47.2441 1651.68,47.2441 1653.75,47.2441 1655.83,47.2441 1657.9,47.2441 1659.98,47.2441 1662.05,47.2441 1664.12,47.2441 1666.2,47.2441 1668.27,47.2441 
  1670.35,47.2441 1672.42,47.2441 1674.5,47.2441 1676.57,47.2441 1678.64,47.2441 1680.72,47.2441 1682.79,47.2441 1684.87,47.2441 1686.94,47.2441 1689.02,47.2441 
  1691.09,47.2441 1693.17,47.2441 1695.24,47.2441 1697.31,47.2441 1699.39,47.2441 1701.46,47.2441 1703.54,47.2441 1705.61,47.2441 1707.69,47.2441 1709.76,47.2441 
  1711.83,47.2441 1713.91,47.2441 1715.98,47.2441 1718.06,47.2441 1720.13,47.2441 1722.21,47.2441 1724.28,47.2441 1726.36,47.2441 1728.43,47.2441 1730.5,47.2441 
  1732.58,47.2441 1734.65,47.2441 1736.73,47.2441 1738.8,47.2441 1740.88,47.2441 1742.95,47.2441 1745.02,47.2441 1747.1,47.2441 1749.17,47.2441 1751.25,47.2441 
  1753.32,47.2441 1755.4,47.2441 1757.47,47.2441 1759.55,47.2441 1761.62,47.2441 1763.69,47.2441 1765.77,47.2441 1767.84,47.2441 1769.92,47.2441 1771.99,47.2441 
  1774.07,47.2441 1776.14,47.2441 1778.21,47.2441 1780.29,47.2441 1782.36,47.2441 1784.44,47.2441 1786.51,47.2441 1788.59,47.2441 1790.66,47.2441 1792.74,47.2441 
  1794.81,47.2441 1796.88,47.2441 1798.96,47.2441 1801.03,47.2441 1803.11,47.2441 1805.18,47.2441 1807.26,47.2441 1809.33,47.2441 1811.41,47.2441 1813.48,47.2441 
  1815.55,47.2441 1817.63,47.2441 1819.7,47.2441 1821.78,47.2441 1823.85,47.2441 1825.93,47.2441 1828,47.2441 1830.07,47.2441 1832.15,47.2441 1834.22,47.2441 
  1836.3,47.2441 1838.37,47.2441 1840.45,47.2441 1842.52,47.2441 1844.6,47.2441 1846.67,47.2441 1848.74,47.2441 1850.82,47.2441 1852.89,47.2441 1854.97,47.2441 
  1857.04,47.2441 1859.12,47.2441 1861.19,47.2441 1863.26,47.2441 1865.34,47.2441 1867.41,47.2441 1869.49,47.2441 1871.56,47.2441 1873.64,47.2441 1875.71,47.2441 
  1877.79,47.2441 1879.86,47.2441 1881.93,47.2441 1884.01,47.2441 1886.08,47.2441 1888.16,47.2441 1890.23,47.2441 1892.31,47.2441 1894.38,47.2441 1896.45,47.2441 
  1898.53,47.2441 1900.6,47.2441 1902.68,47.2441 1904.75,47.2441 1906.83,47.2441 1908.9,47.2441 1910.98,47.2441 1913.05,47.2441 1915.12,47.2441 1917.2,47.2441 
  1919.27,47.2441 1921.35,47.2441 1923.42,47.2441 1925.5,47.2441 1927.57,47.2441 1929.64,47.2441 1931.72,47.2441 1933.79,47.2441 1935.87,47.2441 1937.94,47.2441 
  1940.02,47.2441 1942.09,47.2441 1944.17,47.2441 1946.24,47.2441 1948.31,47.2441 1950.39,47.2441 1952.46,47.2441 1954.54,47.2441 1956.61,47.2441 1958.69,47.2441 
  1960.76,47.2441 1962.83,47.2441 1964.91,47.2441 1966.98,47.2441 1969.06,47.2441 1971.13,47.2441 1973.21,47.2441 1975.28,47.2441 1977.36,47.2441 1979.43,47.2441 
  1981.5,47.2441 1983.58,47.2441 1985.65,47.2441 1987.73,47.2441 1989.8,47.2441 1991.88,47.2441 1993.95,47.2441 1996.02,47.2441 1998.1,47.2441 2000.17,47.2441 
  2002.25,47.2441 2004.32,47.2441 2006.4,47.2441 2008.47,47.2441 2010.55,47.2441 2012.62,47.2441 2014.69,47.2441 2016.77,47.2441 2018.84,47.2441 2020.92,47.2441 
  2022.99,47.2441 2025.07,47.2441 2027.14,47.2441 2029.21,47.2441 2031.29,47.2441 2033.36,47.2441 2035.44,47.2441 2037.51,47.2441 2039.59,47.2441 2041.66,47.2441 
  2043.74,47.2441 2045.81,47.2441 2047.88,47.2441 2049.96,47.2441 2052.03,47.2441 2054.11,47.2441 2056.18,47.2441 2058.26,47.2441 2060.33,47.2441 2062.4,47.2441 
  2064.48,47.2441 2066.55,47.2441 2068.63,47.2441 2070.7,47.2441 2072.78,47.2441 2074.85,47.2441 2076.93,47.2441 2079,47.2441 2081.07,47.2441 2083.15,47.2441 
  2085.22,47.2441 2087.3,47.2441 2089.37,47.2441 2091.45,47.2441 2093.52,47.2441 2095.6,47.2441 2097.67,47.2441 2099.74,47.2441 2101.82,47.2441 2103.89,47.2441 
  2105.97,47.2441 2108.04,47.2441 2110.12,47.2441 2112.19,47.2441 2114.26,47.2441 2116.34,47.2441 2118.41,47.2441 2120.49,47.2441 2122.56,47.2441 2124.64,47.2441 
  2126.71,47.2441 2128.79,47.2441 2130.86,47.2441 2132.93,47.2441 2135.01,47.2441 2137.08,47.2441 2139.16,47.2441 2141.23,47.2441 2143.31,47.2441 2145.38,47.2441 
  2147.45,47.2441 2149.53,47.2441 2151.6,47.2441 2153.68,47.2441 2155.75,47.2441 2157.83,47.2441 2159.9,47.2441 2161.98,47.2441 2164.05,47.2441 2166.12,47.2441 
  2168.2,47.2441 2170.27,47.2441 2172.35,47.2441 2174.42,47.2441 2176.5,47.2441 2178.57,47.2441 2180.64,47.2441 2182.72,47.2441 2184.79,47.2441 2186.87,47.2441 
  2188.94,47.2441 2191.02,47.2441 2193.09,47.2441 2195.17,47.2441 2197.24,47.2441 2199.31,47.2441 2201.39,47.2441 2203.46,47.2441 2205.54,47.2441 2207.61,47.2441 
  2209.69,47.2441 2211.76,47.2441 2213.83,47.2441 2215.91,47.2441 2217.98,47.2441 2220.06,47.2441 2222.13,47.2441 2224.21,47.2441 2226.28,47.2441 2228.36,47.2441 
  2230.43,47.2441 2232.5,47.2441 2234.58,47.2441 2236.65,47.2441 2238.73,47.2441 2240.8,47.2441 2242.88,47.2441 2244.95,47.2441 2247.02,47.2441 2249.1,47.2441 
  2251.17,47.2441 2253.25,47.2441 2255.32,47.2441 2257.4,47.2441 2259.47,47.2441 2261.55,47.2441 2263.62,47.2441 2265.69,47.2441 2267.77,47.2441 2269.84,47.2441 
  2271.92,47.2441 2273.99,47.2441 2276.07,47.2441 2278.14,47.2441 2280.21,47.2441 2282.29,47.2441 2284.36,47.2441 2286.44,47.2441 2288.51,47.2441 2290.59,47.2441 
  
  "/>
<polyline clip-path="url(#clip132)" style="stroke:#e26f46; stroke-linecap:butt; stroke-linejoin:round; stroke-width:4; stroke-opacity:1; fill:none" points="
  218.281,835.962 220.356,835.962 222.43,835.962 224.504,835.962 226.579,835.962 228.653,835.962 230.728,835.962 232.802,835.962 234.876,835.962 236.951,835.962 
  239.025,835.962 241.099,835.962 243.174,835.962 245.248,835.962 247.323,835.962 249.397,835.962 251.471,835.962 253.546,835.962 255.62,835.962 257.695,835.962 
  259.769,835.962 261.843,835.962 263.918,835.962 265.992,835.962 268.066,835.962 270.141,835.962 272.215,835.962 274.29,835.962 276.364,835.962 278.438,835.962 
  280.513,835.962 282.587,835.962 284.661,835.962 286.736,835.962 288.81,835.962 290.885,835.962 292.959,835.962 295.033,835.962 297.108,835.962 299.182,835.962 
  301.256,835.962 303.331,835.962 305.405,835.962 307.48,835.962 309.554,835.962 311.628,835.962 313.703,835.962 315.777,835.962 317.852,835.962 319.926,835.962 
  322,835.962 324.075,835.962 326.149,835.962 328.223,835.962 330.298,835.962 332.372,835.962 334.447,835.962 336.521,835.962 338.595,835.962 340.67,835.962 
  342.744,835.962 344.818,835.962 346.893,835.962 348.967,835.962 351.042,835.962 353.116,835.962 355.19,835.962 357.265,835.962 359.339,835.962 361.413,835.962 
  363.488,835.962 365.562,835.962 367.637,835.962 369.711,835.962 371.785,835.962 373.86,835.962 375.934,835.962 378.009,835.962 380.083,835.962 382.157,835.962 
  384.232,835.962 386.306,835.962 388.38,835.962 390.455,835.962 392.529,835.962 394.604,835.962 396.678,835.962 398.752,835.962 400.827,835.962 402.901,835.962 
  404.975,835.962 407.05,835.962 409.124,835.962 411.199,835.962 413.273,835.962 415.347,835.962 417.422,835.962 419.496,835.962 421.571,835.962 423.645,835.962 
  425.719,835.962 427.794,835.962 429.868,835.962 431.942,835.962 434.017,835.962 436.091,835.962 438.166,835.962 440.24,835.962 442.314,835.962 444.389,835.962 
  446.463,835.962 448.537,835.962 450.612,835.962 452.686,835.962 454.761,835.962 456.835,835.962 458.909,835.962 460.984,835.962 463.058,835.962 465.132,835.962 
  467.207,835.962 469.281,835.962 471.356,835.962 473.43,835.962 475.504,835.962 477.579,835.962 479.653,835.962 481.728,835.962 483.802,835.962 485.876,835.962 
  487.951,835.962 490.025,835.962 492.099,835.962 494.174,835.962 496.248,835.962 498.323,835.962 500.397,835.962 502.471,835.962 504.546,835.962 506.62,835.962 
  508.694,835.962 510.769,835.962 512.843,835.962 514.918,835.962 516.992,835.962 519.066,835.962 521.141,835.962 523.215,835.962 525.29,835.962 527.364,835.962 
  529.438,835.962 531.513,835.962 533.587,835.962 535.661,835.962 537.736,835.962 539.81,835.962 541.885,835.962 543.959,835.962 546.033,835.962 548.108,835.962 
  550.182,835.962 552.256,835.962 554.331,835.962 556.405,835.962 558.48,835.962 560.554,835.962 562.628,835.962 564.703,835.962 566.777,835.962 568.851,835.962 
  570.926,835.962 573,835.962 575.075,835.962 577.149,835.962 579.223,835.962 581.298,835.962 583.372,835.962 585.447,835.962 587.521,835.962 589.595,835.962 
  591.67,835.962 593.744,835.962 595.818,835.962 597.893,835.962 599.967,835.962 602.042,835.962 604.116,835.962 606.19,835.962 608.265,835.962 610.339,835.962 
  612.413,835.962 614.488,835.962 616.562,835.962 618.637,835.962 620.711,835.962 622.785,835.962 624.86,835.962 626.934,835.962 629.008,835.962 631.083,835.962 
  633.157,835.962 635.232,835.962 637.306,835.962 639.38,835.962 641.455,835.962 643.529,835.962 645.604,835.962 647.678,835.962 649.752,835.962 651.827,835.962 
  653.901,835.962 655.975,835.962 658.05,835.962 660.124,835.962 662.199,835.962 664.273,835.962 666.347,835.962 668.422,835.962 670.496,835.962 672.57,835.962 
  674.645,835.962 676.719,835.962 678.794,835.962 680.868,835.962 682.942,835.962 685.017,835.962 687.091,835.962 689.166,835.962 691.24,835.962 693.314,835.962 
  695.389,835.962 697.463,835.962 699.537,835.962 701.612,835.962 703.686,835.962 705.761,835.962 707.835,835.962 709.909,835.962 711.984,835.962 714.058,835.962 
  716.132,835.962 718.207,835.962 720.281,835.962 722.356,835.962 724.43,835.962 726.504,835.962 728.579,835.962 730.653,835.962 732.727,835.962 734.802,835.962 
  736.876,835.962 738.951,835.962 741.025,835.962 743.099,835.962 745.174,835.962 747.248,835.962 749.323,835.962 751.397,835.962 753.471,835.962 755.546,835.962 
  757.62,835.962 759.694,835.962 761.769,835.962 763.843,835.962 765.918,835.962 767.992,835.962 770.066,835.962 772.141,835.962 774.215,835.962 776.289,835.962 
  778.364,835.962 780.438,835.962 782.513,835.962 784.587,835.962 786.661,835.962 788.736,835.962 790.81,835.962 792.885,835.962 794.959,835.962 797.033,835.962 
  799.108,835.962 801.182,835.962 803.256,835.962 805.331,835.962 807.405,835.962 809.48,835.962 811.554,835.962 813.628,835.962 815.703,835.962 817.777,835.962 
  819.851,835.962 821.926,835.962 824,835.962 826.075,835.962 828.149,835.962 830.223,835.962 832.298,835.962 834.372,835.962 836.446,835.962 838.521,835.962 
  840.595,835.962 842.67,835.962 844.744,835.962 846.818,835.962 848.893,835.962 850.967,835.962 853.042,835.962 855.116,835.962 857.19,835.962 859.265,835.962 
  861.339,835.962 863.413,835.962 865.488,835.962 867.562,835.962 869.637,835.962 871.711,835.962 873.785,835.962 875.86,835.962 877.934,835.962 880.008,835.962 
  882.083,835.962 884.157,835.962 886.232,835.962 888.306,835.962 890.38,835.962 892.455,835.962 894.529,835.962 896.603,835.962 898.678,835.962 900.752,835.962 
  902.827,835.962 904.901,835.962 906.975,835.962 909.05,835.962 911.124,835.962 913.199,835.962 915.273,835.962 917.347,835.962 919.422,835.962 921.496,835.962 
  923.57,835.962 925.645,835.962 927.719,835.962 929.794,835.962 931.868,835.962 933.942,835.962 936.017,835.962 938.091,835.962 940.165,835.962 942.24,835.962 
  944.314,835.962 946.389,835.962 948.463,835.962 950.537,835.962 952.612,835.962 954.686,835.962 956.761,835.962 958.835,835.962 960.909,835.962 962.984,835.963 
  965.058,835.964 967.132,835.965 969.207,835.966 971.281,835.969 973.356,835.972 975.43,835.977 977.504,835.984 979.579,835.993 981.653,836.005 983.727,836.02 
  985.802,836.04 987.876,836.065 989.951,836.097 992.025,836.137 994.099,836.186 996.174,836.245 998.248,836.317 1000.32,836.403 1002.4,836.506 1004.47,836.627 
  1006.55,836.769 1008.62,836.935 1010.69,837.127 1012.77,837.348 1014.84,837.602 1016.92,837.893 1018.99,838.222 1021.07,838.595 1023.14,839.015 1025.22,839.487 
  1027.29,840.014 1029.36,840.602 1031.44,841.256 1033.51,841.979 1035.59,842.778 1037.66,843.657 1039.74,844.623 1041.81,845.681 1043.88,846.838 1045.96,848.099 
  1048.03,849.471 1050.11,850.961 1052.18,852.575 1054.26,854.32 1056.33,856.19 1058.41,858.183 1060.48,860.303 1062.55,862.557 1064.63,864.95 1066.7,867.487 
  1068.78,870.174 1070.85,873.018 1072.93,876.024 1075,879.198 1077.07,882.548 1079.15,886.08 1081.22,889.8 1083.3,893.717 1085.37,897.836 1087.45,902.167 
  1089.52,906.715 1091.6,911.49 1093.67,916.499 1095.74,921.75 1097.82,927.254 1099.89,933.018 1101.97,939.051 1104.04,945.364 1106.12,951.966 1108.19,958.867 
  1110.26,966.077 1112.34,973.608 1114.41,981.471 1116.49,989.677 1118.56,998.237 1120.64,1007.17 1122.71,1016.47 1124.79,1026.18 1126.86,1036.28 1128.93,1046.81 
  1131.01,1057.78 1133.08,1069.19 1135.16,1081.08 1137.23,1093.44 1139.31,1106.3 1141.38,1119.68 1143.45,1133.6 1145.53,1148.07 1147.6,1163.11 1149.68,1178.74 
  1151.75,1194.99 1153.83,1211.87 1155.9,1229.4 1157.98,1248.29 1160.05,1267.82 1162.12,1286.58 1164.2,1304.53 1166.27,1321.66 1168.35,1337.92 1170.42,1353.31 
  1172.5,1367.81 1174.57,1381.39 1176.64,1394.06 1178.72,1405.81 1180.79,1416.65 1182.87,1426.57 1184.94,1435.6 1187.02,1443.75 1189.09,1451.04 1191.17,1457.51 
  1193.24,1463.2 1195.31,1468.14 1197.39,1472.36 1199.46,1475.85 1201.54,1478.66 1203.61,1480.86 1205.69,1482.56 1207.76,1483.83 1209.83,1484.75 1211.91,1485.39 
  1213.98,1485.82 1216.06,1486.1 1218.13,1486.27 1220.21,1486.36 1222.28,1486.41 1224.36,1486.43 1226.43,1486.44 1228.5,1486.45 1230.58,1486.45 1232.65,1486.45 
  1234.73,1486.45 1236.8,1486.45 1238.88,1486.45 1240.95,1486.45 1243.02,1486.45 1245.1,1486.45 1247.17,1486.45 1249.25,1486.45 1251.32,1486.45 1253.4,1486.45 
  1255.47,1486.45 1257.55,1486.45 1259.62,1486.45 1261.69,1486.45 1263.77,1486.45 1265.84,1486.45 1267.92,1486.45 1269.99,1486.45 1272.07,1486.45 1274.14,1486.45 
  1276.22,1486.45 1278.29,1486.45 1280.36,1486.45 1282.44,1486.45 1284.51,1486.45 1286.59,1486.45 1288.66,1486.45 1290.74,1486.45 1292.81,1486.45 1294.88,1486.45 
  1296.96,1486.45 1299.03,1486.45 1301.11,1486.45 1303.18,1486.45 1305.26,1486.45 1307.33,1486.45 1309.41,1486.45 1311.48,1486.45 1313.55,1486.45 1315.63,1486.45 
  1317.7,1486.45 1319.78,1486.45 1321.85,1486.45 1323.93,1486.45 1326,1486.45 1328.07,1486.45 1330.15,1486.45 1332.22,1486.45 1334.3,1486.45 1336.37,1486.45 
  1338.45,1486.45 1340.52,1486.45 1342.6,1486.45 1344.67,1486.45 1346.74,1486.45 1348.82,1486.45 1350.89,1486.45 1352.97,1486.45 1355.04,1486.45 1357.12,1486.45 
  1359.19,1486.45 1361.26,1486.45 1363.34,1486.45 1365.41,1486.45 1367.49,1486.45 1369.56,1486.45 1371.64,1486.45 1373.71,1486.45 1375.79,1486.45 1377.86,1486.45 
  1379.93,1486.45 1382.01,1486.45 1384.08,1486.45 1386.16,1486.45 1388.23,1486.45 1390.31,1486.45 1392.38,1486.45 1394.45,1486.45 1396.53,1486.45 1398.6,1486.45 
  1400.68,1486.45 1402.75,1486.45 1404.83,1486.45 1406.9,1486.45 1408.98,1486.45 1411.05,1486.45 1413.12,1486.45 1415.2,1486.45 1417.27,1486.45 1419.35,1486.45 
  1421.42,1486.45 1423.5,1486.45 1425.57,1486.45 1427.64,1486.45 1429.72,1486.45 1431.79,1486.45 1433.87,1486.45 1435.94,1486.45 1438.02,1486.45 1440.09,1486.45 
  1442.17,1486.45 1444.24,1486.45 1446.31,1486.45 1448.39,1486.45 1450.46,1486.45 1452.54,1486.45 1454.61,1486.45 1456.69,1486.45 1458.76,1486.45 1460.83,1486.45 
  1462.91,1486.45 1464.98,1486.45 1467.06,1486.45 1469.13,1486.45 1471.21,1486.45 1473.28,1486.45 1475.36,1486.45 1477.43,1486.45 1479.5,1486.45 1481.58,1486.45 
  1483.65,1486.45 1485.73,1486.45 1487.8,1486.45 1489.88,1486.45 1491.95,1486.45 1494.02,1486.45 1496.1,1486.45 1498.17,1486.45 1500.25,1486.45 1502.32,1486.45 
  1504.4,1486.45 1506.47,1486.45 1508.55,1486.45 1510.62,1486.45 1512.69,1486.45 1514.77,1486.45 1516.84,1486.45 1518.92,1486.45 1520.99,1486.45 1523.07,1486.45 
  1525.14,1486.45 1527.21,1486.45 1529.29,1486.45 1531.36,1486.45 1533.44,1486.45 1535.51,1486.45 1537.59,1486.45 1539.66,1486.45 1541.74,1486.45 1543.81,1486.45 
  1545.88,1486.45 1547.96,1486.45 1550.03,1486.45 1552.11,1486.45 1554.18,1486.45 1556.26,1486.45 1558.33,1486.45 1560.41,1486.45 1562.48,1486.45 1564.55,1486.45 
  1566.63,1486.45 1568.7,1486.45 1570.78,1486.45 1572.85,1486.45 1574.93,1486.45 1577,1486.45 1579.07,1486.45 1581.15,1486.45 1583.22,1486.45 1585.3,1486.45 
  1587.37,1486.45 1589.45,1486.45 1591.52,1486.45 1593.6,1486.45 1595.67,1486.45 1597.74,1486.45 1599.82,1486.45 1601.89,1486.45 1603.97,1486.45 1606.04,1486.45 
  1608.12,1486.45 1610.19,1486.45 1612.26,1486.45 1614.34,1486.45 1616.41,1486.45 1618.49,1486.45 1620.56,1486.45 1622.64,1486.45 1624.71,1486.45 1626.79,1486.45 
  1628.86,1486.45 1630.93,1486.45 1633.01,1486.45 1635.08,1486.45 1637.16,1486.45 1639.23,1486.45 1641.31,1486.45 1643.38,1486.45 1645.45,1486.45 1647.53,1486.45 
  1649.6,1486.45 1651.68,1486.45 1653.75,1486.45 1655.83,1486.45 1657.9,1486.45 1659.98,1486.45 1662.05,1486.45 1664.12,1486.45 1666.2,1486.45 1668.27,1486.45 
  1670.35,1486.45 1672.42,1486.45 1674.5,1486.45 1676.57,1486.45 1678.64,1486.45 1680.72,1486.45 1682.79,1486.45 1684.87,1486.45 1686.94,1486.45 1689.02,1486.45 
  1691.09,1486.45 1693.17,1486.45 1695.24,1486.45 1697.31,1486.45 1699.39,1486.45 1701.46,1486.45 1703.54,1486.45 1705.61,1486.45 1707.69,1486.45 1709.76,1486.45 
  1711.83,1486.45 1713.91,1486.45 1715.98,1486.45 1718.06,1486.45 1720.13,1486.45 1722.21,1486.45 1724.28,1486.45 1726.36,1486.45 1728.43,1486.45 1730.5,1486.45 
  1732.58,1486.45 1734.65,1486.45 1736.73,1486.45 1738.8,1486.45 1740.88,1486.45 1742.95,1486.45 1745.02,1486.45 1747.1,1486.45 1749.17,1486.45 1751.25,1486.45 
  1753.32,1486.45 1755.4,1486.45 1757.47,1486.45 1759.55,1486.45 1761.62,1486.45 1763.69,1486.45 1765.77,1486.45 1767.84,1486.45 1769.92,1486.45 1771.99,1486.45 
  1774.07,1486.45 1776.14,1486.45 1778.21,1486.45 1780.29,1486.45 1782.36,1486.45 1784.44,1486.45 1786.51,1486.45 1788.59,1486.45 1790.66,1486.45 1792.74,1486.45 
  1794.81,1486.45 1796.88,1486.45 1798.96,1486.45 1801.03,1486.45 1803.11,1486.45 1805.18,1486.45 1807.26,1486.45 1809.33,1486.45 1811.41,1486.45 1813.48,1486.45 
  1815.55,1486.45 1817.63,1486.45 1819.7,1486.45 1821.78,1486.45 1823.85,1486.45 1825.93,1486.45 1828,1486.45 1830.07,1486.45 1832.15,1486.45 1834.22,1486.45 
  1836.3,1486.45 1838.37,1486.45 1840.45,1486.45 1842.52,1486.45 1844.6,1486.45 1846.67,1486.45 1848.74,1486.45 1850.82,1486.45 1852.89,1486.45 1854.97,1486.45 
  1857.04,1486.45 1859.12,1486.45 1861.19,1486.45 1863.26,1486.45 1865.34,1486.45 1867.41,1486.45 1869.49,1486.45 1871.56,1486.45 1873.64,1486.45 1875.71,1486.45 
  1877.79,1486.45 1879.86,1486.45 1881.93,1486.45 1884.01,1486.45 1886.08,1486.45 1888.16,1486.45 1890.23,1486.45 1892.31,1486.45 1894.38,1486.45 1896.45,1486.45 
  1898.53,1486.45 1900.6,1486.45 1902.68,1486.45 1904.75,1486.45 1906.83,1486.45 1908.9,1486.45 1910.98,1486.45 1913.05,1486.45 1915.12,1486.45 1917.2,1486.45 
  1919.27,1486.45 1921.35,1486.45 1923.42,1486.45 1925.5,1486.45 1927.57,1486.45 1929.64,1486.45 1931.72,1486.45 1933.79,1486.45 1935.87,1486.45 1937.94,1486.45 
  1940.02,1486.45 1942.09,1486.45 1944.17,1486.45 1946.24,1486.45 1948.31,1486.45 1950.39,1486.45 1952.46,1486.45 1954.54,1486.45 1956.61,1486.45 1958.69,1486.45 
  1960.76,1486.45 1962.83,1486.45 1964.91,1486.45 1966.98,1486.45 1969.06,1486.45 1971.13,1486.45 1973.21,1486.45 1975.28,1486.45 1977.36,1486.45 1979.43,1486.45 
  1981.5,1486.45 1983.58,1486.45 1985.65,1486.45 1987.73,1486.45 1989.8,1486.45 1991.88,1486.45 1993.95,1486.45 1996.02,1486.45 1998.1,1486.45 2000.17,1486.45 
  2002.25,1486.45 2004.32,1486.45 2006.4,1486.45 2008.47,1486.45 2010.55,1486.45 2012.62,1486.45 2014.69,1486.45 2016.77,1486.45 2018.84,1486.45 2020.92,1486.45 
  2022.99,1486.45 2025.07,1486.45 2027.14,1486.45 2029.21,1486.45 2031.29,1486.45 2033.36,1486.45 2035.44,1486.45 2037.51,1486.45 2039.59,1486.45 2041.66,1486.45 
  2043.74,1486.45 2045.81,1486.45 2047.88,1486.45 2049.96,1486.45 2052.03,1486.45 2054.11,1486.45 2056.18,1486.45 2058.26,1486.45 2060.33,1486.45 2062.4,1486.45 
  2064.48,1486.45 2066.55,1486.45 2068.63,1486.45 2070.7,1486.45 2072.78,1486.45 2074.85,1486.45 2076.93,1486.45 2079,1486.45 2081.07,1486.45 2083.15,1486.45 
  2085.22,1486.45 2087.3,1486.45 2089.37,1486.45 2091.45,1486.45 2093.52,1486.45 2095.6,1486.45 2097.67,1486.45 2099.74,1486.45 2101.82,1486.45 2103.89,1486.45 
  2105.97,1486.45 2108.04,1486.45 2110.12,1486.45 2112.19,1486.45 2114.26,1486.45 2116.34,1486.45 2118.41,1486.45 2120.49,1486.45 2122.56,1486.45 2124.64,1486.45 
  2126.71,1486.45 2128.79,1486.45 2130.86,1486.45 2132.93,1486.45 2135.01,1486.45 2137.08,1486.45 2139.16,1486.45 2141.23,1486.45 2143.31,1486.45 2145.38,1486.45 
  2147.45,1486.45 2149.53,1486.45 2151.6,1486.45 2153.68,1486.45 2155.75,1486.45 2157.83,1486.45 2159.9,1486.45 2161.98,1486.45 2164.05,1486.45 2166.12,1486.45 
  2168.2,1486.45 2170.27,1486.45 2172.35,1486.45 2174.42,1486.45 2176.5,1486.45 2178.57,1486.45 2180.64,1486.45 2182.72,1486.45 2184.79,1486.45 2186.87,1486.45 
  2188.94,1486.45 2191.02,1486.45 2193.09,1486.45 2195.17,1486.45 2197.24,1486.45 2199.31,1486.45 2201.39,1486.45 2203.46,1486.45 2205.54,1486.45 2207.61,1486.45 
  2209.69,1486.45 2211.76,1486.45 2213.83,1486.45 2215.91,1486.45 2217.98,1486.45 2220.06,1486.45 2222.13,1486.45 2224.21,1486.45 2226.28,1486.45 2228.36,1486.45 
  2230.43,1486.45 2232.5,1486.45 2234.58,1486.45 2236.65,1486.45 2238.73,1486.45 2240.8,1486.45 2242.88,1486.45 2244.95,1486.45 2247.02,1486.45 2249.1,1486.45 
  2251.17,1486.45 2253.25,1486.45 2255.32,1486.45 2257.4,1486.45 2259.47,1486.45 2261.55,1486.45 2263.62,1486.45 2265.69,1486.45 2267.77,1486.45 2269.84,1486.45 
  2271.92,1486.45 2273.99,1486.45 2276.07,1486.45 2278.14,1486.45 2280.21,1486.45 2282.29,1486.45 2284.36,1486.45 2286.44,1486.45 2288.51,1486.45 2290.59,1486.45 
  
  "/>
<path clip-path="url(#clip130)" d="
M1822.22 250.738 L2279.53 250.738 L2279.53 95.2176 L1822.22 95.2176  Z
  " fill="#ffffff" fill-rule="evenodd" fill-opacity="1"/>
<polyline clip-path="url(#clip130)" style="stroke:#000000; stroke-linecap:butt; stroke-linejoin:round; stroke-width:4; stroke-opacity:1; fill:none" points="
  1822.22,250.738 2279.53,250.738 2279.53,95.2176 1822.22,95.2176 1822.22,250.738 
  "/>
<polyline clip-path="url(#clip130)" style="stroke:#009af9; stroke-linecap:butt; stroke-linejoin:round; stroke-width:4; stroke-opacity:1; fill:none" points="
  1846.63,147.058 1993.07,147.058 
  "/>
<path clip-path="url(#clip130)" d="M2017.48 129.778 L2039.33 129.778 L2039.33 133.713 L2022.16 133.713 L2022.16 143.944 L2038.61 143.944 L2038.61 147.879 L2022.16 147.879 L2022.16 160.402 L2039.75 160.402 L2039.75 164.338 L2017.48 164.338 L2017.48 129.778 Z" fill="#000000" fill-rule="evenodd" fill-opacity="1" /><path clip-path="url(#clip130)" d="M2051.37 160.449 L2051.37 174.199 L2047.09 174.199 L2047.09 138.412 L2051.37 138.412 L2051.37 142.347 Q2052.71 140.032 2054.75 138.921 Q2056.81 137.787 2059.66 137.787 Q2064.38 137.787 2067.32 141.537 Q2070.28 145.287 2070.28 151.398 Q2070.28 157.509 2067.32 161.259 Q2064.38 165.009 2059.66 165.009 Q2056.81 165.009 2054.75 163.898 Q2052.71 162.763 2051.37 160.449 M2065.86 151.398 Q2065.86 146.699 2063.92 144.037 Q2061.99 141.352 2058.61 141.352 Q2055.23 141.352 2053.29 144.037 Q2051.37 146.699 2051.37 151.398 Q2051.37 156.097 2053.29 158.782 Q2055.23 161.444 2058.61 161.444 Q2061.99 161.444 2063.92 158.782 Q2065.86 156.097 2065.86 151.398 Z" fill="#000000" fill-rule="evenodd" fill-opacity="1" /><path clip-path="url(#clip130)" d="M2087.39 141.398 Q2083.96 141.398 2081.97 144.083 Q2079.98 146.745 2079.98 151.398 Q2079.98 156.051 2081.95 158.736 Q2083.94 161.398 2087.39 161.398 Q2090.79 161.398 2092.78 158.713 Q2094.77 156.027 2094.77 151.398 Q2094.77 146.791 2092.78 144.106 Q2090.79 141.398 2087.39 141.398 M2087.39 137.787 Q2092.94 137.787 2096.11 141.398 Q2099.29 145.009 2099.29 151.398 Q2099.29 157.764 2096.11 161.398 Q2092.94 165.009 2087.39 165.009 Q2081.81 165.009 2078.64 161.398 Q2075.49 157.764 2075.49 151.398 Q2075.49 145.009 2078.64 141.398 Q2081.81 137.787 2087.39 137.787 Z" fill="#000000" fill-rule="evenodd" fill-opacity="1" /><path clip-path="url(#clip130)" d="M2125 139.407 L2125 143.389 Q2123.2 142.393 2121.37 141.907 Q2119.56 141.398 2117.71 141.398 Q2113.57 141.398 2111.28 144.037 Q2108.98 146.652 2108.98 151.398 Q2108.98 156.143 2111.28 158.782 Q2113.57 161.398 2117.71 161.398 Q2119.56 161.398 2121.37 160.912 Q2123.2 160.402 2125 159.407 L2125 163.342 Q2123.22 164.176 2121.3 164.592 Q2119.4 165.009 2117.25 165.009 Q2111.39 165.009 2107.94 161.328 Q2104.49 157.648 2104.49 151.398 Q2104.49 145.055 2107.97 141.421 Q2111.46 137.787 2117.53 137.787 Q2119.49 137.787 2121.37 138.203 Q2123.24 138.597 2125 139.407 Z" fill="#000000" fill-rule="evenodd" fill-opacity="1" /><path clip-path="url(#clip130)" d="M2153.96 148.689 L2153.96 164.338 L2149.7 164.338 L2149.7 148.828 Q2149.7 145.148 2148.27 143.319 Q2146.83 141.49 2143.96 141.49 Q2140.51 141.49 2138.52 143.69 Q2136.53 145.889 2136.53 149.685 L2136.53 164.338 L2132.25 164.338 L2132.25 128.319 L2136.53 128.319 L2136.53 142.44 Q2138.06 140.102 2140.12 138.944 Q2142.2 137.787 2144.91 137.787 Q2149.38 137.787 2151.67 140.565 Q2153.96 143.319 2153.96 148.689 Z" fill="#000000" fill-rule="evenodd" fill-opacity="1" /><path clip-path="url(#clip130)" d="M2178.17 129.778 L2196.53 129.778 L2196.53 133.713 L2182.46 133.713 L2182.46 142.185 Q2183.48 141.838 2184.49 141.676 Q2185.51 141.49 2186.53 141.49 Q2192.32 141.49 2195.7 144.662 Q2199.08 147.833 2199.08 153.25 Q2199.08 158.828 2195.6 161.93 Q2192.13 165.009 2185.81 165.009 Q2183.64 165.009 2181.37 164.638 Q2179.12 164.268 2176.72 163.527 L2176.72 158.828 Q2178.8 159.963 2181.02 160.518 Q2183.24 161.074 2185.72 161.074 Q2189.72 161.074 2192.06 158.967 Q2194.4 156.861 2194.4 153.25 Q2194.4 149.639 2192.06 147.532 Q2189.72 145.426 2185.72 145.426 Q2183.85 145.426 2181.97 145.842 Q2180.12 146.259 2178.17 147.139 L2178.17 129.778 Z" fill="#000000" fill-rule="evenodd" fill-opacity="1" /><path clip-path="url(#clip130)" d="M2221.14 133.852 L2209.33 152.301 L2221.14 152.301 L2221.14 133.852 M2219.91 129.778 L2225.79 129.778 L2225.79 152.301 L2230.72 152.301 L2230.72 156.189 L2225.79 156.189 L2225.79 164.338 L2221.14 164.338 L2221.14 156.189 L2205.54 156.189 L2205.54 151.676 L2219.91 129.778 Z" fill="#000000" fill-rule="evenodd" fill-opacity="1" /><polyline clip-path="url(#clip130)" style="stroke:#e26f46; stroke-linecap:butt; stroke-linejoin:round; stroke-width:4; stroke-opacity:1; fill:none" points="
  1846.63,198.898 1993.07,198.898 
  "/>
<path clip-path="url(#clip130)" d="M2017.48 181.618 L2039.33 181.618 L2039.33 185.553 L2022.16 185.553 L2022.16 195.784 L2038.61 195.784 L2038.61 199.719 L2022.16 199.719 L2022.16 212.242 L2039.75 212.242 L2039.75 216.178 L2017.48 216.178 L2017.48 181.618 Z" fill="#000000" fill-rule="evenodd" fill-opacity="1" /><path clip-path="url(#clip130)" d="M2051.37 212.289 L2051.37 226.039 L2047.09 226.039 L2047.09 190.252 L2051.37 190.252 L2051.37 194.187 Q2052.71 191.872 2054.75 190.761 Q2056.81 189.627 2059.66 189.627 Q2064.38 189.627 2067.32 193.377 Q2070.28 197.127 2070.28 203.238 Q2070.28 209.349 2067.32 213.099 Q2064.38 216.849 2059.66 216.849 Q2056.81 216.849 2054.75 215.738 Q2052.71 214.603 2051.37 212.289 M2065.86 203.238 Q2065.86 198.539 2063.92 195.877 Q2061.99 193.192 2058.61 193.192 Q2055.23 193.192 2053.29 195.877 Q2051.37 198.539 2051.37 203.238 Q2051.37 207.937 2053.29 210.622 Q2055.23 213.284 2058.61 213.284 Q2061.99 213.284 2063.92 210.622 Q2065.86 207.937 2065.86 203.238 Z" fill="#000000" fill-rule="evenodd" fill-opacity="1" /><path clip-path="url(#clip130)" d="M2087.39 193.238 Q2083.96 193.238 2081.97 195.923 Q2079.98 198.585 2079.98 203.238 Q2079.98 207.891 2081.95 210.576 Q2083.94 213.238 2087.39 213.238 Q2090.79 213.238 2092.78 210.553 Q2094.77 207.867 2094.77 203.238 Q2094.77 198.631 2092.78 195.946 Q2090.79 193.238 2087.39 193.238 M2087.39 189.627 Q2092.94 189.627 2096.11 193.238 Q2099.29 196.849 2099.29 203.238 Q2099.29 209.604 2096.11 213.238 Q2092.94 216.849 2087.39 216.849 Q2081.81 216.849 2078.64 213.238 Q2075.49 209.604 2075.49 203.238 Q2075.49 196.849 2078.64 193.238 Q2081.81 189.627 2087.39 189.627 Z" fill="#000000" fill-rule="evenodd" fill-opacity="1" /><path clip-path="url(#clip130)" d="M2125 191.247 L2125 195.229 Q2123.2 194.233 2121.37 193.747 Q2119.56 193.238 2117.71 193.238 Q2113.57 193.238 2111.28 195.877 Q2108.98 198.492 2108.98 203.238 Q2108.98 207.983 2111.28 210.622 Q2113.57 213.238 2117.71 213.238 Q2119.56 213.238 2121.37 212.752 Q2123.2 212.242 2125 211.247 L2125 215.182 Q2123.22 216.016 2121.3 216.432 Q2119.4 216.849 2117.25 216.849 Q2111.39 216.849 2107.94 213.168 Q2104.49 209.488 2104.49 203.238 Q2104.49 196.895 2107.97 193.261 Q2111.46 189.627 2117.53 189.627 Q2119.49 189.627 2121.37 190.043 Q2123.24 190.437 2125 191.247 Z" fill="#000000" fill-rule="evenodd" fill-opacity="1" /><path clip-path="url(#clip130)" d="M2153.96 200.529 L2153.96 216.178 L2149.7 216.178 L2149.7 200.668 Q2149.7 196.988 2148.27 195.159 Q2146.83 193.33 2143.96 193.33 Q2140.51 193.33 2138.52 195.53 Q2136.53 197.729 2136.53 201.525 L2136.53 216.178 L2132.25 216.178 L2132.25 180.159 L2136.53 180.159 L2136.53 194.28 Q2138.06 191.942 2140.12 190.784 Q2142.2 189.627 2144.91 189.627 Q2149.38 189.627 2151.67 192.405 Q2153.96 195.159 2153.96 200.529 Z" fill="#000000" fill-rule="evenodd" fill-opacity="1" /><path clip-path="url(#clip130)" d="M2178.17 181.618 L2196.53 181.618 L2196.53 185.553 L2182.46 185.553 L2182.46 194.025 Q2183.48 193.678 2184.49 193.516 Q2185.51 193.33 2186.53 193.33 Q2192.32 193.33 2195.7 196.502 Q2199.08 199.673 2199.08 205.09 Q2199.08 210.668 2195.6 213.77 Q2192.13 216.849 2185.81 216.849 Q2183.64 216.849 2181.37 216.478 Q2179.12 216.108 2176.72 215.367 L2176.72 210.668 Q2178.8 211.803 2181.02 212.358 Q2183.24 212.914 2185.72 212.914 Q2189.72 212.914 2192.06 210.807 Q2194.4 208.701 2194.4 205.09 Q2194.4 201.479 2192.06 199.372 Q2189.72 197.266 2185.72 197.266 Q2183.85 197.266 2181.97 197.682 Q2180.12 198.099 2178.17 198.979 L2178.17 181.618 Z" fill="#000000" fill-rule="evenodd" fill-opacity="1" /><path clip-path="url(#clip130)" d="M2221.14 185.692 L2209.33 204.141 L2221.14 204.141 L2221.14 185.692 M2219.91 181.618 L2225.79 181.618 L2225.79 204.141 L2230.72 204.141 L2230.72 208.029 L2225.79 208.029 L2225.79 216.178 L2221.14 216.178 L2221.14 208.029 L2205.54 208.029 L2205.54 203.516 L2219.91 181.618 Z" fill="#000000" fill-rule="evenodd" fill-opacity="1" /></svg>
