<?xml version="1.0" encoding="utf-8"?>
<svg xmlns="http://www.w3.org/2000/svg" xmlns:xlink="http://www.w3.org/1999/xlink" width="600" height="400" viewBox="0 0 2400 1600">
<defs>
  <clipPath id="clip650">
    <rect x="0" y="0" width="2400" height="1600"/>
  </clipPath>
</defs>
<path clip-path="url(#clip650)" d="
M0 1600 L2400 1600 L2400 0 L0 0  Z
  " fill="#ffffff" fill-rule="evenodd" fill-opacity="1"/>
<defs>
  <clipPath id="clip651">
    <rect x="480" y="0" width="1681" height="1600"/>
  </clipPath>
</defs>
<defs>
  <clipPath id="clip652">
    <rect x="338" y="123" width="2015" height="1301"/>
  </clipPath>
</defs>
<path clip-path="url(#clip650)" d="
M338.404 1423.18 L2352.76 1423.18 L2352.76 123.472 L338.404 123.472  Z
  " fill="#ffffff" fill-rule="evenodd" fill-opacity="1"/>
<polyline clip-path="url(#clip652)" style="stroke:#000000; stroke-linecap:butt; stroke-linejoin:round; stroke-width:2; stroke-opacity:0.1; fill:none" points="
  395.414,1423.18 395.414,123.472 
  "/>
<polyline clip-path="url(#clip652)" style="stroke:#000000; stroke-linecap:butt; stroke-linejoin:round; stroke-width:2; stroke-opacity:0.1; fill:none" points="
  1028.86,1423.18 1028.86,123.472 
  "/>
<polyline clip-path="url(#clip652)" style="stroke:#000000; stroke-linecap:butt; stroke-linejoin:round; stroke-width:2; stroke-opacity:0.1; fill:none" points="
  1662.3,1423.18 1662.3,123.472 
  "/>
<polyline clip-path="url(#clip652)" style="stroke:#000000; stroke-linecap:butt; stroke-linejoin:round; stroke-width:2; stroke-opacity:0.1; fill:none" points="
  2295.75,1423.18 2295.75,123.472 
  "/>
<polyline clip-path="url(#clip650)" style="stroke:#000000; stroke-linecap:butt; stroke-linejoin:round; stroke-width:4; stroke-opacity:1; fill:none" points="
  338.404,1423.18 2352.76,1423.18 
  "/>
<polyline clip-path="url(#clip650)" style="stroke:#000000; stroke-linecap:butt; stroke-linejoin:round; stroke-width:4; stroke-opacity:1; fill:none" points="
  395.414,1423.18 395.414,1404.28 
  "/>
<polyline clip-path="url(#clip650)" style="stroke:#000000; stroke-linecap:butt; stroke-linejoin:round; stroke-width:4; stroke-opacity:1; fill:none" points="
  1028.86,1423.18 1028.86,1404.28 
  "/>
<polyline clip-path="url(#clip650)" style="stroke:#000000; stroke-linecap:butt; stroke-linejoin:round; stroke-width:4; stroke-opacity:1; fill:none" points="
  1662.3,1423.18 1662.3,1404.28 
  "/>
<polyline clip-path="url(#clip650)" style="stroke:#000000; stroke-linecap:butt; stroke-linejoin:round; stroke-width:4; stroke-opacity:1; fill:none" points="
  2295.75,1423.18 2295.75,1404.28 
  "/>
<path clip-path="url(#clip650)" d="M327.556 1454.1 Q323.945 1454.1 322.116 1457.66 Q320.311 1461.2 320.311 1468.33 Q320.311 1475.44 322.116 1479.01 Q323.945 1482.55 327.556 1482.55 Q331.19 1482.55 332.996 1479.01 Q334.824 1475.44 334.824 1468.33 Q334.824 1461.2 332.996 1457.66 Q331.19 1454.1 327.556 1454.1 M327.556 1450.39 Q333.366 1450.39 336.422 1455 Q339.5 1459.58 339.5 1468.33 Q339.5 1477.06 336.422 1481.67 Q333.366 1486.25 327.556 1486.25 Q321.746 1486.25 318.667 1481.67 Q315.612 1477.06 315.612 1468.33 Q315.612 1459.58 318.667 1455 Q321.746 1450.39 327.556 1450.39 Z" fill="#000000" fill-rule="evenodd" fill-opacity="1" /><path clip-path="url(#clip650)" d="M347.718 1479.7 L352.602 1479.7 L352.602 1485.58 L347.718 1485.58 L347.718 1479.7 Z" fill="#000000" fill-rule="evenodd" fill-opacity="1" /><path clip-path="url(#clip650)" d="M372.787 1454.1 Q369.176 1454.1 367.347 1457.66 Q365.542 1461.2 365.542 1468.33 Q365.542 1475.44 367.347 1479.01 Q369.176 1482.55 372.787 1482.55 Q376.421 1482.55 378.227 1479.01 Q380.056 1475.44 380.056 1468.33 Q380.056 1461.2 378.227 1457.66 Q376.421 1454.1 372.787 1454.1 M372.787 1450.39 Q378.597 1450.39 381.653 1455 Q384.732 1459.58 384.732 1468.33 Q384.732 1477.06 381.653 1481.67 Q378.597 1486.25 372.787 1486.25 Q366.977 1486.25 363.898 1481.67 Q360.843 1477.06 360.843 1468.33 Q360.843 1459.58 363.898 1455 Q366.977 1450.39 372.787 1450.39 Z" fill="#000000" fill-rule="evenodd" fill-opacity="1" /><path clip-path="url(#clip650)" d="M402.949 1454.1 Q399.338 1454.1 397.509 1457.66 Q395.704 1461.2 395.704 1468.33 Q395.704 1475.44 397.509 1479.01 Q399.338 1482.55 402.949 1482.55 Q406.583 1482.55 408.389 1479.01 Q410.218 1475.44 410.218 1468.33 Q410.218 1461.2 408.389 1457.66 Q406.583 1454.1 402.949 1454.1 M402.949 1450.39 Q408.759 1450.39 411.815 1455 Q414.893 1459.58 414.893 1468.33 Q414.893 1477.06 411.815 1481.67 Q408.759 1486.25 402.949 1486.25 Q397.139 1486.25 394.06 1481.67 Q391.005 1477.06 391.005 1468.33 Q391.005 1459.58 394.06 1455 Q397.139 1450.39 402.949 1450.39 Z" fill="#000000" fill-rule="evenodd" fill-opacity="1" /><path clip-path="url(#clip650)" d="M433.111 1454.1 Q429.5 1454.1 427.671 1457.66 Q425.866 1461.2 425.866 1468.33 Q425.866 1475.44 427.671 1479.01 Q429.5 1482.55 433.111 1482.55 Q436.745 1482.55 438.551 1479.01 Q440.379 1475.44 440.379 1468.33 Q440.379 1461.2 438.551 1457.66 Q436.745 1454.1 433.111 1454.1 M433.111 1450.39 Q438.921 1450.39 441.977 1455 Q445.055 1459.58 445.055 1468.33 Q445.055 1477.06 441.977 1481.67 Q438.921 1486.25 433.111 1486.25 Q427.301 1486.25 424.222 1481.67 Q421.167 1477.06 421.167 1468.33 Q421.167 1459.58 424.222 1455 Q427.301 1450.39 433.111 1450.39 Z" fill="#000000" fill-rule="evenodd" fill-opacity="1" /><path clip-path="url(#clip650)" d="M463.273 1454.1 Q459.662 1454.1 457.833 1457.66 Q456.027 1461.2 456.027 1468.33 Q456.027 1475.44 457.833 1479.01 Q459.662 1482.55 463.273 1482.55 Q466.907 1482.55 468.713 1479.01 Q470.541 1475.44 470.541 1468.33 Q470.541 1461.2 468.713 1457.66 Q466.907 1454.1 463.273 1454.1 M463.273 1450.39 Q469.083 1450.39 472.138 1455 Q475.217 1459.58 475.217 1468.33 Q475.217 1477.06 472.138 1481.67 Q469.083 1486.25 463.273 1486.25 Q457.463 1486.25 454.384 1481.67 Q451.328 1477.06 451.328 1468.33 Q451.328 1459.58 454.384 1455 Q457.463 1450.39 463.273 1450.39 Z" fill="#000000" fill-rule="evenodd" fill-opacity="1" /><path clip-path="url(#clip650)" d="M961.613 1454.1 Q958.002 1454.1 956.173 1457.66 Q954.368 1461.2 954.368 1468.33 Q954.368 1475.44 956.173 1479.01 Q958.002 1482.55 961.613 1482.55 Q965.247 1482.55 967.053 1479.01 Q968.882 1475.44 968.882 1468.33 Q968.882 1461.2 967.053 1457.66 Q965.247 1454.1 961.613 1454.1 M961.613 1450.39 Q967.423 1450.39 970.479 1455 Q973.558 1459.58 973.558 1468.33 Q973.558 1477.06 970.479 1481.67 Q967.423 1486.25 961.613 1486.25 Q955.803 1486.25 952.724 1481.67 Q949.669 1477.06 949.669 1468.33 Q949.669 1459.58 952.724 1455 Q955.803 1450.39 961.613 1450.39 Z" fill="#000000" fill-rule="evenodd" fill-opacity="1" /><path clip-path="url(#clip650)" d="M981.775 1479.7 L986.659 1479.7 L986.659 1485.58 L981.775 1485.58 L981.775 1479.7 Z" fill="#000000" fill-rule="evenodd" fill-opacity="1" /><path clip-path="url(#clip650)" d="M1006.84 1454.1 Q1003.23 1454.1 1001.4 1457.66 Q999.599 1461.2 999.599 1468.33 Q999.599 1475.44 1001.4 1479.01 Q1003.23 1482.55 1006.84 1482.55 Q1010.48 1482.55 1012.28 1479.01 Q1014.11 1475.44 1014.11 1468.33 Q1014.11 1461.2 1012.28 1457.66 Q1010.48 1454.1 1006.84 1454.1 M1006.84 1450.39 Q1012.65 1450.39 1015.71 1455 Q1018.79 1459.58 1018.79 1468.33 Q1018.79 1477.06 1015.71 1481.67 Q1012.65 1486.25 1006.84 1486.25 Q1001.03 1486.25 997.956 1481.67 Q994.9 1477.06 994.9 1468.33 Q994.9 1459.58 997.956 1455 Q1001.03 1450.39 1006.84 1450.39 Z" fill="#000000" fill-rule="evenodd" fill-opacity="1" /><path clip-path="url(#clip650)" d="M1037.01 1454.1 Q1033.4 1454.1 1031.57 1457.66 Q1029.76 1461.2 1029.76 1468.33 Q1029.76 1475.44 1031.57 1479.01 Q1033.4 1482.55 1037.01 1482.55 Q1040.64 1482.55 1042.45 1479.01 Q1044.27 1475.44 1044.27 1468.33 Q1044.27 1461.2 1042.45 1457.66 Q1040.64 1454.1 1037.01 1454.1 M1037.01 1450.39 Q1042.82 1450.39 1045.87 1455 Q1048.95 1459.58 1048.95 1468.33 Q1048.95 1477.06 1045.87 1481.67 Q1042.82 1486.25 1037.01 1486.25 Q1031.2 1486.25 1028.12 1481.67 Q1025.06 1477.06 1025.06 1468.33 Q1025.06 1459.58 1028.12 1455 Q1031.2 1450.39 1037.01 1450.39 Z" fill="#000000" fill-rule="evenodd" fill-opacity="1" /><path clip-path="url(#clip650)" d="M1067.17 1454.1 Q1063.56 1454.1 1061.73 1457.66 Q1059.92 1461.2 1059.92 1468.33 Q1059.92 1475.44 1061.73 1479.01 Q1063.56 1482.55 1067.17 1482.55 Q1070.8 1482.55 1072.61 1479.01 Q1074.44 1475.44 1074.44 1468.33 Q1074.44 1461.2 1072.61 1457.66 Q1070.8 1454.1 1067.17 1454.1 M1067.17 1450.39 Q1072.98 1450.39 1076.03 1455 Q1079.11 1459.58 1079.11 1468.33 Q1079.11 1477.06 1076.03 1481.67 Q1072.98 1486.25 1067.17 1486.25 Q1061.36 1486.25 1058.28 1481.67 Q1055.22 1477.06 1055.22 1468.33 Q1055.22 1459.58 1058.28 1455 Q1061.36 1450.39 1067.17 1450.39 Z" fill="#000000" fill-rule="evenodd" fill-opacity="1" /><path clip-path="url(#clip650)" d="M1088.14 1481.64 L1095.78 1481.64 L1095.78 1455.28 L1087.47 1456.95 L1087.47 1452.69 L1095.73 1451.02 L1100.41 1451.02 L1100.41 1481.64 L1108.05 1481.64 L1108.05 1485.58 L1088.14 1485.58 L1088.14 1481.64 Z" fill="#000000" fill-rule="evenodd" fill-opacity="1" /><path clip-path="url(#clip650)" d="M1595.24 1454.1 Q1591.63 1454.1 1589.8 1457.66 Q1588 1461.2 1588 1468.33 Q1588 1475.44 1589.8 1479.01 Q1591.63 1482.55 1595.24 1482.55 Q1598.88 1482.55 1600.68 1479.01 Q1602.51 1475.44 1602.51 1468.33 Q1602.51 1461.2 1600.68 1457.66 Q1598.88 1454.1 1595.24 1454.1 M1595.24 1450.39 Q1601.05 1450.39 1604.11 1455 Q1607.19 1459.58 1607.19 1468.33 Q1607.19 1477.06 1604.11 1481.67 Q1601.05 1486.25 1595.24 1486.25 Q1589.43 1486.25 1586.35 1481.67 Q1583.3 1477.06 1583.3 1468.33 Q1583.3 1459.58 1586.35 1455 Q1589.43 1450.39 1595.24 1450.39 Z" fill="#000000" fill-rule="evenodd" fill-opacity="1" /><path clip-path="url(#clip650)" d="M1615.4 1479.7 L1620.29 1479.7 L1620.29 1485.58 L1615.4 1485.58 L1615.4 1479.7 Z" fill="#000000" fill-rule="evenodd" fill-opacity="1" /><path clip-path="url(#clip650)" d="M1640.47 1454.1 Q1636.86 1454.1 1635.03 1457.66 Q1633.23 1461.2 1633.23 1468.33 Q1633.23 1475.44 1635.03 1479.01 Q1636.86 1482.55 1640.47 1482.55 Q1644.11 1482.55 1645.91 1479.01 Q1647.74 1475.44 1647.74 1468.33 Q1647.74 1461.2 1645.91 1457.66 Q1644.11 1454.1 1640.47 1454.1 M1640.47 1450.39 Q1646.28 1450.39 1649.34 1455 Q1652.42 1459.58 1652.42 1468.33 Q1652.42 1477.06 1649.34 1481.67 Q1646.28 1486.25 1640.47 1486.25 Q1634.66 1486.25 1631.58 1481.67 Q1628.53 1477.06 1628.53 1468.33 Q1628.53 1459.58 1631.58 1455 Q1634.66 1450.39 1640.47 1450.39 Z" fill="#000000" fill-rule="evenodd" fill-opacity="1" /><path clip-path="url(#clip650)" d="M1670.64 1454.1 Q1667.02 1454.1 1665.2 1457.66 Q1663.39 1461.2 1663.39 1468.33 Q1663.39 1475.44 1665.2 1479.01 Q1667.02 1482.55 1670.64 1482.55 Q1674.27 1482.55 1676.08 1479.01 Q1677.9 1475.44 1677.9 1468.33 Q1677.9 1461.2 1676.08 1457.66 Q1674.27 1454.1 1670.64 1454.1 M1670.64 1450.39 Q1676.45 1450.39 1679.5 1455 Q1682.58 1459.58 1682.58 1468.33 Q1682.58 1477.06 1679.5 1481.67 Q1676.45 1486.25 1670.64 1486.25 Q1664.83 1486.25 1661.75 1481.67 Q1658.69 1477.06 1658.69 1468.33 Q1658.69 1459.58 1661.75 1455 Q1664.83 1450.39 1670.64 1450.39 Z" fill="#000000" fill-rule="evenodd" fill-opacity="1" /><path clip-path="url(#clip650)" d="M1700.8 1454.1 Q1697.19 1454.1 1695.36 1457.66 Q1693.55 1461.2 1693.55 1468.33 Q1693.55 1475.44 1695.36 1479.01 Q1697.19 1482.55 1700.8 1482.55 Q1704.43 1482.55 1706.24 1479.01 Q1708.07 1475.44 1708.07 1468.33 Q1708.07 1461.2 1706.24 1457.66 Q1704.43 1454.1 1700.8 1454.1 M1700.8 1450.39 Q1706.61 1450.39 1709.66 1455 Q1712.74 1459.58 1712.74 1468.33 Q1712.74 1477.06 1709.66 1481.67 Q1706.61 1486.25 1700.8 1486.25 Q1694.99 1486.25 1691.91 1481.67 Q1688.85 1477.06 1688.85 1468.33 Q1688.85 1459.58 1691.91 1455 Q1694.99 1450.39 1700.8 1450.39 Z" fill="#000000" fill-rule="evenodd" fill-opacity="1" /><path clip-path="url(#clip650)" d="M1724.99 1481.64 L1741.31 1481.64 L1741.31 1485.58 L1719.36 1485.58 L1719.36 1481.64 Q1722.02 1478.89 1726.61 1474.26 Q1731.21 1469.61 1732.39 1468.27 Q1734.64 1465.74 1735.52 1464.01 Q1736.42 1462.25 1736.42 1460.56 Q1736.42 1457.8 1734.48 1456.07 Q1732.56 1454.33 1729.45 1454.33 Q1727.26 1454.33 1724.8 1455.09 Q1722.37 1455.86 1719.59 1457.41 L1719.59 1452.69 Q1722.42 1451.55 1724.87 1450.97 Q1727.32 1450.39 1729.36 1450.39 Q1734.73 1450.39 1737.93 1453.08 Q1741.12 1455.77 1741.12 1460.26 Q1741.12 1462.39 1740.31 1464.31 Q1739.52 1466.2 1737.42 1468.8 Q1736.84 1469.47 1733.74 1472.69 Q1730.64 1475.88 1724.99 1481.64 Z" fill="#000000" fill-rule="evenodd" fill-opacity="1" /><path clip-path="url(#clip650)" d="M2228.21 1454.1 Q2224.6 1454.1 2222.77 1457.66 Q2220.97 1461.2 2220.97 1468.33 Q2220.97 1475.44 2222.77 1479.01 Q2224.6 1482.55 2228.21 1482.55 Q2231.85 1482.55 2233.65 1479.01 Q2235.48 1475.44 2235.48 1468.33 Q2235.48 1461.2 2233.65 1457.66 Q2231.85 1454.1 2228.21 1454.1 M2228.21 1450.39 Q2234.02 1450.39 2237.08 1455 Q2240.16 1459.58 2240.16 1468.33 Q2240.16 1477.06 2237.08 1481.67 Q2234.02 1486.25 2228.21 1486.25 Q2222.4 1486.25 2219.32 1481.67 Q2216.27 1477.06 2216.27 1468.33 Q2216.27 1459.58 2219.32 1455 Q2222.4 1450.39 2228.21 1450.39 Z" fill="#000000" fill-rule="evenodd" fill-opacity="1" /><path clip-path="url(#clip650)" d="M2248.37 1479.7 L2253.26 1479.7 L2253.26 1485.58 L2248.37 1485.58 L2248.37 1479.7 Z" fill="#000000" fill-rule="evenodd" fill-opacity="1" /><path clip-path="url(#clip650)" d="M2273.44 1454.1 Q2269.83 1454.1 2268 1457.66 Q2266.2 1461.2 2266.2 1468.33 Q2266.2 1475.44 2268 1479.01 Q2269.83 1482.55 2273.44 1482.55 Q2277.08 1482.55 2278.88 1479.01 Q2280.71 1475.44 2280.71 1468.33 Q2280.71 1461.2 2278.88 1457.66 Q2277.08 1454.1 2273.44 1454.1 M2273.44 1450.39 Q2279.25 1450.39 2282.31 1455 Q2285.39 1459.58 2285.39 1468.33 Q2285.39 1477.06 2282.31 1481.67 Q2279.25 1486.25 2273.44 1486.25 Q2267.63 1486.25 2264.55 1481.67 Q2261.5 1477.06 2261.5 1468.33 Q2261.5 1459.58 2264.55 1455 Q2267.63 1450.39 2273.44 1450.39 Z" fill="#000000" fill-rule="evenodd" fill-opacity="1" /><path clip-path="url(#clip650)" d="M2303.6 1454.1 Q2299.99 1454.1 2298.16 1457.66 Q2296.36 1461.2 2296.36 1468.33 Q2296.36 1475.44 2298.16 1479.01 Q2299.99 1482.55 2303.6 1482.55 Q2307.24 1482.55 2309.04 1479.01 Q2310.87 1475.44 2310.87 1468.33 Q2310.87 1461.2 2309.04 1457.66 Q2307.24 1454.1 2303.6 1454.1 M2303.6 1450.39 Q2309.41 1450.39 2312.47 1455 Q2315.55 1459.58 2315.55 1468.33 Q2315.55 1477.06 2312.47 1481.67 Q2309.41 1486.25 2303.6 1486.25 Q2297.79 1486.25 2294.72 1481.67 Q2291.66 1477.06 2291.66 1468.33 Q2291.66 1459.58 2294.72 1455 Q2297.79 1450.39 2303.6 1450.39 Z" fill="#000000" fill-rule="evenodd" fill-opacity="1" /><path clip-path="url(#clip650)" d="M2333.77 1454.1 Q2330.16 1454.1 2328.33 1457.66 Q2326.52 1461.2 2326.52 1468.33 Q2326.52 1475.44 2328.33 1479.01 Q2330.16 1482.55 2333.77 1482.55 Q2337.4 1482.55 2339.21 1479.01 Q2341.04 1475.44 2341.04 1468.33 Q2341.04 1461.2 2339.21 1457.66 Q2337.4 1454.1 2333.77 1454.1 M2333.77 1450.39 Q2339.58 1450.39 2342.63 1455 Q2345.71 1459.58 2345.71 1468.33 Q2345.71 1477.06 2342.63 1481.67 Q2339.58 1486.25 2333.77 1486.25 Q2327.96 1486.25 2324.88 1481.67 Q2321.82 1477.06 2321.82 1468.33 Q2321.82 1459.58 2324.88 1455 Q2327.96 1450.39 2333.77 1450.39 Z" fill="#000000" fill-rule="evenodd" fill-opacity="1" /><path clip-path="url(#clip650)" d="M2368.1 1466.95 Q2371.45 1467.66 2373.33 1469.93 Q2375.22 1472.2 2375.22 1475.53 Q2375.22 1480.65 2371.71 1483.45 Q2368.19 1486.25 2361.71 1486.25 Q2359.53 1486.25 2357.22 1485.81 Q2354.92 1485.39 2352.47 1484.54 L2352.47 1480.02 Q2354.41 1481.16 2356.73 1481.74 Q2359.04 1482.32 2361.57 1482.32 Q2365.97 1482.32 2368.26 1480.58 Q2370.57 1478.84 2370.57 1475.53 Q2370.57 1472.48 2368.42 1470.77 Q2366.29 1469.03 2362.47 1469.03 L2358.44 1469.03 L2358.44 1465.19 L2362.66 1465.19 Q2366.1 1465.19 2367.93 1463.82 Q2369.76 1462.43 2369.76 1459.84 Q2369.76 1457.18 2367.86 1455.77 Q2365.99 1454.33 2362.47 1454.33 Q2360.55 1454.33 2358.35 1454.75 Q2356.15 1455.16 2353.51 1456.04 L2353.51 1451.88 Q2356.17 1451.14 2358.49 1450.77 Q2360.83 1450.39 2362.89 1450.39 Q2368.21 1450.39 2371.31 1452.83 Q2374.41 1455.23 2374.41 1459.35 Q2374.41 1462.22 2372.77 1464.21 Q2371.13 1466.18 2368.1 1466.95 Z" fill="#000000" fill-rule="evenodd" fill-opacity="1" /><path clip-path="url(#clip650)" d="M1155.46 1572.5 L1155.46 1570.47 L1157.04 1570.47 Q1160.62 1570.47 1161.42 1569.89 Q1162.26 1569.28 1162.26 1567.35 L1162.26 1532.6 Q1162.26 1530.7 1161.42 1530.12 Q1160.58 1529.5 1157.04 1529.5 L1155.46 1529.5 L1155.46 1527.44 L1179.58 1527.44 Q1188.02 1527.44 1193.88 1534.17 Q1199.78 1540.91 1199.78 1550.34 Q1199.78 1559.59 1193.85 1566.06 Q1187.96 1572.5 1179.58 1572.5 L1155.46 1572.5 M1167.93 1567.83 Q1167.93 1569.54 1168.41 1570.02 Q1168.89 1570.47 1171.15 1570.47 L1177.81 1570.47 Q1182.16 1570.47 1185.09 1568.7 Q1188.02 1566.9 1189.54 1564.83 Q1193.18 1559.88 1193.18 1550.34 Q1193.18 1540.33 1189.76 1535.62 Q1185.35 1529.5 1177.75 1529.5 L1171.15 1529.5 Q1168.89 1529.5 1168.41 1529.96 Q1167.93 1530.41 1167.93 1532.15 L1167.93 1567.83 Z" fill="#000000" fill-rule="evenodd" fill-opacity="1" /><path clip-path="url(#clip650)" d="M1206.87 1557.97 Q1206.87 1551.76 1210.87 1547.35 Q1214.86 1542.93 1220.59 1542.93 Q1226.39 1542.93 1229.38 1546.7 Q1232.41 1550.47 1232.41 1555.88 Q1232.41 1556.88 1232.15 1557.07 Q1231.9 1557.27 1230.77 1557.27 L1212.35 1557.27 Q1212.35 1564 1214.34 1567.15 Q1217.11 1571.57 1221.78 1571.57 Q1222.43 1571.57 1223.2 1571.44 Q1223.97 1571.31 1225.55 1570.76 Q1227.13 1570.18 1228.51 1568.67 Q1229.9 1567.15 1230.7 1564.77 Q1230.9 1563.84 1231.54 1563.87 Q1232.41 1563.87 1232.41 1564.64 Q1232.41 1565.22 1231.77 1566.54 Q1231.15 1567.83 1229.96 1569.38 Q1228.77 1570.92 1226.45 1572.08 Q1224.17 1573.24 1221.4 1573.24 Q1215.6 1573.24 1211.22 1568.86 Q1206.87 1564.45 1206.87 1557.97 M1212.41 1555.88 L1228.06 1555.88 Q1228.06 1554.5 1227.81 1552.95 Q1227.58 1551.4 1226.87 1549.28 Q1226.2 1547.12 1224.58 1545.77 Q1222.97 1544.42 1220.59 1544.42 Q1219.53 1544.42 1218.37 1544.87 Q1217.24 1545.32 1215.86 1546.41 Q1214.47 1547.51 1213.51 1549.99 Q1212.54 1552.47 1212.41 1555.88 Z" fill="#000000" fill-rule="evenodd" fill-opacity="1" /><path clip-path="url(#clip650)" d="M1230.59 1583.26 Q1234.1 1583.26 1234.9 1582.81 Q1235.74 1582.39 1235.74 1580.29 L1235.74 1549.41 Q1235.74 1547.22 1234.9 1546.67 Q1234.1 1546.12 1230.59 1546.12 L1230.59 1544.06 L1240.09 1543.35 L1240.09 1547.7 Q1244.05 1543.35 1249.33 1543.35 Q1254.94 1543.35 1259.03 1547.7 Q1263.12 1552.05 1263.12 1558.26 Q1263.12 1564.54 1258.77 1568.89 Q1254.42 1573.24 1248.4 1573.24 Q1245.11 1573.24 1242.89 1571.57 Q1240.7 1569.86 1240.28 1568.6 L1240.28 1569.21 L1240.28 1580.29 Q1240.28 1582.42 1241.12 1582.84 Q1241.96 1583.26 1245.43 1583.26 L1245.43 1585.29 Q1238.51 1585.09 1237.99 1585.09 Q1237.35 1585.09 1230.59 1585.29 L1230.59 1583.26 M1240.28 1565 Q1240.28 1565.99 1240.41 1566.35 Q1240.57 1566.7 1241.22 1567.77 Q1243.82 1571.76 1248.08 1571.76 Q1248.11 1571.76 1248.14 1571.76 Q1251.91 1571.76 1254.77 1567.93 Q1257.64 1564.06 1257.64 1558.26 Q1257.64 1552.73 1255.03 1548.86 Q1252.42 1545 1248.82 1545 Q1246.24 1545 1243.99 1546.38 Q1241.73 1547.77 1240.28 1550.28 L1240.28 1565 Z" fill="#000000" fill-rule="evenodd" fill-opacity="1" /><path clip-path="url(#clip650)" d="M1270.17 1546.12 L1270.17 1544.67 Q1273.2 1544.55 1275.2 1542.42 Q1277.23 1540.26 1277.9 1537.62 Q1278.61 1534.98 1278.68 1531.92 L1280.32 1531.92 L1280.32 1544.06 L1289.75 1544.06 L1289.75 1546.12 L1280.32 1546.12 L1280.32 1564.45 Q1280.32 1571.57 1284.76 1571.57 Q1286.66 1571.57 1287.92 1569.63 Q1289.17 1567.67 1289.17 1564.19 L1289.17 1560.55 L1290.82 1560.55 L1290.82 1564.32 Q1290.82 1567.89 1289.17 1570.57 Q1287.53 1573.24 1284.28 1573.24 Q1283.09 1573.24 1281.9 1572.92 Q1280.74 1572.63 1279.19 1571.86 Q1277.68 1571.05 1276.71 1569.12 Q1275.78 1567.15 1275.78 1564.32 L1275.78 1546.12 L1270.17 1546.12 Z" fill="#000000" fill-rule="evenodd" fill-opacity="1" /><path clip-path="url(#clip650)" d="M1295.65 1572.5 L1295.65 1570.47 Q1299.16 1570.47 1299.97 1570.05 Q1300.77 1569.6 1300.77 1567.48 L1300.77 1533.18 Q1300.77 1530.73 1299.9 1530.12 Q1299.07 1529.5 1295.65 1529.5 L1295.65 1527.44 L1305.12 1526.74 L1305.12 1549.67 L1305.19 1549.67 Q1306.25 1547.28 1308.63 1545.32 Q1311.02 1543.35 1314.69 1543.35 Q1319.65 1543.35 1321.61 1545.8 Q1323.06 1547.44 1323.35 1549.28 Q1323.67 1551.12 1323.67 1555.88 L1323.67 1568.47 Q1323.74 1569.86 1324.8 1570.18 Q1325.86 1570.47 1328.83 1570.47 L1328.83 1572.5 Q1322.09 1572.31 1321.42 1572.31 Q1320.9 1572.31 1313.98 1572.5 L1313.98 1570.47 Q1317.49 1570.47 1318.29 1570.05 Q1319.13 1569.6 1319.13 1567.48 L1319.13 1552.11 Q1319.13 1548.76 1318.1 1546.8 Q1317.07 1544.8 1314.24 1544.8 Q1310.82 1544.8 1308.09 1547.67 Q1305.35 1550.54 1305.35 1555.37 L1305.35 1567.48 Q1305.35 1569.6 1306.15 1570.05 Q1306.99 1570.47 1310.47 1570.47 L1310.47 1572.5 Q1303.74 1572.31 1303.09 1572.31 Q1302.58 1572.31 1295.65 1572.5 Z" fill="#000000" fill-rule="evenodd" fill-opacity="1" /><path clip-path="url(#clip650)" d="M1360.94 1556.01 Q1360.94 1544.87 1365.1 1535.88 Q1366.87 1532.11 1369.35 1528.96 Q1371.83 1525.8 1373.47 1524.42 Q1375.11 1523.03 1375.56 1523.03 Q1376.21 1523.03 1376.24 1523.68 Q1376.24 1524 1375.37 1524.8 Q1364.74 1535.62 1364.77 1556.01 Q1364.77 1576.46 1375.11 1586.86 Q1376.24 1587.99 1376.24 1588.35 Q1376.24 1588.99 1375.56 1588.99 Q1375.11 1588.99 1373.53 1587.67 Q1371.96 1586.35 1369.51 1583.32 Q1367.06 1580.29 1365.29 1576.59 Q1360.94 1567.6 1360.94 1556.01 Z" fill="#000000" fill-rule="evenodd" fill-opacity="1" /><path clip-path="url(#clip650)" d="M1415.17 1563.06 Q1414.33 1567.22 1413.2 1569.6 Q1411.37 1573.24 1408.31 1573.24 Q1406.18 1573.24 1404.57 1572.05 Q1402.99 1570.83 1402.45 1568.8 Q1401.83 1569.6 1401.29 1570.15 Q1400.77 1570.7 1399.77 1571.53 Q1398.77 1572.34 1397.42 1572.79 Q1396.1 1573.24 1394.59 1573.24 Q1393.43 1573.24 1392.36 1573.02 Q1391.3 1572.82 1390.17 1572.27 Q1389.08 1571.69 1388.27 1570.83 Q1387.5 1569.96 1386.99 1568.54 Q1386.47 1567.12 1386.47 1565.32 Q1386.47 1563.06 1387.34 1560 Q1388.24 1556.94 1390.3 1551.47 Q1391.43 1548.57 1391.43 1546.96 Q1391.43 1546.22 1391.27 1545.74 Q1391.11 1545.25 1390.79 1545.09 Q1390.5 1544.9 1390.3 1544.87 Q1390.11 1544.8 1389.79 1544.8 Q1387.79 1544.8 1386.05 1546.83 Q1384.31 1548.86 1383.12 1552.98 Q1382.86 1553.79 1382.7 1553.98 Q1382.54 1554.17 1382.06 1554.17 Q1381.25 1554.14 1381.25 1553.5 Q1381.25 1553.24 1381.54 1552.24 Q1381.83 1551.21 1382.51 1549.7 Q1383.22 1548.15 1384.18 1546.77 Q1385.15 1545.35 1386.66 1544.35 Q1388.21 1543.35 1389.98 1543.35 Q1392.4 1543.35 1393.88 1544.93 Q1395.39 1546.48 1395.39 1548.76 Q1395.39 1550.18 1394.26 1552.92 Q1390.69 1562.42 1390.69 1566.38 Q1390.69 1571.76 1394.78 1571.76 Q1396.13 1571.76 1397.39 1571.21 Q1398.68 1570.66 1399.51 1569.89 Q1400.35 1569.12 1401 1568.28 Q1401.67 1567.44 1401.96 1566.9 Q1402.28 1566.35 1402.32 1566.22 L1407.24 1546.38 Q1407.44 1545.61 1407.79 1545.09 Q1408.18 1544.55 1408.63 1544.35 Q1409.08 1544.16 1409.34 1544.13 Q1409.59 1544.06 1409.82 1544.06 Q1410.63 1544.06 1411.17 1544.55 Q1411.75 1545.03 1411.75 1545.87 Q1411.75 1546.03 1411.56 1546.8 Q1411.4 1547.54 1411.14 1548.64 Q1410.88 1549.7 1410.75 1550.28 Q1409.72 1554.34 1409.63 1554.75 L1407.79 1561.87 Q1407.69 1562.29 1407.37 1563.64 Q1407.08 1565 1406.92 1565.7 Q1406.76 1566.38 1406.6 1567.31 Q1406.47 1568.22 1406.47 1568.73 Q1406.47 1570.34 1406.95 1571.05 Q1407.44 1571.76 1408.5 1571.76 Q1409.5 1571.76 1410.27 1571.08 Q1411.08 1570.37 1411.69 1569.02 Q1412.3 1567.64 1412.65 1566.51 Q1413.01 1565.38 1413.46 1563.61 Q1413.62 1562.84 1413.75 1562.64 Q1413.91 1562.42 1414.36 1562.42 Q1415.17 1562.42 1415.17 1563.06 Z" fill="#000000" fill-rule="evenodd" fill-opacity="1" /><path clip-path="url(#clip650)" d="M1419.61 1571.44 Q1418.61 1570.37 1418.61 1568.99 Q1418.61 1567.6 1419.61 1566.61 Q1420.6 1565.58 1422.12 1565.58 Q1423.57 1565.58 1424.53 1566.54 Q1425.53 1567.48 1425.53 1569.02 Q1425.53 1570.54 1424.47 1571.53 Q1423.44 1572.5 1422.12 1572.5 Q1420.6 1572.5 1419.61 1571.44 Z" fill="#000000" fill-rule="evenodd" fill-opacity="1" /><path clip-path="url(#clip650)" d="M1477.42 1563.06 Q1476.56 1567.22 1475.43 1569.6 Q1473.62 1573.24 1470.56 1573.24 Q1468.25 1573.24 1466.6 1571.82 Q1464.96 1570.41 1464.57 1568.28 Q1460.36 1573.24 1455.98 1573.24 Q1452.11 1573.24 1449.66 1570.31 Q1447.22 1567.35 1447.22 1562.68 Q1447.22 1557.97 1449.53 1553.47 Q1451.89 1548.96 1455.59 1546.16 Q1459.29 1543.35 1463.09 1543.35 Q1467.12 1543.35 1469.18 1547.57 Q1469.34 1546.41 1470.08 1545.54 Q1470.82 1544.67 1471.95 1544.67 Q1472.82 1544.67 1473.33 1545.16 Q1473.85 1545.61 1473.85 1546.45 Q1473.85 1546.86 1473.4 1548.7 L1471.02 1557.91 L1469.57 1563.87 Q1469.02 1566.06 1468.86 1566.86 Q1468.73 1567.67 1468.73 1568.73 Q1468.73 1571.76 1470.69 1571.76 Q1471.66 1571.76 1472.43 1571.15 Q1473.21 1570.54 1473.82 1569.25 Q1474.43 1567.96 1474.82 1566.77 Q1475.2 1565.54 1475.72 1563.61 Q1475.88 1562.84 1476.01 1562.64 Q1476.17 1562.42 1476.62 1562.42 Q1477.42 1562.42 1477.42 1563.06 M1468.37 1550.6 Q1468.37 1550.31 1468.15 1549.5 Q1467.92 1548.7 1467.41 1547.57 Q1466.89 1546.45 1465.77 1545.64 Q1464.67 1544.8 1463.19 1544.8 Q1461.19 1544.8 1459.1 1546.51 Q1457.04 1548.22 1455.52 1551.12 Q1454.37 1553.43 1453.11 1558.3 Q1451.89 1563.16 1451.89 1565.58 Q1451.89 1567.06 1452.21 1568.38 Q1452.56 1569.67 1453.56 1570.73 Q1454.56 1571.76 1456.1 1571.76 Q1459.87 1571.76 1463.58 1567.09 Q1464.28 1566.28 1464.45 1565.96 Q1464.64 1565.61 1464.9 1564.64 L1468.18 1551.73 Q1468.37 1550.76 1468.37 1550.6 Z" fill="#000000" fill-rule="evenodd" fill-opacity="1" /><path clip-path="url(#clip650)" d="M1482.76 1571.44 Q1481.76 1570.37 1481.76 1568.99 Q1481.76 1567.6 1482.76 1566.61 Q1483.76 1565.58 1485.27 1565.58 Q1486.72 1565.58 1487.69 1566.54 Q1488.69 1567.48 1488.69 1569.02 Q1488.69 1570.54 1487.62 1571.53 Q1486.59 1572.5 1485.27 1572.5 Q1483.76 1572.5 1482.76 1571.44 Z" fill="#000000" fill-rule="evenodd" fill-opacity="1" /><path clip-path="url(#clip650)" d="M1510.37 1588.35 Q1510.37 1588.02 1511.21 1587.22 Q1521.84 1576.4 1521.84 1556.01 Q1521.84 1535.56 1511.63 1525.22 Q1510.37 1524.03 1510.37 1523.68 Q1510.37 1523.03 1511.01 1523.03 Q1511.47 1523.03 1513.04 1524.35 Q1514.65 1525.67 1517.07 1528.7 Q1519.52 1531.73 1521.32 1535.43 Q1525.67 1544.42 1525.67 1556.01 Q1525.67 1567.15 1521.51 1576.14 Q1519.74 1579.91 1517.26 1583.06 Q1514.78 1586.22 1513.14 1587.6 Q1511.5 1588.99 1511.01 1588.99 Q1510.37 1588.99 1510.37 1588.35 Z" fill="#000000" fill-rule="evenodd" fill-opacity="1" /><polyline clip-path="url(#clip652)" style="stroke:#000000; stroke-linecap:butt; stroke-linejoin:round; stroke-width:2; stroke-opacity:0.1; fill:none" points="
  338.404,1406.74 2352.76,1406.74 
  "/>
<polyline clip-path="url(#clip652)" style="stroke:#000000; stroke-linecap:butt; stroke-linejoin:round; stroke-width:2; stroke-opacity:0.1; fill:none" points="
  338.404,1067.65 2352.76,1067.65 
  "/>
<polyline clip-path="url(#clip652)" style="stroke:#000000; stroke-linecap:butt; stroke-linejoin:round; stroke-width:2; stroke-opacity:0.1; fill:none" points="
  338.404,728.567 2352.76,728.567 
  "/>
<polyline clip-path="url(#clip652)" style="stroke:#000000; stroke-linecap:butt; stroke-linejoin:round; stroke-width:2; stroke-opacity:0.1; fill:none" points="
  338.404,389.481 2352.76,389.481 
  "/>
<polyline clip-path="url(#clip650)" style="stroke:#000000; stroke-linecap:butt; stroke-linejoin:round; stroke-width:4; stroke-opacity:1; fill:none" points="
  338.404,1423.18 338.404,123.472 
  "/>
<polyline clip-path="url(#clip650)" style="stroke:#000000; stroke-linecap:butt; stroke-linejoin:round; stroke-width:4; stroke-opacity:1; fill:none" points="
  338.404,1406.74 357.302,1406.74 
  "/>
<polyline clip-path="url(#clip650)" style="stroke:#000000; stroke-linecap:butt; stroke-linejoin:round; stroke-width:4; stroke-opacity:1; fill:none" points="
  338.404,1067.65 357.302,1067.65 
  "/>
<polyline clip-path="url(#clip650)" style="stroke:#000000; stroke-linecap:butt; stroke-linejoin:round; stroke-width:4; stroke-opacity:1; fill:none" points="
  338.404,728.567 357.302,728.567 
  "/>
<polyline clip-path="url(#clip650)" style="stroke:#000000; stroke-linecap:butt; stroke-linejoin:round; stroke-width:4; stroke-opacity:1; fill:none" points="
  338.404,389.481 357.302,389.481 
  "/>
<path clip-path="url(#clip650)" d="M290.46 1392.54 Q286.849 1392.54 285.02 1396.1 Q283.215 1399.65 283.215 1406.78 Q283.215 1413.88 285.02 1417.45 Q286.849 1420.99 290.46 1420.99 Q294.094 1420.99 295.9 1417.45 Q297.729 1413.88 297.729 1406.78 Q297.729 1399.65 295.9 1396.1 Q294.094 1392.54 290.46 1392.54 M290.46 1388.84 Q296.27 1388.84 299.326 1393.44 Q302.404 1398.03 302.404 1406.78 Q302.404 1415.5 299.326 1420.11 Q296.27 1424.69 290.46 1424.69 Q284.65 1424.69 281.571 1420.11 Q278.516 1415.5 278.516 1406.78 Q278.516 1398.03 281.571 1393.44 Q284.65 1388.84 290.46 1388.84 Z" fill="#000000" fill-rule="evenodd" fill-opacity="1" /><path clip-path="url(#clip650)" d="M121.043 1087.45 L137.362 1087.45 L137.362 1091.38 L115.418 1091.38 L115.418 1087.45 Q118.08 1084.69 122.663 1080.06 Q127.269 1075.41 128.45 1074.07 Q130.695 1071.54 131.575 1069.81 Q132.478 1068.05 132.478 1066.36 Q132.478 1063.6 130.533 1061.87 Q128.612 1060.13 125.51 1060.13 Q123.311 1060.13 120.857 1060.9 Q118.427 1061.66 115.649 1063.21 L115.649 1058.49 Q118.473 1057.35 120.927 1056.78 Q123.38 1056.2 125.418 1056.2 Q130.788 1056.2 133.982 1058.88 Q137.177 1061.57 137.177 1066.06 Q137.177 1068.19 136.367 1070.11 Q135.579 1072.01 133.473 1074.6 Q132.894 1075.27 129.792 1078.49 Q126.691 1081.68 121.043 1087.45 Z" fill="#000000" fill-rule="evenodd" fill-opacity="1" /><path clip-path="url(#clip650)" d="M147.177 1085.5 L152.061 1085.5 L152.061 1091.38 L147.177 1091.38 L147.177 1085.5 Z" fill="#000000" fill-rule="evenodd" fill-opacity="1" /><path clip-path="url(#clip650)" d="M172.246 1059.9 Q168.635 1059.9 166.806 1063.47 Q165.001 1067.01 165.001 1074.14 Q165.001 1081.24 166.806 1084.81 Q168.635 1088.35 172.246 1088.35 Q175.88 1088.35 177.686 1084.81 Q179.514 1081.24 179.514 1074.14 Q179.514 1067.01 177.686 1063.47 Q175.88 1059.9 172.246 1059.9 M172.246 1056.2 Q178.056 1056.2 181.112 1060.8 Q184.19 1065.39 184.19 1074.14 Q184.19 1082.86 181.112 1087.47 Q178.056 1092.05 172.246 1092.05 Q166.436 1092.05 163.357 1087.47 Q160.302 1082.86 160.302 1074.14 Q160.302 1065.39 163.357 1060.8 Q166.436 1056.2 172.246 1056.2 Z" fill="#000000" fill-rule="evenodd" fill-opacity="1" /><path clip-path="url(#clip650)" d="M220.579 1065.92 L210 1076.54 L220.579 1087.12 L217.824 1089.92 L207.199 1079.3 L196.575 1089.92 L193.843 1087.12 L204.399 1076.54 L193.843 1065.92 L196.575 1063.12 L207.199 1073.74 L217.824 1063.12 L220.579 1065.92 Z" fill="#000000" fill-rule="evenodd" fill-opacity="1" /><path clip-path="url(#clip650)" d="M232.94 1087.45 L240.579 1087.45 L240.579 1061.08 L232.269 1062.75 L232.269 1058.49 L240.533 1056.82 L245.209 1056.82 L245.209 1087.45 L252.847 1087.45 L252.847 1091.38 L232.94 1091.38 L232.94 1087.45 Z" fill="#000000" fill-rule="evenodd" fill-opacity="1" /><path clip-path="url(#clip650)" d="M272.292 1059.9 Q268.681 1059.9 266.852 1063.47 Q265.046 1067.01 265.046 1074.14 Q265.046 1081.24 266.852 1084.81 Q268.681 1088.35 272.292 1088.35 Q275.926 1088.35 277.732 1084.81 Q279.56 1081.24 279.56 1074.14 Q279.56 1067.01 277.732 1063.47 Q275.926 1059.9 272.292 1059.9 M272.292 1056.2 Q278.102 1056.2 281.157 1060.8 Q284.236 1065.39 284.236 1074.14 Q284.236 1082.86 281.157 1087.47 Q278.102 1092.05 272.292 1092.05 Q266.482 1092.05 263.403 1087.47 Q260.347 1082.86 260.347 1074.14 Q260.347 1065.39 263.403 1060.8 Q266.482 1056.2 272.292 1056.2 Z" fill="#000000" fill-rule="evenodd" fill-opacity="1" /><path clip-path="url(#clip650)" d="M285.421 1035.89 L300.336 1035.89 L300.336 1039.09 L288.9 1039.09 L288.9 1045.97 Q289.728 1045.69 290.556 1045.56 Q291.383 1045.41 292.211 1045.41 Q296.913 1045.41 299.658 1047.98 Q302.404 1050.56 302.404 1054.96 Q302.404 1059.5 299.583 1062.02 Q296.762 1064.52 291.628 1064.52 Q289.86 1064.52 288.016 1064.22 Q286.192 1063.91 284.236 1063.31 L284.236 1059.5 Q285.929 1060.42 287.734 1060.87 Q289.54 1061.32 291.552 1061.32 Q294.806 1061.32 296.706 1059.61 Q298.605 1057.9 298.605 1054.96 Q298.605 1052.03 296.706 1050.32 Q294.806 1048.61 291.552 1048.61 Q290.029 1048.61 288.505 1048.94 Q287.001 1049.28 285.421 1050 L285.421 1035.89 Z" fill="#000000" fill-rule="evenodd" fill-opacity="1" /><path clip-path="url(#clip650)" d="M129.862 721.809 L118.056 740.258 L129.862 740.258 L129.862 721.809 M128.635 717.735 L134.515 717.735 L134.515 740.258 L139.445 740.258 L139.445 744.147 L134.515 744.147 L134.515 752.295 L129.862 752.295 L129.862 744.147 L114.26 744.147 L114.26 739.633 L128.635 717.735 Z" fill="#000000" fill-rule="evenodd" fill-opacity="1" /><path clip-path="url(#clip650)" d="M147.177 746.415 L152.061 746.415 L152.061 752.295 L147.177 752.295 L147.177 746.415 Z" fill="#000000" fill-rule="evenodd" fill-opacity="1" /><path clip-path="url(#clip650)" d="M172.246 720.814 Q168.635 720.814 166.806 724.379 Q165.001 727.92 165.001 735.05 Q165.001 742.156 166.806 745.721 Q168.635 749.263 172.246 749.263 Q175.88 749.263 177.686 745.721 Q179.514 742.156 179.514 735.05 Q179.514 727.92 177.686 724.379 Q175.88 720.814 172.246 720.814 M172.246 717.11 Q178.056 717.11 181.112 721.717 Q184.19 726.3 184.19 735.05 Q184.19 743.777 181.112 748.383 Q178.056 752.966 172.246 752.966 Q166.436 752.966 163.357 748.383 Q160.302 743.777 160.302 735.05 Q160.302 726.3 163.357 721.717 Q166.436 717.11 172.246 717.11 Z" fill="#000000" fill-rule="evenodd" fill-opacity="1" /><path clip-path="url(#clip650)" d="M220.579 726.832 L210 737.457 L220.579 748.036 L217.824 750.837 L207.199 740.212 L196.575 750.837 L193.843 748.036 L204.399 737.457 L193.843 726.832 L196.575 724.031 L207.199 734.656 L217.824 724.031 L220.579 726.832 Z" fill="#000000" fill-rule="evenodd" fill-opacity="1" /><path clip-path="url(#clip650)" d="M232.94 748.36 L240.579 748.36 L240.579 721.994 L232.269 723.661 L232.269 719.402 L240.533 717.735 L245.209 717.735 L245.209 748.36 L252.847 748.36 L252.847 752.295 L232.94 752.295 L232.94 748.36 Z" fill="#000000" fill-rule="evenodd" fill-opacity="1" /><path clip-path="url(#clip650)" d="M272.292 720.814 Q268.681 720.814 266.852 724.379 Q265.046 727.92 265.046 735.05 Q265.046 742.156 266.852 745.721 Q268.681 749.263 272.292 749.263 Q275.926 749.263 277.732 745.721 Q279.56 742.156 279.56 735.05 Q279.56 727.92 277.732 724.379 Q275.926 720.814 272.292 720.814 M272.292 717.11 Q278.102 717.11 281.157 721.717 Q284.236 726.3 284.236 735.05 Q284.236 743.777 281.157 748.383 Q278.102 752.966 272.292 752.966 Q266.482 752.966 263.403 748.383 Q260.347 743.777 260.347 735.05 Q260.347 726.3 263.403 721.717 Q266.482 717.11 272.292 717.11 Z" fill="#000000" fill-rule="evenodd" fill-opacity="1" /><path clip-path="url(#clip650)" d="M285.421 696.805 L300.336 696.805 L300.336 700.002 L288.9 700.002 L288.9 706.886 Q289.728 706.604 290.556 706.472 Q291.383 706.321 292.211 706.321 Q296.913 706.321 299.658 708.898 Q302.404 711.475 302.404 715.876 Q302.404 720.408 299.583 722.929 Q296.762 725.43 291.628 725.43 Q289.86 725.43 288.016 725.129 Q286.192 724.828 284.236 724.226 L284.236 720.408 Q285.929 721.33 287.734 721.781 Q289.54 722.233 291.552 722.233 Q294.806 722.233 296.706 720.521 Q298.605 718.81 298.605 715.876 Q298.605 712.942 296.706 711.23 Q294.806 709.519 291.552 709.519 Q290.029 709.519 288.505 709.857 Q287.001 710.196 285.421 710.91 L285.421 696.805 Z" fill="#000000" fill-rule="evenodd" fill-opacity="1" /><path clip-path="url(#clip650)" d="M127.593 394.065 Q124.445 394.065 122.593 396.218 Q120.765 398.37 120.765 402.12 Q120.765 405.847 122.593 408.023 Q124.445 410.176 127.593 410.176 Q130.742 410.176 132.57 408.023 Q134.422 405.847 134.422 402.12 Q134.422 398.37 132.57 396.218 Q130.742 394.065 127.593 394.065 M136.876 379.412 L136.876 383.671 Q135.117 382.838 133.311 382.398 Q131.529 381.959 129.769 381.959 Q125.14 381.959 122.686 385.084 Q120.255 388.208 119.908 394.528 Q121.274 392.514 123.334 391.449 Q125.394 390.361 127.871 390.361 Q133.08 390.361 136.089 393.533 Q139.121 396.681 139.121 402.12 Q139.121 407.444 135.973 410.662 Q132.825 413.88 127.593 413.88 Q121.598 413.88 118.427 409.296 Q115.256 404.69 115.256 395.963 Q115.256 387.769 119.144 382.908 Q123.033 378.023 129.584 378.023 Q131.343 378.023 133.126 378.371 Q134.931 378.718 136.876 379.412 Z" fill="#000000" fill-rule="evenodd" fill-opacity="1" /><path clip-path="url(#clip650)" d="M147.177 407.329 L152.061 407.329 L152.061 413.208 L147.177 413.208 L147.177 407.329 Z" fill="#000000" fill-rule="evenodd" fill-opacity="1" /><path clip-path="url(#clip650)" d="M172.246 381.727 Q168.635 381.727 166.806 385.292 Q165.001 388.833 165.001 395.963 Q165.001 403.07 166.806 406.634 Q168.635 410.176 172.246 410.176 Q175.88 410.176 177.686 406.634 Q179.514 403.07 179.514 395.963 Q179.514 388.833 177.686 385.292 Q175.88 381.727 172.246 381.727 M172.246 378.023 Q178.056 378.023 181.112 382.63 Q184.19 387.213 184.19 395.963 Q184.19 404.69 181.112 409.296 Q178.056 413.88 172.246 413.88 Q166.436 413.88 163.357 409.296 Q160.302 404.69 160.302 395.963 Q160.302 387.213 163.357 382.63 Q166.436 378.023 172.246 378.023 Z" fill="#000000" fill-rule="evenodd" fill-opacity="1" /><path clip-path="url(#clip650)" d="M220.579 387.746 L210 398.37 L220.579 408.949 L217.824 411.75 L207.199 401.125 L196.575 411.75 L193.843 408.949 L204.399 398.37 L193.843 387.746 L196.575 384.945 L207.199 395.57 L217.824 384.945 L220.579 387.746 Z" fill="#000000" fill-rule="evenodd" fill-opacity="1" /><path clip-path="url(#clip650)" d="M232.94 409.273 L240.579 409.273 L240.579 382.908 L232.269 384.574 L232.269 380.315 L240.533 378.648 L245.209 378.648 L245.209 409.273 L252.847 409.273 L252.847 413.208 L232.94 413.208 L232.94 409.273 Z" fill="#000000" fill-rule="evenodd" fill-opacity="1" /><path clip-path="url(#clip650)" d="M272.292 381.727 Q268.681 381.727 266.852 385.292 Q265.046 388.833 265.046 395.963 Q265.046 403.07 266.852 406.634 Q268.681 410.176 272.292 410.176 Q275.926 410.176 277.732 406.634 Q279.56 403.07 279.56 395.963 Q279.56 388.833 277.732 385.292 Q275.926 381.727 272.292 381.727 M272.292 378.023 Q278.102 378.023 281.157 382.63 Q284.236 387.213 284.236 395.963 Q284.236 404.69 281.157 409.296 Q278.102 413.88 272.292 413.88 Q266.482 413.88 263.403 409.296 Q260.347 404.69 260.347 395.963 Q260.347 387.213 263.403 382.63 Q266.482 378.023 272.292 378.023 Z" fill="#000000" fill-rule="evenodd" fill-opacity="1" /><path clip-path="url(#clip650)" d="M285.421 357.718 L300.336 357.718 L300.336 360.915 L288.9 360.915 L288.9 367.799 Q289.728 367.517 290.556 367.385 Q291.383 367.235 292.211 367.235 Q296.913 367.235 299.658 369.811 Q302.404 372.388 302.404 376.789 Q302.404 381.322 299.583 383.842 Q296.762 386.343 291.628 386.343 Q289.86 386.343 288.016 386.042 Q286.192 385.742 284.236 385.14 L284.236 381.322 Q285.929 382.243 287.734 382.695 Q289.54 383.146 291.552 383.146 Q294.806 383.146 296.706 381.435 Q298.605 379.723 298.605 376.789 Q298.605 373.855 296.706 372.144 Q294.806 370.432 291.552 370.432 Q290.029 370.432 288.505 370.771 Q287.001 371.109 285.421 371.824 L285.421 357.718 Z" fill="#000000" fill-rule="evenodd" fill-opacity="1" /><path clip-path="url(#clip650)" d="M69.0589 1129.8 L67.03 1129.8 L67.03 1128.22 Q67.03 1124.65 66.4502 1123.84 Q65.8383 1123 63.906 1123 L29.3491 1123 Q27.449 1123 26.8692 1123.84 Q26.2573 1124.68 26.2573 1128.22 L26.2573 1129.8 L24.1962 1129.8 L24.1962 1092.67 L39.0431 1090.83 L39.0431 1092.47 Q35.275 1092.92 33.1172 1093.54 Q30.9272 1094.12 29.2525 1095.57 Q27.5778 1096.98 26.9337 1099.33 Q26.2573 1101.65 26.2573 1105.42 L26.2573 1113.92 Q26.2573 1116.18 26.7404 1116.66 Q27.1913 1117.14 28.8982 1117.14 L44.7113 1117.14 L44.7113 1111.22 Q44.7113 1106.68 43.1332 1105.39 Q41.5551 1104.1 37.0141 1104.1 L37.0141 1102.43 L54.4697 1102.43 L54.4697 1104.1 Q49.9931 1104.1 48.3828 1105.39 Q46.7725 1106.68 46.7725 1111.22 L46.7725 1117.14 L64.3891 1117.14 Q66.096 1117.14 66.5791 1116.66 Q67.03 1116.14 67.03 1113.92 L67.03 1105.13 Q67.03 1102.3 66.6757 1100.24 Q66.2892 1098.14 65.3875 1096.69 Q64.4535 1095.24 63.3907 1094.28 Q62.3279 1093.28 60.4278 1092.6 Q58.4954 1091.89 56.7241 1091.51 Q54.9528 1091.09 52.0542 1090.64 L52.0542 1089 L69.0589 1091.77 L69.0589 1129.8 Z" fill="#000000" fill-rule="evenodd" fill-opacity="1" /><path clip-path="url(#clip650)" d="M69.0589 1081.7 L67.03 1081.7 Q67.03 1078.19 66.6113 1077.39 Q66.1604 1076.58 64.0348 1076.58 L29.7356 1076.58 Q27.2879 1076.58 26.676 1077.45 Q26.0641 1078.29 26.0641 1081.7 L24.0029 1081.7 L23.2944 1072.23 L64.0348 1072.23 Q66.1604 1072.23 66.6113 1071.4 Q67.03 1070.56 67.03 1067.08 L69.0589 1067.08 Q69.0589 1067.89 68.9945 1069.56 Q68.9301 1071.23 68.8979 1072.46 Q68.8657 1073.68 68.8657 1074.39 Q68.8657 1075.16 69.0589 1081.7 Z" fill="#000000" fill-rule="evenodd" fill-opacity="1" /><path clip-path="url(#clip650)" d="M54.5341 1062.82 Q48.3183 1062.82 43.9061 1058.83 Q39.4939 1054.84 39.4939 1049.1 Q39.4939 1043.31 43.262 1040.31 Q47.0301 1037.28 52.4407 1037.28 Q53.4391 1037.28 53.6323 1037.54 Q53.8256 1037.8 53.8256 1038.93 L53.8256 1057.35 Q60.5566 1057.35 63.7128 1055.35 Q68.125 1052.58 68.125 1047.91 Q68.125 1047.27 67.9961 1046.49 Q67.8673 1045.72 67.3198 1044.14 Q66.7401 1042.57 65.2264 1041.18 Q63.7128 1039.8 61.3295 1038.99 Q60.3955 1038.8 60.4278 1038.15 Q60.4278 1037.28 61.2007 1037.28 Q61.7804 1037.28 63.1008 1037.93 Q64.3891 1038.54 65.935 1039.73 Q67.4808 1040.92 68.6402 1043.24 Q69.7997 1045.53 69.7997 1048.3 Q69.7997 1054.1 65.4197 1058.48 Q61.0075 1062.82 54.5341 1062.82 M52.4407 1057.28 L52.4407 1041.63 Q51.0558 1041.63 49.51 1041.89 Q47.9641 1042.11 45.8385 1042.82 Q43.6807 1043.5 42.3281 1045.11 Q40.9754 1046.72 40.9754 1049.1 Q40.9754 1050.17 41.4263 1051.33 Q41.8772 1052.45 42.9722 1053.84 Q44.0672 1055.22 46.547 1056.19 Q49.0269 1057.15 52.4407 1057.28 Z" fill="#000000" fill-rule="evenodd" fill-opacity="1" /><path clip-path="url(#clip650)" d="M65.4519 1029.64 Q61.0719 1033.83 54.8239 1033.83 Q48.5438 1033.83 44.035 1029.71 Q39.4939 1025.58 39.4939 1019.53 Q39.4939 1015.5 41.4263 1012.47 Q43.3264 1009.45 46.5792 1009.45 Q48.0285 1009.45 48.8658 1010.32 Q49.671 1011.15 49.671 1012.47 Q49.671 1013.86 48.8336 1014.7 Q47.9641 1015.5 46.6436 1015.5 Q46.0639 1015.5 45.4842 1015.31 Q44.9045 1015.12 44.2926 1014.41 Q43.6807 1013.67 43.5841 1012.41 Q41.1686 1014.76 41.1686 1019.33 Q41.1686 1019.4 41.1686 1019.46 Q41.1686 1022.81 44.3248 1025.58 Q47.481 1028.35 54.6951 1028.35 Q58.4632 1028.35 61.2329 1027.45 Q63.9704 1026.52 65.3875 1025 Q66.8045 1023.49 67.4808 1022.01 Q68.125 1020.53 68.125 1019.08 Q68.125 1012.6 61.2007 1010.41 Q60.5566 1010.22 60.5566 1009.58 Q60.5566 1008.71 61.2007 1008.71 Q61.5228 1008.71 62.3601 1008.96 Q63.1975 1009.22 64.5179 1010.03 Q65.8383 1010.83 66.9977 1011.99 Q68.125 1013.12 68.9623 1015.15 Q69.7997 1017.14 69.7997 1019.66 Q69.7997 1025.45 65.4519 1029.64 Z" fill="#000000" fill-rule="evenodd" fill-opacity="1" /><path clip-path="url(#clip650)" d="M42.6823 1006.42 L41.2331 1006.42 Q41.1042 1003.39 38.9786 1001.39 Q36.8209 999.363 34.18 998.686 Q31.5391 997.978 28.4795 997.913 L28.4795 996.271 L40.6211 996.271 L40.6211 986.834 L42.6823 986.834 L42.6823 996.271 L61.0075 996.271 Q68.125 996.271 68.125 991.826 Q68.125 989.926 66.1926 988.67 Q64.228 987.414 60.7498 987.414 L57.1105 987.414 L57.1105 985.772 L60.8786 985.772 Q64.4535 985.772 67.1266 987.414 Q69.7997 989.057 69.7997 992.309 Q69.7997 993.501 69.4776 994.693 Q69.1877 995.852 68.4148 997.398 Q67.6097 998.912 65.6773 999.878 Q63.7128 1000.81 60.8786 1000.81 L42.6823 1000.81 L42.6823 1006.42 Z" fill="#000000" fill-rule="evenodd" fill-opacity="1" /><path clip-path="url(#clip650)" d="M69.0589 981.88 L67.03 981.88 Q67.03 978.37 66.6113 977.565 Q66.1604 976.727 64.0348 976.727 L46.3538 976.727 Q43.9061 976.727 43.2942 977.597 Q42.6823 978.434 42.6823 981.88 L40.6211 981.88 L39.9126 972.702 L47.1589 972.702 Q44.3248 971.768 42.1348 969.803 Q39.9126 967.806 39.9126 964.586 Q39.9126 962.46 41.1042 961.107 Q42.2959 959.723 43.9384 959.723 Q45.3876 959.723 46.1283 960.624 Q46.8369 961.494 46.8369 962.557 Q46.8369 963.748 46.0961 964.586 Q45.3232 965.391 44.0028 965.391 Q43.1976 965.391 42.5857 965.037 Q41.9416 964.65 41.7161 964.36 Q41.4907 964.07 41.4263 963.877 Q41.3619 964.006 41.3619 964.586 Q41.3619 968.225 45.0011 970.318 Q48.6082 972.379 53.7611 972.379 L63.906 972.379 Q65.8061 972.379 66.418 971.607 Q67.03 970.801 67.03 967.355 L67.03 965.971 L69.0589 965.971 Q68.8657 968.611 68.8657 974.344 Q68.8657 975.149 68.8979 976.405 Q68.9301 977.661 68.9945 979.304 Q69.0589 980.946 69.0589 981.88 Z" fill="#000000" fill-rule="evenodd" fill-opacity="1" /><path clip-path="url(#clip650)" d="M69.0589 957.194 L67.03 957.194 Q67.03 953.684 66.6113 952.879 Q66.1604 952.074 64.0348 952.074 L46.2894 952.074 Q43.8417 952.074 43.262 952.911 Q42.6823 953.716 42.6823 956.937 L40.6211 956.937 L39.9126 947.726 L64.0992 947.726 Q66.0638 947.726 66.5469 947.017 Q67.03 946.309 67.03 943.088 L69.0589 943.088 Q68.8657 949.819 68.8657 949.948 Q68.8657 950.85 69.0589 957.194 M28.4151 954.425 Q27.0947 954.425 26.0319 953.426 Q24.9369 952.396 24.9369 950.946 Q24.9369 949.497 25.9353 948.467 Q26.9015 947.436 28.4473 947.436 Q29.961 947.436 30.9594 948.467 Q31.9256 949.497 31.9256 950.946 Q31.9256 952.46 30.8628 953.459 Q29.8 954.425 28.4151 954.425 Z" fill="#000000" fill-rule="evenodd" fill-opacity="1" /><path clip-path="url(#clip650)" d="M65.4519 933.073 Q61.0719 937.26 54.8239 937.26 Q48.5438 937.26 44.035 933.138 Q39.4939 929.015 39.4939 922.961 Q39.4939 918.935 41.4263 915.907 Q43.3264 912.88 46.5792 912.88 Q48.0285 912.88 48.8658 913.75 Q49.671 914.587 49.671 915.907 Q49.671 917.292 48.8336 918.13 Q47.9641 918.935 46.6436 918.935 Q46.0639 918.935 45.4842 918.742 Q44.9045 918.548 44.2926 917.84 Q43.6807 917.099 43.5841 915.843 Q41.1686 918.194 41.1686 922.767 Q41.1686 922.832 41.1686 922.896 Q41.1686 926.246 44.3248 929.015 Q47.481 931.785 54.6951 931.785 Q58.4632 931.785 61.2329 930.883 Q63.9704 929.949 65.3875 928.436 Q66.8045 926.922 67.4808 925.44 Q68.125 923.959 68.125 922.51 Q68.125 916.036 61.2007 913.846 Q60.5566 913.653 60.5566 913.009 Q60.5566 912.139 61.2007 912.139 Q61.5228 912.139 62.3601 912.397 Q63.1975 912.655 64.5179 913.46 Q65.8383 914.265 66.9977 915.424 Q68.125 916.552 68.9623 918.581 Q69.7997 920.577 69.7997 923.089 Q69.7997 928.886 65.4519 933.073 Z" fill="#000000" fill-rule="evenodd" fill-opacity="1" /><path clip-path="url(#clip650)" d="M69.0589 893.738 L67.03 893.738 L67.03 892.16 Q67.03 888.585 66.4502 887.78 Q65.8383 886.943 63.906 886.943 L29.3491 886.943 Q27.449 886.943 26.8692 887.78 Q26.2573 888.618 26.2573 892.16 L26.2573 893.738 L24.1962 893.738 L24.1962 857.539 L39.0431 855.703 L39.0431 857.346 Q35.275 857.797 33.1494 858.408 Q30.9916 858.988 29.2847 860.341 Q27.5778 861.693 26.9337 863.98 Q26.2573 866.234 26.2573 869.938 L26.2573 877.861 Q26.2573 880.115 26.7404 880.598 Q27.1913 881.081 28.8982 881.081 L45.5809 881.081 L45.5809 875.413 Q45.5809 870.937 43.9706 869.68 Q42.3603 868.424 37.8514 868.424 L37.8514 866.782 L55.3392 866.782 L55.3392 868.424 Q50.7982 868.424 49.2201 869.68 Q47.6098 870.937 47.6098 875.413 L47.6098 881.081 L63.8416 881.081 Q65.2264 881.081 65.7739 880.856 Q66.2892 880.63 66.6757 879.246 Q67.03 877.861 67.03 874.833 L67.03 872.643 L69.0589 872.643 Q68.8657 875.027 68.8657 883.722 Q68.8657 891.419 69.0589 893.738 Z" fill="#000000" fill-rule="evenodd" fill-opacity="1" /><path clip-path="url(#clip650)" d="M69.0589 846.387 L67.03 846.387 Q67.03 842.876 66.6113 842.071 Q66.1604 841.266 64.0348 841.266 L46.2894 841.266 Q43.8417 841.266 43.262 842.103 Q42.6823 842.909 42.6823 846.129 L40.6211 846.129 L39.9126 836.918 L64.0992 836.918 Q66.0638 836.918 66.5469 836.21 Q67.03 835.501 67.03 832.281 L69.0589 832.281 Q68.8657 839.012 68.8657 839.14 Q68.8657 840.042 69.0589 846.387 M28.4151 843.617 Q27.0947 843.617 26.0319 842.619 Q24.9369 841.588 24.9369 840.139 Q24.9369 838.69 25.9353 837.659 Q26.9015 836.628 28.4473 836.628 Q29.961 836.628 30.9594 837.659 Q31.9256 838.69 31.9256 840.139 Q31.9256 841.653 30.8628 842.651 Q29.8 843.617 28.4151 843.617 Z" fill="#000000" fill-rule="evenodd" fill-opacity="1" /><path clip-path="url(#clip650)" d="M54.5341 826.452 Q48.3183 826.452 43.9061 822.459 Q39.4939 818.465 39.4939 812.733 Q39.4939 806.936 43.262 803.94 Q47.0301 800.913 52.4407 800.913 Q53.4391 800.913 53.6323 801.171 Q53.8256 801.428 53.8256 802.556 L53.8256 820.977 Q60.5566 820.977 63.7128 818.981 Q68.125 816.211 68.125 811.541 Q68.125 810.897 67.9961 810.124 Q67.8673 809.351 67.3198 807.773 Q66.7401 806.195 65.2264 804.81 Q63.7128 803.425 61.3295 802.62 Q60.3955 802.427 60.4278 801.783 Q60.4278 800.913 61.2007 800.913 Q61.7804 800.913 63.1008 801.557 Q64.3891 802.169 65.935 803.361 Q67.4808 804.552 68.6402 806.871 Q69.7997 809.158 69.7997 811.927 Q69.7997 817.725 65.4197 822.105 Q61.0075 826.452 54.5341 826.452 M52.4407 820.913 L52.4407 805.261 Q51.0558 805.261 49.51 805.519 Q47.9641 805.744 45.8385 806.452 Q43.6807 807.129 42.3281 808.739 Q40.9754 810.349 40.9754 812.733 Q40.9754 813.795 41.4263 814.955 Q41.8772 816.082 42.9722 817.467 Q44.0672 818.852 46.547 819.818 Q49.0269 820.784 52.4407 820.913 Z" fill="#000000" fill-rule="evenodd" fill-opacity="1" /><path clip-path="url(#clip650)" d="M69.0589 797.457 L67.03 797.457 Q67.03 793.946 66.6113 793.141 Q66.1604 792.336 64.0348 792.336 L29.7356 792.336 Q27.2879 792.336 26.676 793.205 Q26.0641 794.043 26.0641 797.457 L24.0029 797.457 L23.2944 787.988 L64.0348 787.988 Q66.1604 787.988 66.6113 787.151 Q67.03 786.313 67.03 782.835 L69.0589 782.835 Q69.0589 783.64 68.9945 785.315 Q68.9301 786.99 68.8979 788.214 Q68.8657 789.437 68.8657 790.146 Q68.8657 790.919 69.0589 797.457 Z" fill="#000000" fill-rule="evenodd" fill-opacity="1" /><path clip-path="url(#clip650)" d="M54.8883 777.258 Q48.6082 777.258 44.2604 772.878 Q39.9126 768.498 39.9126 762.572 Q39.9126 757.548 44.0028 754.263 L29.7356 754.263 Q27.2879 754.263 26.676 755.133 Q26.0641 755.97 26.0641 759.384 L24.0029 759.384 L23.2944 749.883 L63.3263 749.883 Q65.7739 749.883 66.418 749.046 Q67.03 748.176 67.03 744.762 L69.0589 744.762 L69.7997 754.456 L65.4197 754.456 Q69.7675 757.87 69.7997 763.281 Q69.7997 768.949 65.4519 773.104 Q61.1041 777.258 54.8883 777.258 M54.9528 771.783 Q61.0719 771.783 64.0992 769.883 Q68.3182 767.242 68.3182 762.959 Q68.3182 758.063 63.7128 755.165 Q62.5855 754.424 61.2651 754.456 L47.7386 754.456 Q46.4182 754.456 45.3232 755.165 Q41.3619 757.87 41.3619 762.282 Q41.3619 766.888 45.5809 769.754 Q48.737 771.783 54.9528 771.783 Z" fill="#000000" fill-rule="evenodd" fill-opacity="1" /><path clip-path="url(#clip650)" d="M52.5695 711.969 Q41.4263 711.969 32.4409 707.815 Q28.6728 706.044 25.5166 703.564 Q22.3604 701.084 20.9756 699.441 Q19.5907 697.799 19.5907 697.348 Q19.5907 696.704 20.2348 696.672 Q20.5569 696.672 21.362 697.541 Q32.1832 708.169 52.5695 708.137 Q73.0202 708.137 83.4227 697.799 Q84.5499 696.672 84.9042 696.672 Q85.5483 696.672 85.5483 697.348 Q85.5483 697.799 84.2279 699.377 Q82.9074 700.955 79.8801 703.403 Q76.8527 705.85 73.1491 707.622 Q64.1636 711.969 52.5695 711.969 Z" fill="#000000" fill-rule="evenodd" fill-opacity="1" /><path clip-path="url(#clip650)" d="M24.8081 642.261 Q25.9997 642.326 26.0641 643.131 Q26.1285 644.355 26.2895 645.096 Q26.4184 645.836 26.9015 646.996 Q27.3845 648.155 28.5439 649.282 Q29.7034 650.41 31.5391 651.569 L69.3166 675.305 Q70.0251 675.723 70.2505 676.078 Q70.5082 676.4 70.5082 677.14 Q70.5082 677.817 70.2183 678.074 Q69.9607 678.332 68.9945 678.461 L28.2863 683.678 Q27.5456 683.775 27.2235 683.871 Q26.9015 683.968 26.5794 684.355 Q26.2573 684.709 26.1607 685.482 Q26.0641 686.255 26.0641 687.64 Q26.0641 688.284 26.0319 688.574 Q25.9997 688.831 25.8387 689.057 Q25.6454 689.282 25.259 689.282 Q24.6792 689.282 24.3894 689.057 Q24.0673 688.799 24.0351 688.606 Q24.0029 688.38 24.0029 688.026 Q24.0029 687.479 24.0673 686.287 Q24.1317 685.095 24.1317 684.483 Q24.1317 683.904 24.164 682.68 Q24.1962 681.456 24.1962 680.844 Q24.1962 679.491 24.0995 676.754 Q24.0029 673.984 24.0029 672.664 Q24.0029 671.762 24.7437 671.762 Q25.6454 671.762 25.8709 672.149 Q26.0641 672.535 26.0641 673.405 Q26.0641 675.595 26.6116 676.786 Q27.1591 677.946 28.0287 677.946 L62.9398 673.469 L30.7339 653.211 Q29.2203 652.213 28.2219 652.213 Q26.2895 652.213 26.0641 655.273 Q26.0641 656.303 25.259 656.303 Q24.6792 656.303 24.3894 656.046 Q24.0673 655.788 24.0351 655.595 Q24.0029 655.369 24.0029 655.047 Q24.0029 653.984 24.0995 651.827 Q24.1962 649.637 24.1962 648.542 Q24.1962 647.64 24.0995 645.804 Q24.0029 643.968 24.0029 643.131 Q24.0029 642.261 24.8081 642.261 Z" fill="#000000" fill-rule="evenodd" fill-opacity="1" /><path clip-path="url(#clip650)" d="M50.1219 626.966 Q51.1525 625.936 52.5695 625.936 Q53.9866 625.936 55.0494 626.966 Q56.08 627.997 56.08 629.414 Q56.08 630.831 55.0494 631.894 Q53.9866 632.925 52.5695 632.925 Q51.1525 632.925 50.1219 631.894 Q49.0591 630.831 49.0591 629.414 Q49.0591 627.997 50.1219 626.966 Z" fill="#000000" fill-rule="evenodd" fill-opacity="1" /><path clip-path="url(#clip650)" d="M61.4261 571.061 Q61.716 570.804 62.0058 570.804 Q62.2957 570.804 63.133 571.448 Q63.9704 572.06 65.0976 573.38 Q66.2248 574.701 67.2876 576.407 Q68.3504 578.114 69.0589 580.626 Q69.7997 583.138 69.7997 585.779 Q69.7997 590.707 66.5469 593.605 Q63.2941 596.472 58.6242 596.472 Q54.0832 596.472 49.7354 593.927 Q45.3554 591.383 42.6501 587.261 Q39.9126 583.138 39.9126 578.791 Q39.9126 575.345 41.5229 573.187 Q43.1332 571.029 45.5809 571.029 Q47.481 571.029 48.6404 572.124 Q49.7998 573.219 49.7998 574.701 Q49.7998 575.731 49.2201 576.44 Q48.6082 577.148 47.481 577.148 Q46.0317 577.148 44.9045 575.957 Q44.4536 575.506 44.2604 574.99 Q44.035 574.443 44.035 574.121 Q44.0028 573.799 44.0028 573.058 Q42.7467 573.734 42.0704 575.345 Q41.3619 576.923 41.3619 578.726 Q41.3619 581.399 43.2298 583.944 Q45.0656 586.488 47.9641 588.034 Q50.7982 589.58 54.8239 590.578 Q58.8175 591.576 61.1363 591.576 Q64.3247 591.576 66.3214 590.095 Q68.3182 588.613 68.3182 585.651 Q68.3182 585.071 68.286 584.459 Q68.2538 583.815 67.8995 582.204 Q67.5452 580.562 66.9333 579.113 Q66.3214 577.663 65.001 575.828 Q63.6483 573.96 61.8126 572.478 Q61.1363 571.963 61.1363 571.609 Q61.1363 571.319 61.4261 571.061 Z" fill="#000000" fill-rule="evenodd" fill-opacity="1" /><path clip-path="url(#clip650)" d="M59.6226 514.168 Q59.8803 514.168 60.8786 514.458 Q61.877 514.748 63.4229 515.456 Q64.9688 516.133 66.3858 517.099 Q67.7707 518.033 68.8013 519.579 Q69.7997 521.092 69.7997 522.832 Q69.7997 525.15 68.2538 526.696 Q66.7079 528.242 64.3891 528.242 Q63.133 528.242 60.7498 527.373 Q49.8642 523.282 45.9673 523.282 Q41.3619 523.282 41.3619 526.857 Q41.3619 528.886 42.1992 530.722 Q43.0366 532.558 44.196 533.749 Q45.3554 534.941 46.6758 535.875 Q47.9963 536.809 48.8658 537.228 Q49.7354 537.614 50.1219 537.711 L66.0316 541.672 Q67.3842 541.994 68.0283 542.219 Q68.6725 542.445 69.22 543.057 Q69.7997 543.669 69.7997 544.635 Q69.7997 545.44 69.3166 546.02 Q68.8335 546.567 67.9961 546.567 Q67.8673 546.567 67.191 546.406 Q66.5147 546.245 65.5807 546.02 Q64.6467 545.794 64.0992 545.698 Q59.7192 544.538 59.1073 544.377 L51.4423 542.542 Q47.642 541.543 45.9673 541.543 Q41.3619 541.543 41.3619 545.118 Q41.3619 546.889 42.0382 548.564 Q42.6823 550.207 43.5841 551.334 Q44.4859 552.461 45.7419 553.492 Q46.9657 554.49 47.8031 555.005 Q48.6082 555.488 49.4133 555.875 L52.6983 556.712 Q53.6001 556.905 57.1105 557.839 L63.0686 559.289 Q67.513 560.319 67.9317 560.545 Q68.8335 560.867 69.3166 561.575 Q69.7997 562.284 69.7997 562.992 Q69.7997 563.797 69.3166 564.345 Q68.8335 564.892 67.9961 564.892 Q67.8673 564.892 67.3842 564.796 Q66.9011 564.699 66.2248 564.538 Q65.5485 564.377 65.162 564.313 L49.9286 560.48 Q47.1589 559.772 46.2894 559.611 Q45.3876 559.417 44.3892 559.417 Q41.3619 559.417 41.3619 561.479 Q41.3619 563.153 43.3586 564.248 Q45.3554 565.343 49.2201 566.277 Q50.2829 566.567 50.5083 566.76 Q50.7338 566.921 50.7338 567.404 Q50.7016 568.21 50.0575 568.21 Q49.8964 568.21 48.8658 567.952 Q47.8353 567.694 46.2894 567.211 Q44.7113 566.696 43.6807 566.148 Q43.0044 565.826 42.5535 565.537 Q42.1026 565.247 41.3941 564.667 Q40.6856 564.087 40.2991 563.218 Q39.9126 562.348 39.9126 561.285 Q39.9126 558.934 41.4263 557.195 Q42.94 555.424 45.6453 555.198 Q39.9126 550.915 39.9126 544.925 Q39.9126 541.543 41.6195 539.514 Q43.262 537.614 46.2894 537.389 Q39.9126 532.944 39.9126 526.632 Q39.9126 522.993 41.8128 521.028 Q43.6807 519.063 46.9657 519.063 Q48.6726 519.063 51.9254 519.933 Q55.146 520.803 56.7563 521.382 Q58.3666 521.962 61.4583 523.089 Q64.4213 524.281 66.1604 524.281 Q67.2876 524.281 67.8029 523.894 Q68.3182 523.508 68.3182 522.671 Q68.3182 521.382 67.5775 520.255 Q66.8045 519.128 65.5485 518.323 Q64.2602 517.485 62.972 516.938 Q61.6516 516.39 60.1701 515.972 Q59.365 515.714 59.1717 515.585 Q58.9785 515.424 58.9785 514.973 Q58.9785 514.168 59.6226 514.168 Z" fill="#000000" fill-rule="evenodd" fill-opacity="1" /><path clip-path="url(#clip650)" d="M37.1258 477.174 Q37.3964 476.904 37.7796 476.904 Q38.1629 476.904 38.4334 477.174 Q38.7039 477.445 38.7039 477.828 L38.7039 506.73 Q38.7039 507.113 38.4334 507.383 Q38.1629 507.654 37.7796 507.654 Q37.3964 507.654 37.1258 507.383 Q36.8553 507.113 36.8553 506.73 L36.8553 477.828 Q36.8553 477.445 37.1258 477.174 Z" fill="#000000" fill-rule="evenodd" fill-opacity="1" /><path clip-path="url(#clip650)" d="M22.9681 472.084 L21.5253 472.084 Q21.5253 466.538 18.572 463.675 Q18.572 462.886 18.7524 462.751 Q18.9328 462.615 19.7669 462.615 L45.6701 462.615 Q47.0452 462.615 47.4736 461.939 Q47.9019 461.263 47.9019 458.31 L47.9019 456.844 L49.3222 456.844 Q49.1869 458.467 49.1869 464.329 Q49.1869 470.19 49.3222 471.791 L47.9019 471.791 L47.9019 470.326 Q47.9019 467.417 47.4961 466.718 Q47.0678 466.02 45.6701 466.02 L21.7508 466.02 Q22.9681 468.432 22.9681 472.084 Z" fill="#000000" fill-rule="evenodd" fill-opacity="1" /><path clip-path="url(#clip650)" d="M84.9042 442.179 Q84.5821 442.179 83.777 441.342 Q72.9558 430.714 52.5695 430.714 Q32.1188 430.714 21.7807 440.923 Q20.5891 442.179 20.2348 442.179 Q19.5907 442.179 19.5907 441.535 Q19.5907 441.084 20.9112 439.506 Q22.2316 437.896 25.259 435.48 Q28.2863 433.033 31.99 431.229 Q40.9754 426.881 52.5695 426.881 Q63.7128 426.881 72.6982 431.036 Q76.4663 432.807 79.6224 435.287 Q82.7786 437.767 84.1635 439.409 Q85.5483 441.052 85.5483 441.535 Q85.5483 442.179 84.9042 442.179 Z" fill="#000000" fill-rule="evenodd" fill-opacity="1" /><path clip-path="url(#clip650)" d="M947.052 12.096 L985.293 12.096 L985.293 18.9825 L955.235 18.9825 L955.235 36.8875 L984.037 36.8875 L984.037 43.7741 L955.235 43.7741 L955.235 65.6895 L986.022 65.6895 L986.022 72.576 L947.052 72.576 L947.052 12.096 Z" fill="#000000" fill-rule="evenodd" fill-opacity="1" /><path clip-path="url(#clip650)" d="M999.147 9.54393 L1006.6 9.54393 L1006.6 72.576 L999.147 72.576 L999.147 9.54393 Z" fill="#000000" fill-rule="evenodd" fill-opacity="1" /><path clip-path="url(#clip650)" d="M1061 48.0275 L1061 51.6733 L1026.73 51.6733 Q1027.22 59.3701 1031.35 63.421 Q1035.52 67.4314 1042.94 67.4314 Q1047.23 67.4314 1051.24 66.3781 Q1055.29 65.3249 1059.26 63.2184 L1059.26 70.267 Q1055.25 71.9684 1051.04 72.8596 Q1046.83 73.7508 1042.49 73.7508 Q1031.64 73.7508 1025.28 67.4314 Q1018.96 61.1119 1018.96 50.3365 Q1018.96 39.1965 1024.95 32.6746 Q1030.99 26.1121 1041.2 26.1121 Q1050.35 26.1121 1055.66 32.0264 Q1061 37.9003 1061 48.0275 M1053.55 45.84 Q1053.47 39.7232 1050.11 36.0774 Q1046.79 32.4315 1041.28 32.4315 Q1035.04 32.4315 1031.27 35.9558 Q1027.54 39.4801 1026.98 45.8805 L1053.55 45.84 Z" fill="#000000" fill-rule="evenodd" fill-opacity="1" /><path clip-path="url(#clip650)" d="M1105.89 28.9478 L1105.89 35.9153 Q1102.73 34.1734 1099.53 33.3227 Q1096.37 32.4315 1093.13 32.4315 Q1085.88 32.4315 1081.87 37.0496 Q1077.86 41.6271 1077.86 49.9314 Q1077.86 58.2358 1081.87 62.8538 Q1085.88 67.4314 1093.13 67.4314 Q1096.37 67.4314 1099.53 66.5807 Q1102.73 65.6895 1105.89 63.9476 L1105.89 70.8341 Q1102.77 72.2924 1099.41 73.0216 Q1096.08 73.7508 1092.32 73.7508 Q1082.07 73.7508 1076.03 67.3098 Q1070 60.8689 1070 49.9314 Q1070 38.832 1076.07 32.472 Q1082.19 26.1121 1092.8 26.1121 Q1096.25 26.1121 1099.53 26.8413 Q1102.81 27.5299 1105.89 28.9478 Z" fill="#000000" fill-rule="evenodd" fill-opacity="1" /><path clip-path="url(#clip650)" d="M1126.22 14.324 L1126.22 27.2059 L1141.58 27.2059 L1141.58 32.9987 L1126.22 32.9987 L1126.22 57.6282 Q1126.22 63.1779 1127.72 64.7578 Q1129.26 66.3376 1133.92 66.3376 L1141.58 66.3376 L1141.58 72.576 L1133.92 72.576 Q1125.29 72.576 1122.01 69.3758 Q1118.73 66.1351 1118.73 57.6282 L1118.73 32.9987 L1113.26 32.9987 L1113.26 27.2059 L1118.73 27.2059 L1118.73 14.324 L1126.22 14.324 Z" fill="#000000" fill-rule="evenodd" fill-opacity="1" /><path clip-path="url(#clip650)" d="M1177.67 34.1734 Q1176.41 33.4443 1174.92 33.1202 Q1173.46 32.7556 1171.67 32.7556 Q1165.36 32.7556 1161.95 36.8875 Q1158.59 40.9789 1158.59 48.6757 L1158.59 72.576 L1151.1 72.576 L1151.1 27.2059 L1158.59 27.2059 L1158.59 34.2544 Q1160.94 30.1225 1164.71 28.1376 Q1168.47 26.1121 1173.86 26.1121 Q1174.63 26.1121 1175.56 26.2337 Q1176.5 26.3147 1177.63 26.5172 L1177.67 34.1734 Z" fill="#000000" fill-rule="evenodd" fill-opacity="1" /><path clip-path="url(#clip650)" d="M1185.49 27.2059 L1192.94 27.2059 L1192.94 72.576 L1185.49 72.576 L1185.49 27.2059 M1185.49 9.54393 L1192.94 9.54393 L1192.94 18.9825 L1185.49 18.9825 L1185.49 9.54393 Z" fill="#000000" fill-rule="evenodd" fill-opacity="1" /><path clip-path="url(#clip650)" d="M1241.19 28.9478 L1241.19 35.9153 Q1238.03 34.1734 1234.83 33.3227 Q1231.67 32.4315 1228.43 32.4315 Q1221.18 32.4315 1217.17 37.0496 Q1213.16 41.6271 1213.16 49.9314 Q1213.16 58.2358 1217.17 62.8538 Q1221.18 67.4314 1228.43 67.4314 Q1231.67 67.4314 1234.83 66.5807 Q1238.03 65.6895 1241.19 63.9476 L1241.19 70.8341 Q1238.07 72.2924 1234.71 73.0216 Q1231.39 73.7508 1227.62 73.7508 Q1217.37 73.7508 1211.33 67.3098 Q1205.3 60.8689 1205.3 49.9314 Q1205.3 38.832 1211.37 32.472 Q1217.49 26.1121 1228.1 26.1121 Q1231.55 26.1121 1234.83 26.8413 Q1238.11 27.5299 1241.19 28.9478 Z" fill="#000000" fill-rule="evenodd" fill-opacity="1" /><path clip-path="url(#clip650)" d="M1280.85 12.096 L1315.6 12.096 L1315.6 18.9825 L1289.03 18.9825 L1289.03 36.8065 L1313.01 36.8065 L1313.01 43.6931 L1289.03 43.6931 L1289.03 72.576 L1280.85 72.576 L1280.85 12.096 Z" fill="#000000" fill-rule="evenodd" fill-opacity="1" /><path clip-path="url(#clip650)" d="M1322.21 27.2059 L1329.66 27.2059 L1329.66 72.576 L1322.21 72.576 L1322.21 27.2059 M1322.21 9.54393 L1329.66 9.54393 L1329.66 18.9825 L1322.21 18.9825 L1322.21 9.54393 Z" fill="#000000" fill-rule="evenodd" fill-opacity="1" /><path clip-path="url(#clip650)" d="M1384.06 48.0275 L1384.06 51.6733 L1349.79 51.6733 Q1350.28 59.3701 1354.41 63.421 Q1358.58 67.4314 1366 67.4314 Q1370.29 67.4314 1374.3 66.3781 Q1378.35 65.3249 1382.32 63.2184 L1382.32 70.267 Q1378.31 71.9684 1374.1 72.8596 Q1369.89 73.7508 1365.55 73.7508 Q1354.69 73.7508 1348.33 67.4314 Q1342.02 61.1119 1342.02 50.3365 Q1342.02 39.1965 1348.01 32.6746 Q1354.05 26.1121 1364.25 26.1121 Q1373.41 26.1121 1378.72 32.0264 Q1384.06 37.9003 1384.06 48.0275 M1376.61 45.84 Q1376.53 39.7232 1373.17 36.0774 Q1369.85 32.4315 1364.34 32.4315 Q1358.1 32.4315 1354.33 35.9558 Q1350.6 39.4801 1350.04 45.8805 L1376.61 45.84 Z" fill="#000000" fill-rule="evenodd" fill-opacity="1" /><path clip-path="url(#clip650)" d="M1396.3 9.54393 L1403.75 9.54393 L1403.75 72.576 L1396.3 72.576 L1396.3 9.54393 Z" fill="#000000" fill-rule="evenodd" fill-opacity="1" /><path clip-path="url(#clip650)" d="M1449.2 34.0924 L1449.2 9.54393 L1456.66 9.54393 L1456.66 72.576 L1449.2 72.576 L1449.2 65.7705 Q1446.85 69.8214 1443.25 71.8063 Q1439.68 73.7508 1434.66 73.7508 Q1426.44 73.7508 1421.25 67.1883 Q1416.11 60.6258 1416.11 49.9314 Q1416.11 39.2371 1421.25 32.6746 Q1426.44 26.1121 1434.66 26.1121 Q1439.68 26.1121 1443.25 28.0971 Q1446.85 30.0415 1449.2 34.0924 M1423.8 49.9314 Q1423.8 58.1548 1427.17 62.8538 Q1430.57 67.5124 1436.48 67.5124 Q1442.4 67.5124 1445.8 62.8538 Q1449.2 58.1548 1449.2 49.9314 Q1449.2 41.7081 1445.8 37.0496 Q1442.4 32.3505 1436.48 32.3505 Q1430.57 32.3505 1427.17 37.0496 Q1423.8 41.7081 1423.8 49.9314 Z" fill="#000000" fill-rule="evenodd" fill-opacity="1" /><path clip-path="url(#clip650)" d="M1506.89 18.8205 L1506.89 41.5461 L1517.18 41.5461 Q1522.89 41.5461 1526.01 38.5889 Q1529.13 35.6318 1529.13 30.163 Q1529.13 24.7348 1526.01 21.7777 Q1522.89 18.8205 1517.18 18.8205 L1506.89 18.8205 M1498.7 12.096 L1517.18 12.096 Q1527.34 12.096 1532.53 16.714 Q1537.76 21.2916 1537.76 30.163 Q1537.76 39.1155 1532.53 43.6931 Q1527.34 48.2706 1517.18 48.2706 L1506.89 48.2706 L1506.89 72.576 L1498.7 72.576 L1498.7 12.096 Z" fill="#000000" fill-rule="evenodd" fill-opacity="1" /><path clip-path="url(#clip650)" d="M1573.24 34.1734 Q1571.99 33.4443 1570.49 33.1202 Q1569.03 32.7556 1567.25 32.7556 Q1560.93 32.7556 1557.52 36.8875 Q1554.16 40.9789 1554.16 48.6757 L1554.16 72.576 L1546.67 72.576 L1546.67 27.2059 L1554.16 27.2059 L1554.16 34.2544 Q1556.51 30.1225 1560.28 28.1376 Q1564.05 26.1121 1569.43 26.1121 Q1570.2 26.1121 1571.13 26.2337 Q1572.07 26.3147 1573.2 26.5172 L1573.24 34.1734 Z" fill="#000000" fill-rule="evenodd" fill-opacity="1" /><path clip-path="url(#clip650)" d="M1596.82 32.4315 Q1590.82 32.4315 1587.34 37.1306 Q1583.85 41.7891 1583.85 49.9314 Q1583.85 58.0738 1587.3 62.7728 Q1590.78 67.4314 1596.82 67.4314 Q1602.77 67.4314 1606.26 62.7323 Q1609.74 58.0333 1609.74 49.9314 Q1609.74 41.8701 1606.26 37.1711 Q1602.77 32.4315 1596.82 32.4315 M1596.82 26.1121 Q1606.54 26.1121 1612.09 32.4315 Q1617.64 38.7509 1617.64 49.9314 Q1617.64 61.0714 1612.09 67.4314 Q1606.54 73.7508 1596.82 73.7508 Q1587.05 73.7508 1581.5 67.4314 Q1576 61.0714 1576 49.9314 Q1576 38.7509 1581.5 32.4315 Q1587.05 26.1121 1596.82 26.1121 Z" fill="#000000" fill-rule="evenodd" fill-opacity="1" /><path clip-path="url(#clip650)" d="M1652.96 9.54393 L1652.96 15.7418 L1645.83 15.7418 Q1641.82 15.7418 1640.24 17.3622 Q1638.7 18.9825 1638.7 23.1955 L1638.7 27.2059 L1650.98 27.2059 L1650.98 32.9987 L1638.7 32.9987 L1638.7 72.576 L1631.21 72.576 L1631.21 32.9987 L1624.08 32.9987 L1624.08 27.2059 L1631.21 27.2059 L1631.21 24.0462 Q1631.21 16.471 1634.73 13.0277 Q1638.26 9.54393 1645.91 9.54393 L1652.96 9.54393 Z" fill="#000000" fill-rule="evenodd" fill-opacity="1" /><path clip-path="url(#clip650)" d="M1659.2 27.2059 L1666.65 27.2059 L1666.65 72.576 L1659.2 72.576 L1659.2 27.2059 M1659.2 9.54393 L1666.65 9.54393 L1666.65 18.9825 L1659.2 18.9825 L1659.2 9.54393 Z" fill="#000000" fill-rule="evenodd" fill-opacity="1" /><path clip-path="url(#clip650)" d="M1682.25 9.54393 L1689.7 9.54393 L1689.7 72.576 L1682.25 72.576 L1682.25 9.54393 Z" fill="#000000" fill-rule="evenodd" fill-opacity="1" /><path clip-path="url(#clip650)" d="M1744.11 48.0275 L1744.11 51.6733 L1709.84 51.6733 Q1710.32 59.3701 1714.46 63.421 Q1718.63 67.4314 1726.04 67.4314 Q1730.34 67.4314 1734.35 66.3781 Q1738.4 65.3249 1742.37 63.2184 L1742.37 70.267 Q1738.36 71.9684 1734.14 72.8596 Q1729.93 73.7508 1725.6 73.7508 Q1714.74 73.7508 1708.38 67.4314 Q1702.06 61.1119 1702.06 50.3365 Q1702.06 39.1965 1708.06 32.6746 Q1714.09 26.1121 1724.3 26.1121 Q1733.45 26.1121 1738.76 32.0264 Q1744.11 37.9003 1744.11 48.0275 M1736.65 45.84 Q1736.57 39.7232 1733.21 36.0774 Q1729.89 32.4315 1724.38 32.4315 Q1718.14 32.4315 1714.37 35.9558 Q1710.65 39.4801 1710.08 45.8805 L1736.65 45.84 Z" fill="#000000" fill-rule="evenodd" fill-opacity="1" /><polyline clip-path="url(#clip652)" style="stroke:#009af9; stroke-linecap:butt; stroke-linejoin:round; stroke-width:4; stroke-opacity:1; fill:none" points="
  395.414,1386.4 397.317,1386.4 399.219,1386.4 401.121,1386.4 403.023,1386.4 404.926,1386.4 406.828,1386.4 408.73,1386.4 410.632,1386.4 412.534,1386.4 
  414.437,1386.4 416.339,1386.4 418.241,1386.4 420.143,1386.4 422.046,1386.4 423.948,1386.4 425.85,1386.4 427.752,1386.4 429.655,1386.4 431.557,1386.4 
  433.459,1386.4 435.361,1386.4 437.263,1386.4 439.166,1386.4 441.068,1386.4 442.97,1386.4 444.872,1386.4 446.775,1386.4 448.677,1386.4 450.579,1386.4 
  452.481,1386.4 454.384,1386.4 456.286,1386.4 458.188,1386.4 460.09,1386.4 461.993,1386.4 463.895,1386.4 465.797,1386.4 467.699,1386.4 469.601,1386.4 
  471.504,1386.4 473.406,1386.4 475.308,1386.4 477.21,1386.4 479.113,1386.4 481.015,1386.4 482.917,1386.4 484.819,1386.4 486.722,1386.4 488.624,1386.4 
  490.526,1386.4 492.428,1386.4 494.331,1386.4 496.233,1386.4 498.135,1386.4 500.037,1386.4 501.939,1386.4 503.842,1386.4 505.744,1386.4 507.646,1386.4 
  509.548,1386.4 511.451,1386.4 513.353,1386.4 515.255,1386.4 517.157,1386.4 519.06,1386.4 520.962,1386.4 522.864,1386.4 524.766,1386.4 526.668,1386.4 
  528.571,1386.4 530.473,1386.4 532.375,1386.4 534.277,1386.4 536.18,1386.4 538.082,1386.4 539.984,1386.4 541.886,1386.4 543.789,1386.4 545.691,1386.4 
  547.593,1386.4 549.495,1386.4 551.398,1386.4 553.3,1386.4 555.202,1386.4 557.104,1386.4 559.006,1386.4 560.909,1386.4 562.811,1386.4 564.713,1386.4 
  566.615,1386.4 568.518,1386.4 570.42,1386.4 572.322,1386.4 574.224,1386.4 576.127,1386.4 578.029,1386.4 579.931,1386.4 581.833,1386.4 583.736,1386.4 
  585.638,1386.4 587.54,1386.4 589.442,1386.4 591.344,1386.4 593.247,1386.4 595.149,1386.4 597.051,1386.4 598.953,1386.4 600.856,1386.4 602.758,1386.4 
  604.66,1386.4 606.562,1386.4 608.465,1386.4 610.367,1386.4 612.269,1386.4 614.171,1386.4 616.073,1386.4 617.976,1386.4 619.878,1386.4 621.78,1386.4 
  623.682,1386.4 625.585,1386.4 627.487,1386.4 629.389,1386.4 631.291,1386.4 633.194,1386.4 635.096,1386.4 636.998,1386.4 638.9,1386.4 640.803,1386.4 
  642.705,1386.4 644.607,1386.4 646.509,1386.4 648.411,1386.4 650.314,1386.4 652.216,1386.4 654.118,1386.4 656.02,1386.4 657.923,1386.4 659.825,1386.4 
  661.727,1386.4 663.629,1386.4 665.532,1386.4 667.434,1386.4 669.336,1386.4 671.238,1386.4 673.14,1386.4 675.043,1386.4 676.945,1386.4 678.847,1386.4 
  680.749,1386.4 682.652,1386.4 684.554,1386.4 686.456,1386.4 688.358,1386.4 690.261,1386.4 692.163,1386.4 694.065,1386.4 695.967,1386.4 697.87,1386.4 
  699.772,1386.4 701.674,1386.4 703.576,1386.4 705.478,1386.4 707.381,1386.4 709.283,1386.4 711.185,1386.4 713.087,1386.4 714.99,1386.4 716.892,1386.4 
  718.794,1386.4 720.696,1386.4 722.599,1386.4 724.501,1386.4 726.403,1386.4 728.305,1386.4 730.208,1386.4 732.11,1386.4 734.012,1386.4 735.914,1386.4 
  737.816,1386.4 739.719,1386.4 741.621,1386.4 743.523,1386.4 745.425,1386.4 747.328,1386.4 749.23,1386.4 751.132,1386.4 753.034,1386.4 754.937,1386.4 
  756.839,1386.4 758.741,1386.4 760.643,1386.4 762.545,1386.4 764.448,1386.4 766.35,1386.4 768.252,1386.4 770.154,1386.4 772.057,1386.4 773.959,1386.4 
  775.861,1386.4 777.763,1386.4 779.666,1386.4 781.568,1386.4 783.47,1386.4 785.372,1386.4 787.275,1386.4 789.177,1386.4 791.079,1386.4 792.981,1386.4 
  794.883,1386.4 796.786,1386.4 798.688,1386.4 800.59,1386.4 802.492,1386.4 804.395,1386.4 806.297,1386.4 808.199,1386.4 810.101,1386.4 812.004,1386.4 
  813.906,1386.4 815.808,1386.4 817.71,1386.4 819.612,1386.4 821.515,1386.4 823.417,1386.4 825.319,1386.4 827.221,1386.4 829.124,1386.4 831.026,1386.4 
  832.928,1386.4 834.83,1386.4 836.733,1386.4 838.635,1386.4 840.537,1386.4 842.439,1386.4 844.342,1386.4 846.244,1386.4 848.146,1386.4 850.048,1386.4 
  851.95,1386.4 853.853,1386.4 855.755,1386.4 857.657,1386.4 859.559,1386.4 861.462,1386.4 863.364,1386.4 865.266,1386.4 867.168,1386.4 869.071,1386.4 
  870.973,1386.4 872.875,1386.4 874.777,1386.4 876.68,1386.4 878.582,1386.4 880.484,1386.4 882.386,1386.4 884.288,1386.4 886.191,1386.4 888.093,1386.4 
  889.995,1386.4 891.897,1386.4 893.8,1386.4 895.702,1386.4 897.604,1386.4 899.506,1386.4 901.409,1386.4 903.311,1386.4 905.213,1386.4 907.115,1386.4 
  909.017,1386.4 910.92,1386.4 912.822,1386.4 914.724,1386.4 916.626,1386.4 918.529,1386.4 920.431,1386.4 922.333,1386.4 924.235,1386.4 926.138,1386.4 
  928.04,1386.4 929.942,1386.4 931.844,1386.4 933.747,1386.4 935.649,1386.4 937.551,1386.4 939.453,1386.4 941.355,1386.4 943.258,1386.4 945.16,1386.4 
  947.062,1386.4 948.964,1386.4 950.867,1386.4 952.769,1386.4 954.671,1386.4 956.573,1386.4 958.476,1386.4 960.378,1386.4 962.28,1386.4 964.182,1386.4 
  966.085,1386.4 967.987,1386.4 969.889,1386.4 971.791,1386.4 973.693,1386.4 975.596,1386.4 977.498,1386.4 979.4,1386.4 981.302,1386.4 983.205,1386.4 
  985.107,1386.4 987.009,1386.4 988.911,1386.4 990.814,1386.4 992.716,1386.4 994.618,1386.4 996.52,1386.4 998.422,1386.4 1000.32,1386.4 1002.23,1386.4 
  1004.13,1386.4 1006.03,1386.4 1007.93,1386.4 1009.84,1386.4 1011.74,1386.4 1013.64,1386.4 1015.54,1386.4 1017.44,1386.4 1019.35,1386.4 1021.25,1386.4 
  1023.15,1386.4 1025.05,1386.4 1026.96,1386.4 1028.86,1386.4 1030.76,1376.47 1032.66,1366.54 1034.56,1356.61 1036.47,1346.68 1038.37,1336.76 1040.27,1326.83 
  1042.17,1316.9 1044.08,1306.97 1045.98,1297.04 1047.88,1287.11 1049.78,1277.19 1051.69,1267.26 1053.59,1257.33 1055.49,1247.4 1057.39,1237.47 1059.29,1227.55 
  1061.2,1217.62 1063.1,1207.69 1065,1197.76 1066.9,1187.83 1068.81,1177.91 1070.71,1167.98 1072.61,1158.05 1074.51,1148.12 1076.41,1138.19 1078.32,1128.26 
  1080.22,1118.34 1082.12,1108.41 1084.02,1098.48 1085.93,1088.55 1087.83,1078.62 1089.73,1068.7 1091.63,1058.77 1093.53,1048.84 1095.44,1038.91 1097.34,1028.98 
  1099.24,1019.06 1101.14,1009.13 1103.05,999.2 1104.95,989.271 1106.85,979.343 1108.75,969.415 1110.65,959.487 1112.56,949.559 1114.46,939.631 1116.36,929.703 
  1118.26,919.775 1120.17,909.847 1122.07,899.918 1123.97,889.99 1125.87,880.062 1127.77,870.134 1129.68,860.206 1131.58,850.278 1133.48,840.35 1135.38,830.422 
  1137.29,820.494 1139.19,810.565 1141.09,800.637 1142.99,790.709 1144.89,780.781 1146.8,770.853 1148.7,760.925 1150.6,750.997 1152.5,741.069 1154.41,731.141 
  1156.31,721.213 1158.21,711.284 1160.11,701.356 1162.01,691.428 1163.92,681.5 1165.82,671.572 1167.72,661.644 1169.62,651.716 1171.53,641.788 1173.43,631.86 
  1175.33,621.931 1177.23,612.003 1179.13,602.075 1181.04,592.147 1182.94,582.219 1184.84,572.291 1186.74,562.363 1188.65,552.435 1190.55,542.507 1192.45,532.578 
  1194.35,522.65 1196.25,512.722 1198.16,502.794 1200.06,492.866 1201.96,482.938 1203.86,473.01 1205.77,463.082 1207.67,453.154 1209.57,443.226 1211.47,433.297 
  1213.37,423.369 1215.28,413.441 1217.18,403.513 1219.08,393.585 1220.98,383.657 1222.89,373.729 1224.79,363.801 1226.69,353.873 1228.59,343.944 1230.5,334.016 
  1232.4,324.088 1234.3,314.16 1236.2,304.232 1238.1,294.304 1240.01,284.376 1241.91,274.448 1243.81,264.52 1245.71,254.592 1247.62,244.663 1249.52,234.735 
  1251.42,224.807 1253.32,214.879 1255.22,204.951 1257.13,160.256 1259.03,188.705 1260.93,217.154 1262.83,245.602 1264.74,274.051 1266.64,302.5 1268.54,330.949 
  1270.44,359.397 1272.34,387.846 1274.25,416.295 1276.15,444.743 1278.05,473.192 1279.95,501.641 1281.86,530.09 1283.76,558.538 1285.66,586.987 1287.56,615.436 
  1289.46,643.884 1291.37,672.333 1293.27,700.782 1295.17,729.231 1297.07,757.679 1298.98,786.128 1300.88,814.577 1302.78,843.025 1304.68,871.474 1306.58,899.923 
  1308.49,928.371 1310.39,956.82 1312.29,985.269 1314.19,1013.72 1316.1,1042.17 1318,1070.62 1319.9,1099.06 1321.8,1127.51 1323.7,1155.96 1325.61,1184.41 
  1327.51,1212.86 1329.41,1241.31 1331.31,1269.76 1333.22,1298.2 1335.12,1326.65 1337.02,1355.1 1338.92,1383.55 1340.82,1386.4 1342.73,1386.4 1344.63,1386.4 
  1346.53,1386.4 1348.43,1386.4 1350.34,1386.4 1352.24,1386.4 1354.14,1386.4 1356.04,1386.4 1357.94,1386.4 1359.85,1386.4 1361.75,1386.4 1363.65,1386.4 
  1365.55,1386.4 1367.46,1386.4 1369.36,1386.4 1371.26,1386.4 1373.16,1386.4 1375.06,1386.4 1376.97,1386.4 1378.87,1386.4 1380.77,1386.4 1382.67,1386.4 
  1384.58,1386.4 1386.48,1386.4 1388.38,1386.4 1390.28,1386.4 1392.18,1386.4 1394.09,1386.4 1395.99,1386.4 1397.89,1386.4 1399.79,1386.4 1401.7,1386.4 
  1403.6,1386.4 1405.5,1386.4 1407.4,1386.4 1409.3,1386.4 1411.21,1386.4 1413.11,1386.4 1415.01,1386.4 1416.91,1386.4 1418.82,1386.4 1420.72,1386.4 
  1422.62,1386.4 1424.52,1386.4 1426.43,1386.4 1428.33,1386.4 1430.23,1386.4 1432.13,1386.4 1434.03,1386.4 1435.94,1386.4 1437.84,1386.4 1439.74,1386.4 
  1441.64,1386.4 1443.55,1386.4 1445.45,1386.4 1447.35,1386.4 1449.25,1386.4 1451.15,1386.4 1453.06,1386.4 1454.96,1386.4 1456.86,1386.4 1458.76,1386.4 
  1460.67,1386.4 1462.57,1386.4 1464.47,1386.4 1466.37,1386.4 1468.27,1386.4 1470.18,1386.4 1472.08,1386.4 1473.98,1386.4 1475.88,1386.4 1477.79,1386.4 
  1479.69,1386.4 1481.59,1386.4 1483.49,1386.4 1485.39,1386.4 1487.3,1386.4 1489.2,1386.4 1491.1,1386.4 1493,1386.4 1494.91,1386.4 1496.81,1386.4 
  1498.71,1386.4 1500.61,1386.4 1502.51,1386.4 1504.42,1386.4 1506.32,1386.4 1508.22,1386.4 1510.12,1386.4 1512.03,1386.4 1513.93,1386.4 1515.83,1386.4 
  1517.73,1386.4 1519.63,1386.4 1521.54,1386.4 1523.44,1386.4 1525.34,1386.4 1527.24,1386.4 1529.15,1386.4 1531.05,1386.4 1532.95,1386.4 1534.85,1386.4 
  1536.75,1386.4 1538.66,1386.4 1540.56,1386.4 1542.46,1386.4 1544.36,1386.4 1546.27,1386.4 1548.17,1386.4 1550.07,1386.4 1551.97,1386.4 1553.87,1386.4 
  1555.78,1386.4 1557.68,1386.4 1559.58,1386.4 1561.48,1386.4 1563.39,1386.4 1565.29,1386.4 1567.19,1386.4 1569.09,1386.4 1570.99,1386.4 1572.9,1386.4 
  1574.8,1386.4 1576.7,1386.4 1578.6,1386.4 1580.51,1386.4 1582.41,1386.4 1584.31,1386.4 1586.21,1386.4 1588.11,1386.4 1590.02,1386.4 1591.92,1386.4 
  1593.82,1386.4 1595.72,1386.4 1597.63,1386.4 1599.53,1386.4 1601.43,1386.4 1603.33,1386.4 1605.24,1386.4 1607.14,1386.4 1609.04,1386.4 1610.94,1386.4 
  1612.84,1386.4 1614.75,1386.4 1616.65,1386.4 1618.55,1386.4 1620.45,1386.4 1622.36,1386.4 1624.26,1386.4 1626.16,1386.4 1628.06,1386.4 1629.96,1386.4 
  1631.87,1386.4 1633.77,1386.4 1635.67,1386.4 1637.57,1386.4 1639.48,1386.4 1641.38,1386.4 1643.28,1386.4 1645.18,1386.4 1647.08,1386.4 1648.99,1386.4 
  1650.89,1386.4 1652.79,1386.4 1654.69,1386.4 1656.6,1386.4 1658.5,1386.4 1660.4,1386.4 1662.3,1386.4 1664.2,1386.4 1666.11,1386.4 1668.01,1386.4 
  1669.91,1386.4 1671.81,1386.4 1673.72,1386.4 1675.62,1386.4 1677.52,1386.4 1679.42,1386.4 1681.32,1386.4 1683.23,1386.4 1685.13,1386.4 1687.03,1386.4 
  1688.93,1386.4 1690.84,1386.4 1692.74,1386.4 1694.64,1386.4 1696.54,1386.4 1698.44,1386.4 1700.35,1386.4 1702.25,1386.4 1704.15,1386.4 1706.05,1386.4 
  1707.96,1386.4 1709.86,1386.4 1711.76,1386.4 1713.66,1386.4 1715.56,1386.4 1717.47,1386.4 1719.37,1386.4 1721.27,1386.4 1723.17,1386.4 1725.08,1386.4 
  1726.98,1386.4 1728.88,1386.4 1730.78,1386.4 1732.68,1386.4 1734.59,1386.4 1736.49,1386.4 1738.39,1386.4 1740.29,1386.4 1742.2,1386.4 1744.1,1386.4 
  1746,1386.4 1747.9,1386.4 1749.8,1386.4 1751.71,1386.4 1753.61,1386.4 1755.51,1386.4 1757.41,1386.4 1759.32,1386.4 1761.22,1386.4 1763.12,1386.4 
  1765.02,1386.4 1766.92,1386.4 1768.83,1386.4 1770.73,1386.4 1772.63,1386.4 1774.53,1386.4 1776.44,1386.4 1778.34,1386.4 1780.24,1386.4 1782.14,1386.4 
  1784.05,1386.4 1785.95,1386.4 1787.85,1386.4 1789.75,1386.4 1791.65,1386.4 1793.56,1386.4 1795.46,1386.4 1797.36,1386.4 1799.26,1386.4 1801.17,1386.4 
  1803.07,1386.4 1804.97,1386.4 1806.87,1386.4 1808.77,1386.4 1810.68,1386.4 1812.58,1386.4 1814.48,1386.4 1816.38,1386.4 1818.29,1386.4 1820.19,1386.4 
  1822.09,1386.4 1823.99,1386.4 1825.89,1386.4 1827.8,1386.4 1829.7,1386.4 1831.6,1386.4 1833.5,1386.4 1835.41,1386.4 1837.31,1386.4 1839.21,1386.4 
  1841.11,1386.4 1843.01,1386.4 1844.92,1386.4 1846.82,1386.4 1848.72,1386.4 1850.62,1386.4 1852.53,1386.4 1854.43,1386.4 1856.33,1386.4 1858.23,1386.4 
  1860.13,1386.4 1862.04,1386.4 1863.94,1386.4 1865.84,1386.4 1867.74,1386.4 1869.65,1386.4 1871.55,1386.4 1873.45,1386.4 1875.35,1386.4 1877.25,1386.4 
  1879.16,1386.4 1881.06,1386.4 1882.96,1386.4 1884.86,1386.4 1886.77,1386.4 1888.67,1386.4 1890.57,1386.4 1892.47,1386.4 1894.37,1386.4 1896.28,1386.4 
  1898.18,1386.4 1900.08,1386.4 1901.98,1386.4 1903.89,1386.4 1905.79,1386.4 1907.69,1386.4 1909.59,1386.4 1911.49,1386.4 1913.4,1386.4 1915.3,1386.4 
  1917.2,1386.4 1919.1,1386.4 1921.01,1386.4 1922.91,1386.4 1924.81,1386.4 1926.71,1386.4 1928.61,1386.4 1930.52,1386.4 1932.42,1386.4 1934.32,1386.4 
  1936.22,1386.4 1938.13,1386.4 1940.03,1386.4 1941.93,1386.4 1943.83,1386.4 1945.73,1386.4 1947.64,1386.4 1949.54,1386.4 1951.44,1386.4 1953.34,1386.4 
  1955.25,1386.4 1957.15,1386.4 1959.05,1386.4 1960.95,1386.4 1962.86,1386.4 1964.76,1386.4 1966.66,1386.4 1968.56,1386.4 1970.46,1386.4 1972.37,1386.4 
  1974.27,1386.4 1976.17,1386.4 1978.07,1386.4 1979.98,1386.4 1981.88,1386.4 1983.78,1386.4 1985.68,1386.4 1987.58,1386.4 1989.49,1386.4 1991.39,1386.4 
  1993.29,1386.4 1995.19,1386.4 1997.1,1386.4 1999,1386.4 2000.9,1386.4 2002.8,1386.4 2004.7,1386.4 2006.61,1386.4 2008.51,1386.4 2010.41,1386.4 
  2012.31,1386.4 2014.22,1386.4 2016.12,1386.4 2018.02,1386.4 2019.92,1386.4 2021.82,1386.4 2023.73,1386.4 2025.63,1386.4 2027.53,1386.4 2029.43,1386.4 
  2031.34,1386.4 2033.24,1386.4 2035.14,1386.4 2037.04,1386.4 2038.94,1386.4 2040.85,1386.4 2042.75,1386.4 2044.65,1386.4 2046.55,1386.4 2048.46,1386.4 
  2050.36,1386.4 2052.26,1386.4 2054.16,1386.4 2056.06,1386.4 2057.97,1386.4 2059.87,1386.4 2061.77,1386.4 2063.67,1386.4 2065.58,1386.4 2067.48,1386.4 
  2069.38,1386.4 2071.28,1386.4 2073.18,1386.4 2075.09,1386.4 2076.99,1386.4 2078.89,1386.4 2080.79,1386.4 2082.7,1386.4 2084.6,1386.4 2086.5,1386.4 
  2088.4,1386.4 2090.3,1386.4 2092.21,1386.4 2094.11,1386.4 2096.01,1386.4 2097.91,1386.4 2099.82,1386.4 2101.72,1386.4 2103.62,1386.4 2105.52,1386.4 
  2107.42,1386.4 2109.33,1386.4 2111.23,1386.4 2113.13,1386.4 2115.03,1386.4 2116.94,1386.4 2118.84,1386.4 2120.74,1386.4 2122.64,1386.4 2124.54,1386.4 
  2126.45,1386.4 2128.35,1386.4 2130.25,1386.4 2132.15,1386.4 2134.06,1386.4 2135.96,1386.4 2137.86,1386.4 2139.76,1386.4 2141.67,1386.4 2143.57,1386.4 
  2145.47,1386.4 2147.37,1386.4 2149.27,1386.4 2151.18,1386.4 2153.08,1386.4 2154.98,1386.4 2156.88,1386.4 2158.79,1386.4 2160.69,1386.4 2162.59,1386.4 
  2164.49,1386.4 2166.39,1386.4 2168.3,1386.4 2170.2,1386.4 2172.1,1386.4 2174,1386.4 2175.91,1386.4 2177.81,1386.4 2179.71,1386.4 2181.61,1386.4 
  2183.51,1386.4 2185.42,1386.4 2187.32,1386.4 2189.22,1386.4 2191.12,1386.4 2193.03,1386.4 2194.93,1386.4 2196.83,1386.4 2198.73,1386.4 2200.63,1386.4 
  2202.54,1386.4 2204.44,1386.4 2206.34,1386.4 2208.24,1386.4 2210.15,1386.4 2212.05,1386.4 2213.95,1386.4 2215.85,1386.4 2217.75,1386.4 2219.66,1386.4 
  2221.56,1386.4 2223.46,1386.4 2225.36,1386.4 2227.27,1386.4 2229.17,1386.4 2231.07,1386.4 2232.97,1386.4 2234.87,1386.4 2236.78,1386.4 2238.68,1386.4 
  2240.58,1386.4 2242.48,1386.4 2244.39,1386.4 2246.29,1386.4 2248.19,1386.4 2250.09,1386.4 2251.99,1386.4 2253.9,1386.4 2255.8,1386.4 2257.7,1386.4 
  2259.6,1386.4 2261.51,1386.4 2263.41,1386.4 2265.31,1386.4 2267.21,1386.4 2269.11,1386.4 2271.02,1386.4 2272.92,1386.4 2274.82,1386.4 2276.72,1386.4 
  2278.63,1386.4 2280.53,1386.4 2282.43,1386.4 2284.33,1386.4 2286.23,1386.4 2288.14,1386.4 2290.04,1386.4 2291.94,1386.4 2293.84,1386.4 2295.75,1386.4 
  
  "/>
<path clip-path="url(#clip650)" d="
M1770.59 270.476 L2285.61 270.476 L2285.61 166.796 L1770.59 166.796  Z
  " fill="#ffffff" fill-rule="evenodd" fill-opacity="1"/>
<polyline clip-path="url(#clip650)" style="stroke:#000000; stroke-linecap:butt; stroke-linejoin:round; stroke-width:4; stroke-opacity:1; fill:none" points="
  1770.59,270.476 2285.61,270.476 2285.61,166.796 1770.59,166.796 1770.59,270.476 
  "/>
<polyline clip-path="url(#clip650)" style="stroke:#009af9; stroke-linecap:butt; stroke-linejoin:round; stroke-width:4; stroke-opacity:1; fill:none" points="
  1792.97,218.636 1927.26,218.636 
  "/>
<path clip-path="url(#clip650)" d="M1949.65 201.356 L1971.5 201.356 L1971.5 205.291 L1954.32 205.291 L1954.32 215.522 L1970.78 215.522 L1970.78 219.457 L1954.32 219.457 L1954.32 231.981 L1971.91 231.981 L1971.91 235.916 L1949.65 235.916 L1949.65 201.356 Z" fill="#000000" fill-rule="evenodd" fill-opacity="1" /><path clip-path="url(#clip650)" d="M1979.41 199.897 L1983.67 199.897 L1983.67 235.916 L1979.41 235.916 L1979.41 199.897 Z" fill="#000000" fill-rule="evenodd" fill-opacity="1" /><path clip-path="url(#clip650)" d="M2014.76 221.888 L2014.76 223.971 L1995.18 223.971 Q1995.46 228.369 1997.82 230.684 Q2000.2 232.976 2004.44 232.976 Q2006.89 232.976 2009.18 232.374 Q2011.5 231.772 2013.77 230.569 L2013.77 234.596 Q2011.47 235.568 2009.07 236.078 Q2006.66 236.587 2004.18 236.587 Q1997.98 236.587 1994.34 232.976 Q1990.73 229.365 1990.73 223.207 Q1990.73 216.842 1994.16 213.115 Q1997.61 209.365 2003.44 209.365 Q2008.67 209.365 2011.71 212.745 Q2014.76 216.101 2014.76 221.888 M2010.5 220.638 Q2010.46 217.143 2008.53 215.059 Q2006.64 212.976 2003.49 212.976 Q1999.92 212.976 1997.77 214.99 Q1995.64 217.004 1995.32 220.661 L2010.5 220.638 Z" fill="#000000" fill-rule="evenodd" fill-opacity="1" /><path clip-path="url(#clip650)" d="M2040.41 210.985 L2040.41 214.967 Q2038.6 213.971 2036.77 213.485 Q2034.97 212.976 2033.12 212.976 Q2028.97 212.976 2026.68 215.615 Q2024.39 218.231 2024.39 222.976 Q2024.39 227.721 2026.68 230.36 Q2028.97 232.976 2033.12 232.976 Q2034.97 232.976 2036.77 232.49 Q2038.6 231.981 2040.41 230.985 L2040.41 234.92 Q2038.63 235.754 2036.71 236.17 Q2034.81 236.587 2032.65 236.587 Q2026.8 236.587 2023.35 232.906 Q2019.9 229.226 2019.9 222.976 Q2019.9 216.633 2023.37 212.999 Q2026.87 209.365 2032.93 209.365 Q2034.9 209.365 2036.77 209.782 Q2038.65 210.175 2040.41 210.985 Z" fill="#000000" fill-rule="evenodd" fill-opacity="1" /><path clip-path="url(#clip650)" d="M2052.03 202.629 L2052.03 209.99 L2060.8 209.99 L2060.8 213.3 L2052.03 213.3 L2052.03 227.374 Q2052.03 230.545 2052.89 231.448 Q2053.77 232.351 2056.43 232.351 L2060.8 232.351 L2060.8 235.916 L2056.43 235.916 Q2051.5 235.916 2049.62 234.087 Q2047.75 232.235 2047.75 227.374 L2047.75 213.3 L2044.62 213.3 L2044.62 209.99 L2047.75 209.99 L2047.75 202.629 L2052.03 202.629 Z" fill="#000000" fill-rule="evenodd" fill-opacity="1" /><path clip-path="url(#clip650)" d="M2081.43 213.971 Q2080.71 213.555 2079.85 213.37 Q2079.02 213.161 2078 213.161 Q2074.39 213.161 2072.45 215.522 Q2070.52 217.86 2070.52 222.258 L2070.52 235.916 L2066.24 235.916 L2066.24 209.99 L2070.52 209.99 L2070.52 214.018 Q2071.87 211.657 2074.02 210.522 Q2076.17 209.365 2079.25 209.365 Q2079.69 209.365 2080.22 209.434 Q2080.76 209.481 2081.4 209.596 L2081.43 213.971 Z" fill="#000000" fill-rule="evenodd" fill-opacity="1" /><path clip-path="url(#clip650)" d="M2085.89 209.99 L2090.15 209.99 L2090.15 235.916 L2085.89 235.916 L2085.89 209.99 M2085.89 199.897 L2090.15 199.897 L2090.15 205.291 L2085.89 205.291 L2085.89 199.897 Z" fill="#000000" fill-rule="evenodd" fill-opacity="1" /><path clip-path="url(#clip650)" d="M2117.72 210.985 L2117.72 214.967 Q2115.92 213.971 2114.09 213.485 Q2112.28 212.976 2110.43 212.976 Q2106.29 212.976 2104 215.615 Q2101.7 218.231 2101.7 222.976 Q2101.7 227.721 2104 230.36 Q2106.29 232.976 2110.43 232.976 Q2112.28 232.976 2114.09 232.49 Q2115.92 231.981 2117.72 230.985 L2117.72 234.92 Q2115.94 235.754 2114.02 236.17 Q2112.12 236.587 2109.97 236.587 Q2104.11 236.587 2100.66 232.906 Q2097.21 229.226 2097.21 222.976 Q2097.21 216.633 2100.69 212.999 Q2104.18 209.365 2110.25 209.365 Q2112.21 209.365 2114.09 209.782 Q2115.96 210.175 2117.72 210.985 Z" fill="#000000" fill-rule="evenodd" fill-opacity="1" /><path clip-path="url(#clip650)" d="M2140.39 201.356 L2160.25 201.356 L2160.25 205.291 L2145.06 205.291 L2145.06 215.476 L2158.76 215.476 L2158.76 219.411 L2145.06 219.411 L2145.06 235.916 L2140.39 235.916 L2140.39 201.356 Z" fill="#000000" fill-rule="evenodd" fill-opacity="1" /><path clip-path="url(#clip650)" d="M2164.02 209.99 L2168.28 209.99 L2168.28 235.916 L2164.02 235.916 L2164.02 209.99 M2164.02 199.897 L2168.28 199.897 L2168.28 205.291 L2164.02 205.291 L2164.02 199.897 Z" fill="#000000" fill-rule="evenodd" fill-opacity="1" /><path clip-path="url(#clip650)" d="M2199.37 221.888 L2199.37 223.971 L2179.78 223.971 Q2180.06 228.369 2182.42 230.684 Q2184.81 232.976 2189.04 232.976 Q2191.5 232.976 2193.79 232.374 Q2196.1 231.772 2198.37 230.569 L2198.37 234.596 Q2196.08 235.568 2193.67 236.078 Q2191.26 236.587 2188.79 236.587 Q2182.58 236.587 2178.95 232.976 Q2175.34 229.365 2175.34 223.207 Q2175.34 216.842 2178.76 213.115 Q2182.21 209.365 2188.05 209.365 Q2193.28 209.365 2196.31 212.745 Q2199.37 216.101 2199.37 221.888 M2195.11 220.638 Q2195.06 217.143 2193.14 215.059 Q2191.24 212.976 2188.09 212.976 Q2184.53 212.976 2182.38 214.99 Q2180.25 217.004 2179.92 220.661 L2195.11 220.638 Z" fill="#000000" fill-rule="evenodd" fill-opacity="1" /><path clip-path="url(#clip650)" d="M2206.36 199.897 L2210.62 199.897 L2210.62 235.916 L2206.36 235.916 L2206.36 199.897 Z" fill="#000000" fill-rule="evenodd" fill-opacity="1" /><path clip-path="url(#clip650)" d="M2236.59 213.925 L2236.59 199.897 L2240.85 199.897 L2240.85 235.916 L2236.59 235.916 L2236.59 232.027 Q2235.25 234.342 2233.19 235.476 Q2231.15 236.587 2228.28 236.587 Q2223.58 236.587 2220.62 232.837 Q2217.68 229.087 2217.68 222.976 Q2217.68 216.865 2220.62 213.115 Q2223.58 209.365 2228.28 209.365 Q2231.15 209.365 2233.19 210.499 Q2235.25 211.61 2236.59 213.925 M2222.07 222.976 Q2222.07 227.675 2224 230.36 Q2225.94 233.022 2229.32 233.022 Q2232.7 233.022 2234.64 230.36 Q2236.59 227.675 2236.59 222.976 Q2236.59 218.277 2234.64 215.615 Q2232.7 212.93 2229.32 212.93 Q2225.94 212.93 2224 215.615 Q2222.07 218.277 2222.07 222.976 Z" fill="#000000" fill-rule="evenodd" fill-opacity="1" /></svg>
