<svg class="main-svg" xmlns="http://www.w3.org/2000/svg" xmlns:xlink="http://www.w3.org/1999/xlink" width="700" height="500" style="" viewBox="0 0 700 500"><rect x="0" y="0" width="700" height="500" style="fill: rgb(255, 255, 255); fill-opacity: 1;"/><defs id="defs-d4fd7c"><g class="clips"><clipPath id="clipd4fd7cxyplot" class="plotclip"><rect width="515.1927675707203" height="371.48950131233596"/></clipPath><clipPath class="axesclip" id="clipd4fd7cx"><rect x="61.32954214056576" y="0" width="515.1927675707203" height="500"/></clipPath><clipPath class="axesclip" id="clipd4fd7cy"><rect x="0" y="63.83858267716535" width="700" height="371.48950131233596"/></clipPath><clipPath class="axesclip" id="clipd4fd7cxy"><rect x="61.32954214056576" y="63.83858267716535" width="515.1927675707203" height="371.48950131233596"/></clipPath></g><g class="gradients"/></defs><g class="bglayer"/><g class="layer-below"><g class="imagelayer"/><g class="shapelayer"/></g><g class="cartesianlayer"><g class="subplot xy"><g class="layer-subplot"><g class="shapelayer"/><g class="imagelayer"/></g><g class="gridlayer"><g class="x"><path class="xgrid crisp" transform="translate(75.90954214056576,0)" d="M0,63.83858267716535v371.48950131233596" style="stroke: rgb(0, 0, 0); stroke-opacity: 0.1; stroke-width: 0.5px;"/><path class="xgrid crisp" transform="translate(237.91954214056577,0)" d="M0,63.83858267716535v371.48950131233596" style="stroke: rgb(0, 0, 0); stroke-opacity: 0.1; stroke-width: 0.5px;"/><path class="xgrid crisp" transform="translate(399.9295421405658,0)" d="M0,63.83858267716535v371.48950131233596" style="stroke: rgb(0, 0, 0); stroke-opacity: 0.1; stroke-width: 0.5px;"/><path class="xgrid crisp" transform="translate(561.9395421405658,0)" d="M0,63.83858267716535v371.48950131233596" style="stroke: rgb(0, 0, 0); stroke-opacity: 0.1; stroke-width: 0.5px;"/></g><g class="y"><path class="ygrid crisp" transform="translate(0,424.81858267716535)" d="M61.32954214056576,0h515.1927675707203" style="stroke: rgb(0, 0, 0); stroke-opacity: 0.1; stroke-width: 0.5px;"/><path class="ygrid crisp" transform="translate(0,365.1585826771653)" d="M61.32954214056576,0h515.1927675707203" style="stroke: rgb(0, 0, 0); stroke-opacity: 0.1; stroke-width: 0.5px;"/><path class="ygrid crisp" transform="translate(0,305.49858267716536)" d="M61.32954214056576,0h515.1927675707203" style="stroke: rgb(0, 0, 0); stroke-opacity: 0.1; stroke-width: 0.5px;"/><path class="ygrid crisp" transform="translate(0,245.83858267716533)" d="M61.32954214056576,0h515.1927675707203" style="stroke: rgb(0, 0, 0); stroke-opacity: 0.1; stroke-width: 0.5px;"/><path class="ygrid crisp" transform="translate(0,186.18858267716536)" d="M61.32954214056576,0h515.1927675707203" style="stroke: rgb(0, 0, 0); stroke-opacity: 0.1; stroke-width: 0.5px;"/><path class="ygrid crisp" transform="translate(0,126.52858267716535)" d="M61.32954214056576,0h515.1927675707203" style="stroke: rgb(0, 0, 0); stroke-opacity: 0.1; stroke-width: 0.5px;"/><path class="ygrid crisp" transform="translate(0,66.86858267716535)" d="M61.32954214056576,0h515.1927675707203" style="stroke: rgb(0, 0, 0); stroke-opacity: 0.1; stroke-width: 0.5px;"/></g></g><g class="zerolinelayer"/><path class="xlines-below"/><path class="ylines-below"/><g class="overlines-below"/><g class="xaxislayer-below"/><g class="yaxislayer-below"/><g class="overaxes-below"/><g class="plot" transform="translate(61.32954214056576,63.83858267716535)" clip-path="url('#clipd4fd7cxyplot')"><g class="scatterlayer mlayer"><g class="trace scatter tracee249ea" style="stroke-miterlimit: 2; opacity: 1;"><g class="fills"/><g class="errorbars"/><g class="lines"><path class="js-line" d="M14.58,301.32L500.42,301.32L500.61,360.98" style="vector-effect: non-scaling-stroke; fill: none; stroke: rgb(0, 154, 250); stroke-opacity: 1; stroke-width: 1px; opacity: 1;"/></g><g class="points"/><g class="text"/></g><g class="trace scatter traced3f013" style="stroke-miterlimit: 2; opacity: 1;"><g class="fills"/><g class="errorbars"/><g class="lines"><path class="js-line" d="M14.58,301.32L197.6,300.6L197.79,300.55L202.46,298.91L202.65,298.81L207.52,295.31L207.71,295.12L212.57,289.24L212.77,288.95L217.82,279.88L218.02,279.47L223.46,266.02L223.66,265.46L229.88,245.21L230.08,244.5L240.58,205.72L240.77,205.27L244.27,199.38L244.47,199.17L247.39,197.18L247.58,197.11L251.47,196.66L251.66,196.66L500.42,196.65L500.61,360.98" style="vector-effect: non-scaling-stroke; fill: none; stroke: rgb(227, 111, 71); stroke-opacity: 1; stroke-width: 1px; opacity: 1;"/></g><g class="points"/><g class="text"/></g><g class="trace scatter trace7972c0" style="stroke-miterlimit: 2; opacity: 1;"><g class="fills"/><g class="errorbars"/><g class="lines"><path class="js-line" d="M14.58,301.32L197.6,300.59L197.79,300.55L203.04,298.53L203.24,298.42L207.71,294.79L207.9,294.58L211.6,289.63L211.79,289.32L215.68,281.55L215.88,281.08L220.35,267.86L220.55,267.16L225.02,247.91L225.21,246.92L229.3,222.49L229.49,221.15L233.77,186.69L233.97,184.88L240.38,129.44L240.58,128.22L243.69,113.25L243.88,112.59L246.61,106.27L246.8,106.01L249.14,104.23L249.33,104.17L252.83,103.89L253.03,103.89L500.42,103.89L500.61,360.98" style="vector-effect: non-scaling-stroke; fill: none; stroke: rgb(62, 164, 78); stroke-opacity: 1; stroke-width: 1px; opacity: 1;"/></g><g class="points"/><g class="text"/></g><g class="trace scatter trace7322c8" style="stroke-miterlimit: 2; opacity: 1;"><g class="fills"/><g class="errorbars"/><g class="lines"><path class="js-line" d="M14.58,301.32L197.6,300.59L197.79,300.55L203.04,298.53L203.24,298.42L207.71,294.78L207.9,294.57L211.79,289.25L211.99,288.92L215.88,280.8L216.07,280.31L219.57,269.72L219.77,269.02L224.05,250.17L224.24,249.13L227.94,225.55L228.13,224.08L231.83,191.01L232.02,188.96L235.72,142.84L235.91,140.2L241.16,80.65L241.36,79.02L244.27,60.12L244.47,59.23L247,51.44L247.19,51.09L249.33,48.94L249.53,48.86L252.44,48.52L252.64,48.52L500.42,48.52L500.61,360.98" style="vector-effect: non-scaling-stroke; fill: none; stroke: rgb(195, 113, 210); stroke-opacity: 1; stroke-width: 1px; opacity: 1;"/></g><g class="points"/><g class="text"/></g><g class="trace scatter trace5ef5f8" style="stroke-miterlimit: 2; opacity: 1;"><g class="fills"/><g class="errorbars"/><g class="lines"><path class="js-line" d="M14.58,301.32L197.6,300.59L197.79,300.55L203.04,298.53L203.24,298.42L207.71,294.78L207.9,294.57L211.79,289.25L211.99,288.92L216.27,279.78L216.46,279.27L219.96,268.21L220.16,267.48L224.24,248.69L224.44,247.61L228.52,219.59L228.71,217.96L232.22,183.04L232.41,180.74L236.88,116.55L237.08,113.69L241.36,60.15L241.55,58.26L244.86,34.46L245.05,33.55L247.58,25.86L247.77,25.55L249.91,23.73L250.11,23.67L253.8,23.47L254,23.47L500.42,23.47L500.61,360.98" style="vector-effect: non-scaling-stroke; fill: none; stroke: rgb(172, 142, 24); stroke-opacity: 1; stroke-width: 1px; opacity: 1;"/></g><g class="points"/><g class="text"/></g><g class="trace scatter trace8061f1" style="stroke-miterlimit: 2; opacity: 1;"><g class="fills"/><g class="errorbars"/><g class="lines"><path class="js-line" d="M14.58,301.32L197.6,300.59L197.79,300.55L203.04,298.53L203.24,298.42L207.71,294.78L207.9,294.57L211.79,289.25L211.99,288.92L216.27,279.78L216.46,279.27L219.96,268.2L220.16,267.47L224.24,248.63L224.44,247.54L228.52,219.31L228.71,217.67L232.22,182.16L232.41,179.8L236.69,116.37L236.88,113.35L241.94,47.81L242.13,45.96L245.25,24.25L245.44,23.38L247.77,16.55L247.97,16.25L249.91,14.59L250.11,14.53L253.8,14.31L254,14.31L500.42,14.31L500.61,360.98" style="vector-effect: non-scaling-stroke; fill: none; stroke: rgb(0, 170, 174); stroke-opacity: 1; stroke-width: 1px; opacity: 1;"/></g><g class="points"/><g class="text"/></g><g class="trace scatter tracea0dc29" style="stroke-miterlimit: 2; opacity: 1;"><g class="fills"/><g class="errorbars"/><g class="lines"><path class="js-line" d="M14.58,301.32L197.6,300.59L197.79,300.55L203.04,298.53L203.24,298.42L207.71,294.78L207.9,294.57L211.79,289.25L211.99,288.92L216.27,279.78L216.46,279.27L219.96,268.2L220.16,267.47L224.24,248.62L224.44,247.53L228.52,219.27L228.71,217.62L232.02,184.31L232.22,181.98L236.11,124.92L236.3,121.8L241.16,53.98L241.36,51.85L244.47,25.85L244.66,24.73L247.19,14.96L247.39,14.53L249.33,12.06L249.53,11.95L252.25,11.49L252.44,11.49L500.42,11.49L500.61,360.98" style="vector-effect: non-scaling-stroke; fill: none; stroke: rgb(237, 94, 147); stroke-opacity: 1; stroke-width: 1px; opacity: 1;"/></g><g class="points"/><g class="text"/></g><g class="trace scatter tracebcf0fd" style="stroke-miterlimit: 2; opacity: 1;"><g class="fills"/><g class="errorbars"/><g class="lines"><path class="js-line" d="M14.58,301.32L197.6,300.59L197.79,300.55L203.04,298.53L203.24,298.42L207.71,294.78L207.9,294.57L211.79,289.25L211.99,288.92L216.27,279.78L216.46,279.27L219.96,268.2L220.16,267.47L224.24,248.62L224.44,247.53L228.52,219.26L228.71,217.62L232.22,181.95L232.41,179.58L236.49,118.54L236.69,115.44L241.36,51.39L241.55,49.31L244.86,23.01L245.05,21.99L247.58,13.42L247.77,13.06L249.91,11.03L250.11,10.97L253.22,10.74L253.41,10.74L500.42,10.74L500.61,360.98" style="vector-effect: non-scaling-stroke; fill: none; stroke: rgb(198, 130, 37); stroke-opacity: 1; stroke-width: 1px; opacity: 1;"/></g><g class="points"/><g class="text"/></g><g class="trace scatter traced472ec" style="stroke-miterlimit: 2; opacity: 1;"><g class="fills"/><g class="errorbars"/><g class="lines"><path class="js-line" d="M14.58,301.32L197.6,300.59L197.79,300.55L203.04,298.53L203.24,298.42L207.71,294.78L207.9,294.57L211.79,289.25L211.99,288.92L216.27,279.78L216.46,279.27L219.96,268.2L220.16,267.47L224.24,248.62L224.44,247.53L228.52,219.26L228.71,217.62L232.22,181.95L232.41,179.58L236.49,118.51L236.69,115.41L241.36,51.29L241.55,49.2L244.86,22.85L245.05,21.83L247.58,13.25L247.77,12.89L249.91,10.86L250.11,10.79L253.8,10.56L254,10.56L500.42,10.56L500.61,360.98" style="vector-effect: non-scaling-stroke; fill: none; stroke: rgb(0, 169, 141); stroke-opacity: 1; stroke-width: 1px; opacity: 1;"/></g><g class="points"/><g class="text"/></g><g class="trace scatter traceadbbbc" style="stroke-miterlimit: 2; opacity: 1;"><g class="fills"/><g class="errorbars"/><g class="lines"><path class="js-line" d="M14.58,301.32L197.6,300.59L197.79,300.55L203.04,298.53L203.24,298.42L207.71,294.78L207.9,294.57L211.79,289.25L211.99,288.92L216.27,279.78L216.46,279.27L219.96,268.2L220.16,267.47L224.24,248.62L224.44,247.53L228.52,219.26L228.71,217.62L232.22,181.95L232.41,179.58L236.49,118.5L236.69,115.4L241.36,51.27L241.55,49.18L244.86,22.82L245.05,21.8L247.58,13.21L247.77,12.85L249.91,10.82L250.11,10.75L253.8,10.52L254,10.52L500.42,10.52L500.61,360.98" style="vector-effect: non-scaling-stroke; fill: none; stroke: rgb(142, 151, 30); stroke-opacity: 1; stroke-width: 1px; opacity: 1;"/></g><g class="points"/><g class="text"/></g><g class="trace scatter tracec4a6b2" style="stroke-miterlimit: 2; opacity: 1;"><g class="fills"/><g class="errorbars"/><g class="lines"><path class="js-line" d="M14.58,301.32L197.6,300.59L197.79,300.55L203.04,298.53L203.24,298.42L207.71,294.78L207.9,294.57L211.79,289.25L211.99,288.92L216.27,279.78L216.46,279.27L219.96,268.2L220.16,267.47L224.24,248.62L224.44,247.53L228.52,219.26L228.71,217.62L232.22,181.95L232.41,179.58L236.49,118.5L236.69,115.4L241.36,51.26L241.55,49.18L244.86,22.82L245.05,21.8L247.58,13.2L247.77,12.85L249.91,10.81L250.11,10.74L253.8,10.52L254,10.52L500.42,10.52L500.61,360.98" style="vector-effect: non-scaling-stroke; fill: none; stroke: rgb(0, 169, 204); stroke-opacity: 1; stroke-width: 1px; opacity: 1;"/></g><g class="points"/><g class="text"/></g><g class="trace scatter trace5fff44" style="stroke-miterlimit: 2; opacity: 1;"><g class="fills"/><g class="errorbars"/><g class="lines"><path class="js-line" d="M14.58,301.32L197.6,300.59L197.79,300.55L203.04,298.53L203.24,298.42L207.71,294.78L207.9,294.57L211.79,289.25L211.99,288.92L216.27,279.78L216.46,279.27L219.96,268.2L220.16,267.47L224.24,248.62L224.44,247.53L228.52,219.26L228.71,217.62L232.22,181.95L232.41,179.58L236.49,118.5L236.69,115.4L241.36,51.26L241.55,49.18L244.86,22.81L245.05,21.8L247.58,13.2L247.77,12.85L249.91,10.81L250.11,10.74L253.8,10.51L254,10.51L500.42,10.51L500.61,360.98" style="vector-effect: non-scaling-stroke; fill: none; stroke: rgb(155, 127, 233); stroke-opacity: 1; stroke-width: 1px; opacity: 1;"/></g><g class="points"/><g class="text"/></g><g class="trace scatter traceb5d299" style="stroke-miterlimit: 2; opacity: 1;"><g class="fills"/><g class="errorbars"/><g class="lines"><path class="js-line" d="M14.58,301.32L197.6,300.59L197.79,300.55L203.04,298.53L203.24,298.42L207.71,294.78L207.9,294.57L211.79,289.25L211.99,288.92L216.27,279.78L216.46,279.27L219.96,268.2L220.16,267.47L224.24,248.62L224.44,247.53L228.52,219.26L228.71,217.62L232.22,181.95L232.41,179.58L236.49,118.5L236.69,115.4L241.36,51.26L241.55,49.18L244.86,22.81L245.05,21.8L247.58,13.2L247.77,12.85L249.91,10.81L250.11,10.74L253.8,10.51L254,10.51L500.42,10.51L500.61,360.98" style="vector-effect: non-scaling-stroke; fill: none; stroke: rgb(97, 141, 246); stroke-opacity: 1; stroke-width: 1px; opacity: 1;"/></g><g class="points"/><g class="text"/></g><g class="trace scatter traceed1b68" style="stroke-miterlimit: 2; opacity: 1;"><g class="fills"/><g class="errorbars"/><g class="lines"><path class="js-line" d="M14.58,301.32L197.6,300.59L197.79,300.55L203.04,298.53L203.24,298.42L207.71,294.78L207.9,294.57L211.79,289.25L211.99,288.92L216.27,279.78L216.46,279.27L219.96,268.2L220.16,267.47L224.24,248.62L224.44,247.53L228.52,219.26L228.71,217.62L232.22,181.95L232.41,179.58L236.49,118.5L236.69,115.4L241.36,51.26L241.55,49.18L244.86,22.81L245.05,21.8L247.58,13.2L247.77,12.85L249.91,10.81L250.11,10.74L253.8,10.51L254,10.51L500.42,10.51L500.61,360.98" style="vector-effect: non-scaling-stroke; fill: none; stroke: rgb(240, 96, 115); stroke-opacity: 1; stroke-width: 1px; opacity: 1;"/></g><g class="points"/><g class="text"/></g><g class="trace scatter trace6d034c" style="stroke-miterlimit: 2; opacity: 1;"><g class="fills"/><g class="errorbars"/><g class="lines"><path class="js-line" d="M14.58,301.32L197.6,300.59L197.79,300.55L203.04,298.53L203.24,298.42L207.71,294.78L207.9,294.57L211.79,289.25L211.99,288.92L216.27,279.78L216.46,279.27L219.96,268.2L220.16,267.47L224.24,248.62L224.44,247.53L228.52,219.26L228.71,217.62L232.22,181.95L232.41,179.58L236.49,118.5L236.69,115.4L241.36,51.26L241.55,49.18L244.86,22.81L245.05,21.8L247.58,13.2L247.77,12.85L249.91,10.81L250.11,10.74L253.8,10.51L254,10.51L500.42,10.51L500.61,360.98" style="vector-effect: non-scaling-stroke; fill: none; stroke: rgb(221, 101, 182); stroke-opacity: 1; stroke-width: 1px; opacity: 1;"/></g><g class="points"/><g class="text"/></g><g class="trace scatter trace2d4d25" style="stroke-miterlimit: 2; opacity: 1;"><g class="fills"/><g class="errorbars"/><g class="lines"><path class="js-line" d="M14.58,301.32L197.6,300.59L197.79,300.55L203.04,298.53L203.24,298.42L207.71,294.78L207.9,294.57L211.79,289.25L211.99,288.92L216.27,279.78L216.46,279.27L219.96,268.2L220.16,267.47L224.24,248.62L224.44,247.53L228.52,219.26L228.71,217.62L232.22,181.95L232.41,179.58L236.49,118.5L236.69,115.4L241.36,51.26L241.55,49.18L244.86,22.81L245.05,21.8L247.58,13.2L247.77,12.85L249.91,10.81L250.11,10.74L253.8,10.51L254,10.51L500.42,10.51L500.61,360.98" style="vector-effect: non-scaling-stroke; fill: none; stroke: rgb(108, 159, 51); stroke-opacity: 1; stroke-width: 1px; opacity: 1;"/></g><g class="points"/><g class="text"/></g></g></g><g class="overplot"/><path class="xlines-above crisp" d="M60.32954214056576,435.8280839895013H576.5223097112861" style="fill: none; stroke-width: 1px; stroke: rgb(0, 0, 0); stroke-opacity: 1;"/><path class="ylines-above crisp" d="M60.82954214056576,63.83858267716535V435.3280839895013" style="fill: none; stroke-width: 1px; stroke: rgb(0, 0, 0); stroke-opacity: 1;"/><g class="overlines-above"/><g class="xaxislayer-above"><path class="xtick ticks crisp" d="M0,435.3280839895013v-5" transform="translate(75.90954214056576,0)" style="stroke: rgb(0, 0, 0); stroke-opacity: 1; stroke-width: 1px;"/><path class="xtick ticks crisp" d="M0,435.3280839895013v-5" transform="translate(237.91954214056577,0)" style="stroke: rgb(0, 0, 0); stroke-opacity: 1; stroke-width: 1px;"/><path class="xtick ticks crisp" d="M0,435.3280839895013v-5" transform="translate(399.9295421405658,0)" style="stroke: rgb(0, 0, 0); stroke-opacity: 1; stroke-width: 1px;"/><path class="xtick ticks crisp" d="M0,435.3280839895013v-5" transform="translate(561.9395421405658,0)" style="stroke: rgb(0, 0, 0); stroke-opacity: 1; stroke-width: 1px;"/><g class="xtick"><text text-anchor="middle" x="0" y="449.5280839895013" transform="translate(75.90954214056576,0)" style="font-family: sans-serif; font-size: 11px; fill: rgb(0, 0, 0); fill-opacity: 1; white-space: pre;">0.0000</text></g><g class="xtick"><text text-anchor="middle" x="0" y="449.5280839895013" transform="translate(237.91954214056577,0)" style="font-family: sans-serif; font-size: 11px; fill: rgb(0, 0, 0); fill-opacity: 1; white-space: pre;">0.0001</text></g><g class="xtick"><text text-anchor="middle" x="0" y="449.5280839895013" transform="translate(399.9295421405658,0)" style="font-family: sans-serif; font-size: 11px; fill: rgb(0, 0, 0); fill-opacity: 1; white-space: pre;">0.0002</text></g><g class="xtick"><text text-anchor="middle" x="0" y="449.5280839895013" transform="translate(561.9395421405658,0)" style="font-family: sans-serif; font-size: 11px; fill: rgb(0, 0, 0); fill-opacity: 1; white-space: pre;">0.0003</text></g></g><g class="yaxislayer-above"><path class="ytick ticks crisp" d="M61.32954214056576,0h5" transform="translate(0,424.81858267716535)" style="stroke: rgb(0, 0, 0); stroke-opacity: 1; stroke-width: 1px;"/><path class="ytick ticks crisp" d="M61.32954214056576,0h5" transform="translate(0,365.1585826771653)" style="stroke: rgb(0, 0, 0); stroke-opacity: 1; stroke-width: 1px;"/><path class="ytick ticks crisp" d="M61.32954214056576,0h5" transform="translate(0,305.49858267716536)" style="stroke: rgb(0, 0, 0); stroke-opacity: 1; stroke-width: 1px;"/><path class="ytick ticks crisp" d="M61.32954214056576,0h5" transform="translate(0,245.83858267716533)" style="stroke: rgb(0, 0, 0); stroke-opacity: 1; stroke-width: 1px;"/><path class="ytick ticks crisp" d="M61.32954214056576,0h5" transform="translate(0,186.18858267716536)" style="stroke: rgb(0, 0, 0); stroke-opacity: 1; stroke-width: 1px;"/><path class="ytick ticks crisp" d="M61.32954214056576,0h5" transform="translate(0,126.52858267716535)" style="stroke: rgb(0, 0, 0); stroke-opacity: 1; stroke-width: 1px;"/><path class="ytick ticks crisp" d="M61.32954214056576,0h5" transform="translate(0,66.86858267716535)" style="stroke: rgb(0, 0, 0); stroke-opacity: 1; stroke-width: 1px;"/><g class="ytick"><text text-anchor="end" x="58.12954214056576" y="3.8499999999999996" transform="translate(0,424.81858267716535)" style="font-family: sans-serif; font-size: 11px; fill: rgb(0, 0, 0); fill-opacity: 1; white-space: pre;">0</text></g><g class="ytick"><text text-anchor="end" x="58.12954214056576" y="3.8499999999999996" transform="translate(0,365.1585826771653)" style="font-family: sans-serif; font-size: 11px; fill: rgb(0, 0, 0); fill-opacity: 1; white-space: pre;">1</text></g><g class="ytick"><text text-anchor="end" x="58.12954214056576" y="3.8499999999999996" transform="translate(0,305.49858267716536)" style="font-family: sans-serif; font-size: 11px; fill: rgb(0, 0, 0); fill-opacity: 1; white-space: pre;">2</text></g><g class="ytick"><text text-anchor="end" x="58.12954214056576" y="3.8499999999999996" transform="translate(0,245.83858267716533)" style="font-family: sans-serif; font-size: 11px; fill: rgb(0, 0, 0); fill-opacity: 1; white-space: pre;">3</text></g><g class="ytick"><text text-anchor="end" x="58.12954214056576" y="3.8499999999999996" transform="translate(0,186.18858267716536)" style="font-family: sans-serif; font-size: 11px; fill: rgb(0, 0, 0); fill-opacity: 1; white-space: pre;">4</text></g><g class="ytick"><text text-anchor="end" x="58.12954214056576" y="3.8499999999999996" transform="translate(0,126.52858267716535)" style="font-family: sans-serif; font-size: 11px; fill: rgb(0, 0, 0); fill-opacity: 1; white-space: pre;">5</text></g><g class="ytick"><text text-anchor="end" x="58.12954214056576" y="3.8499999999999996" transform="translate(0,66.86858267716535)" style="font-family: sans-serif; font-size: 11px; fill: rgb(0, 0, 0); fill-opacity: 1; white-space: pre;">6</text></g></g><g class="overaxes-above"/></g></g><g class="polarlayer"/><g class="ternarylayer"/><g class="geolayer"/><g class="funnelarealayer"/><g class="pielayer"/><g class="treemaplayer"/><g class="sunburstlayer"/><g class="glimages"/><defs id="topdefs-d4fd7c"><g class="clips"/><clipPath id="legendd4fd7c"><rect width="97" height="390" x="0" y="0"/></clipPath></defs><g class="layer-above"><g class="imagelayer"/><g class="shapelayer"/></g><g class="infolayer"><g class="legend" pointer-events="all" transform="translate(590.6,60)"><rect class="bg" shape-rendering="crispEdges" style="stroke: rgb(68, 68, 68); stroke-opacity: 1; fill: rgb(255, 255, 255); fill-opacity: 1; stroke-width: 0px;" width="97" height="390" x="0" y="0"/><g class="scrollbox" transform="" clip-path="url('#legendd4fd7c')"><g class="groups" transform=""><g class="traces" transform="translate(0,14.5)" style="opacity: 1;"><text class="legendtext" text-anchor="start" x="40" y="4.680000000000001" style="font-family: 'Open Sans', verdana, arial, sans-serif; font-size: 12px; fill: rgb(42, 63, 95); fill-opacity: 1; white-space: pre;">Epoch 1</text><g class="layers" style="opacity: 1;"><g class="legendfill"/><g class="legendlines"><path class="js-line" d="M5,0h30" style="fill: none; stroke: rgb(0, 154, 250); stroke-opacity: 1; stroke-width: 1px;"/></g><g class="legendsymbols"><g class="legendpoints"/></g></g><rect class="legendtoggle" x="0" y="-9.5" width="91.34375" height="19" style="fill: rgb(0, 0, 0); fill-opacity: 0;"/></g></g><g class="groups" transform="translate(0,10)"><g class="traces" transform="translate(0,33.5)" style="opacity: 1;"><text class="legendtext" text-anchor="start" x="40" y="4.680000000000001" style="font-family: 'Open Sans', verdana, arial, sans-serif; font-size: 12px; fill: rgb(42, 63, 95); fill-opacity: 1; white-space: pre;">Epoch 2</text><g class="layers" style="opacity: 1;"><g class="legendfill"/><g class="legendlines"><path class="js-line" d="M5,0h30" style="fill: none; stroke: rgb(227, 111, 71); stroke-opacity: 1; stroke-width: 1px;"/></g><g class="legendsymbols"><g class="legendpoints"/></g></g><rect class="legendtoggle" x="0" y="-9.5" width="91.34375" height="19" style="fill: rgb(0, 0, 0); fill-opacity: 0;"/></g></g><g class="groups" transform="translate(0,20)"><g class="traces" transform="translate(0,52.5)" style="opacity: 1;"><text class="legendtext" text-anchor="start" x="40" y="4.680000000000001" style="font-family: 'Open Sans', verdana, arial, sans-serif; font-size: 12px; fill: rgb(42, 63, 95); fill-opacity: 1; white-space: pre;">Epoch 3</text><g class="layers" style="opacity: 1;"><g class="legendfill"/><g class="legendlines"><path class="js-line" d="M5,0h30" style="fill: none; stroke: rgb(62, 164, 78); stroke-opacity: 1; stroke-width: 1px;"/></g><g class="legendsymbols"><g class="legendpoints"/></g></g><rect class="legendtoggle" x="0" y="-9.5" width="91.34375" height="19" style="fill: rgb(0, 0, 0); fill-opacity: 0;"/></g></g><g class="groups" transform="translate(0,30)"><g class="traces" transform="translate(0,71.5)" style="opacity: 1;"><text class="legendtext" text-anchor="start" x="40" y="4.680000000000001" style="font-family: 'Open Sans', verdana, arial, sans-serif; font-size: 12px; fill: rgb(42, 63, 95); fill-opacity: 1; white-space: pre;">Epoch 4</text><g class="layers" style="opacity: 1;"><g class="legendfill"/><g class="legendlines"><path class="js-line" d="M5,0h30" style="fill: none; stroke: rgb(195, 113, 210); stroke-opacity: 1; stroke-width: 1px;"/></g><g class="legendsymbols"><g class="legendpoints"/></g></g><rect class="legendtoggle" x="0" y="-9.5" width="91.34375" height="19" style="fill: rgb(0, 0, 0); fill-opacity: 0;"/></g></g><g class="groups" transform="translate(0,40)"><g class="traces" transform="translate(0,90.5)" style="opacity: 1;"><text class="legendtext" text-anchor="start" x="40" y="4.680000000000001" style="font-family: 'Open Sans', verdana, arial, sans-serif; font-size: 12px; fill: rgb(42, 63, 95); fill-opacity: 1; white-space: pre;">Epoch 5</text><g class="layers" style="opacity: 1;"><g class="legendfill"/><g class="legendlines"><path class="js-line" d="M5,0h30" style="fill: none; stroke: rgb(172, 142, 24); stroke-opacity: 1; stroke-width: 1px;"/></g><g class="legendsymbols"><g class="legendpoints"/></g></g><rect class="legendtoggle" x="0" y="-9.5" width="91.34375" height="19" style="fill: rgb(0, 0, 0); fill-opacity: 0;"/></g></g><g class="groups" transform="translate(0,50)"><g class="traces" transform="translate(0,109.5)" style="opacity: 1;"><text class="legendtext" text-anchor="start" x="40" y="4.680000000000001" style="font-family: 'Open Sans', verdana, arial, sans-serif; font-size: 12px; fill: rgb(42, 63, 95); fill-opacity: 1; white-space: pre;">Epoch 6</text><g class="layers" style="opacity: 1;"><g class="legendfill"/><g class="legendlines"><path class="js-line" d="M5,0h30" style="fill: none; stroke: rgb(0, 170, 174); stroke-opacity: 1; stroke-width: 1px;"/></g><g class="legendsymbols"><g class="legendpoints"/></g></g><rect class="legendtoggle" x="0" y="-9.5" width="91.34375" height="19" style="fill: rgb(0, 0, 0); fill-opacity: 0;"/></g></g><g class="groups" transform="translate(0,60)"><g class="traces" transform="translate(0,128.5)" style="opacity: 1;"><text class="legendtext" text-anchor="start" x="40" y="4.680000000000001" style="font-family: 'Open Sans', verdana, arial, sans-serif; font-size: 12px; fill: rgb(42, 63, 95); fill-opacity: 1; white-space: pre;">Epoch 7</text><g class="layers" style="opacity: 1;"><g class="legendfill"/><g class="legendlines"><path class="js-line" d="M5,0h30" style="fill: none; stroke: rgb(237, 94, 147); stroke-opacity: 1; stroke-width: 1px;"/></g><g class="legendsymbols"><g class="legendpoints"/></g></g><rect class="legendtoggle" x="0" y="-9.5" width="91.34375" height="19" style="fill: rgb(0, 0, 0); fill-opacity: 0;"/></g></g><g class="groups" transform="translate(0,70)"><g class="traces" transform="translate(0,147.5)" style="opacity: 1;"><text class="legendtext" text-anchor="start" x="40" y="4.680000000000001" style="font-family: 'Open Sans', verdana, arial, sans-serif; font-size: 12px; fill: rgb(42, 63, 95); fill-opacity: 1; white-space: pre;">Epoch 8</text><g class="layers" style="opacity: 1;"><g class="legendfill"/><g class="legendlines"><path class="js-line" d="M5,0h30" style="fill: none; stroke: rgb(198, 130, 37); stroke-opacity: 1; stroke-width: 1px;"/></g><g class="legendsymbols"><g class="legendpoints"/></g></g><rect class="legendtoggle" x="0" y="-9.5" width="91.34375" height="19" style="fill: rgb(0, 0, 0); fill-opacity: 0;"/></g></g><g class="groups" transform="translate(0,80)"><g class="traces" transform="translate(0,166.5)" style="opacity: 1;"><text class="legendtext" text-anchor="start" x="40" y="4.680000000000001" style="font-family: 'Open Sans', verdana, arial, sans-serif; font-size: 12px; fill: rgb(42, 63, 95); fill-opacity: 1; white-space: pre;">Epoch 9</text><g class="layers" style="opacity: 1;"><g class="legendfill"/><g class="legendlines"><path class="js-line" d="M5,0h30" style="fill: none; stroke: rgb(0, 169, 141); stroke-opacity: 1; stroke-width: 1px;"/></g><g class="legendsymbols"><g class="legendpoints"/></g></g><rect class="legendtoggle" x="0" y="-9.5" width="91.34375" height="19" style="fill: rgb(0, 0, 0); fill-opacity: 0;"/></g></g><g class="groups" transform="translate(0,90)"><g class="traces" transform="translate(0,185.5)" style="opacity: 1;"><text class="legendtext" text-anchor="start" x="40" y="4.680000000000001" style="font-family: 'Open Sans', verdana, arial, sans-serif; font-size: 12px; fill: rgb(42, 63, 95); fill-opacity: 1; white-space: pre;">Epoch 10</text><g class="layers" style="opacity: 1;"><g class="legendfill"/><g class="legendlines"><path class="js-line" d="M5,0h30" style="fill: none; stroke: rgb(142, 151, 30); stroke-opacity: 1; stroke-width: 1px;"/></g><g class="legendsymbols"><g class="legendpoints"/></g></g><rect class="legendtoggle" x="0" y="-9.5" width="91.34375" height="19" style="fill: rgb(0, 0, 0); fill-opacity: 0;"/></g></g><g class="groups" transform="translate(0,100)"><g class="traces" transform="translate(0,204.5)" style="opacity: 1;"><text class="legendtext" text-anchor="start" x="40" y="4.680000000000001" style="font-family: 'Open Sans', verdana, arial, sans-serif; font-size: 12px; fill: rgb(42, 63, 95); fill-opacity: 1; white-space: pre;">Epoch 11</text><g class="layers" style="opacity: 1;"><g class="legendfill"/><g class="legendlines"><path class="js-line" d="M5,0h30" style="fill: none; stroke: rgb(0, 169, 204); stroke-opacity: 1; stroke-width: 1px;"/></g><g class="legendsymbols"><g class="legendpoints"/></g></g><rect class="legendtoggle" x="0" y="-9.5" width="91.34375" height="19" style="fill: rgb(0, 0, 0); fill-opacity: 0;"/></g></g><g class="groups" transform="translate(0,110)"><g class="traces" transform="translate(0,223.5)" style="opacity: 1;"><text class="legendtext" text-anchor="start" x="40" y="4.680000000000001" style="font-family: 'Open Sans', verdana, arial, sans-serif; font-size: 12px; fill: rgb(42, 63, 95); fill-opacity: 1; white-space: pre;">Epoch 12</text><g class="layers" style="opacity: 1;"><g class="legendfill"/><g class="legendlines"><path class="js-line" d="M5,0h30" style="fill: none; stroke: rgb(155, 127, 233); stroke-opacity: 1; stroke-width: 1px;"/></g><g class="legendsymbols"><g class="legendpoints"/></g></g><rect class="legendtoggle" x="0" y="-9.5" width="91.34375" height="19" style="fill: rgb(0, 0, 0); fill-opacity: 0;"/></g></g><g class="groups" transform="translate(0,120)"><g class="traces" transform="translate(0,242.5)" style="opacity: 1;"><text class="legendtext" text-anchor="start" x="40" y="4.680000000000001" style="font-family: 'Open Sans', verdana, arial, sans-serif; font-size: 12px; fill: rgb(42, 63, 95); fill-opacity: 1; white-space: pre;">Epoch 13</text><g class="layers" style="opacity: 1;"><g class="legendfill"/><g class="legendlines"><path class="js-line" d="M5,0h30" style="fill: none; stroke: rgb(97, 141, 246); stroke-opacity: 1; stroke-width: 1px;"/></g><g class="legendsymbols"><g class="legendpoints"/></g></g><rect class="legendtoggle" x="0" y="-9.5" width="91.34375" height="19" style="fill: rgb(0, 0, 0); fill-opacity: 0;"/></g></g><g class="groups" transform="translate(0,130)"><g class="traces" transform="translate(0,261.5)" style="opacity: 1;"><text class="legendtext" text-anchor="start" x="40" y="4.680000000000001" style="font-family: 'Open Sans', verdana, arial, sans-serif; font-size: 12px; fill: rgb(42, 63, 95); fill-opacity: 1; white-space: pre;">Epoch 14</text><g class="layers" style="opacity: 1;"><g class="legendfill"/><g class="legendlines"><path class="js-line" d="M5,0h30" style="fill: none; stroke: rgb(240, 96, 115); stroke-opacity: 1; stroke-width: 1px;"/></g><g class="legendsymbols"><g class="legendpoints"/></g></g><rect class="legendtoggle" x="0" y="-9.5" width="91.34375" height="19" style="fill: rgb(0, 0, 0); fill-opacity: 0;"/></g></g><g class="groups" transform="translate(0,140)"><g class="traces" transform="translate(0,280.5)" style="opacity: 1;"><text class="legendtext" text-anchor="start" x="40" y="4.680000000000001" style="font-family: 'Open Sans', verdana, arial, sans-serif; font-size: 12px; fill: rgb(42, 63, 95); fill-opacity: 1; white-space: pre;">Epoch 15</text><g class="layers" style="opacity: 1;"><g class="legendfill"/><g class="legendlines"><path class="js-line" d="M5,0h30" style="fill: none; stroke: rgb(221, 101, 182); stroke-opacity: 1; stroke-width: 1px;"/></g><g class="legendsymbols"><g class="legendpoints"/></g></g><rect class="legendtoggle" x="0" y="-9.5" width="91.34375" height="19" style="fill: rgb(0, 0, 0); fill-opacity: 0;"/></g></g><g class="groups" transform="translate(0,150)"><g class="traces" transform="translate(0,299.5)" style="opacity: 1;"><text class="legendtext" text-anchor="start" x="40" y="4.680000000000001" style="font-family: 'Open Sans', verdana, arial, sans-serif; font-size: 12px; fill: rgb(42, 63, 95); fill-opacity: 1; white-space: pre;">Epoch 16</text><g class="layers" style="opacity: 1;"><g class="legendfill"/><g class="legendlines"><path class="js-line" d="M5,0h30" style="fill: none; stroke: rgb(108, 159, 51); stroke-opacity: 1; stroke-width: 1px;"/></g><g class="legendsymbols"><g class="legendpoints"/></g></g><rect class="legendtoggle" x="0" y="-9.5" width="91.34375" height="19" style="fill: rgb(0, 0, 0); fill-opacity: 0;"/></g></g></g><rect class="scrollbar" rx="20" ry="3" width="0" height="0" style="fill: rgb(128, 139, 164); fill-opacity: 1;" x="0" y="0"/></g><g class="g-gtitle"/><g class="g-xtitle"/><g class="g-ytitle"/></g></svg>