<?xml version="1.0" encoding="utf-8"?>
<svg xmlns="http://www.w3.org/2000/svg" xmlns:xlink="http://www.w3.org/1999/xlink" width="600" height="400" viewBox="0 0 2400 1600">
<defs>
  <clipPath id="clip640">
    <rect x="0" y="0" width="2400" height="1600"/>
  </clipPath>
</defs>
<path clip-path="url(#clip640)" d="
M0 1600 L2400 1600 L2400 0 L0 0  Z
  " fill="#ffffff" fill-rule="evenodd" fill-opacity="1"/>
<defs>
  <clipPath id="clip641">
    <rect x="480" y="0" width="1681" height="1600"/>
  </clipPath>
</defs>
<path clip-path="url(#clip640)" d="
M156.598 1486.45 L2352.76 1486.45 L2352.76 47.2441 L156.598 47.2441  Z
  " fill="#ffffff" fill-rule="evenodd" fill-opacity="1"/>
<defs>
  <clipPath id="clip642">
    <rect x="156" y="47" width="2197" height="1440"/>
  </clipPath>
</defs>
<polyline clip-path="url(#clip642)" style="stroke:#000000; stroke-linecap:butt; stroke-linejoin:round; stroke-width:2; stroke-opacity:0.1; fill:none" points="
  218.754,1486.45 218.754,47.2441 
  "/>
<polyline clip-path="url(#clip642)" style="stroke:#000000; stroke-linecap:butt; stroke-linejoin:round; stroke-width:2; stroke-opacity:0.1; fill:none" points="
  909.369,1486.45 909.369,47.2441 
  "/>
<polyline clip-path="url(#clip642)" style="stroke:#000000; stroke-linecap:butt; stroke-linejoin:round; stroke-width:2; stroke-opacity:0.1; fill:none" points="
  1599.98,1486.45 1599.98,47.2441 
  "/>
<polyline clip-path="url(#clip642)" style="stroke:#000000; stroke-linecap:butt; stroke-linejoin:round; stroke-width:2; stroke-opacity:0.1; fill:none" points="
  2290.6,1486.45 2290.6,47.2441 
  "/>
<polyline clip-path="url(#clip640)" style="stroke:#000000; stroke-linecap:butt; stroke-linejoin:round; stroke-width:4; stroke-opacity:1; fill:none" points="
  156.598,1486.45 2352.76,1486.45 
  "/>
<polyline clip-path="url(#clip640)" style="stroke:#000000; stroke-linecap:butt; stroke-linejoin:round; stroke-width:4; stroke-opacity:1; fill:none" points="
  218.754,1486.45 218.754,1467.55 
  "/>
<polyline clip-path="url(#clip640)" style="stroke:#000000; stroke-linecap:butt; stroke-linejoin:round; stroke-width:4; stroke-opacity:1; fill:none" points="
  909.369,1486.45 909.369,1467.55 
  "/>
<polyline clip-path="url(#clip640)" style="stroke:#000000; stroke-linecap:butt; stroke-linejoin:round; stroke-width:4; stroke-opacity:1; fill:none" points="
  1599.98,1486.45 1599.98,1467.55 
  "/>
<polyline clip-path="url(#clip640)" style="stroke:#000000; stroke-linecap:butt; stroke-linejoin:round; stroke-width:4; stroke-opacity:1; fill:none" points="
  2290.6,1486.45 2290.6,1467.55 
  "/>
<path clip-path="url(#clip640)" d="M150.895 1517.37 Q147.284 1517.37 145.455 1520.93 Q143.65 1524.47 143.65 1531.6 Q143.65 1538.71 145.455 1542.27 Q147.284 1545.82 150.895 1545.82 Q154.529 1545.82 156.335 1542.27 Q158.164 1538.71 158.164 1531.6 Q158.164 1524.47 156.335 1520.93 Q154.529 1517.37 150.895 1517.37 M150.895 1513.66 Q156.705 1513.66 159.761 1518.27 Q162.84 1522.85 162.84 1531.6 Q162.84 1540.33 159.761 1544.94 Q156.705 1549.52 150.895 1549.52 Q145.085 1549.52 142.006 1544.94 Q138.951 1540.33 138.951 1531.6 Q138.951 1522.85 142.006 1518.27 Q145.085 1513.66 150.895 1513.66 Z" fill="#000000" fill-rule="evenodd" fill-opacity="1" /><path clip-path="url(#clip640)" d="M171.057 1542.97 L175.941 1542.97 L175.941 1548.85 L171.057 1548.85 L171.057 1542.97 Z" fill="#000000" fill-rule="evenodd" fill-opacity="1" /><path clip-path="url(#clip640)" d="M196.126 1517.37 Q192.515 1517.37 190.687 1520.93 Q188.881 1524.47 188.881 1531.6 Q188.881 1538.71 190.687 1542.27 Q192.515 1545.82 196.126 1545.82 Q199.761 1545.82 201.566 1542.27 Q203.395 1538.71 203.395 1531.6 Q203.395 1524.47 201.566 1520.93 Q199.761 1517.37 196.126 1517.37 M196.126 1513.66 Q201.937 1513.66 204.992 1518.27 Q208.071 1522.85 208.071 1531.6 Q208.071 1540.33 204.992 1544.94 Q201.937 1549.52 196.126 1549.52 Q190.316 1549.52 187.238 1544.94 Q184.182 1540.33 184.182 1531.6 Q184.182 1522.85 187.238 1518.27 Q190.316 1513.66 196.126 1513.66 Z" fill="#000000" fill-rule="evenodd" fill-opacity="1" /><path clip-path="url(#clip640)" d="M226.288 1517.37 Q222.677 1517.37 220.849 1520.93 Q219.043 1524.47 219.043 1531.6 Q219.043 1538.71 220.849 1542.27 Q222.677 1545.82 226.288 1545.82 Q229.923 1545.82 231.728 1542.27 Q233.557 1538.71 233.557 1531.6 Q233.557 1524.47 231.728 1520.93 Q229.923 1517.37 226.288 1517.37 M226.288 1513.66 Q232.098 1513.66 235.154 1518.27 Q238.233 1522.85 238.233 1531.6 Q238.233 1540.33 235.154 1544.94 Q232.098 1549.52 226.288 1549.52 Q220.478 1549.52 217.399 1544.94 Q214.344 1540.33 214.344 1531.6 Q214.344 1522.85 217.399 1518.27 Q220.478 1513.66 226.288 1513.66 Z" fill="#000000" fill-rule="evenodd" fill-opacity="1" /><path clip-path="url(#clip640)" d="M256.45 1517.37 Q252.839 1517.37 251.01 1520.93 Q249.205 1524.47 249.205 1531.6 Q249.205 1538.71 251.01 1542.27 Q252.839 1545.82 256.45 1545.82 Q260.084 1545.82 261.89 1542.27 Q263.719 1538.71 263.719 1531.6 Q263.719 1524.47 261.89 1520.93 Q260.084 1517.37 256.45 1517.37 M256.45 1513.66 Q262.26 1513.66 265.316 1518.27 Q268.395 1522.85 268.395 1531.6 Q268.395 1540.33 265.316 1544.94 Q262.26 1549.52 256.45 1549.52 Q250.64 1549.52 247.561 1544.94 Q244.506 1540.33 244.506 1531.6 Q244.506 1522.85 247.561 1518.27 Q250.64 1513.66 256.45 1513.66 Z" fill="#000000" fill-rule="evenodd" fill-opacity="1" /><path clip-path="url(#clip640)" d="M286.612 1517.37 Q283.001 1517.37 281.172 1520.93 Q279.367 1524.47 279.367 1531.6 Q279.367 1538.71 281.172 1542.27 Q283.001 1545.82 286.612 1545.82 Q290.246 1545.82 292.052 1542.27 Q293.881 1538.71 293.881 1531.6 Q293.881 1524.47 292.052 1520.93 Q290.246 1517.37 286.612 1517.37 M286.612 1513.66 Q292.422 1513.66 295.478 1518.27 Q298.556 1522.85 298.556 1531.6 Q298.556 1540.33 295.478 1544.94 Q292.422 1549.52 286.612 1549.52 Q280.802 1549.52 277.723 1544.94 Q274.668 1540.33 274.668 1531.6 Q274.668 1522.85 277.723 1518.27 Q280.802 1513.66 286.612 1513.66 Z" fill="#000000" fill-rule="evenodd" fill-opacity="1" /><path clip-path="url(#clip640)" d="M842.124 1517.37 Q838.513 1517.37 836.684 1520.93 Q834.879 1524.47 834.879 1531.6 Q834.879 1538.71 836.684 1542.27 Q838.513 1545.82 842.124 1545.82 Q845.758 1545.82 847.564 1542.27 Q849.393 1538.71 849.393 1531.6 Q849.393 1524.47 847.564 1520.93 Q845.758 1517.37 842.124 1517.37 M842.124 1513.66 Q847.934 1513.66 850.99 1518.27 Q854.069 1522.85 854.069 1531.6 Q854.069 1540.33 850.99 1544.94 Q847.934 1549.52 842.124 1549.52 Q836.314 1549.52 833.235 1544.94 Q830.18 1540.33 830.18 1531.6 Q830.18 1522.85 833.235 1518.27 Q836.314 1513.66 842.124 1513.66 Z" fill="#000000" fill-rule="evenodd" fill-opacity="1" /><path clip-path="url(#clip640)" d="M862.286 1542.97 L867.17 1542.97 L867.17 1548.85 L862.286 1548.85 L862.286 1542.97 Z" fill="#000000" fill-rule="evenodd" fill-opacity="1" /><path clip-path="url(#clip640)" d="M887.355 1517.37 Q883.744 1517.37 881.916 1520.93 Q880.11 1524.47 880.11 1531.6 Q880.11 1538.71 881.916 1542.27 Q883.744 1545.82 887.355 1545.82 Q890.99 1545.82 892.795 1542.27 Q894.624 1538.71 894.624 1531.6 Q894.624 1524.47 892.795 1520.93 Q890.99 1517.37 887.355 1517.37 M887.355 1513.66 Q893.166 1513.66 896.221 1518.27 Q899.3 1522.85 899.3 1531.6 Q899.3 1540.33 896.221 1544.94 Q893.166 1549.52 887.355 1549.52 Q881.545 1549.52 878.467 1544.94 Q875.411 1540.33 875.411 1531.6 Q875.411 1522.85 878.467 1518.27 Q881.545 1513.66 887.355 1513.66 Z" fill="#000000" fill-rule="evenodd" fill-opacity="1" /><path clip-path="url(#clip640)" d="M917.517 1517.37 Q913.906 1517.37 912.078 1520.93 Q910.272 1524.47 910.272 1531.6 Q910.272 1538.71 912.078 1542.27 Q913.906 1545.82 917.517 1545.82 Q921.152 1545.82 922.957 1542.27 Q924.786 1538.71 924.786 1531.6 Q924.786 1524.47 922.957 1520.93 Q921.152 1517.37 917.517 1517.37 M917.517 1513.66 Q923.328 1513.66 926.383 1518.27 Q929.462 1522.85 929.462 1531.6 Q929.462 1540.33 926.383 1544.94 Q923.328 1549.52 917.517 1549.52 Q911.707 1549.52 908.629 1544.94 Q905.573 1540.33 905.573 1531.6 Q905.573 1522.85 908.629 1518.27 Q911.707 1513.66 917.517 1513.66 Z" fill="#000000" fill-rule="evenodd" fill-opacity="1" /><path clip-path="url(#clip640)" d="M947.679 1517.37 Q944.068 1517.37 942.239 1520.93 Q940.434 1524.47 940.434 1531.6 Q940.434 1538.71 942.239 1542.27 Q944.068 1545.82 947.679 1545.82 Q951.313 1545.82 953.119 1542.27 Q954.948 1538.71 954.948 1531.6 Q954.948 1524.47 953.119 1520.93 Q951.313 1517.37 947.679 1517.37 M947.679 1513.66 Q953.489 1513.66 956.545 1518.27 Q959.624 1522.85 959.624 1531.6 Q959.624 1540.33 956.545 1544.94 Q953.489 1549.52 947.679 1549.52 Q941.869 1549.52 938.79 1544.94 Q935.735 1540.33 935.735 1531.6 Q935.735 1522.85 938.79 1518.27 Q941.869 1513.66 947.679 1513.66 Z" fill="#000000" fill-rule="evenodd" fill-opacity="1" /><path clip-path="url(#clip640)" d="M968.651 1544.91 L976.29 1544.91 L976.29 1518.55 L967.98 1520.21 L967.98 1515.95 L976.244 1514.29 L980.92 1514.29 L980.92 1544.91 L988.559 1544.91 L988.559 1548.85 L968.651 1548.85 L968.651 1544.91 Z" fill="#000000" fill-rule="evenodd" fill-opacity="1" /><path clip-path="url(#clip640)" d="M1532.93 1517.37 Q1529.31 1517.37 1527.49 1520.93 Q1525.68 1524.47 1525.68 1531.6 Q1525.68 1538.71 1527.49 1542.27 Q1529.31 1545.82 1532.93 1545.82 Q1536.56 1545.82 1538.36 1542.27 Q1540.19 1538.71 1540.19 1531.6 Q1540.19 1524.47 1538.36 1520.93 Q1536.56 1517.37 1532.93 1517.37 M1532.93 1513.66 Q1538.74 1513.66 1541.79 1518.27 Q1544.87 1522.85 1544.87 1531.6 Q1544.87 1540.33 1541.79 1544.94 Q1538.74 1549.52 1532.93 1549.52 Q1527.11 1549.52 1524.04 1544.94 Q1520.98 1540.33 1520.98 1531.6 Q1520.98 1522.85 1524.04 1518.27 Q1527.11 1513.66 1532.93 1513.66 Z" fill="#000000" fill-rule="evenodd" fill-opacity="1" /><path clip-path="url(#clip640)" d="M1553.09 1542.97 L1557.97 1542.97 L1557.97 1548.85 L1553.09 1548.85 L1553.09 1542.97 Z" fill="#000000" fill-rule="evenodd" fill-opacity="1" /><path clip-path="url(#clip640)" d="M1578.16 1517.37 Q1574.55 1517.37 1572.72 1520.93 Q1570.91 1524.47 1570.91 1531.6 Q1570.91 1538.71 1572.72 1542.27 Q1574.55 1545.82 1578.16 1545.82 Q1581.79 1545.82 1583.6 1542.27 Q1585.42 1538.71 1585.42 1531.6 Q1585.42 1524.47 1583.6 1520.93 Q1581.79 1517.37 1578.16 1517.37 M1578.16 1513.66 Q1583.97 1513.66 1587.02 1518.27 Q1590.1 1522.85 1590.1 1531.6 Q1590.1 1540.33 1587.02 1544.94 Q1583.97 1549.52 1578.16 1549.52 Q1572.35 1549.52 1569.27 1544.94 Q1566.21 1540.33 1566.21 1531.6 Q1566.21 1522.85 1569.27 1518.27 Q1572.35 1513.66 1578.16 1513.66 Z" fill="#000000" fill-rule="evenodd" fill-opacity="1" /><path clip-path="url(#clip640)" d="M1608.32 1517.37 Q1604.71 1517.37 1602.88 1520.93 Q1601.07 1524.47 1601.07 1531.6 Q1601.07 1538.71 1602.88 1542.27 Q1604.71 1545.82 1608.32 1545.82 Q1611.95 1545.82 1613.76 1542.27 Q1615.59 1538.71 1615.59 1531.6 Q1615.59 1524.47 1613.76 1520.93 Q1611.95 1517.37 1608.32 1517.37 M1608.32 1513.66 Q1614.13 1513.66 1617.18 1518.27 Q1620.26 1522.85 1620.26 1531.6 Q1620.26 1540.33 1617.18 1544.94 Q1614.13 1549.52 1608.32 1549.52 Q1602.51 1549.52 1599.43 1544.94 Q1596.37 1540.33 1596.37 1531.6 Q1596.37 1522.85 1599.43 1518.27 Q1602.51 1513.66 1608.32 1513.66 Z" fill="#000000" fill-rule="evenodd" fill-opacity="1" /><path clip-path="url(#clip640)" d="M1638.48 1517.37 Q1634.87 1517.37 1633.04 1520.93 Q1631.23 1524.47 1631.23 1531.6 Q1631.23 1538.71 1633.04 1542.27 Q1634.87 1545.82 1638.48 1545.82 Q1642.11 1545.82 1643.92 1542.27 Q1645.75 1538.71 1645.75 1531.6 Q1645.75 1524.47 1643.92 1520.93 Q1642.11 1517.37 1638.48 1517.37 M1638.48 1513.66 Q1644.29 1513.66 1647.35 1518.27 Q1650.42 1522.85 1650.42 1531.6 Q1650.42 1540.33 1647.35 1544.94 Q1644.29 1549.52 1638.48 1549.52 Q1632.67 1549.52 1629.59 1544.94 Q1626.54 1540.33 1626.54 1531.6 Q1626.54 1522.85 1629.59 1518.27 Q1632.67 1513.66 1638.48 1513.66 Z" fill="#000000" fill-rule="evenodd" fill-opacity="1" /><path clip-path="url(#clip640)" d="M1662.67 1544.91 L1678.99 1544.91 L1678.99 1548.85 L1657.04 1548.85 L1657.04 1544.91 Q1659.71 1542.16 1664.29 1537.53 Q1668.9 1532.88 1670.08 1531.53 Q1672.32 1529.01 1673.2 1527.27 Q1674.1 1525.51 1674.1 1523.82 Q1674.1 1521.07 1672.16 1519.33 Q1670.24 1517.6 1667.14 1517.6 Q1664.94 1517.6 1662.48 1518.36 Q1660.05 1519.13 1657.28 1520.68 L1657.28 1515.95 Q1660.1 1514.82 1662.55 1514.24 Q1665.01 1513.66 1667.04 1513.66 Q1672.42 1513.66 1675.61 1516.35 Q1678.8 1519.03 1678.8 1523.52 Q1678.8 1525.65 1677.99 1527.57 Q1677.21 1529.47 1675.1 1532.07 Q1674.52 1532.74 1671.42 1535.95 Q1668.32 1539.15 1662.67 1544.91 Z" fill="#000000" fill-rule="evenodd" fill-opacity="1" /><path clip-path="url(#clip640)" d="M2223.07 1517.37 Q2219.46 1517.37 2217.63 1520.93 Q2215.82 1524.47 2215.82 1531.6 Q2215.82 1538.71 2217.63 1542.27 Q2219.46 1545.82 2223.07 1545.82 Q2226.7 1545.82 2228.51 1542.27 Q2230.33 1538.71 2230.33 1531.6 Q2230.33 1524.47 2228.51 1520.93 Q2226.7 1517.37 2223.07 1517.37 M2223.07 1513.66 Q2228.88 1513.66 2231.93 1518.27 Q2235.01 1522.85 2235.01 1531.6 Q2235.01 1540.33 2231.93 1544.94 Q2228.88 1549.52 2223.07 1549.52 Q2217.26 1549.52 2214.18 1544.94 Q2211.12 1540.33 2211.12 1531.6 Q2211.12 1522.85 2214.18 1518.27 Q2217.26 1513.66 2223.07 1513.66 Z" fill="#000000" fill-rule="evenodd" fill-opacity="1" /><path clip-path="url(#clip640)" d="M2243.23 1542.97 L2248.11 1542.97 L2248.11 1548.85 L2243.23 1548.85 L2243.23 1542.97 Z" fill="#000000" fill-rule="evenodd" fill-opacity="1" /><path clip-path="url(#clip640)" d="M2268.3 1517.37 Q2264.69 1517.37 2262.86 1520.93 Q2261.05 1524.47 2261.05 1531.6 Q2261.05 1538.71 2262.86 1542.27 Q2264.69 1545.82 2268.3 1545.82 Q2271.93 1545.82 2273.74 1542.27 Q2275.57 1538.71 2275.57 1531.6 Q2275.57 1524.47 2273.74 1520.93 Q2271.93 1517.37 2268.3 1517.37 M2268.3 1513.66 Q2274.11 1513.66 2277.16 1518.27 Q2280.24 1522.85 2280.24 1531.6 Q2280.24 1540.33 2277.16 1544.94 Q2274.11 1549.52 2268.3 1549.52 Q2262.49 1549.52 2259.41 1544.94 Q2256.35 1540.33 2256.35 1531.6 Q2256.35 1522.85 2259.41 1518.27 Q2262.49 1513.66 2268.3 1513.66 Z" fill="#000000" fill-rule="evenodd" fill-opacity="1" /><path clip-path="url(#clip640)" d="M2298.46 1517.37 Q2294.85 1517.37 2293.02 1520.93 Q2291.21 1524.47 2291.21 1531.6 Q2291.21 1538.71 2293.02 1542.27 Q2294.85 1545.82 2298.46 1545.82 Q2302.09 1545.82 2303.9 1542.27 Q2305.73 1538.71 2305.73 1531.6 Q2305.73 1524.47 2303.9 1520.93 Q2302.09 1517.37 2298.46 1517.37 M2298.46 1513.66 Q2304.27 1513.66 2307.32 1518.27 Q2310.4 1522.85 2310.4 1531.6 Q2310.4 1540.33 2307.32 1544.94 Q2304.27 1549.52 2298.46 1549.52 Q2292.65 1549.52 2289.57 1544.94 Q2286.51 1540.33 2286.51 1531.6 Q2286.51 1522.85 2289.57 1518.27 Q2292.65 1513.66 2298.46 1513.66 Z" fill="#000000" fill-rule="evenodd" fill-opacity="1" /><path clip-path="url(#clip640)" d="M2328.62 1517.37 Q2325.01 1517.37 2323.18 1520.93 Q2321.38 1524.47 2321.38 1531.6 Q2321.38 1538.71 2323.18 1542.27 Q2325.01 1545.82 2328.62 1545.82 Q2332.26 1545.82 2334.06 1542.27 Q2335.89 1538.71 2335.89 1531.6 Q2335.89 1524.47 2334.06 1520.93 Q2332.26 1517.37 2328.62 1517.37 M2328.62 1513.66 Q2334.43 1513.66 2337.49 1518.27 Q2340.57 1522.85 2340.57 1531.6 Q2340.57 1540.33 2337.49 1544.94 Q2334.43 1549.52 2328.62 1549.52 Q2322.81 1549.52 2319.73 1544.94 Q2316.68 1540.33 2316.68 1531.6 Q2316.68 1522.85 2319.73 1518.27 Q2322.81 1513.66 2328.62 1513.66 Z" fill="#000000" fill-rule="evenodd" fill-opacity="1" /><path clip-path="url(#clip640)" d="M2362.95 1530.21 Q2366.31 1530.93 2368.18 1533.2 Q2370.08 1535.47 2370.08 1538.8 Q2370.08 1543.92 2366.56 1546.72 Q2363.04 1549.52 2356.56 1549.52 Q2354.38 1549.52 2352.07 1549.08 Q2349.78 1548.66 2347.32 1547.81 L2347.32 1543.29 Q2349.27 1544.43 2351.58 1545.01 Q2353.9 1545.58 2356.42 1545.58 Q2360.82 1545.58 2363.11 1543.85 Q2365.43 1542.11 2365.43 1538.8 Q2365.43 1535.75 2363.27 1534.03 Q2361.14 1532.3 2357.32 1532.3 L2353.3 1532.3 L2353.3 1528.45 L2357.51 1528.45 Q2360.96 1528.45 2362.79 1527.09 Q2364.62 1525.7 2364.62 1523.11 Q2364.62 1520.45 2362.72 1519.03 Q2360.84 1517.6 2357.32 1517.6 Q2355.4 1517.6 2353.2 1518.01 Q2351.01 1518.43 2348.37 1519.31 L2348.37 1515.14 Q2351.03 1514.4 2353.34 1514.03 Q2355.68 1513.66 2357.74 1513.66 Q2363.07 1513.66 2366.17 1516.09 Q2369.27 1518.5 2369.27 1522.62 Q2369.27 1525.49 2367.63 1527.48 Q2365.98 1529.45 2362.95 1530.21 Z" fill="#000000" fill-rule="evenodd" fill-opacity="1" /><polyline clip-path="url(#clip642)" style="stroke:#000000; stroke-linecap:butt; stroke-linejoin:round; stroke-width:2; stroke-opacity:0.1; fill:none" points="
  156.598,1486.45 2352.76,1486.45 
  "/>
<polyline clip-path="url(#clip642)" style="stroke:#000000; stroke-linecap:butt; stroke-linejoin:round; stroke-width:2; stroke-opacity:0.1; fill:none" points="
  156.598,1198.61 2352.76,1198.61 
  "/>
<polyline clip-path="url(#clip642)" style="stroke:#000000; stroke-linecap:butt; stroke-linejoin:round; stroke-width:2; stroke-opacity:0.1; fill:none" points="
  156.598,910.766 2352.76,910.766 
  "/>
<polyline clip-path="url(#clip642)" style="stroke:#000000; stroke-linecap:butt; stroke-linejoin:round; stroke-width:2; stroke-opacity:0.1; fill:none" points="
  156.598,622.926 2352.76,622.926 
  "/>
<polyline clip-path="url(#clip642)" style="stroke:#000000; stroke-linecap:butt; stroke-linejoin:round; stroke-width:2; stroke-opacity:0.1; fill:none" points="
  156.598,335.085 2352.76,335.085 
  "/>
<polyline clip-path="url(#clip642)" style="stroke:#000000; stroke-linecap:butt; stroke-linejoin:round; stroke-width:2; stroke-opacity:0.1; fill:none" points="
  156.598,47.2441 2352.76,47.2441 
  "/>
<polyline clip-path="url(#clip640)" style="stroke:#000000; stroke-linecap:butt; stroke-linejoin:round; stroke-width:4; stroke-opacity:1; fill:none" points="
  156.598,1486.45 156.598,47.2441 
  "/>
<polyline clip-path="url(#clip640)" style="stroke:#000000; stroke-linecap:butt; stroke-linejoin:round; stroke-width:4; stroke-opacity:1; fill:none" points="
  156.598,1486.45 175.496,1486.45 
  "/>
<polyline clip-path="url(#clip640)" style="stroke:#000000; stroke-linecap:butt; stroke-linejoin:round; stroke-width:4; stroke-opacity:1; fill:none" points="
  156.598,1198.61 175.496,1198.61 
  "/>
<polyline clip-path="url(#clip640)" style="stroke:#000000; stroke-linecap:butt; stroke-linejoin:round; stroke-width:4; stroke-opacity:1; fill:none" points="
  156.598,910.766 175.496,910.766 
  "/>
<polyline clip-path="url(#clip640)" style="stroke:#000000; stroke-linecap:butt; stroke-linejoin:round; stroke-width:4; stroke-opacity:1; fill:none" points="
  156.598,622.926 175.496,622.926 
  "/>
<polyline clip-path="url(#clip640)" style="stroke:#000000; stroke-linecap:butt; stroke-linejoin:round; stroke-width:4; stroke-opacity:1; fill:none" points="
  156.598,335.085 175.496,335.085 
  "/>
<polyline clip-path="url(#clip640)" style="stroke:#000000; stroke-linecap:butt; stroke-linejoin:round; stroke-width:4; stroke-opacity:1; fill:none" points="
  156.598,47.2441 175.496,47.2441 
  "/>
<path clip-path="url(#clip640)" d="M63.4226 1472.25 Q59.8115 1472.25 57.9828 1475.81 Q56.1773 1479.35 56.1773 1486.48 Q56.1773 1493.59 57.9828 1497.15 Q59.8115 1500.7 63.4226 1500.7 Q67.0569 1500.7 68.8624 1497.15 Q70.6911 1493.59 70.6911 1486.48 Q70.6911 1479.35 68.8624 1475.81 Q67.0569 1472.25 63.4226 1472.25 M63.4226 1468.54 Q69.2328 1468.54 72.2883 1473.15 Q75.367 1477.73 75.367 1486.48 Q75.367 1495.21 72.2883 1499.82 Q69.2328 1504.4 63.4226 1504.4 Q57.6125 1504.4 54.5338 1499.82 Q51.4782 1495.21 51.4782 1486.48 Q51.4782 1477.73 54.5338 1473.15 Q57.6125 1468.54 63.4226 1468.54 Z" fill="#000000" fill-rule="evenodd" fill-opacity="1" /><path clip-path="url(#clip640)" d="M83.5845 1497.85 L88.4688 1497.85 L88.4688 1503.73 L83.5845 1503.73 L83.5845 1497.85 Z" fill="#000000" fill-rule="evenodd" fill-opacity="1" /><path clip-path="url(#clip640)" d="M108.654 1472.25 Q105.043 1472.25 103.214 1475.81 Q101.409 1479.35 101.409 1486.48 Q101.409 1493.59 103.214 1497.15 Q105.043 1500.7 108.654 1500.7 Q112.288 1500.7 114.094 1497.15 Q115.922 1493.59 115.922 1486.48 Q115.922 1479.35 114.094 1475.81 Q112.288 1472.25 108.654 1472.25 M108.654 1468.54 Q114.464 1468.54 117.52 1473.15 Q120.598 1477.73 120.598 1486.48 Q120.598 1495.21 117.52 1499.82 Q114.464 1504.4 108.654 1504.4 Q102.844 1504.4 99.765 1499.82 Q96.7095 1495.21 96.7095 1486.48 Q96.7095 1477.73 99.765 1473.15 Q102.844 1468.54 108.654 1468.54 Z" fill="#000000" fill-rule="evenodd" fill-opacity="1" /><path clip-path="url(#clip640)" d="M65.0198 1184.41 Q61.4087 1184.41 59.58 1187.97 Q57.7745 1191.51 57.7745 1198.64 Q57.7745 1205.75 59.58 1209.31 Q61.4087 1212.85 65.0198 1212.85 Q68.6541 1212.85 70.4596 1209.31 Q72.2883 1205.75 72.2883 1198.64 Q72.2883 1191.51 70.4596 1187.97 Q68.6541 1184.41 65.0198 1184.41 M65.0198 1180.7 Q70.83 1180.7 73.8855 1185.31 Q76.9642 1189.89 76.9642 1198.64 Q76.9642 1207.37 73.8855 1211.98 Q70.83 1216.56 65.0198 1216.56 Q59.2097 1216.56 56.131 1211.98 Q53.0754 1207.37 53.0754 1198.64 Q53.0754 1189.89 56.131 1185.31 Q59.2097 1180.7 65.0198 1180.7 Z" fill="#000000" fill-rule="evenodd" fill-opacity="1" /><path clip-path="url(#clip640)" d="M85.1818 1210.01 L90.066 1210.01 L90.066 1215.89 L85.1818 1215.89 L85.1818 1210.01 Z" fill="#000000" fill-rule="evenodd" fill-opacity="1" /><path clip-path="url(#clip640)" d="M104.279 1211.95 L120.598 1211.95 L120.598 1215.89 L98.6539 1215.89 L98.6539 1211.95 Q101.316 1209.2 105.899 1204.57 Q110.506 1199.91 111.686 1198.57 Q113.932 1196.05 114.811 1194.31 Q115.714 1192.55 115.714 1190.86 Q115.714 1188.11 113.77 1186.37 Q111.848 1184.64 108.746 1184.64 Q106.547 1184.64 104.094 1185.4 Q101.663 1186.17 98.8854 1187.72 L98.8854 1182.99 Q101.709 1181.86 104.163 1181.28 Q106.617 1180.7 108.654 1180.7 Q114.024 1180.7 117.219 1183.39 Q120.413 1186.07 120.413 1190.56 Q120.413 1192.69 119.603 1194.61 Q118.816 1196.51 116.709 1199.1 Q116.131 1199.78 113.029 1202.99 Q109.927 1206.19 104.279 1211.95 Z" fill="#000000" fill-rule="evenodd" fill-opacity="1" /><path clip-path="url(#clip640)" d="M62.9365 896.565 Q59.3254 896.565 57.4967 900.13 Q55.6912 903.671 55.6912 910.801 Q55.6912 917.908 57.4967 921.472 Q59.3254 925.014 62.9365 925.014 Q66.5707 925.014 68.3763 921.472 Q70.205 917.908 70.205 910.801 Q70.205 903.671 68.3763 900.13 Q66.5707 896.565 62.9365 896.565 M62.9365 892.861 Q68.7467 892.861 71.8022 897.468 Q74.8809 902.051 74.8809 910.801 Q74.8809 919.528 71.8022 924.134 Q68.7467 928.718 62.9365 928.718 Q57.1264 928.718 54.0477 924.134 Q50.9921 919.528 50.9921 910.801 Q50.9921 902.051 54.0477 897.468 Q57.1264 892.861 62.9365 892.861 Z" fill="#000000" fill-rule="evenodd" fill-opacity="1" /><path clip-path="url(#clip640)" d="M83.0984 922.167 L87.9827 922.167 L87.9827 928.046 L83.0984 928.046 L83.0984 922.167 Z" fill="#000000" fill-rule="evenodd" fill-opacity="1" /><path clip-path="url(#clip640)" d="M111.015 897.56 L99.2095 916.009 L111.015 916.009 L111.015 897.56 M109.788 893.486 L115.668 893.486 L115.668 916.009 L120.598 916.009 L120.598 919.898 L115.668 919.898 L115.668 928.046 L111.015 928.046 L111.015 919.898 L95.4132 919.898 L95.4132 915.384 L109.788 893.486 Z" fill="#000000" fill-rule="evenodd" fill-opacity="1" /><path clip-path="url(#clip640)" d="M63.2606 608.724 Q59.6495 608.724 57.8208 612.289 Q56.0152 615.831 56.0152 622.96 Q56.0152 630.067 57.8208 633.632 Q59.6495 637.173 63.2606 637.173 Q66.8948 637.173 68.7004 633.632 Q70.5291 630.067 70.5291 622.96 Q70.5291 615.831 68.7004 612.289 Q66.8948 608.724 63.2606 608.724 M63.2606 605.021 Q69.0707 605.021 72.1263 609.627 Q75.205 614.21 75.205 622.96 Q75.205 631.687 72.1263 636.294 Q69.0707 640.877 63.2606 640.877 Q57.4504 640.877 54.3717 636.294 Q51.3162 631.687 51.3162 622.96 Q51.3162 614.21 54.3717 609.627 Q57.4504 605.021 63.2606 605.021 Z" fill="#000000" fill-rule="evenodd" fill-opacity="1" /><path clip-path="url(#clip640)" d="M83.4225 634.326 L88.3067 634.326 L88.3067 640.206 L83.4225 640.206 L83.4225 634.326 Z" fill="#000000" fill-rule="evenodd" fill-opacity="1" /><path clip-path="url(#clip640)" d="M109.071 621.062 Q105.922 621.062 104.071 623.215 Q102.242 625.368 102.242 629.118 Q102.242 632.845 104.071 635.02 Q105.922 637.173 109.071 637.173 Q112.219 637.173 114.047 635.02 Q115.899 632.845 115.899 629.118 Q115.899 625.368 114.047 623.215 Q112.219 621.062 109.071 621.062 M118.353 606.409 L118.353 610.669 Q116.594 609.835 114.788 609.396 Q113.006 608.956 111.246 608.956 Q106.617 608.956 104.163 612.081 Q101.733 615.206 101.385 621.525 Q102.751 619.511 104.811 618.446 Q106.871 617.359 109.348 617.359 Q114.557 617.359 117.566 620.53 Q120.598 623.678 120.598 629.118 Q120.598 634.442 117.45 637.659 Q114.302 640.877 109.071 640.877 Q103.075 640.877 99.9039 636.294 Q96.7326 631.687 96.7326 622.96 Q96.7326 614.766 100.621 609.905 Q104.51 605.021 111.061 605.021 Q112.82 605.021 114.603 605.368 Q116.408 605.715 118.353 606.409 Z" fill="#000000" fill-rule="evenodd" fill-opacity="1" /><path clip-path="url(#clip640)" d="M63.5152 320.884 Q59.9041 320.884 58.0754 324.448 Q56.2699 327.99 56.2699 335.12 Q56.2699 342.226 58.0754 345.791 Q59.9041 349.332 63.5152 349.332 Q67.1494 349.332 68.955 345.791 Q70.7837 342.226 70.7837 335.12 Q70.7837 327.99 68.955 324.448 Q67.1494 320.884 63.5152 320.884 M63.5152 317.18 Q69.3254 317.18 72.3809 321.786 Q75.4596 326.37 75.4596 335.12 Q75.4596 343.846 72.3809 348.453 Q69.3254 353.036 63.5152 353.036 Q57.7051 353.036 54.6264 348.453 Q51.5708 343.846 51.5708 335.12 Q51.5708 326.37 54.6264 321.786 Q57.7051 317.18 63.5152 317.18 Z" fill="#000000" fill-rule="evenodd" fill-opacity="1" /><path clip-path="url(#clip640)" d="M83.6771 346.485 L88.5614 346.485 L88.5614 352.365 L83.6771 352.365 L83.6771 346.485 Z" fill="#000000" fill-rule="evenodd" fill-opacity="1" /><path clip-path="url(#clip640)" d="M108.746 335.953 Q105.413 335.953 103.492 337.735 Q101.594 339.518 101.594 342.643 Q101.594 345.768 103.492 347.55 Q105.413 349.332 108.746 349.332 Q112.08 349.332 114.001 347.55 Q115.922 345.745 115.922 342.643 Q115.922 339.518 114.001 337.735 Q112.103 335.953 108.746 335.953 M104.071 333.962 Q101.061 333.221 99.3715 331.161 Q97.7048 329.101 97.7048 326.138 Q97.7048 321.995 100.645 319.587 Q103.608 317.18 108.746 317.18 Q113.908 317.18 116.848 319.587 Q119.788 321.995 119.788 326.138 Q119.788 329.101 118.098 331.161 Q116.432 333.221 113.445 333.962 Q116.825 334.749 118.7 337.041 Q120.598 339.333 120.598 342.643 Q120.598 347.666 117.52 350.351 Q114.464 353.036 108.746 353.036 Q103.029 353.036 99.9502 350.351 Q96.8947 347.666 96.8947 342.643 Q96.8947 339.333 98.7928 337.041 Q100.691 334.749 104.071 333.962 M102.358 326.578 Q102.358 329.263 104.024 330.768 Q105.714 332.272 108.746 332.272 Q111.756 332.272 113.445 330.768 Q115.158 329.263 115.158 326.578 Q115.158 323.893 113.445 322.388 Q111.756 320.884 108.746 320.884 Q105.714 320.884 104.024 322.388 Q102.358 323.893 102.358 326.578 Z" fill="#000000" fill-rule="evenodd" fill-opacity="1" /><path clip-path="url(#clip640)" d="M54.2328 60.5889 L61.8717 60.5889 L61.8717 34.2233 L53.5616 35.89 L53.5616 31.6308 L61.8254 29.9641 L66.5013 29.9641 L66.5013 60.5889 L74.1402 60.5889 L74.1402 64.5241 L54.2328 64.5241 L54.2328 60.5889 Z" fill="#000000" fill-rule="evenodd" fill-opacity="1" /><path clip-path="url(#clip640)" d="M83.5845 58.6445 L88.4688 58.6445 L88.4688 64.5241 L83.5845 64.5241 L83.5845 58.6445 Z" fill="#000000" fill-rule="evenodd" fill-opacity="1" /><path clip-path="url(#clip640)" d="M108.654 33.0428 Q105.043 33.0428 103.214 36.6076 Q101.409 40.1492 101.409 47.2788 Q101.409 54.3853 103.214 57.9501 Q105.043 61.4917 108.654 61.4917 Q112.288 61.4917 114.094 57.9501 Q115.922 54.3853 115.922 47.2788 Q115.922 40.1492 114.094 36.6076 Q112.288 33.0428 108.654 33.0428 M108.654 29.3391 Q114.464 29.3391 117.52 33.9456 Q120.598 38.5289 120.598 47.2788 Q120.598 56.0056 117.52 60.6121 Q114.464 65.1954 108.654 65.1954 Q102.844 65.1954 99.765 60.6121 Q96.7095 56.0056 96.7095 47.2788 Q96.7095 38.5289 99.765 33.9456 Q102.844 29.3391 108.654 29.3391 Z" fill="#000000" fill-rule="evenodd" fill-opacity="1" /><polyline clip-path="url(#clip642)" style="stroke:#009af9; stroke-linecap:butt; stroke-linejoin:round; stroke-width:4; stroke-opacity:1; fill:none" points="
  218.754,1486.45 220.828,1486.45 222.901,1486.45 224.975,1486.45 227.049,1486.45 229.123,1486.45 231.197,1486.45 233.271,1486.45 235.345,1486.45 237.419,1486.45 
  239.493,1486.45 241.567,1486.45 243.641,1486.45 245.715,1486.45 247.789,1486.45 249.862,1486.45 251.936,1486.45 254.01,1486.45 256.084,1486.45 258.158,1486.45 
  260.232,1486.45 262.306,1486.45 264.38,1486.45 266.454,1486.45 268.528,1486.45 270.602,1486.45 272.676,1486.45 274.75,1486.45 276.823,1486.45 278.897,1486.45 
  280.971,1486.45 283.045,1486.45 285.119,1486.45 287.193,1486.45 289.267,1486.45 291.341,1486.45 293.415,1486.45 295.489,1486.45 297.563,1486.45 299.637,1486.45 
  301.71,1486.45 303.784,1486.45 305.858,1486.45 307.932,1486.45 310.006,1486.45 312.08,1486.45 314.154,1486.45 316.228,1486.45 318.302,1486.45 320.376,1486.45 
  322.45,1486.45 324.524,1486.45 326.598,1486.45 328.671,1486.45 330.745,1486.45 332.819,1486.45 334.893,1486.45 336.967,1486.45 339.041,1486.45 341.115,1486.45 
  343.189,1486.45 345.263,1486.45 347.337,1486.45 349.411,1486.45 351.485,1486.45 353.558,1486.45 355.632,1486.45 357.706,1486.45 359.78,1486.45 361.854,1486.45 
  363.928,1486.45 366.002,1486.45 368.076,1486.45 370.15,1486.45 372.224,1486.45 374.298,1486.45 376.372,1486.45 378.446,1486.45 380.519,1486.45 382.593,1486.45 
  384.667,1486.45 386.741,1486.45 388.815,1486.45 390.889,1486.45 392.963,1486.45 395.037,1486.45 397.111,1486.45 399.185,1486.45 401.259,1486.45 403.333,1486.45 
  405.407,1486.45 407.48,1486.45 409.554,1486.45 411.628,1486.45 413.702,1486.45 415.776,1486.45 417.85,1486.45 419.924,1486.45 421.998,1486.45 424.072,1486.45 
  426.146,1486.45 428.22,1486.45 430.294,1486.45 432.367,1486.45 434.441,1486.45 436.515,1486.45 438.589,1486.45 440.663,1486.45 442.737,1486.45 444.811,1486.45 
  446.885,1486.45 448.959,1486.45 451.033,1486.45 453.107,1486.45 455.181,1486.45 457.255,1486.45 459.328,1486.45 461.402,1486.45 463.476,1486.45 465.55,1486.45 
  467.624,1486.45 469.698,1486.45 471.772,1486.45 473.846,1486.45 475.92,1486.45 477.994,1486.45 480.068,1486.45 482.142,1486.45 484.216,1486.45 486.289,1486.45 
  488.363,1486.45 490.437,1486.45 492.511,1486.45 494.585,1486.45 496.659,1486.45 498.733,1486.45 500.807,1486.45 502.881,1486.45 504.955,1486.45 507.029,1486.45 
  509.103,1486.45 511.176,1486.45 513.25,1486.45 515.324,1486.45 517.398,1486.45 519.472,1486.45 521.546,1486.45 523.62,1486.45 525.694,1486.45 527.768,1486.45 
  529.842,1486.45 531.916,1486.45 533.99,1486.45 536.064,1486.45 538.137,1486.45 540.211,1486.45 542.285,1486.45 544.359,1486.45 546.433,1486.45 548.507,1486.45 
  550.581,1486.45 552.655,1486.45 554.729,1486.45 556.803,1486.45 558.877,1486.45 560.951,1486.45 563.024,1486.45 565.098,1486.45 567.172,1486.45 569.246,1486.45 
  571.32,1486.45 573.394,1486.45 575.468,1486.45 577.542,1486.45 579.616,1486.45 581.69,1486.45 583.764,1486.45 585.838,1486.45 587.912,1486.45 589.985,1486.45 
  592.059,1486.45 594.133,1486.45 596.207,1486.45 598.281,1486.45 600.355,1486.45 602.429,1486.45 604.503,1486.45 606.577,1486.45 608.651,1486.45 610.725,1486.45 
  612.799,1486.45 614.873,1486.45 616.946,1486.45 619.02,1486.45 621.094,1486.45 623.168,1486.45 625.242,1486.45 627.316,1486.45 629.39,1486.45 631.464,1486.45 
  633.538,1486.45 635.612,1486.45 637.686,1486.45 639.76,1486.45 641.833,1486.45 643.907,1486.45 645.981,1486.45 648.055,1486.45 650.129,1486.45 652.203,1486.45 
  654.277,1486.45 656.351,1486.45 658.425,1486.45 660.499,1486.45 662.573,1486.45 664.647,1486.45 666.721,1486.45 668.794,1486.45 670.868,1486.45 672.942,1486.45 
  675.016,1486.45 677.09,1486.45 679.164,1486.45 681.238,1486.45 683.312,1486.45 685.386,1486.45 687.46,1486.45 689.534,1486.45 691.608,1486.45 693.681,1486.45 
  695.755,1486.45 697.829,1486.45 699.903,1486.45 701.977,1486.45 704.051,1486.45 706.125,1486.45 708.199,1486.45 710.273,1486.45 712.347,1486.45 714.421,1486.45 
  716.495,1486.45 718.569,1486.45 720.642,1486.45 722.716,1486.45 724.79,1486.45 726.864,1486.45 728.938,1486.45 731.012,1486.45 733.086,1486.45 735.16,1486.45 
  737.234,1486.45 739.308,1486.45 741.382,1486.45 743.456,1486.45 745.53,1486.45 747.603,1486.45 749.677,1486.45 751.751,1486.45 753.825,1486.45 755.899,1486.45 
  757.973,1486.45 760.047,1486.45 762.121,1486.45 764.195,1486.45 766.269,1486.45 768.343,1486.45 770.417,1486.45 772.49,1486.45 774.564,1486.45 776.638,1486.45 
  778.712,1486.45 780.786,1486.45 782.86,1486.45 784.934,1486.45 787.008,1486.45 789.082,1486.45 791.156,1486.45 793.23,1486.45 795.304,1486.45 797.378,1486.45 
  799.451,1486.45 801.525,1486.45 803.599,1486.45 805.673,1486.45 807.747,1486.45 809.821,1486.45 811.895,1486.45 813.969,1486.45 816.043,1486.45 818.117,1486.45 
  820.191,1486.45 822.265,1486.45 824.339,1486.45 826.412,1486.45 828.486,1486.45 830.56,1486.45 832.634,1486.45 834.708,1486.45 836.782,1486.45 838.856,1486.45 
  840.93,1486.45 843.004,1486.45 845.078,1486.45 847.152,1486.45 849.226,1486.45 851.299,1486.45 853.373,1486.45 855.447,1486.45 857.521,1486.45 859.595,1486.45 
  861.669,1486.45 863.743,1486.45 865.817,1486.45 867.891,1486.45 869.965,1486.45 872.039,1486.45 874.113,1486.45 876.187,1486.45 878.26,1486.45 880.334,1486.45 
  882.408,1486.45 884.482,1486.45 886.556,1486.45 888.63,1486.45 890.704,1486.45 892.778,1486.45 894.852,1486.45 896.926,1486.45 899,1486.45 901.074,1486.45 
  903.147,1486.45 905.221,1486.45 907.295,1486.45 909.369,1486.45 911.443,1486.45 913.517,1486.45 915.591,1486.45 917.665,1486.45 919.739,1486.45 921.813,1486.45 
  923.887,1486.45 925.961,1486.45 928.035,1486.45 930.108,1486.45 932.182,1486.45 934.256,1486.45 936.33,1486.45 938.404,1486.45 940.478,1486.45 942.552,1486.45 
  944.626,1486.45 946.7,1486.45 948.774,1486.45 950.848,1486.45 952.922,1486.45 954.996,1486.45 957.069,1486.45 959.143,1486.45 961.217,1486.45 963.291,1486.45 
  965.365,1486.45 967.439,1486.45 969.513,1486.45 971.587,1486.45 973.661,1486.45 975.735,1486.45 977.809,1486.45 979.883,1486.45 981.956,1486.45 984.03,1486.45 
  986.104,1486.45 988.178,1486.45 990.252,1486.45 992.326,1486.45 994.4,1486.45 996.474,1486.45 998.548,1486.45 1000.62,1486.45 1002.7,1486.45 1004.77,1486.45 
  1006.84,1486.45 1008.92,1486.45 1010.99,1486.45 1013.07,1486.45 1015.14,1486.45 1017.21,1486.45 1019.29,1486.45 1021.36,1486.45 1023.43,1486.45 1025.51,1486.45 
  1027.58,1486.45 1029.66,1486.45 1031.73,1486.45 1033.8,1486.45 1035.88,1486.45 1037.95,1486.45 1040.03,1486.45 1042.1,1486.45 1044.17,1486.45 1046.25,1486.45 
  1048.32,1486.45 1050.4,1486.45 1052.47,1486.45 1054.54,1486.45 1056.62,1486.45 1058.69,1486.45 1060.77,1486.45 1062.84,1486.45 1064.91,1486.45 1066.99,1486.45 
  1069.06,1486.45 1071.14,1486.45 1073.21,1486.45 1075.28,1486.45 1077.36,1486.45 1079.43,1486.45 1081.5,1486.45 1083.58,1486.45 1085.65,1486.45 1087.73,1486.45 
  1089.8,1486.45 1091.87,1486.45 1093.95,1486.45 1096.02,1486.45 1098.1,1486.45 1100.17,1486.45 1102.24,1486.45 1104.32,1486.45 1106.39,1486.45 1108.47,1486.45 
  1110.54,1486.45 1112.61,1486.45 1114.69,1486.45 1116.76,1486.45 1118.84,1486.45 1120.91,1486.45 1122.98,1486.45 1125.06,1486.45 1127.13,1486.45 1129.2,1486.45 
  1131.28,1486.45 1133.35,1486.45 1135.43,1486.45 1137.5,1486.45 1139.57,1486.45 1141.65,1486.45 1143.72,1486.45 1145.8,1486.45 1147.87,1486.45 1149.94,1486.45 
  1152.02,1486.45 1154.09,1486.45 1156.17,1486.45 1158.24,1486.45 1160.31,1486.45 1162.39,1486.45 1164.46,1486.45 1166.54,1486.45 1168.61,1486.45 1170.68,1486.45 
  1172.76,1486.45 1174.83,1486.45 1176.91,1486.45 1178.98,1486.45 1181.05,1486.45 1183.13,1486.45 1185.2,1486.45 1187.27,1486.45 1189.35,1486.45 1191.42,1486.45 
  1193.5,1486.45 1195.57,1486.45 1197.64,1486.45 1199.72,1486.45 1201.79,1486.45 1203.87,1486.45 1205.94,1486.45 1208.01,1486.45 1210.09,1486.45 1212.16,1486.45 
  1214.24,1486.45 1216.31,1486.45 1218.38,1486.45 1220.46,1486.45 1222.53,1486.45 1224.61,1486.45 1226.68,1486.45 1228.75,1486.45 1230.83,1486.45 1232.9,1486.45 
  1234.97,1486.45 1237.05,1486.45 1239.12,1486.45 1241.2,1486.45 1243.27,1486.45 1245.34,1486.45 1247.42,1486.45 1249.49,1486.45 1251.57,1486.45 1253.64,1486.45 
  1255.71,1486.45 1257.79,1486.45 1259.86,1486.45 1261.94,1486.45 1264.01,1486.45 1266.08,1486.45 1268.16,1486.45 1270.23,1486.45 1272.31,1486.45 1274.38,1486.45 
  1276.45,1486.45 1278.53,1486.45 1280.6,1486.45 1282.68,1486.45 1284.75,1486.45 1286.82,1486.45 1288.9,1486.45 1290.97,1486.45 1293.04,1486.45 1295.12,1486.45 
  1297.19,1486.45 1299.27,1486.45 1301.34,1486.45 1303.41,1486.45 1305.49,1486.45 1307.56,1486.45 1309.64,1486.45 1311.71,1486.45 1313.78,1486.45 1315.86,1486.45 
  1317.93,1486.45 1320.01,1486.45 1322.08,1486.45 1324.15,1486.45 1326.23,1486.45 1328.3,1486.45 1330.38,1486.45 1332.45,1486.45 1334.52,1486.45 1336.6,1486.45 
  1338.67,1486.45 1340.74,1486.45 1342.82,1486.45 1344.89,1486.45 1346.97,1486.45 1349.04,1486.45 1351.11,1486.45 1353.19,1486.45 1355.26,1486.45 1357.34,1486.45 
  1359.41,1486.45 1361.48,1486.45 1363.56,1486.45 1365.63,1486.45 1367.71,1486.45 1369.78,1486.45 1371.85,1486.45 1373.93,1486.45 1376,1486.45 1378.08,1486.45 
  1380.15,1486.45 1382.22,1486.45 1384.3,1486.45 1386.37,1486.45 1388.44,1486.45 1390.52,1486.45 1392.59,1486.45 1394.67,1486.45 1396.74,1486.45 1398.81,1486.45 
  1400.89,1486.45 1402.96,1486.45 1405.04,1486.45 1407.11,1486.45 1409.18,1486.45 1411.26,1486.45 1413.33,1486.45 1415.41,1486.45 1417.48,1486.45 1419.55,1486.45 
  1421.63,1486.45 1423.7,1486.45 1425.78,1486.45 1427.85,1486.45 1429.92,1486.45 1432,1486.45 1434.07,1486.45 1436.15,1486.45 1438.22,1486.45 1440.29,1486.45 
  1442.37,1486.45 1444.44,1486.45 1446.51,1486.45 1448.59,1486.45 1450.66,1486.45 1452.74,1486.45 1454.81,1486.45 1456.88,1486.45 1458.96,1486.45 1461.03,1486.45 
  1463.11,1486.45 1465.18,1486.45 1467.25,1486.45 1469.33,1486.45 1471.4,1486.45 1473.48,1486.45 1475.55,1486.45 1477.62,1486.45 1479.7,1486.45 1481.77,1486.45 
  1483.85,1486.45 1485.92,1486.45 1487.99,1486.45 1490.07,1486.45 1492.14,1486.45 1494.21,1486.45 1496.29,1486.45 1498.36,1486.45 1500.44,1486.45 1502.51,1486.45 
  1504.58,1486.45 1506.66,1486.45 1508.73,1486.45 1510.81,1486.45 1512.88,1486.45 1514.95,1486.45 1517.03,1486.45 1519.1,1486.45 1521.18,1486.45 1523.25,1486.45 
  1525.32,1486.45 1527.4,1486.45 1529.47,1486.45 1531.55,1486.45 1533.62,1486.45 1535.69,1486.45 1537.77,1486.45 1539.84,1486.45 1541.92,1486.45 1543.99,1486.45 
  1546.06,1486.45 1548.14,1486.45 1550.21,1486.45 1552.28,1486.45 1554.36,1486.45 1556.43,1486.45 1558.51,1486.45 1560.58,1486.45 1562.65,1486.45 1564.73,1486.45 
  1566.8,1486.45 1568.88,1486.45 1570.95,1486.45 1573.02,1486.45 1575.1,1486.45 1577.17,1486.45 1579.25,1486.45 1581.32,1486.45 1583.39,1486.45 1585.47,1486.45 
  1587.54,1486.45 1589.62,1486.45 1591.69,1486.45 1593.76,1486.45 1595.84,1486.45 1597.91,1486.45 1599.98,1486.45 1602.06,1486.45 1604.13,1486.45 1606.21,1486.45 
  1608.28,1486.45 1610.35,1486.45 1612.43,1486.45 1614.5,1486.45 1616.58,1486.45 1618.65,1486.45 1620.72,1486.45 1622.8,1486.45 1624.87,1486.45 1626.95,1486.45 
  1629.02,1486.45 1631.09,1486.45 1633.17,1486.45 1635.24,1486.45 1637.32,1486.45 1639.39,1486.45 1641.46,1486.45 1643.54,1486.45 1645.61,1486.45 1647.69,1486.45 
  1649.76,1486.45 1651.83,1486.45 1653.91,1486.45 1655.98,1486.45 1658.05,1486.45 1660.13,1486.45 1662.2,1486.45 1664.28,1486.45 1666.35,1486.45 1668.42,1486.45 
  1670.5,1486.45 1672.57,1486.45 1674.65,1486.45 1676.72,1486.45 1678.79,1486.45 1680.87,1486.45 1682.94,1486.45 1685.02,1486.45 1687.09,1486.45 1689.16,1486.45 
  1691.24,1486.45 1693.31,1486.45 1695.39,1486.45 1697.46,1486.45 1699.53,1486.45 1701.61,1486.45 1703.68,1486.45 1705.75,1486.45 1707.83,1486.45 1709.9,1486.45 
  1711.98,1486.45 1714.05,1486.45 1716.12,1486.45 1718.2,1486.45 1720.27,1486.45 1722.35,1486.45 1724.42,1486.45 1726.49,1486.45 1728.57,1486.45 1730.64,1486.45 
  1732.72,1486.45 1734.79,1486.45 1736.86,1486.45 1738.94,1486.45 1741.01,1486.45 1743.09,1486.45 1745.16,1486.45 1747.23,1486.45 1749.31,1486.45 1751.38,1486.45 
  1753.46,1486.45 1755.53,1486.45 1757.6,1486.45 1759.68,1486.45 1761.75,1486.45 1763.82,1486.45 1765.9,1486.45 1767.97,1486.45 1770.05,1486.45 1772.12,1486.45 
  1774.19,1486.45 1776.27,1486.45 1778.34,1486.45 1780.42,1486.45 1782.49,1486.45 1784.56,1486.45 1786.64,1486.45 1788.71,1486.45 1790.79,1486.45 1792.86,1486.45 
  1794.93,1486.45 1797.01,1486.45 1799.08,1486.45 1801.16,1486.45 1803.23,1486.45 1805.3,1486.45 1807.38,1486.45 1809.45,1486.45 1811.52,1486.45 1813.6,1486.45 
  1815.67,1486.45 1817.75,1486.45 1819.82,1486.45 1821.89,1486.45 1823.97,1486.45 1826.04,1486.45 1828.12,1486.45 1830.19,1486.45 1832.26,1486.45 1834.34,1486.45 
  1836.41,1486.45 1838.49,1486.45 1840.56,1486.45 1842.63,1486.45 1844.71,1486.45 1846.78,1486.45 1848.86,1486.45 1850.93,1486.45 1853,1486.45 1855.08,1486.45 
  1857.15,1486.45 1859.22,1486.45 1861.3,1486.45 1863.37,1486.45 1865.45,1486.45 1867.52,1486.45 1869.59,1486.45 1871.67,1486.45 1873.74,1486.45 1875.82,1486.45 
  1877.89,1486.45 1879.96,1486.45 1882.04,1486.45 1884.11,1486.45 1886.19,1486.45 1888.26,1486.45 1890.33,1486.45 1892.41,1486.45 1894.48,1486.45 1896.56,1486.45 
  1898.63,1486.45 1900.7,1486.45 1902.78,1486.45 1904.85,1486.45 1906.93,1486.45 1909,1486.45 1911.07,1486.45 1913.15,1486.45 1915.22,1486.45 1917.29,1486.45 
  1919.37,1486.45 1921.44,1486.45 1923.52,1486.45 1925.59,1486.45 1927.66,1486.45 1929.74,1486.45 1931.81,1486.45 1933.89,1486.45 1935.96,1486.45 1938.03,1486.45 
  1940.11,1486.45 1942.18,1486.45 1944.26,1486.45 1946.33,1486.45 1948.4,1486.45 1950.48,1486.45 1952.55,1486.45 1954.63,1486.45 1956.7,1486.45 1958.77,1486.45 
  1960.85,1486.45 1962.92,1486.45 1964.99,1486.45 1967.07,1486.45 1969.14,1486.45 1971.22,1486.45 1973.29,1486.45 1975.36,1486.45 1977.44,1486.45 1979.51,1486.45 
  1981.59,1486.45 1983.66,1486.45 1985.73,1486.45 1987.81,1486.45 1989.88,1486.45 1991.96,1486.45 1994.03,1486.45 1996.1,1486.45 1998.18,1486.45 2000.25,1486.45 
  2002.33,1486.45 2004.4,1486.45 2006.47,1486.45 2008.55,1486.45 2010.62,1486.45 2012.7,1486.45 2014.77,1486.45 2016.84,1486.45 2018.92,1486.45 2020.99,1486.45 
  2023.06,1486.45 2025.14,1486.45 2027.21,1486.45 2029.29,1486.45 2031.36,1486.45 2033.43,1486.45 2035.51,1486.45 2037.58,1486.45 2039.66,1486.45 2041.73,1486.45 
  2043.8,1486.45 2045.88,1486.45 2047.95,1486.45 2050.03,1486.45 2052.1,1486.45 2054.17,1486.45 2056.25,1486.45 2058.32,1486.45 2060.4,1486.45 2062.47,1486.45 
  2064.54,1486.45 2066.62,1486.45 2068.69,1486.45 2070.76,1486.45 2072.84,1486.45 2074.91,1486.45 2076.99,1486.45 2079.06,1486.45 2081.13,1486.45 2083.21,1486.45 
  2085.28,1486.45 2087.36,1486.45 2089.43,1486.45 2091.5,1486.45 2093.58,1486.45 2095.65,1486.45 2097.73,1486.45 2099.8,1486.45 2101.87,1486.45 2103.95,1486.45 
  2106.02,1486.45 2108.1,1486.45 2110.17,1486.45 2112.24,1486.45 2114.32,1486.45 2116.39,1486.45 2118.47,1486.45 2120.54,1486.45 2122.61,1486.45 2124.69,1486.45 
  2126.76,1486.45 2128.83,1486.45 2130.91,1486.45 2132.98,1486.45 2135.06,1486.45 2137.13,1486.45 2139.2,1486.45 2141.28,1486.45 2143.35,1486.45 2145.43,1486.45 
  2147.5,1486.45 2149.57,1486.45 2151.65,1486.45 2153.72,1486.45 2155.8,1486.45 2157.87,1486.45 2159.94,1486.45 2162.02,1486.45 2164.09,1486.45 2166.17,1486.45 
  2168.24,1486.45 2170.31,1486.45 2172.39,1486.45 2174.46,1486.45 2176.53,1486.45 2178.61,1486.45 2180.68,1486.45 2182.76,1486.45 2184.83,1486.45 2186.9,1486.45 
  2188.98,1486.45 2191.05,1486.45 2193.13,1486.45 2195.2,1486.45 2197.27,1486.45 2199.35,1486.45 2201.42,1486.45 2203.5,1486.45 2205.57,1486.45 2207.64,1486.45 
  2209.72,1486.45 2211.79,1486.45 2213.87,1486.45 2215.94,1486.45 2218.01,1486.45 2220.09,1486.45 2222.16,1486.45 2224.24,1486.45 2226.31,1486.45 2228.38,1486.45 
  2230.46,1486.45 2232.53,1486.45 2234.6,1486.45 2236.68,1486.45 2238.75,1486.45 2240.83,1486.45 2242.9,1486.45 2244.97,1486.45 2247.05,1486.45 2249.12,1486.45 
  2251.2,1486.45 2253.27,1486.45 2255.34,1486.45 2257.42,1486.45 2259.49,1486.45 2261.57,1486.45 2263.64,1486.45 2265.71,1486.45 2267.79,1486.45 2269.86,1486.45 
  2271.94,1486.45 2274.01,1486.45 2276.08,1486.45 2278.16,1486.45 2280.23,1486.45 2282.3,1486.45 2284.38,1486.45 2286.45,1486.45 2288.53,1486.45 2290.6,1486.45 
  
  "/>
<polyline clip-path="url(#clip642)" style="stroke:#e26f46; stroke-linecap:butt; stroke-linejoin:round; stroke-width:4; stroke-opacity:1; fill:none" points="
  218.754,1486.45 220.828,1486.45 222.901,1486.45 224.975,1486.45 227.049,1486.45 229.123,1486.45 231.197,1486.45 233.271,1486.45 235.345,1486.45 237.419,1486.45 
  239.493,1486.45 241.567,1486.45 243.641,1486.45 245.715,1486.45 247.789,1486.45 249.862,1486.45 251.936,1486.45 254.01,1486.45 256.084,1486.45 258.158,1486.45 
  260.232,1486.45 262.306,1486.45 264.38,1486.45 266.454,1486.45 268.528,1486.45 270.602,1486.45 272.676,1486.45 274.75,1486.45 276.823,1486.45 278.897,1486.45 
  280.971,1486.45 283.045,1486.45 285.119,1486.45 287.193,1486.45 289.267,1486.45 291.341,1486.45 293.415,1486.45 295.489,1486.45 297.563,1486.45 299.637,1486.45 
  301.71,1486.45 303.784,1486.45 305.858,1486.45 307.932,1486.45 310.006,1486.45 312.08,1486.45 314.154,1486.45 316.228,1486.45 318.302,1486.45 320.376,1486.45 
  322.45,1486.45 324.524,1486.45 326.598,1486.45 328.671,1486.45 330.745,1486.45 332.819,1486.45 334.893,1486.45 336.967,1486.45 339.041,1486.45 341.115,1486.45 
  343.189,1486.45 345.263,1486.45 347.337,1486.45 349.411,1486.45 351.485,1486.45 353.558,1486.45 355.632,1486.45 357.706,1486.45 359.78,1486.45 361.854,1486.45 
  363.928,1486.45 366.002,1486.45 368.076,1486.45 370.15,1486.45 372.224,1486.45 374.298,1486.45 376.372,1486.45 378.446,1486.45 380.519,1486.45 382.593,1486.45 
  384.667,1486.45 386.741,1486.45 388.815,1486.45 390.889,1486.45 392.963,1486.45 395.037,1486.45 397.111,1486.45 399.185,1486.45 401.259,1486.45 403.333,1486.45 
  405.407,1486.45 407.48,1486.45 409.554,1486.45 411.628,1486.45 413.702,1486.45 415.776,1486.45 417.85,1486.45 419.924,1486.45 421.998,1486.45 424.072,1486.45 
  426.146,1486.45 428.22,1486.45 430.294,1486.45 432.367,1486.45 434.441,1486.45 436.515,1486.45 438.589,1486.45 440.663,1486.45 442.737,1486.45 444.811,1486.45 
  446.885,1486.45 448.959,1486.45 451.033,1486.45 453.107,1486.45 455.181,1486.45 457.255,1486.45 459.328,1486.45 461.402,1486.45 463.476,1486.45 465.55,1486.45 
  467.624,1486.45 469.698,1486.45 471.772,1486.45 473.846,1486.45 475.92,1486.45 477.994,1486.45 480.068,1486.45 482.142,1486.45 484.216,1486.45 486.289,1486.45 
  488.363,1486.45 490.437,1486.45 492.511,1486.45 494.585,1486.45 496.659,1486.45 498.733,1486.45 500.807,1486.45 502.881,1486.45 504.955,1486.45 507.029,1486.45 
  509.103,1486.45 511.176,1486.45 513.25,1486.45 515.324,1486.45 517.398,1486.45 519.472,1486.45 521.546,1486.45 523.62,1486.45 525.694,1486.45 527.768,1486.45 
  529.842,1486.45 531.916,1486.45 533.99,1486.45 536.064,1486.45 538.137,1486.45 540.211,1486.45 542.285,1486.45 544.359,1486.45 546.433,1486.45 548.507,1486.45 
  550.581,1486.45 552.655,1486.45 554.729,1486.45 556.803,1486.45 558.877,1486.45 560.951,1486.45 563.024,1486.45 565.098,1486.45 567.172,1486.45 569.246,1486.45 
  571.32,1486.45 573.394,1486.45 575.468,1486.45 577.542,1486.45 579.616,1486.45 581.69,1486.45 583.764,1486.45 585.838,1486.45 587.912,1486.45 589.985,1486.45 
  592.059,1486.45 594.133,1486.45 596.207,1486.45 598.281,1486.45 600.355,1486.45 602.429,1486.45 604.503,1486.45 606.577,1486.45 608.651,1486.45 610.725,1486.45 
  612.799,1486.45 614.873,1486.45 616.946,1486.45 619.02,1486.45 621.094,1486.45 623.168,1486.45 625.242,1486.45 627.316,1486.45 629.39,1486.45 631.464,1486.45 
  633.538,1486.45 635.612,1486.45 637.686,1486.45 639.76,1486.45 641.833,1486.45 643.907,1486.45 645.981,1486.45 648.055,1486.45 650.129,1486.45 652.203,1486.45 
  654.277,1486.45 656.351,1486.45 658.425,1486.45 660.499,1486.45 662.573,1486.45 664.647,1486.45 666.721,1486.45 668.794,1486.45 670.868,1486.45 672.942,1486.45 
  675.016,1486.45 677.09,1486.45 679.164,1486.45 681.238,1486.45 683.312,1486.45 685.386,1486.45 687.46,1486.45 689.534,1486.45 691.608,1486.45 693.681,1486.45 
  695.755,1486.45 697.829,1486.45 699.903,1486.45 701.977,1486.45 704.051,1486.45 706.125,1486.45 708.199,1486.45 710.273,1486.45 712.347,1486.45 714.421,1486.45 
  716.495,1486.45 718.569,1486.45 720.642,1486.45 722.716,1486.45 724.79,1486.45 726.864,1486.45 728.938,1486.45 731.012,1486.45 733.086,1486.45 735.16,1486.45 
  737.234,1486.45 739.308,1486.45 741.382,1486.45 743.456,1486.45 745.53,1486.45 747.603,1486.45 749.677,1486.45 751.751,1486.45 753.825,1486.45 755.899,1486.45 
  757.973,1486.45 760.047,1486.45 762.121,1486.45 764.195,1486.45 766.269,1486.45 768.343,1486.45 770.417,1486.45 772.49,1486.45 774.564,1486.45 776.638,1486.45 
  778.712,1486.45 780.786,1486.45 782.86,1486.45 784.934,1486.45 787.008,1486.45 789.082,1486.45 791.156,1486.45 793.23,1486.45 795.304,1486.45 797.378,1486.45 
  799.451,1486.45 801.525,1486.45 803.599,1486.45 805.673,1486.45 807.747,1486.45 809.821,1486.45 811.895,1486.45 813.969,1486.45 816.043,1486.45 818.117,1486.45 
  820.191,1486.45 822.265,1486.45 824.339,1486.45 826.412,1486.45 828.486,1486.45 830.56,1486.45 832.634,1486.45 834.708,1486.45 836.782,1486.45 838.856,1486.45 
  840.93,1486.45 843.004,1486.45 845.078,1486.45 847.152,1486.45 849.226,1486.45 851.299,1486.45 853.373,1486.45 855.447,1486.45 857.521,1486.45 859.595,1486.45 
  861.669,1486.45 863.743,1486.45 865.817,1486.45 867.891,1486.45 869.965,1486.45 872.039,1486.45 874.113,1486.45 876.187,1486.45 878.26,1486.45 880.334,1486.45 
  882.408,1486.45 884.482,1486.45 886.556,1486.45 888.63,1486.45 890.704,1486.45 892.778,1486.45 894.852,1486.45 896.926,1486.45 899,1486.45 901.074,1486.45 
  903.147,1486.45 905.221,1486.45 907.295,1486.45 909.369,1486.45 911.443,1486.45 913.517,1486.45 915.591,1486.45 917.665,1486.45 919.739,1486.45 921.813,1486.45 
  923.887,1486.45 925.961,1486.45 928.035,1486.45 930.108,1486.45 932.182,1486.45 934.256,1486.45 936.33,1486.45 938.404,1486.45 940.478,1486.45 942.552,1486.45 
  944.626,1486.45 946.7,1486.45 948.774,1486.45 950.848,1486.45 952.922,1486.45 954.996,1486.45 957.069,1486.45 959.143,1486.45 961.217,1486.45 963.291,1486.45 
  965.365,1486.45 967.439,1486.45 969.513,1486.45 971.587,1486.45 973.661,1486.45 975.735,1486.45 977.809,1486.45 979.883,1486.45 981.956,1486.45 984.03,1486.45 
  986.104,1486.45 988.178,1486.45 990.252,1486.45 992.326,1486.45 994.4,1486.45 996.474,1486.45 998.548,1486.45 1000.62,1486.45 1002.7,1486.45 1004.77,1486.45 
  1006.84,1486.45 1008.92,1486.45 1010.99,1486.45 1013.07,1486.45 1015.14,1486.45 1017.21,1486.45 1019.29,1486.45 1021.36,1486.45 1023.43,1486.45 1025.51,1486.45 
  1027.58,1486.45 1029.66,1486.45 1031.73,1486.45 1033.8,1486.45 1035.88,1486.45 1037.95,1486.45 1040.03,1486.45 1042.1,1486.45 1044.17,1486.45 1046.25,1486.45 
  1048.32,1486.45 1050.4,1486.45 1052.47,1486.45 1054.54,1486.45 1056.62,1486.45 1058.69,1486.45 1060.77,1486.45 1062.84,1486.45 1064.91,1486.45 1066.99,1486.45 
  1069.06,1486.45 1071.14,1486.45 1073.21,1486.45 1075.28,1486.45 1077.36,1486.45 1079.43,1486.45 1081.5,1486.45 1083.58,1486.45 1085.65,1486.45 1087.73,1486.45 
  1089.8,1486.45 1091.87,1486.45 1093.95,1486.45 1096.02,1486.45 1098.1,1486.45 1100.17,1486.45 1102.24,1486.45 1104.32,1486.45 1106.39,1486.45 1108.47,1486.45 
  1110.54,1486.45 1112.61,1486.45 1114.69,1486.45 1116.76,1486.45 1118.84,1486.45 1120.91,1486.45 1122.98,1486.45 1125.06,1486.45 1127.13,1486.45 1129.2,1486.45 
  1131.28,1486.45 1133.35,1486.45 1135.43,1486.45 1137.5,1486.45 1139.57,1486.45 1141.65,1486.45 1143.72,1486.45 1145.8,1486.45 1147.87,1486.45 1149.94,1486.45 
  1152.02,1486.45 1154.09,1486.45 1156.17,1486.45 1158.24,1486.45 1160.31,1486.45 1162.39,1486.45 1164.46,1486.45 1166.54,1486.45 1168.61,1486.45 1170.68,1486.45 
  1172.76,1486.45 1174.83,1486.45 1176.91,1486.45 1178.98,1486.45 1181.05,1486.45 1183.13,1486.45 1185.2,1486.45 1187.27,1486.45 1189.35,1486.45 1191.42,1486.45 
  1193.5,1486.45 1195.57,1486.45 1197.64,1486.45 1199.72,1486.45 1201.79,1486.45 1203.87,1486.45 1205.94,1486.45 1208.01,1486.45 1210.09,1486.45 1212.16,1486.45 
  1214.24,1486.45 1216.31,1486.45 1218.38,1486.45 1220.46,1486.45 1222.53,1486.45 1224.61,1486.45 1226.68,1486.45 1228.75,1486.45 1230.83,1486.45 1232.9,1486.45 
  1234.97,1486.45 1237.05,1486.45 1239.12,1486.45 1241.2,1486.45 1243.27,1486.45 1245.34,1486.45 1247.42,1486.45 1249.49,1486.45 1251.57,1486.45 1253.64,1486.45 
  1255.71,1486.45 1257.79,1486.45 1259.86,1486.45 1261.94,1486.45 1264.01,1486.45 1266.08,1486.45 1268.16,1486.45 1270.23,1486.45 1272.31,1486.45 1274.38,1486.45 
  1276.45,1486.45 1278.53,1486.45 1280.6,1486.45 1282.68,1486.45 1284.75,1486.45 1286.82,1486.45 1288.9,1486.45 1290.97,1486.45 1293.04,1486.45 1295.12,1486.45 
  1297.19,1486.45 1299.27,1486.45 1301.34,1486.45 1303.41,1486.45 1305.49,1486.45 1307.56,1486.45 1309.64,1486.45 1311.71,1486.45 1313.78,1486.45 1315.86,1486.45 
  1317.93,1486.45 1320.01,1486.45 1322.08,1486.45 1324.15,1486.45 1326.23,1486.45 1328.3,1486.45 1330.38,1486.45 1332.45,1486.45 1334.52,1486.45 1336.6,1486.45 
  1338.67,1486.45 1340.74,1486.45 1342.82,1486.45 1344.89,1486.45 1346.97,1486.45 1349.04,1486.45 1351.11,1486.45 1353.19,1486.45 1355.26,1486.45 1357.34,1486.45 
  1359.41,1486.45 1361.48,1486.45 1363.56,1486.45 1365.63,1486.45 1367.71,1486.45 1369.78,1486.45 1371.85,1486.45 1373.93,1486.45 1376,1486.45 1378.08,1486.45 
  1380.15,1486.45 1382.22,1486.45 1384.3,1486.45 1386.37,1486.45 1388.44,1486.45 1390.52,1486.45 1392.59,1486.45 1394.67,1486.45 1396.74,1486.45 1398.81,1486.45 
  1400.89,1486.45 1402.96,1486.45 1405.04,1486.45 1407.11,1486.45 1409.18,1486.45 1411.26,1486.45 1413.33,1486.45 1415.41,1486.45 1417.48,1486.45 1419.55,1486.45 
  1421.63,1486.45 1423.7,1486.45 1425.78,1486.45 1427.85,1486.45 1429.92,1486.45 1432,1486.45 1434.07,1486.45 1436.15,1486.45 1438.22,1486.45 1440.29,1486.45 
  1442.37,1486.45 1444.44,1486.45 1446.51,1486.45 1448.59,1486.45 1450.66,1486.45 1452.74,1486.45 1454.81,1486.45 1456.88,1486.45 1458.96,1486.45 1461.03,1486.45 
  1463.11,1486.45 1465.18,1486.45 1467.25,1486.45 1469.33,1486.45 1471.4,1486.45 1473.48,1486.45 1475.55,1486.45 1477.62,1486.45 1479.7,1486.45 1481.77,1486.45 
  1483.85,1486.45 1485.92,1486.45 1487.99,1486.45 1490.07,1486.45 1492.14,1486.45 1494.21,1486.45 1496.29,1486.45 1498.36,1486.45 1500.44,1486.45 1502.51,1486.45 
  1504.58,1486.45 1506.66,1486.45 1508.73,1486.45 1510.81,1486.45 1512.88,1486.45 1514.95,1486.45 1517.03,1486.45 1519.1,1486.45 1521.18,1486.45 1523.25,1486.45 
  1525.32,1486.45 1527.4,1486.45 1529.47,1486.45 1531.55,1486.45 1533.62,1486.45 1535.69,1486.45 1537.77,1486.45 1539.84,1486.45 1541.92,1486.45 1543.99,1486.45 
  1546.06,1486.45 1548.14,1486.45 1550.21,1486.45 1552.28,1486.45 1554.36,1486.45 1556.43,1486.45 1558.51,1486.45 1560.58,1486.45 1562.65,1486.45 1564.73,1486.45 
  1566.8,1486.45 1568.88,1486.45 1570.95,1486.45 1573.02,1486.45 1575.1,1486.45 1577.17,1486.45 1579.25,1486.45 1581.32,1486.45 1583.39,1486.45 1585.47,1486.45 
  1587.54,1486.45 1589.62,1486.45 1591.69,1486.45 1593.76,1486.45 1595.84,1486.45 1597.91,1486.45 1599.98,1486.45 1602.06,1486.45 1604.13,1486.45 1606.21,1486.45 
  1608.28,1486.45 1610.35,1486.45 1612.43,1486.45 1614.5,1486.45 1616.58,1486.45 1618.65,1486.45 1620.72,1486.45 1622.8,1486.45 1624.87,1486.45 1626.95,1486.45 
  1629.02,1486.45 1631.09,1486.45 1633.17,1486.45 1635.24,1486.45 1637.32,1486.45 1639.39,1486.45 1641.46,1486.45 1643.54,1486.45 1645.61,1486.45 1647.69,1486.45 
  1649.76,1486.45 1651.83,1486.45 1653.91,1486.45 1655.98,1486.45 1658.05,1486.45 1660.13,1486.45 1662.2,1486.45 1664.28,1486.45 1666.35,1486.45 1668.42,1486.45 
  1670.5,1486.45 1672.57,1486.45 1674.65,1486.45 1676.72,1486.45 1678.79,1486.45 1680.87,1486.45 1682.94,1486.45 1685.02,1486.45 1687.09,1486.45 1689.16,1486.45 
  1691.24,1486.45 1693.31,1486.45 1695.39,1486.45 1697.46,1486.45 1699.53,1486.45 1701.61,1486.45 1703.68,1486.45 1705.75,1486.45 1707.83,1486.45 1709.9,1486.45 
  1711.98,1486.45 1714.05,1486.45 1716.12,1486.45 1718.2,1486.45 1720.27,1486.45 1722.35,1486.45 1724.42,1486.45 1726.49,1486.45 1728.57,1486.45 1730.64,1486.45 
  1732.72,1486.45 1734.79,1486.45 1736.86,1486.45 1738.94,1486.45 1741.01,1486.45 1743.09,1486.45 1745.16,1486.45 1747.23,1486.45 1749.31,1486.45 1751.38,1486.45 
  1753.46,1486.45 1755.53,1486.45 1757.6,1486.45 1759.68,1486.45 1761.75,1486.45 1763.82,1486.45 1765.9,1486.45 1767.97,1486.45 1770.05,1486.45 1772.12,1486.45 
  1774.19,1486.45 1776.27,1486.45 1778.34,1486.45 1780.42,1486.45 1782.49,1486.45 1784.56,1486.45 1786.64,1486.45 1788.71,1486.45 1790.79,1486.45 1792.86,1486.45 
  1794.93,1486.45 1797.01,1486.45 1799.08,1486.45 1801.16,1486.45 1803.23,1486.45 1805.3,1486.45 1807.38,1486.45 1809.45,1486.45 1811.52,1486.45 1813.6,1486.45 
  1815.67,1486.45 1817.75,1486.45 1819.82,1486.45 1821.89,1486.45 1823.97,1486.45 1826.04,1486.45 1828.12,1486.45 1830.19,1486.45 1832.26,1486.45 1834.34,1486.45 
  1836.41,1486.45 1838.49,1486.45 1840.56,1486.45 1842.63,1486.45 1844.71,1486.45 1846.78,1486.45 1848.86,1486.45 1850.93,1486.45 1853,1486.45 1855.08,1486.45 
  1857.15,1486.45 1859.22,1486.45 1861.3,1486.45 1863.37,1486.45 1865.45,1486.45 1867.52,1486.45 1869.59,1486.45 1871.67,1486.45 1873.74,1486.45 1875.82,1486.45 
  1877.89,1486.45 1879.96,1486.45 1882.04,1486.45 1884.11,1486.45 1886.19,1486.45 1888.26,1486.45 1890.33,1486.45 1892.41,1486.45 1894.48,1486.45 1896.56,1486.45 
  1898.63,1486.45 1900.7,1486.45 1902.78,1486.45 1904.85,1486.45 1906.93,1486.45 1909,1486.45 1911.07,1486.45 1913.15,1486.45 1915.22,1486.45 1917.29,1486.45 
  1919.37,1486.45 1921.44,1486.45 1923.52,1486.45 1925.59,1486.45 1927.66,1486.45 1929.74,1486.45 1931.81,1486.45 1933.89,1486.45 1935.96,1486.45 1938.03,1486.45 
  1940.11,1486.45 1942.18,1486.45 1944.26,1486.45 1946.33,1486.45 1948.4,1486.45 1950.48,1486.45 1952.55,1486.45 1954.63,1486.45 1956.7,1486.45 1958.77,1486.45 
  1960.85,1486.45 1962.92,1486.45 1964.99,1486.45 1967.07,1486.45 1969.14,1486.45 1971.22,1486.45 1973.29,1486.45 1975.36,1486.45 1977.44,1486.45 1979.51,1486.45 
  1981.59,1486.45 1983.66,1486.45 1985.73,1486.45 1987.81,1486.45 1989.88,1486.45 1991.96,1486.45 1994.03,1486.45 1996.1,1486.45 1998.18,1486.45 2000.25,1486.45 
  2002.33,1486.45 2004.4,1486.45 2006.47,1486.45 2008.55,1486.45 2010.62,1486.45 2012.7,1486.45 2014.77,1486.45 2016.84,1486.45 2018.92,1486.45 2020.99,1486.45 
  2023.06,1486.45 2025.14,1486.45 2027.21,1486.45 2029.29,1486.45 2031.36,1486.45 2033.43,1486.45 2035.51,1486.45 2037.58,1486.45 2039.66,1486.45 2041.73,1486.45 
  2043.8,1486.45 2045.88,1486.45 2047.95,1486.45 2050.03,1486.45 2052.1,1486.45 2054.17,1486.45 2056.25,1486.45 2058.32,1486.45 2060.4,1486.45 2062.47,1486.45 
  2064.54,1486.45 2066.62,1486.45 2068.69,1486.45 2070.76,1486.45 2072.84,1486.45 2074.91,1486.45 2076.99,1486.45 2079.06,1486.45 2081.13,1486.45 2083.21,1486.45 
  2085.28,1486.45 2087.36,1486.45 2089.43,1486.45 2091.5,1486.45 2093.58,1486.45 2095.65,1486.45 2097.73,1486.45 2099.8,1486.45 2101.87,1486.45 2103.95,1486.45 
  2106.02,1486.45 2108.1,1486.45 2110.17,1486.45 2112.24,1486.45 2114.32,1486.45 2116.39,1486.45 2118.47,1486.45 2120.54,1486.45 2122.61,1486.45 2124.69,1486.45 
  2126.76,1486.45 2128.83,1486.45 2130.91,1486.45 2132.98,1486.45 2135.06,1486.45 2137.13,1486.45 2139.2,1486.45 2141.28,1486.45 2143.35,1486.45 2145.43,1486.45 
  2147.5,1486.45 2149.57,1486.45 2151.65,1486.45 2153.72,1486.45 2155.8,1486.45 2157.87,1486.45 2159.94,1486.45 2162.02,1486.45 2164.09,1486.45 2166.17,1486.45 
  2168.24,1486.45 2170.31,1486.45 2172.39,1486.45 2174.46,1486.45 2176.53,1486.45 2178.61,1486.45 2180.68,1486.45 2182.76,1486.45 2184.83,1486.45 2186.9,1486.45 
  2188.98,1486.45 2191.05,1486.45 2193.13,1486.45 2195.2,1486.45 2197.27,1486.45 2199.35,1486.45 2201.42,1486.45 2203.5,1486.45 2205.57,1486.45 2207.64,1486.45 
  2209.72,1486.45 2211.79,1486.45 2213.87,1486.45 2215.94,1486.45 2218.01,1486.45 2220.09,1486.45 2222.16,1486.45 2224.24,1486.45 2226.31,1486.45 2228.38,1486.45 
  2230.46,1486.45 2232.53,1486.45 2234.6,1486.45 2236.68,1486.45 2238.75,1486.45 2240.83,1486.45 2242.9,1486.45 2244.97,1486.45 2247.05,1486.45 2249.12,1486.45 
  2251.2,1486.45 2253.27,1486.45 2255.34,1486.45 2257.42,1486.45 2259.49,1486.45 2261.57,1486.45 2263.64,1486.45 2265.71,1486.45 2267.79,1486.45 2269.86,1486.45 
  2271.94,1486.45 2274.01,1486.45 2276.08,1486.45 2278.16,1486.45 2280.23,1486.45 2282.3,1486.45 2284.38,1486.45 2286.45,1486.45 2288.53,1486.45 2290.6,1486.45 
  
  "/>
<path clip-path="url(#clip640)" d="
M1849.77 250.738 L2279.55 250.738 L2279.55 95.2176 L1849.77 95.2176  Z
  " fill="#ffffff" fill-rule="evenodd" fill-opacity="1"/>
<polyline clip-path="url(#clip640)" style="stroke:#000000; stroke-linecap:butt; stroke-linejoin:round; stroke-width:4; stroke-opacity:1; fill:none" points="
  1849.77,250.738 2279.55,250.738 2279.55,95.2176 1849.77,95.2176 1849.77,250.738 
  "/>
<polyline clip-path="url(#clip640)" style="stroke:#009af9; stroke-linecap:butt; stroke-linejoin:round; stroke-width:4; stroke-opacity:1; fill:none" points="
  1874.17,147.058 2020.58,147.058 
  "/>
<path clip-path="url(#clip640)" d="M2044.98 129.778 L2066.84 129.778 L2066.84 133.713 L2049.66 133.713 L2049.66 143.944 L2066.12 143.944 L2066.12 147.879 L2049.66 147.879 L2049.66 160.402 L2067.25 160.402 L2067.25 164.338 L2044.98 164.338 L2044.98 129.778 Z" fill="#000000" fill-rule="evenodd" fill-opacity="1" /><path clip-path="url(#clip640)" d="M2074.75 128.319 L2079.01 128.319 L2079.01 164.338 L2074.75 164.338 L2074.75 128.319 Z" fill="#000000" fill-rule="evenodd" fill-opacity="1" /><path clip-path="url(#clip640)" d="M2110.1 150.31 L2110.1 152.393 L2090.52 152.393 Q2090.79 156.791 2093.16 159.106 Q2095.54 161.398 2099.78 161.398 Q2102.23 161.398 2104.52 160.796 Q2106.84 160.194 2109.1 158.99 L2109.1 163.018 Q2106.81 163.99 2104.41 164.5 Q2102 165.009 2099.52 165.009 Q2093.32 165.009 2089.68 161.398 Q2086.07 157.787 2086.07 151.629 Q2086.07 145.264 2089.5 141.537 Q2092.95 137.787 2098.78 137.787 Q2104.01 137.787 2107.04 141.166 Q2110.1 144.523 2110.1 150.31 M2105.84 149.06 Q2105.79 145.565 2103.87 143.481 Q2101.97 141.398 2098.83 141.398 Q2095.26 141.398 2093.11 143.412 Q2090.98 145.426 2090.66 149.083 L2105.84 149.06 Z" fill="#000000" fill-rule="evenodd" fill-opacity="1" /><path clip-path="url(#clip640)" d="M2135.75 139.407 L2135.75 143.389 Q2133.94 142.393 2132.11 141.907 Q2130.31 141.398 2128.46 141.398 Q2124.31 141.398 2122.02 144.037 Q2119.73 146.652 2119.73 151.398 Q2119.73 156.143 2122.02 158.782 Q2124.31 161.398 2128.46 161.398 Q2130.31 161.398 2132.11 160.912 Q2133.94 160.402 2135.75 159.407 L2135.75 163.342 Q2133.97 164.176 2132.04 164.592 Q2130.15 165.009 2127.99 165.009 Q2122.14 165.009 2118.69 161.328 Q2115.24 157.648 2115.24 151.398 Q2115.24 145.055 2118.71 141.421 Q2122.21 137.787 2128.27 137.787 Q2130.24 137.787 2132.11 138.203 Q2133.99 138.597 2135.75 139.407 Z" fill="#000000" fill-rule="evenodd" fill-opacity="1" /><path clip-path="url(#clip640)" d="M2147.37 131.051 L2147.37 138.412 L2156.14 138.412 L2156.14 141.722 L2147.37 141.722 L2147.37 155.796 Q2147.37 158.967 2148.22 159.87 Q2149.1 160.773 2151.77 160.773 L2156.14 160.773 L2156.14 164.338 L2151.77 164.338 Q2146.84 164.338 2144.96 162.509 Q2143.09 160.657 2143.09 155.796 L2143.09 141.722 L2139.96 141.722 L2139.96 138.412 L2143.09 138.412 L2143.09 131.051 L2147.37 131.051 Z" fill="#000000" fill-rule="evenodd" fill-opacity="1" /><path clip-path="url(#clip640)" d="M2176.77 142.393 Q2176.05 141.977 2175.19 141.791 Q2174.36 141.583 2173.34 141.583 Q2169.73 141.583 2167.78 143.944 Q2165.86 146.282 2165.86 150.68 L2165.86 164.338 L2161.58 164.338 L2161.58 138.412 L2165.86 138.412 L2165.86 142.44 Q2167.21 140.078 2169.36 138.944 Q2171.51 137.787 2174.59 137.787 Q2175.03 137.787 2175.56 137.856 Q2176.09 137.903 2176.74 138.018 L2176.77 142.393 Z" fill="#000000" fill-rule="evenodd" fill-opacity="1" /><path clip-path="url(#clip640)" d="M2190.24 141.398 Q2186.81 141.398 2184.82 144.083 Q2182.83 146.745 2182.83 151.398 Q2182.83 156.051 2184.8 158.736 Q2186.79 161.398 2190.24 161.398 Q2193.64 161.398 2195.63 158.713 Q2197.62 156.027 2197.62 151.398 Q2197.62 146.791 2195.63 144.106 Q2193.64 141.398 2190.24 141.398 M2190.24 137.787 Q2195.79 137.787 2198.96 141.398 Q2202.14 145.009 2202.14 151.398 Q2202.14 157.764 2198.96 161.398 Q2195.79 165.009 2190.24 165.009 Q2184.66 165.009 2181.49 161.398 Q2178.34 157.764 2178.34 151.398 Q2178.34 145.009 2181.49 141.398 Q2184.66 137.787 2190.24 137.787 Z" fill="#000000" fill-rule="evenodd" fill-opacity="1" /><path clip-path="url(#clip640)" d="M2230.75 148.689 L2230.75 164.338 L2226.49 164.338 L2226.49 148.828 Q2226.49 145.148 2225.05 143.319 Q2223.62 141.49 2220.75 141.49 Q2217.3 141.49 2215.31 143.69 Q2213.32 145.889 2213.32 149.685 L2213.32 164.338 L2209.03 164.338 L2209.03 138.412 L2213.32 138.412 L2213.32 142.44 Q2214.84 140.102 2216.9 138.944 Q2218.99 137.787 2221.7 137.787 Q2226.16 137.787 2228.46 140.565 Q2230.75 143.319 2230.75 148.689 Z" fill="#000000" fill-rule="evenodd" fill-opacity="1" /><polyline clip-path="url(#clip640)" style="stroke:#e26f46; stroke-linecap:butt; stroke-linejoin:round; stroke-width:4; stroke-opacity:1; fill:none" points="
  1874.17,198.898 2020.58,198.898 
  "/>
<path clip-path="url(#clip640)" d="M2044.98 181.618 L2049.66 181.618 L2049.66 195.784 L2066.65 195.784 L2066.65 181.618 L2071.33 181.618 L2071.33 216.178 L2066.65 216.178 L2066.65 199.719 L2049.66 199.719 L2049.66 216.178 L2044.98 216.178 L2044.98 181.618 Z" fill="#000000" fill-rule="evenodd" fill-opacity="1" /><path clip-path="url(#clip640)" d="M2090.49 193.238 Q2087.07 193.238 2085.08 195.923 Q2083.09 198.585 2083.09 203.238 Q2083.09 207.891 2085.05 210.576 Q2087.04 213.238 2090.49 213.238 Q2093.9 213.238 2095.89 210.553 Q2097.88 207.867 2097.88 203.238 Q2097.88 198.631 2095.89 195.946 Q2093.9 193.238 2090.49 193.238 M2090.49 189.627 Q2096.05 189.627 2099.22 193.238 Q2102.39 196.849 2102.39 203.238 Q2102.39 209.604 2099.22 213.238 Q2096.05 216.849 2090.49 216.849 Q2084.91 216.849 2081.74 213.238 Q2078.6 209.604 2078.6 203.238 Q2078.6 196.849 2081.74 193.238 Q2084.91 189.627 2090.49 189.627 Z" fill="#000000" fill-rule="evenodd" fill-opacity="1" /><path clip-path="url(#clip640)" d="M2109.45 180.159 L2113.71 180.159 L2113.71 216.178 L2109.45 216.178 L2109.45 180.159 Z" fill="#000000" fill-rule="evenodd" fill-opacity="1" /><path clip-path="url(#clip640)" d="M2144.8 202.15 L2144.8 204.233 L2125.22 204.233 Q2125.49 208.631 2127.85 210.946 Q2130.24 213.238 2134.47 213.238 Q2136.93 213.238 2139.22 212.636 Q2141.53 212.034 2143.8 210.83 L2143.8 214.858 Q2141.51 215.83 2139.1 216.34 Q2136.7 216.849 2134.22 216.849 Q2128.02 216.849 2124.38 213.238 Q2120.77 209.627 2120.77 203.469 Q2120.77 197.104 2124.2 193.377 Q2127.65 189.627 2133.48 189.627 Q2138.71 189.627 2141.74 193.006 Q2144.8 196.363 2144.8 202.15 M2140.54 200.9 Q2140.49 197.405 2138.57 195.321 Q2136.67 193.238 2133.53 193.238 Q2129.96 193.238 2127.81 195.252 Q2125.68 197.266 2125.35 200.923 L2140.54 200.9 Z" fill="#000000" fill-rule="evenodd" fill-opacity="1" /></svg>
