<?xml version="1.0" encoding="utf-8"?>
<svg xmlns="http://www.w3.org/2000/svg" xmlns:xlink="http://www.w3.org/1999/xlink" width="600" height="400" viewBox="0 0 2400 1600">
<defs>
  <clipPath id="clip830">
    <rect x="0" y="0" width="2400" height="1600"/>
  </clipPath>
</defs>
<path clip-path="url(#clip830)" d="
M0 1600 L2400 1600 L2400 0 L0 0  Z
  " fill="#ffffff" fill-rule="evenodd" fill-opacity="1"/>
<defs>
  <clipPath id="clip831">
    <rect x="480" y="0" width="1681" height="1600"/>
  </clipPath>
</defs>
<path clip-path="url(#clip830)" d="
M299.718 1486.45 L2352.76 1486.45 L2352.76 47.2441 L299.718 47.2441  Z
  " fill="#ffffff" fill-rule="evenodd" fill-opacity="1"/>
<defs>
  <clipPath id="clip832">
    <rect x="299" y="47" width="2054" height="1440"/>
  </clipPath>
</defs>
<polyline clip-path="url(#clip832)" style="stroke:#000000; stroke-linecap:butt; stroke-linejoin:round; stroke-width:2; stroke-opacity:0.1; fill:none" points="
  357.823,1486.45 357.823,47.2441 
  "/>
<polyline clip-path="url(#clip832)" style="stroke:#000000; stroke-linecap:butt; stroke-linejoin:round; stroke-width:2; stroke-opacity:0.1; fill:none" points="
  1003.43,1486.45 1003.43,47.2441 
  "/>
<polyline clip-path="url(#clip832)" style="stroke:#000000; stroke-linecap:butt; stroke-linejoin:round; stroke-width:2; stroke-opacity:0.1; fill:none" points="
  1649.04,1486.45 1649.04,47.2441 
  "/>
<polyline clip-path="url(#clip832)" style="stroke:#000000; stroke-linecap:butt; stroke-linejoin:round; stroke-width:2; stroke-opacity:0.1; fill:none" points="
  2294.65,1486.45 2294.65,47.2441 
  "/>
<polyline clip-path="url(#clip830)" style="stroke:#000000; stroke-linecap:butt; stroke-linejoin:round; stroke-width:4; stroke-opacity:1; fill:none" points="
  299.718,1486.45 2352.76,1486.45 
  "/>
<polyline clip-path="url(#clip830)" style="stroke:#000000; stroke-linecap:butt; stroke-linejoin:round; stroke-width:4; stroke-opacity:1; fill:none" points="
  357.823,1486.45 357.823,1467.55 
  "/>
<polyline clip-path="url(#clip830)" style="stroke:#000000; stroke-linecap:butt; stroke-linejoin:round; stroke-width:4; stroke-opacity:1; fill:none" points="
  1003.43,1486.45 1003.43,1467.55 
  "/>
<polyline clip-path="url(#clip830)" style="stroke:#000000; stroke-linecap:butt; stroke-linejoin:round; stroke-width:4; stroke-opacity:1; fill:none" points="
  1649.04,1486.45 1649.04,1467.55 
  "/>
<polyline clip-path="url(#clip830)" style="stroke:#000000; stroke-linecap:butt; stroke-linejoin:round; stroke-width:4; stroke-opacity:1; fill:none" points="
  2294.65,1486.45 2294.65,1467.55 
  "/>
<path clip-path="url(#clip830)" d="M289.965 1517.37 Q286.353 1517.37 284.525 1520.93 Q282.719 1524.47 282.719 1531.6 Q282.719 1538.71 284.525 1542.27 Q286.353 1545.82 289.965 1545.82 Q293.599 1545.82 295.404 1542.27 Q297.233 1538.71 297.233 1531.6 Q297.233 1524.47 295.404 1520.93 Q293.599 1517.37 289.965 1517.37 M289.965 1513.66 Q295.775 1513.66 298.83 1518.27 Q301.909 1522.85 301.909 1531.6 Q301.909 1540.33 298.83 1544.94 Q295.775 1549.52 289.965 1549.52 Q284.154 1549.52 281.076 1544.94 Q278.02 1540.33 278.02 1531.6 Q278.02 1522.85 281.076 1518.27 Q284.154 1513.66 289.965 1513.66 Z" fill="#000000" fill-rule="evenodd" fill-opacity="1" /><path clip-path="url(#clip830)" d="M310.126 1542.97 L315.011 1542.97 L315.011 1548.85 L310.126 1548.85 L310.126 1542.97 Z" fill="#000000" fill-rule="evenodd" fill-opacity="1" /><path clip-path="url(#clip830)" d="M335.196 1517.37 Q331.585 1517.37 329.756 1520.93 Q327.95 1524.47 327.95 1531.6 Q327.95 1538.71 329.756 1542.27 Q331.585 1545.82 335.196 1545.82 Q338.83 1545.82 340.636 1542.27 Q342.464 1538.71 342.464 1531.6 Q342.464 1524.47 340.636 1520.93 Q338.83 1517.37 335.196 1517.37 M335.196 1513.66 Q341.006 1513.66 344.061 1518.27 Q347.14 1522.85 347.14 1531.6 Q347.14 1540.33 344.061 1544.94 Q341.006 1549.52 335.196 1549.52 Q329.386 1549.52 326.307 1544.94 Q323.251 1540.33 323.251 1531.6 Q323.251 1522.85 326.307 1518.27 Q329.386 1513.66 335.196 1513.66 Z" fill="#000000" fill-rule="evenodd" fill-opacity="1" /><path clip-path="url(#clip830)" d="M365.358 1517.37 Q361.747 1517.37 359.918 1520.93 Q358.112 1524.47 358.112 1531.6 Q358.112 1538.71 359.918 1542.27 Q361.747 1545.82 365.358 1545.82 Q368.992 1545.82 370.797 1542.27 Q372.626 1538.71 372.626 1531.6 Q372.626 1524.47 370.797 1520.93 Q368.992 1517.37 365.358 1517.37 M365.358 1513.66 Q371.168 1513.66 374.223 1518.27 Q377.302 1522.85 377.302 1531.6 Q377.302 1540.33 374.223 1544.94 Q371.168 1549.52 365.358 1549.52 Q359.547 1549.52 356.469 1544.94 Q353.413 1540.33 353.413 1531.6 Q353.413 1522.85 356.469 1518.27 Q359.547 1513.66 365.358 1513.66 Z" fill="#000000" fill-rule="evenodd" fill-opacity="1" /><path clip-path="url(#clip830)" d="M395.52 1517.37 Q391.908 1517.37 390.08 1520.93 Q388.274 1524.47 388.274 1531.6 Q388.274 1538.71 390.08 1542.27 Q391.908 1545.82 395.52 1545.82 Q399.154 1545.82 400.959 1542.27 Q402.788 1538.71 402.788 1531.6 Q402.788 1524.47 400.959 1520.93 Q399.154 1517.37 395.52 1517.37 M395.52 1513.66 Q401.33 1513.66 404.385 1518.27 Q407.464 1522.85 407.464 1531.6 Q407.464 1540.33 404.385 1544.94 Q401.33 1549.52 395.52 1549.52 Q389.709 1549.52 386.631 1544.94 Q383.575 1540.33 383.575 1531.6 Q383.575 1522.85 386.631 1518.27 Q389.709 1513.66 395.52 1513.66 Z" fill="#000000" fill-rule="evenodd" fill-opacity="1" /><path clip-path="url(#clip830)" d="M425.681 1517.37 Q422.07 1517.37 420.242 1520.93 Q418.436 1524.47 418.436 1531.6 Q418.436 1538.71 420.242 1542.27 Q422.07 1545.82 425.681 1545.82 Q429.316 1545.82 431.121 1542.27 Q432.95 1538.71 432.95 1531.6 Q432.95 1524.47 431.121 1520.93 Q429.316 1517.37 425.681 1517.37 M425.681 1513.66 Q431.492 1513.66 434.547 1518.27 Q437.626 1522.85 437.626 1531.6 Q437.626 1540.33 434.547 1544.94 Q431.492 1549.52 425.681 1549.52 Q419.871 1549.52 416.793 1544.94 Q413.737 1540.33 413.737 1531.6 Q413.737 1522.85 416.793 1518.27 Q419.871 1513.66 425.681 1513.66 Z" fill="#000000" fill-rule="evenodd" fill-opacity="1" /><path clip-path="url(#clip830)" d="M936.187 1517.37 Q932.576 1517.37 930.748 1520.93 Q928.942 1524.47 928.942 1531.6 Q928.942 1538.71 930.748 1542.27 Q932.576 1545.82 936.187 1545.82 Q939.822 1545.82 941.627 1542.27 Q943.456 1538.71 943.456 1531.6 Q943.456 1524.47 941.627 1520.93 Q939.822 1517.37 936.187 1517.37 M936.187 1513.66 Q941.997 1513.66 945.053 1518.27 Q948.132 1522.85 948.132 1531.6 Q948.132 1540.33 945.053 1544.94 Q941.997 1549.52 936.187 1549.52 Q930.377 1549.52 927.298 1544.94 Q924.243 1540.33 924.243 1531.6 Q924.243 1522.85 927.298 1518.27 Q930.377 1513.66 936.187 1513.66 Z" fill="#000000" fill-rule="evenodd" fill-opacity="1" /><path clip-path="url(#clip830)" d="M956.349 1542.97 L961.233 1542.97 L961.233 1548.85 L956.349 1548.85 L956.349 1542.97 Z" fill="#000000" fill-rule="evenodd" fill-opacity="1" /><path clip-path="url(#clip830)" d="M981.419 1517.37 Q977.807 1517.37 975.979 1520.93 Q974.173 1524.47 974.173 1531.6 Q974.173 1538.71 975.979 1542.27 Q977.807 1545.82 981.419 1545.82 Q985.053 1545.82 986.858 1542.27 Q988.687 1538.71 988.687 1531.6 Q988.687 1524.47 986.858 1520.93 Q985.053 1517.37 981.419 1517.37 M981.419 1513.66 Q987.229 1513.66 990.284 1518.27 Q993.363 1522.85 993.363 1531.6 Q993.363 1540.33 990.284 1544.94 Q987.229 1549.52 981.419 1549.52 Q975.608 1549.52 972.53 1544.94 Q969.474 1540.33 969.474 1531.6 Q969.474 1522.85 972.53 1518.27 Q975.608 1513.66 981.419 1513.66 Z" fill="#000000" fill-rule="evenodd" fill-opacity="1" /><path clip-path="url(#clip830)" d="M1011.58 1517.37 Q1007.97 1517.37 1006.14 1520.93 Q1004.34 1524.47 1004.34 1531.6 Q1004.34 1538.71 1006.14 1542.27 Q1007.97 1545.82 1011.58 1545.82 Q1015.21 1545.82 1017.02 1542.27 Q1018.85 1538.71 1018.85 1531.6 Q1018.85 1524.47 1017.02 1520.93 Q1015.21 1517.37 1011.58 1517.37 M1011.58 1513.66 Q1017.39 1513.66 1020.45 1518.27 Q1023.52 1522.85 1023.52 1531.6 Q1023.52 1540.33 1020.45 1544.94 Q1017.39 1549.52 1011.58 1549.52 Q1005.77 1549.52 1002.69 1544.94 Q999.636 1540.33 999.636 1531.6 Q999.636 1522.85 1002.69 1518.27 Q1005.77 1513.66 1011.58 1513.66 Z" fill="#000000" fill-rule="evenodd" fill-opacity="1" /><path clip-path="url(#clip830)" d="M1041.74 1517.37 Q1038.13 1517.37 1036.3 1520.93 Q1034.5 1524.47 1034.5 1531.6 Q1034.5 1538.71 1036.3 1542.27 Q1038.13 1545.82 1041.74 1545.82 Q1045.38 1545.82 1047.18 1542.27 Q1049.01 1538.71 1049.01 1531.6 Q1049.01 1524.47 1047.18 1520.93 Q1045.38 1517.37 1041.74 1517.37 M1041.74 1513.66 Q1047.55 1513.66 1050.61 1518.27 Q1053.69 1522.85 1053.69 1531.6 Q1053.69 1540.33 1050.61 1544.94 Q1047.55 1549.52 1041.74 1549.52 Q1035.93 1549.52 1032.85 1544.94 Q1029.8 1540.33 1029.8 1531.6 Q1029.8 1522.85 1032.85 1518.27 Q1035.93 1513.66 1041.74 1513.66 Z" fill="#000000" fill-rule="evenodd" fill-opacity="1" /><path clip-path="url(#clip830)" d="M1062.71 1544.91 L1070.35 1544.91 L1070.35 1518.55 L1062.04 1520.21 L1062.04 1515.95 L1070.31 1514.29 L1074.98 1514.29 L1074.98 1544.91 L1082.62 1544.91 L1082.62 1548.85 L1062.71 1548.85 L1062.71 1544.91 Z" fill="#000000" fill-rule="evenodd" fill-opacity="1" /><path clip-path="url(#clip830)" d="M1581.98 1517.37 Q1578.37 1517.37 1576.54 1520.93 Q1574.74 1524.47 1574.74 1531.6 Q1574.74 1538.71 1576.54 1542.27 Q1578.37 1545.82 1581.98 1545.82 Q1585.62 1545.82 1587.42 1542.27 Q1589.25 1538.71 1589.25 1531.6 Q1589.25 1524.47 1587.42 1520.93 Q1585.62 1517.37 1581.98 1517.37 M1581.98 1513.66 Q1587.79 1513.66 1590.85 1518.27 Q1593.93 1522.85 1593.93 1531.6 Q1593.93 1540.33 1590.85 1544.94 Q1587.79 1549.52 1581.98 1549.52 Q1576.17 1549.52 1573.09 1544.94 Q1570.04 1540.33 1570.04 1531.6 Q1570.04 1522.85 1573.09 1518.27 Q1576.17 1513.66 1581.98 1513.66 Z" fill="#000000" fill-rule="evenodd" fill-opacity="1" /><path clip-path="url(#clip830)" d="M1602.14 1542.97 L1607.03 1542.97 L1607.03 1548.85 L1602.14 1548.85 L1602.14 1542.97 Z" fill="#000000" fill-rule="evenodd" fill-opacity="1" /><path clip-path="url(#clip830)" d="M1627.21 1517.37 Q1623.6 1517.37 1621.77 1520.93 Q1619.97 1524.47 1619.97 1531.6 Q1619.97 1538.71 1621.77 1542.27 Q1623.6 1545.82 1627.21 1545.82 Q1630.85 1545.82 1632.65 1542.27 Q1634.48 1538.71 1634.48 1531.6 Q1634.48 1524.47 1632.65 1520.93 Q1630.85 1517.37 1627.21 1517.37 M1627.21 1513.66 Q1633.02 1513.66 1636.08 1518.27 Q1639.16 1522.85 1639.16 1531.6 Q1639.16 1540.33 1636.08 1544.94 Q1633.02 1549.52 1627.21 1549.52 Q1621.4 1549.52 1618.32 1544.94 Q1615.27 1540.33 1615.27 1531.6 Q1615.27 1522.85 1618.32 1518.27 Q1621.4 1513.66 1627.21 1513.66 Z" fill="#000000" fill-rule="evenodd" fill-opacity="1" /><path clip-path="url(#clip830)" d="M1657.37 1517.37 Q1653.76 1517.37 1651.94 1520.93 Q1650.13 1524.47 1650.13 1531.6 Q1650.13 1538.71 1651.94 1542.27 Q1653.76 1545.82 1657.37 1545.82 Q1661.01 1545.82 1662.81 1542.27 Q1664.64 1538.71 1664.64 1531.6 Q1664.64 1524.47 1662.81 1520.93 Q1661.01 1517.37 1657.37 1517.37 M1657.37 1513.66 Q1663.19 1513.66 1666.24 1518.27 Q1669.32 1522.85 1669.32 1531.6 Q1669.32 1540.33 1666.24 1544.94 Q1663.19 1549.52 1657.37 1549.52 Q1651.56 1549.52 1648.49 1544.94 Q1645.43 1540.33 1645.43 1531.6 Q1645.43 1522.85 1648.49 1518.27 Q1651.56 1513.66 1657.37 1513.66 Z" fill="#000000" fill-rule="evenodd" fill-opacity="1" /><path clip-path="url(#clip830)" d="M1687.54 1517.37 Q1683.93 1517.37 1682.1 1520.93 Q1680.29 1524.47 1680.29 1531.6 Q1680.29 1538.71 1682.1 1542.27 Q1683.93 1545.82 1687.54 1545.82 Q1691.17 1545.82 1692.98 1542.27 Q1694.81 1538.71 1694.81 1531.6 Q1694.81 1524.47 1692.98 1520.93 Q1691.17 1517.37 1687.54 1517.37 M1687.54 1513.66 Q1693.35 1513.66 1696.4 1518.27 Q1699.48 1522.85 1699.48 1531.6 Q1699.48 1540.33 1696.4 1544.94 Q1693.35 1549.52 1687.54 1549.52 Q1681.73 1549.52 1678.65 1544.94 Q1675.59 1540.33 1675.59 1531.6 Q1675.59 1522.85 1678.65 1518.27 Q1681.73 1513.66 1687.54 1513.66 Z" fill="#000000" fill-rule="evenodd" fill-opacity="1" /><path clip-path="url(#clip830)" d="M1711.73 1544.91 L1728.05 1544.91 L1728.05 1548.85 L1706.1 1548.85 L1706.1 1544.91 Q1708.76 1542.16 1713.35 1537.53 Q1717.95 1532.88 1719.13 1531.53 Q1721.38 1529.01 1722.26 1527.27 Q1723.16 1525.51 1723.16 1523.82 Q1723.16 1521.07 1721.22 1519.33 Q1719.3 1517.6 1716.19 1517.6 Q1714 1517.6 1711.54 1518.36 Q1709.11 1519.13 1706.33 1520.68 L1706.33 1515.95 Q1709.16 1514.82 1711.61 1514.24 Q1714.06 1513.66 1716.1 1513.66 Q1721.47 1513.66 1724.67 1516.35 Q1727.86 1519.03 1727.86 1523.52 Q1727.86 1525.65 1727.05 1527.57 Q1726.26 1529.47 1724.16 1532.07 Q1723.58 1532.74 1720.48 1535.95 Q1717.37 1539.15 1711.73 1544.91 Z" fill="#000000" fill-rule="evenodd" fill-opacity="1" /><path clip-path="url(#clip830)" d="M2227.12 1517.37 Q2223.51 1517.37 2221.68 1520.93 Q2219.87 1524.47 2219.87 1531.6 Q2219.87 1538.71 2221.68 1542.27 Q2223.51 1545.82 2227.12 1545.82 Q2230.75 1545.82 2232.56 1542.27 Q2234.39 1538.71 2234.39 1531.6 Q2234.39 1524.47 2232.56 1520.93 Q2230.75 1517.37 2227.12 1517.37 M2227.12 1513.66 Q2232.93 1513.66 2235.98 1518.27 Q2239.06 1522.85 2239.06 1531.6 Q2239.06 1540.33 2235.98 1544.94 Q2232.93 1549.52 2227.12 1549.52 Q2221.31 1549.52 2218.23 1544.94 Q2215.17 1540.33 2215.17 1531.6 Q2215.17 1522.85 2218.23 1518.27 Q2221.31 1513.66 2227.12 1513.66 Z" fill="#000000" fill-rule="evenodd" fill-opacity="1" /><path clip-path="url(#clip830)" d="M2247.28 1542.97 L2252.16 1542.97 L2252.16 1548.85 L2247.28 1548.85 L2247.28 1542.97 Z" fill="#000000" fill-rule="evenodd" fill-opacity="1" /><path clip-path="url(#clip830)" d="M2272.35 1517.37 Q2268.74 1517.37 2266.91 1520.93 Q2265.1 1524.47 2265.1 1531.6 Q2265.1 1538.71 2266.91 1542.27 Q2268.74 1545.82 2272.35 1545.82 Q2275.98 1545.82 2277.79 1542.27 Q2279.62 1538.71 2279.62 1531.6 Q2279.62 1524.47 2277.79 1520.93 Q2275.98 1517.37 2272.35 1517.37 M2272.35 1513.66 Q2278.16 1513.66 2281.21 1518.27 Q2284.29 1522.85 2284.29 1531.6 Q2284.29 1540.33 2281.21 1544.94 Q2278.16 1549.52 2272.35 1549.52 Q2266.54 1549.52 2263.46 1544.94 Q2260.4 1540.33 2260.4 1531.6 Q2260.4 1522.85 2263.46 1518.27 Q2266.54 1513.66 2272.35 1513.66 Z" fill="#000000" fill-rule="evenodd" fill-opacity="1" /><path clip-path="url(#clip830)" d="M2302.51 1517.37 Q2298.9 1517.37 2297.07 1520.93 Q2295.26 1524.47 2295.26 1531.6 Q2295.26 1538.71 2297.07 1542.27 Q2298.9 1545.82 2302.51 1545.82 Q2306.14 1545.82 2307.95 1542.27 Q2309.78 1538.71 2309.78 1531.6 Q2309.78 1524.47 2307.95 1520.93 Q2306.14 1517.37 2302.51 1517.37 M2302.51 1513.66 Q2308.32 1513.66 2311.38 1518.27 Q2314.45 1522.85 2314.45 1531.6 Q2314.45 1540.33 2311.38 1544.94 Q2308.32 1549.52 2302.51 1549.52 Q2296.7 1549.52 2293.62 1544.94 Q2290.57 1540.33 2290.57 1531.6 Q2290.57 1522.85 2293.62 1518.27 Q2296.7 1513.66 2302.51 1513.66 Z" fill="#000000" fill-rule="evenodd" fill-opacity="1" /><path clip-path="url(#clip830)" d="M2332.67 1517.37 Q2329.06 1517.37 2327.23 1520.93 Q2325.43 1524.47 2325.43 1531.6 Q2325.43 1538.71 2327.23 1542.27 Q2329.06 1545.82 2332.67 1545.82 Q2336.31 1545.82 2338.11 1542.27 Q2339.94 1538.71 2339.94 1531.6 Q2339.94 1524.47 2338.11 1520.93 Q2336.31 1517.37 2332.67 1517.37 M2332.67 1513.66 Q2338.48 1513.66 2341.54 1518.27 Q2344.62 1522.85 2344.62 1531.6 Q2344.62 1540.33 2341.54 1544.94 Q2338.48 1549.52 2332.67 1549.52 Q2326.86 1549.52 2323.78 1544.94 Q2320.73 1540.33 2320.73 1531.6 Q2320.73 1522.85 2323.78 1518.27 Q2326.86 1513.66 2332.67 1513.66 Z" fill="#000000" fill-rule="evenodd" fill-opacity="1" /><path clip-path="url(#clip830)" d="M2367 1530.21 Q2370.36 1530.93 2372.23 1533.2 Q2374.13 1535.47 2374.13 1538.8 Q2374.13 1543.92 2370.61 1546.72 Q2367.09 1549.52 2360.61 1549.52 Q2358.44 1549.52 2356.12 1549.08 Q2353.83 1548.66 2351.38 1547.81 L2351.38 1543.29 Q2353.32 1544.43 2355.63 1545.01 Q2357.95 1545.58 2360.47 1545.58 Q2364.87 1545.58 2367.16 1543.85 Q2369.48 1542.11 2369.48 1538.8 Q2369.48 1535.75 2367.32 1534.03 Q2365.19 1532.3 2361.38 1532.3 L2357.35 1532.3 L2357.35 1528.45 L2361.56 1528.45 Q2365.01 1528.45 2366.84 1527.09 Q2368.67 1525.7 2368.67 1523.11 Q2368.67 1520.45 2366.77 1519.03 Q2364.89 1517.6 2361.38 1517.6 Q2359.45 1517.6 2357.25 1518.01 Q2355.06 1518.43 2352.42 1519.31 L2352.42 1515.14 Q2355.08 1514.4 2357.39 1514.03 Q2359.73 1513.66 2361.79 1513.66 Q2367.12 1513.66 2370.22 1516.09 Q2373.32 1518.5 2373.32 1522.62 Q2373.32 1525.49 2371.68 1527.48 Q2370.03 1529.45 2367 1530.21 Z" fill="#000000" fill-rule="evenodd" fill-opacity="1" /><polyline clip-path="url(#clip832)" style="stroke:#000000; stroke-linecap:butt; stroke-linejoin:round; stroke-width:2; stroke-opacity:0.1; fill:none" points="
  299.718,1486.45 2352.76,1486.45 
  "/>
<polyline clip-path="url(#clip832)" style="stroke:#000000; stroke-linecap:butt; stroke-linejoin:round; stroke-width:2; stroke-opacity:0.1; fill:none" points="
  299.718,1154.15 2352.76,1154.15 
  "/>
<polyline clip-path="url(#clip832)" style="stroke:#000000; stroke-linecap:butt; stroke-linejoin:round; stroke-width:2; stroke-opacity:0.1; fill:none" points="
  299.718,821.848 2352.76,821.848 
  "/>
<polyline clip-path="url(#clip832)" style="stroke:#000000; stroke-linecap:butt; stroke-linejoin:round; stroke-width:2; stroke-opacity:0.1; fill:none" points="
  299.718,489.548 2352.76,489.548 
  "/>
<polyline clip-path="url(#clip832)" style="stroke:#000000; stroke-linecap:butt; stroke-linejoin:round; stroke-width:2; stroke-opacity:0.1; fill:none" points="
  299.718,157.248 2352.76,157.248 
  "/>
<polyline clip-path="url(#clip830)" style="stroke:#000000; stroke-linecap:butt; stroke-linejoin:round; stroke-width:4; stroke-opacity:1; fill:none" points="
  299.718,1486.45 299.718,47.2441 
  "/>
<polyline clip-path="url(#clip830)" style="stroke:#000000; stroke-linecap:butt; stroke-linejoin:round; stroke-width:4; stroke-opacity:1; fill:none" points="
  299.718,1486.45 318.616,1486.45 
  "/>
<polyline clip-path="url(#clip830)" style="stroke:#000000; stroke-linecap:butt; stroke-linejoin:round; stroke-width:4; stroke-opacity:1; fill:none" points="
  299.718,1154.15 318.616,1154.15 
  "/>
<polyline clip-path="url(#clip830)" style="stroke:#000000; stroke-linecap:butt; stroke-linejoin:round; stroke-width:4; stroke-opacity:1; fill:none" points="
  299.718,821.848 318.616,821.848 
  "/>
<polyline clip-path="url(#clip830)" style="stroke:#000000; stroke-linecap:butt; stroke-linejoin:round; stroke-width:4; stroke-opacity:1; fill:none" points="
  299.718,489.548 318.616,489.548 
  "/>
<polyline clip-path="url(#clip830)" style="stroke:#000000; stroke-linecap:butt; stroke-linejoin:round; stroke-width:4; stroke-opacity:1; fill:none" points="
  299.718,157.248 318.616,157.248 
  "/>
<path clip-path="url(#clip830)" d="M251.774 1472.25 Q248.163 1472.25 246.334 1475.81 Q244.528 1479.35 244.528 1486.48 Q244.528 1493.59 246.334 1497.15 Q248.163 1500.7 251.774 1500.7 Q255.408 1500.7 257.214 1497.15 Q259.042 1493.59 259.042 1486.48 Q259.042 1479.35 257.214 1475.81 Q255.408 1472.25 251.774 1472.25 M251.774 1468.54 Q257.584 1468.54 260.639 1473.15 Q263.718 1477.73 263.718 1486.48 Q263.718 1495.21 260.639 1499.82 Q257.584 1504.4 251.774 1504.4 Q245.964 1504.4 242.885 1499.82 Q239.829 1495.21 239.829 1486.48 Q239.829 1477.73 242.885 1473.15 Q245.964 1468.54 251.774 1468.54 Z" fill="#000000" fill-rule="evenodd" fill-opacity="1" /><path clip-path="url(#clip830)" d="M54.5569 1173.94 L62.1958 1173.94 L62.1958 1147.57 L53.8856 1149.24 L53.8856 1144.98 L62.1495 1143.32 L66.8254 1143.32 L66.8254 1173.94 L74.4642 1173.94 L74.4642 1177.88 L54.5569 1177.88 L54.5569 1173.94 Z" fill="#000000" fill-rule="evenodd" fill-opacity="1" /><path clip-path="url(#clip830)" d="M83.9086 1172 L88.7928 1172 L88.7928 1177.88 L83.9086 1177.88 L83.9086 1172 Z" fill="#000000" fill-rule="evenodd" fill-opacity="1" /><path clip-path="url(#clip830)" d="M108.978 1146.39 Q105.367 1146.39 103.538 1149.96 Q101.733 1153.5 101.733 1160.63 Q101.733 1167.74 103.538 1171.3 Q105.367 1174.84 108.978 1174.84 Q112.612 1174.84 114.418 1171.3 Q116.246 1167.74 116.246 1160.63 Q116.246 1153.5 114.418 1149.96 Q112.612 1146.39 108.978 1146.39 M108.978 1142.69 Q114.788 1142.69 117.844 1147.3 Q120.922 1151.88 120.922 1160.63 Q120.922 1169.36 117.844 1173.96 Q114.788 1178.55 108.978 1178.55 Q103.168 1178.55 100.089 1173.96 Q97.0335 1169.36 97.0335 1160.63 Q97.0335 1151.88 100.089 1147.3 Q103.168 1142.69 108.978 1142.69 Z" fill="#000000" fill-rule="evenodd" fill-opacity="1" /><path clip-path="url(#clip830)" d="M157.311 1152.41 L146.732 1163.04 L157.311 1173.62 L154.556 1176.42 L143.931 1165.79 L133.306 1176.42 L130.575 1173.62 L141.131 1163.04 L130.575 1152.41 L133.306 1149.61 L143.931 1160.24 L154.556 1149.61 L157.311 1152.41 Z" fill="#000000" fill-rule="evenodd" fill-opacity="1" /><path clip-path="url(#clip830)" d="M169.672 1173.94 L177.311 1173.94 L177.311 1147.57 L169.001 1149.24 L169.001 1144.98 L177.265 1143.32 L181.94 1143.32 L181.94 1173.94 L189.579 1173.94 L189.579 1177.88 L169.672 1177.88 L169.672 1173.94 Z" fill="#000000" fill-rule="evenodd" fill-opacity="1" /><path clip-path="url(#clip830)" d="M209.024 1146.39 Q205.413 1146.39 203.584 1149.96 Q201.778 1153.5 201.778 1160.63 Q201.778 1167.74 203.584 1171.3 Q205.413 1174.84 209.024 1174.84 Q212.658 1174.84 214.463 1171.3 Q216.292 1167.74 216.292 1160.63 Q216.292 1153.5 214.463 1149.96 Q212.658 1146.39 209.024 1146.39 M209.024 1142.69 Q214.834 1142.69 217.889 1147.3 Q220.968 1151.88 220.968 1160.63 Q220.968 1169.36 217.889 1173.96 Q214.834 1178.55 209.024 1178.55 Q203.214 1178.55 200.135 1173.96 Q197.079 1169.36 197.079 1160.63 Q197.079 1151.88 200.135 1147.3 Q203.214 1142.69 209.024 1142.69 Z" fill="#000000" fill-rule="evenodd" fill-opacity="1" /><path clip-path="url(#clip830)" d="M222.153 1122.39 L237.068 1122.39 L237.068 1125.58 L225.632 1125.58 L225.632 1132.47 Q226.46 1132.18 227.287 1132.05 Q228.115 1131.9 228.943 1131.9 Q233.645 1131.9 236.39 1134.48 Q239.136 1137.06 239.136 1141.46 Q239.136 1145.99 236.315 1148.51 Q233.494 1151.01 228.36 1151.01 Q226.592 1151.01 224.748 1150.71 Q222.924 1150.41 220.968 1149.81 L220.968 1145.99 Q222.661 1146.91 224.466 1147.36 Q226.272 1147.81 228.284 1147.81 Q231.538 1147.81 233.438 1146.1 Q235.337 1144.39 235.337 1141.46 Q235.337 1138.52 233.438 1136.81 Q231.538 1135.1 228.284 1135.1 Q226.761 1135.1 225.237 1135.44 Q223.733 1135.78 222.153 1136.49 L222.153 1122.39 Z" fill="#000000" fill-rule="evenodd" fill-opacity="1" /><path clip-path="url(#clip830)" d="M245.663 1122.39 L263.718 1122.39 L263.718 1124 L253.524 1150.47 L249.556 1150.47 L259.148 1125.58 L245.663 1125.58 L245.663 1122.39 Z" fill="#000000" fill-rule="evenodd" fill-opacity="1" /><path clip-path="url(#clip830)" d="M57.7745 841.641 L74.0939 841.641 L74.0939 845.576 L52.1495 845.576 L52.1495 841.641 Q54.8115 838.886 59.3949 834.256 Q64.0013 829.604 65.1819 828.261 Q67.4272 825.738 68.3068 824.002 Q69.2096 822.242 69.2096 820.553 Q69.2096 817.798 67.2652 816.062 Q65.3439 814.326 62.2421 814.326 Q60.043 814.326 57.5893 815.09 Q55.1588 815.854 52.381 817.405 L52.381 812.682 Q55.2051 811.548 57.6588 810.969 Q60.1124 810.391 62.1495 810.391 Q67.5198 810.391 70.7142 813.076 Q73.9087 815.761 73.9087 820.252 Q73.9087 822.381 73.0985 824.303 Q72.3115 826.201 70.205 828.793 Q69.6263 829.465 66.5245 832.682 Q63.4226 835.877 57.7745 841.641 Z" fill="#000000" fill-rule="evenodd" fill-opacity="1" /><path clip-path="url(#clip830)" d="M83.9086 839.696 L88.7928 839.696 L88.7928 845.576 L83.9086 845.576 L83.9086 839.696 Z" fill="#000000" fill-rule="evenodd" fill-opacity="1" /><path clip-path="url(#clip830)" d="M108.978 814.094 Q105.367 814.094 103.538 817.659 Q101.733 821.201 101.733 828.33 Q101.733 835.437 103.538 839.002 Q105.367 842.543 108.978 842.543 Q112.612 842.543 114.418 839.002 Q116.246 835.437 116.246 828.33 Q116.246 821.201 114.418 817.659 Q112.612 814.094 108.978 814.094 M108.978 810.391 Q114.788 810.391 117.844 814.997 Q120.922 819.58 120.922 828.33 Q120.922 837.057 117.844 841.664 Q114.788 846.247 108.978 846.247 Q103.168 846.247 100.089 841.664 Q97.0335 837.057 97.0335 828.33 Q97.0335 819.58 100.089 814.997 Q103.168 810.391 108.978 810.391 Z" fill="#000000" fill-rule="evenodd" fill-opacity="1" /><path clip-path="url(#clip830)" d="M157.311 820.113 L146.732 830.738 L157.311 841.316 L154.556 844.117 L143.931 833.492 L133.306 844.117 L130.575 841.316 L141.131 830.738 L130.575 820.113 L133.306 817.312 L143.931 827.937 L154.556 817.312 L157.311 820.113 Z" fill="#000000" fill-rule="evenodd" fill-opacity="1" /><path clip-path="url(#clip830)" d="M169.672 841.641 L177.311 841.641 L177.311 815.275 L169.001 816.942 L169.001 812.682 L177.265 811.016 L181.94 811.016 L181.94 841.641 L189.579 841.641 L189.579 845.576 L169.672 845.576 L169.672 841.641 Z" fill="#000000" fill-rule="evenodd" fill-opacity="1" /><path clip-path="url(#clip830)" d="M209.024 814.094 Q205.413 814.094 203.584 817.659 Q201.778 821.201 201.778 828.33 Q201.778 835.437 203.584 839.002 Q205.413 842.543 209.024 842.543 Q212.658 842.543 214.463 839.002 Q216.292 835.437 216.292 828.33 Q216.292 821.201 214.463 817.659 Q212.658 814.094 209.024 814.094 M209.024 810.391 Q214.834 810.391 217.889 814.997 Q220.968 819.58 220.968 828.33 Q220.968 837.057 217.889 841.664 Q214.834 846.247 209.024 846.247 Q203.214 846.247 200.135 841.664 Q197.079 837.057 197.079 828.33 Q197.079 819.58 200.135 814.997 Q203.214 810.391 209.024 810.391 Z" fill="#000000" fill-rule="evenodd" fill-opacity="1" /><path clip-path="url(#clip830)" d="M222.153 790.085 L237.068 790.085 L237.068 793.283 L225.632 793.283 L225.632 800.166 Q226.46 799.884 227.287 799.752 Q228.115 799.602 228.943 799.602 Q233.645 799.602 236.39 802.179 Q239.136 804.755 239.136 809.156 Q239.136 813.689 236.315 816.209 Q233.494 818.711 228.36 818.711 Q226.592 818.711 224.748 818.41 Q222.924 818.109 220.968 817.507 L220.968 813.689 Q222.661 814.611 224.466 815.062 Q226.272 815.513 228.284 815.513 Q231.538 815.513 233.438 813.802 Q235.337 812.09 235.337 809.156 Q235.337 806.222 233.438 804.511 Q231.538 802.799 228.284 802.799 Q226.761 802.799 225.237 803.138 Q223.733 803.476 222.153 804.191 L222.153 790.085 Z" fill="#000000" fill-rule="evenodd" fill-opacity="1" /><path clip-path="url(#clip830)" d="M245.663 790.085 L263.718 790.085 L263.718 791.703 L253.524 818.165 L249.556 818.165 L259.148 793.283 L245.663 793.283 L245.663 790.085 Z" fill="#000000" fill-rule="evenodd" fill-opacity="1" /><path clip-path="url(#clip830)" d="M67.9133 494.642 Q71.2698 495.359 73.1448 497.628 Q75.0429 499.896 75.0429 503.23 Q75.0429 508.345 71.5244 511.146 Q68.0059 513.947 61.5245 513.947 Q59.3486 513.947 57.0338 513.507 Q54.7421 513.091 52.2884 512.234 L52.2884 507.72 Q54.2328 508.855 56.5477 509.433 Q58.8625 510.012 61.3856 510.012 Q65.7837 510.012 68.0754 508.276 Q70.3902 506.54 70.3902 503.23 Q70.3902 500.174 68.2374 498.461 Q66.1078 496.725 62.2884 496.725 L58.2606 496.725 L58.2606 492.882 L62.4735 492.882 Q65.9226 492.882 67.7513 491.517 Q69.58 490.128 69.58 487.535 Q69.58 484.873 67.6819 483.461 Q65.8069 482.026 62.2884 482.026 Q60.3671 482.026 58.168 482.443 Q55.969 482.859 53.3301 483.739 L53.3301 479.572 Q55.9921 478.832 58.3069 478.461 Q60.6449 478.091 62.705 478.091 Q68.0291 478.091 71.1309 480.521 Q74.2327 482.929 74.2327 487.049 Q74.2327 489.919 72.5892 491.91 Q70.9457 493.878 67.9133 494.642 Z" fill="#000000" fill-rule="evenodd" fill-opacity="1" /><path clip-path="url(#clip830)" d="M83.9086 507.396 L88.7928 507.396 L88.7928 513.276 L83.9086 513.276 L83.9086 507.396 Z" fill="#000000" fill-rule="evenodd" fill-opacity="1" /><path clip-path="url(#clip830)" d="M108.978 481.794 Q105.367 481.794 103.538 485.359 Q101.733 488.901 101.733 496.031 Q101.733 503.137 103.538 506.702 Q105.367 510.243 108.978 510.243 Q112.612 510.243 114.418 506.702 Q116.246 503.137 116.246 496.031 Q116.246 488.901 114.418 485.359 Q112.612 481.794 108.978 481.794 M108.978 478.091 Q114.788 478.091 117.844 482.697 Q120.922 487.281 120.922 496.031 Q120.922 504.757 117.844 509.364 Q114.788 513.947 108.978 513.947 Q103.168 513.947 100.089 509.364 Q97.0335 504.757 97.0335 496.031 Q97.0335 487.281 100.089 482.697 Q103.168 478.091 108.978 478.091 Z" fill="#000000" fill-rule="evenodd" fill-opacity="1" /><path clip-path="url(#clip830)" d="M157.311 487.813 L146.732 498.438 L157.311 509.017 L154.556 511.817 L143.931 501.193 L133.306 511.817 L130.575 509.017 L141.131 498.438 L130.575 487.813 L133.306 485.012 L143.931 495.637 L154.556 485.012 L157.311 487.813 Z" fill="#000000" fill-rule="evenodd" fill-opacity="1" /><path clip-path="url(#clip830)" d="M169.672 509.341 L177.311 509.341 L177.311 482.975 L169.001 484.642 L169.001 480.382 L177.265 478.716 L181.94 478.716 L181.94 509.341 L189.579 509.341 L189.579 513.276 L169.672 513.276 L169.672 509.341 Z" fill="#000000" fill-rule="evenodd" fill-opacity="1" /><path clip-path="url(#clip830)" d="M209.024 481.794 Q205.413 481.794 203.584 485.359 Q201.778 488.901 201.778 496.031 Q201.778 503.137 203.584 506.702 Q205.413 510.243 209.024 510.243 Q212.658 510.243 214.463 506.702 Q216.292 503.137 216.292 496.031 Q216.292 488.901 214.463 485.359 Q212.658 481.794 209.024 481.794 M209.024 478.091 Q214.834 478.091 217.889 482.697 Q220.968 487.281 220.968 496.031 Q220.968 504.757 217.889 509.364 Q214.834 513.947 209.024 513.947 Q203.214 513.947 200.135 509.364 Q197.079 504.757 197.079 496.031 Q197.079 487.281 200.135 482.697 Q203.214 478.091 209.024 478.091 Z" fill="#000000" fill-rule="evenodd" fill-opacity="1" /><path clip-path="url(#clip830)" d="M222.153 457.785 L237.068 457.785 L237.068 460.983 L225.632 460.983 L225.632 467.866 Q226.46 467.584 227.287 467.453 Q228.115 467.302 228.943 467.302 Q233.645 467.302 236.39 469.879 Q239.136 472.455 239.136 476.856 Q239.136 481.389 236.315 483.909 Q233.494 486.411 228.36 486.411 Q226.592 486.411 224.748 486.11 Q222.924 485.809 220.968 485.207 L220.968 481.389 Q222.661 482.311 224.466 482.762 Q226.272 483.214 228.284 483.214 Q231.538 483.214 233.438 481.502 Q235.337 479.79 235.337 476.856 Q235.337 473.922 233.438 472.211 Q231.538 470.499 228.284 470.499 Q226.761 470.499 225.237 470.838 Q223.733 471.177 222.153 471.891 L222.153 457.785 Z" fill="#000000" fill-rule="evenodd" fill-opacity="1" /><path clip-path="url(#clip830)" d="M245.663 457.785 L263.718 457.785 L263.718 459.403 L253.524 485.865 L249.556 485.865 L259.148 460.983 L245.663 460.983 L245.663 457.785 Z" fill="#000000" fill-rule="evenodd" fill-opacity="1" /><path clip-path="url(#clip830)" d="M66.5939 150.49 L54.7884 168.939 L66.5939 168.939 L66.5939 150.49 M65.367 146.416 L71.2466 146.416 L71.2466 168.939 L76.1772 168.939 L76.1772 172.828 L71.2466 172.828 L71.2466 180.976 L66.5939 180.976 L66.5939 172.828 L50.9921 172.828 L50.9921 168.314 L65.367 146.416 Z" fill="#000000" fill-rule="evenodd" fill-opacity="1" /><path clip-path="url(#clip830)" d="M83.9086 175.096 L88.7928 175.096 L88.7928 180.976 L83.9086 180.976 L83.9086 175.096 Z" fill="#000000" fill-rule="evenodd" fill-opacity="1" /><path clip-path="url(#clip830)" d="M108.978 149.495 Q105.367 149.495 103.538 153.059 Q101.733 156.601 101.733 163.731 Q101.733 170.837 103.538 174.402 Q105.367 177.944 108.978 177.944 Q112.612 177.944 114.418 174.402 Q116.246 170.837 116.246 163.731 Q116.246 156.601 114.418 153.059 Q112.612 149.495 108.978 149.495 M108.978 145.791 Q114.788 145.791 117.844 150.397 Q120.922 154.981 120.922 163.731 Q120.922 172.457 117.844 177.064 Q114.788 181.647 108.978 181.647 Q103.168 181.647 100.089 177.064 Q97.0335 172.457 97.0335 163.731 Q97.0335 154.981 100.089 150.397 Q103.168 145.791 108.978 145.791 Z" fill="#000000" fill-rule="evenodd" fill-opacity="1" /><path clip-path="url(#clip830)" d="M157.311 155.513 L146.732 166.138 L157.311 176.717 L154.556 179.518 L143.931 168.893 L133.306 179.518 L130.575 176.717 L141.131 166.138 L130.575 155.513 L133.306 152.712 L143.931 163.337 L154.556 152.712 L157.311 155.513 Z" fill="#000000" fill-rule="evenodd" fill-opacity="1" /><path clip-path="url(#clip830)" d="M169.672 177.041 L177.311 177.041 L177.311 150.675 L169.001 152.342 L169.001 148.083 L177.265 146.416 L181.94 146.416 L181.94 177.041 L189.579 177.041 L189.579 180.976 L169.672 180.976 L169.672 177.041 Z" fill="#000000" fill-rule="evenodd" fill-opacity="1" /><path clip-path="url(#clip830)" d="M209.024 149.495 Q205.413 149.495 203.584 153.059 Q201.778 156.601 201.778 163.731 Q201.778 170.837 203.584 174.402 Q205.413 177.944 209.024 177.944 Q212.658 177.944 214.463 174.402 Q216.292 170.837 216.292 163.731 Q216.292 156.601 214.463 153.059 Q212.658 149.495 209.024 149.495 M209.024 145.791 Q214.834 145.791 217.889 150.397 Q220.968 154.981 220.968 163.731 Q220.968 172.457 217.889 177.064 Q214.834 181.647 209.024 181.647 Q203.214 181.647 200.135 177.064 Q197.079 172.457 197.079 163.731 Q197.079 154.981 200.135 150.397 Q203.214 145.791 209.024 145.791 Z" fill="#000000" fill-rule="evenodd" fill-opacity="1" /><path clip-path="url(#clip830)" d="M222.153 125.486 L237.068 125.486 L237.068 128.683 L225.632 128.683 L225.632 135.566 Q226.46 135.284 227.287 135.153 Q228.115 135.002 228.943 135.002 Q233.645 135.002 236.39 137.579 Q239.136 140.156 239.136 144.557 Q239.136 149.089 236.315 151.61 Q233.494 154.111 228.36 154.111 Q226.592 154.111 224.748 153.81 Q222.924 153.509 220.968 152.907 L220.968 149.089 Q222.661 150.011 224.466 150.462 Q226.272 150.914 228.284 150.914 Q231.538 150.914 233.438 149.202 Q235.337 147.491 235.337 144.557 Q235.337 141.623 233.438 139.911 Q231.538 138.2 228.284 138.2 Q226.761 138.2 225.237 138.538 Q223.733 138.877 222.153 139.591 L222.153 125.486 Z" fill="#000000" fill-rule="evenodd" fill-opacity="1" /><path clip-path="url(#clip830)" d="M245.663 125.486 L263.718 125.486 L263.718 127.103 L253.524 153.566 L249.556 153.566 L259.148 128.683 L245.663 128.683 L245.663 125.486 Z" fill="#000000" fill-rule="evenodd" fill-opacity="1" /><polyline clip-path="url(#clip832)" style="stroke:#009af9; stroke-linecap:butt; stroke-linejoin:round; stroke-width:4; stroke-opacity:1; fill:none" points="
  357.823,905.882 359.762,905.882 361.701,905.882 363.639,905.882 365.578,905.882 367.517,905.882 369.456,905.882 371.394,905.882 373.333,905.882 375.272,905.882 
  377.211,905.882 379.149,905.882 381.088,905.882 383.027,905.882 384.966,905.882 386.904,905.882 388.843,905.882 390.782,905.882 392.721,905.882 394.66,905.882 
  396.598,905.882 398.537,905.882 400.476,905.882 402.415,905.882 404.353,905.882 406.292,905.882 408.231,905.882 410.17,905.882 412.108,905.882 414.047,905.882 
  415.986,905.882 417.925,905.882 419.864,905.882 421.802,905.882 423.741,905.882 425.68,905.882 427.619,905.882 429.557,905.882 431.496,905.882 433.435,905.882 
  435.374,905.882 437.312,905.882 439.251,905.882 441.19,905.882 443.129,905.882 445.067,905.882 447.006,905.882 448.945,905.882 450.884,905.882 452.823,905.882 
  454.761,905.882 456.7,905.882 458.639,905.882 460.578,905.882 462.516,905.882 464.455,905.882 466.394,905.882 468.333,905.882 470.271,905.882 472.21,905.882 
  474.149,905.882 476.088,905.882 478.027,905.882 479.965,905.882 481.904,905.882 483.843,905.882 485.782,905.882 487.72,905.882 489.659,905.882 491.598,905.882 
  493.537,905.882 495.475,905.882 497.414,905.882 499.353,905.882 501.292,905.882 503.23,905.882 505.169,905.882 507.108,905.882 509.047,905.882 510.986,905.882 
  512.924,905.882 514.863,905.882 516.802,905.882 518.741,905.882 520.679,905.882 522.618,905.882 524.557,905.882 526.496,905.882 528.434,905.882 530.373,905.882 
  532.312,905.882 534.251,905.882 536.19,905.882 538.128,905.882 540.067,905.882 542.006,905.882 543.945,905.882 545.883,905.882 547.822,905.882 549.761,905.882 
  551.7,905.882 553.638,905.882 555.577,905.882 557.516,905.882 559.455,905.882 561.393,905.882 563.332,905.882 565.271,905.882 567.21,905.882 569.149,905.882 
  571.087,905.882 573.026,905.882 574.965,905.882 576.904,905.882 578.842,905.882 580.781,905.882 582.72,905.882 584.659,905.882 586.597,905.882 588.536,905.882 
  590.475,905.882 592.414,905.882 594.353,905.882 596.291,905.882 598.23,905.882 600.169,905.882 602.108,905.882 604.046,905.882 605.985,905.882 607.924,905.882 
  609.863,905.882 611.801,905.882 613.74,905.882 615.679,905.882 617.618,905.882 619.556,905.882 621.495,905.882 623.434,905.882 625.373,905.882 627.312,905.882 
  629.25,905.882 631.189,905.882 633.128,905.882 635.067,905.882 637.005,905.882 638.944,905.882 640.883,905.882 642.822,905.882 644.76,905.882 646.699,905.882 
  648.638,905.882 650.577,905.882 652.516,905.882 654.454,905.882 656.393,905.882 658.332,905.882 660.271,905.882 662.209,905.882 664.148,905.882 666.087,905.882 
  668.026,905.882 669.964,905.882 671.903,905.882 673.842,905.882 675.781,905.882 677.72,905.882 679.658,905.882 681.597,905.882 683.536,905.882 685.475,905.882 
  687.413,905.882 689.352,905.882 691.291,905.882 693.23,905.882 695.168,905.882 697.107,905.882 699.046,905.882 700.985,905.882 702.923,905.882 704.862,905.882 
  706.801,905.882 708.74,905.882 710.679,905.882 712.617,905.882 714.556,905.882 716.495,905.882 718.434,905.882 720.372,905.882 722.311,905.882 724.25,905.882 
  726.189,905.882 728.127,905.882 730.066,905.882 732.005,905.882 733.944,905.882 735.883,905.882 737.821,905.882 739.76,905.882 741.699,905.882 743.638,905.882 
  745.576,905.882 747.515,905.882 749.454,905.882 751.393,905.882 753.331,905.882 755.27,905.882 757.209,905.882 759.148,905.882 761.086,905.882 763.025,905.882 
  764.964,905.882 766.903,905.882 768.842,905.882 770.78,905.882 772.719,905.882 774.658,905.882 776.597,905.882 778.535,905.882 780.474,905.882 782.413,905.882 
  784.352,905.882 786.29,905.882 788.229,905.882 790.168,905.882 792.107,905.882 794.046,905.882 795.984,905.882 797.923,905.882 799.862,905.882 801.801,905.882 
  803.739,905.882 805.678,905.882 807.617,905.882 809.556,905.882 811.494,905.882 813.433,905.882 815.372,905.882 817.311,905.882 819.249,905.882 821.188,905.882 
  823.127,905.882 825.066,905.882 827.005,905.882 828.943,905.882 830.882,905.882 832.821,905.882 834.76,905.882 836.698,905.882 838.637,905.882 840.576,905.882 
  842.515,905.882 844.453,905.882 846.392,905.882 848.331,905.882 850.27,905.882 852.209,905.882 854.147,905.882 856.086,905.882 858.025,905.882 859.964,905.882 
  861.902,905.882 863.841,905.882 865.78,905.882 867.719,905.882 869.657,905.882 871.596,905.882 873.535,905.882 875.474,905.882 877.412,905.882 879.351,905.882 
  881.29,905.882 883.229,905.882 885.168,905.882 887.106,905.882 889.045,905.882 890.984,905.882 892.923,905.882 894.861,905.882 896.8,905.882 898.739,905.882 
  900.678,905.882 902.616,905.882 904.555,905.882 906.494,905.882 908.433,905.882 910.372,905.882 912.31,905.882 914.249,905.882 916.188,905.882 918.127,905.882 
  920.065,905.882 922.004,905.882 923.943,905.882 925.882,905.882 927.82,905.882 929.759,905.882 931.698,905.882 933.637,905.882 935.575,905.882 937.514,905.882 
  939.453,905.882 941.392,905.882 943.331,905.882 945.269,905.882 947.208,905.882 949.147,905.882 951.086,905.882 953.024,905.882 954.963,905.882 956.902,905.882 
  958.841,905.882 960.779,905.882 962.718,905.882 964.657,905.882 966.596,905.882 968.535,905.882 970.473,905.882 972.412,905.882 974.351,905.882 976.29,905.882 
  978.228,905.882 980.167,905.882 982.106,905.882 984.045,905.882 985.983,905.882 987.922,905.882 989.861,905.882 991.8,905.882 993.739,905.882 995.677,905.882 
  997.616,905.882 999.555,905.882 1001.49,905.882 1003.43,905.882 1005.37,905.882 1007.31,905.882 1009.25,905.882 1011.19,905.882 1013.13,905.882 1015.06,905.882 
  1017,905.882 1018.94,905.882 1020.88,905.882 1022.82,905.882 1024.76,905.882 1026.7,905.882 1028.64,905.882 1030.58,905.882 1032.51,905.882 1034.45,905.882 
  1036.39,905.881 1038.33,905.88 1040.27,905.877 1042.21,905.873 1044.15,905.868 1046.09,905.858 1048.02,905.845 1049.96,905.827 1051.9,905.801 1053.84,905.766 
  1055.78,905.72 1057.72,905.66 1059.66,905.585 1061.6,905.49 1063.53,905.372 1065.47,905.229 1067.41,905.057 1069.35,904.851 1071.29,904.608 1073.23,904.324 
  1075.17,903.995 1077.11,903.617 1079.04,903.184 1080.98,902.694 1082.92,902.142 1084.86,901.522 1086.8,900.833 1088.74,900.068 1090.68,899.224 1092.62,898.297 
  1094.55,897.284 1096.49,896.179 1098.43,894.981 1100.37,893.684 1102.31,892.286 1104.25,890.783 1106.19,889.173 1108.13,887.452 1110.06,885.617 1112,883.665 
  1113.94,881.595 1115.88,879.403 1117.82,877.088 1119.76,874.647 1121.7,872.078 1123.64,869.379 1125.57,866.549 1127.51,863.586 1129.45,860.488 1131.39,857.254 
  1133.33,853.882 1135.27,850.372 1137.21,846.723 1139.15,842.932 1141.08,838.988 1143.02,834.879 1144.96,830.603 1146.9,826.156 1148.84,821.535 1150.78,816.737 
  1152.72,811.759 1154.66,806.596 1156.59,801.247 1158.53,795.706 1160.47,789.971 1162.41,784.039 1164.35,777.904 1166.29,771.564 1168.23,765.015 1170.17,758.252 
  1172.11,751.272 1174.04,744.07 1175.98,736.643 1177.92,728.985 1179.86,721.092 1181.8,712.961 1183.74,704.585 1185.68,695.96 1187.62,687.082 1189.55,677.945 
  1191.49,668.543 1193.43,658.872 1195.37,648.926 1197.31,638.699 1199.25,628.186 1201.19,617.38 1203.13,606.276 1205.06,594.866 1207,583.145 1208.94,571.106 
  1210.88,558.742 1212.82,546.046 1214.76,533.011 1216.7,519.629 1218.64,505.892 1220.57,491.794 1222.51,477.325 1224.45,462.478 1226.39,447.245 1228.33,431.615 
  1230.27,415.582 1232.21,399.134 1234.15,382.263 1236.08,364.668 1238.02,346.657 1239.96,328.852 1241.9,311.291 1243.84,294.012 1245.78,277.053 1247.72,260.455 
  1249.66,244.259 1251.59,228.505 1253.53,213.235 1255.47,198.49 1257.41,184.309 1259.35,170.733 1261.29,157.798 1263.23,145.539 1265.17,133.989 1267.1,123.178 
  1269.04,113.128 1270.98,103.861 1272.92,95.3743 1274.86,87.6267 1276.8,80.6015 1278.74,74.3196 1280.68,68.7901 1282.61,64.0088 1284.55,59.9577 1286.49,56.6045 
  1288.43,53.9031 1290.37,51.7946 1292.31,50.2093 1294.25,49.0695 1296.19,48.293 1298.12,47.7979 1300.06,47.5071 1302,47.3533 1303.94,47.2821 1305.88,47.2546 
  1307.82,47.2462 1309.76,47.2444 1311.7,47.2441 1313.64,47.2441 1315.57,47.2441 1317.51,47.2441 1319.45,47.2441 1321.39,47.2441 1323.33,47.2441 1325.27,47.2441 
  1327.21,47.2441 1329.15,47.2441 1331.08,47.2441 1333.02,47.2441 1334.96,47.2441 1336.9,47.2441 1338.84,47.2441 1340.78,47.2441 1342.72,47.2441 1344.66,47.2441 
  1346.59,47.2441 1348.53,47.2441 1350.47,47.2441 1352.41,47.2441 1354.35,47.2441 1356.29,47.2441 1358.23,47.2441 1360.17,47.2441 1362.1,47.2441 1364.04,47.2441 
  1365.98,47.2441 1367.92,47.2441 1369.86,47.2441 1371.8,47.2441 1373.74,47.2441 1375.68,47.2441 1377.61,47.2441 1379.55,47.2441 1381.49,47.2441 1383.43,47.2441 
  1385.37,47.2441 1387.31,47.2441 1389.25,47.2441 1391.19,47.2441 1393.12,47.2441 1395.06,47.2441 1397,47.2441 1398.94,47.2441 1400.88,47.2441 1402.82,47.2441 
  1404.76,47.2441 1406.7,47.2441 1408.63,47.2441 1410.57,47.2441 1412.51,47.2441 1414.45,47.2441 1416.39,47.2441 1418.33,47.2441 1420.27,47.2441 1422.21,47.2441 
  1424.14,47.2441 1426.08,47.2441 1428.02,47.2441 1429.96,47.2441 1431.9,47.2441 1433.84,47.2441 1435.78,47.2441 1437.72,47.2441 1439.65,47.2441 1441.59,47.2441 
  1443.53,47.2441 1445.47,47.2441 1447.41,47.2441 1449.35,47.2441 1451.29,47.2441 1453.23,47.2441 1455.17,47.2441 1457.1,47.2441 1459.04,47.2441 1460.98,47.2441 
  1462.92,47.2441 1464.86,47.2441 1466.8,47.2441 1468.74,47.2441 1470.68,47.2441 1472.61,47.2441 1474.55,47.2441 1476.49,47.2441 1478.43,47.2441 1480.37,47.2441 
  1482.31,47.2441 1484.25,47.2441 1486.19,47.2441 1488.12,47.2441 1490.06,47.2441 1492,47.2441 1493.94,47.2441 1495.88,47.2441 1497.82,47.2441 1499.76,47.2441 
  1501.7,47.2441 1503.63,47.2441 1505.57,47.2441 1507.51,47.2441 1509.45,47.2441 1511.39,47.2441 1513.33,47.2441 1515.27,47.2441 1517.21,47.2441 1519.14,47.2441 
  1521.08,47.2441 1523.02,47.2441 1524.96,47.2441 1526.9,47.2441 1528.84,47.2441 1530.78,47.2441 1532.72,47.2441 1534.65,47.2441 1536.59,47.2441 1538.53,47.2441 
  1540.47,47.2441 1542.41,47.2441 1544.35,47.2441 1546.29,47.2441 1548.23,47.2441 1550.16,47.2441 1552.1,47.2441 1554.04,47.2441 1555.98,47.2441 1557.92,47.2441 
  1559.86,47.2441 1561.8,47.2441 1563.74,47.2441 1565.67,47.2441 1567.61,47.2441 1569.55,47.2441 1571.49,47.2441 1573.43,47.2441 1575.37,47.2441 1577.31,47.2441 
  1579.25,47.2441 1581.18,47.2441 1583.12,47.2441 1585.06,47.2441 1587,47.2441 1588.94,47.2441 1590.88,47.2441 1592.82,47.2441 1594.76,47.2441 1596.69,47.2441 
  1598.63,47.2441 1600.57,47.2441 1602.51,47.2441 1604.45,47.2441 1606.39,47.2441 1608.33,47.2441 1610.27,47.2441 1612.21,47.2441 1614.14,47.2441 1616.08,47.2441 
  1618.02,47.2441 1619.96,47.2441 1621.9,47.2441 1623.84,47.2441 1625.78,47.2441 1627.72,47.2441 1629.65,47.2441 1631.59,47.2441 1633.53,47.2441 1635.47,47.2441 
  1637.41,47.2441 1639.35,47.2441 1641.29,47.2441 1643.23,47.2441 1645.16,47.2441 1647.1,47.2441 1649.04,47.2441 1650.98,47.2441 1652.92,47.2441 1654.86,47.2441 
  1656.8,47.2441 1658.74,47.2441 1660.67,47.2441 1662.61,47.2441 1664.55,47.2441 1666.49,47.2441 1668.43,47.2441 1670.37,47.2441 1672.31,47.2441 1674.25,47.2441 
  1676.18,47.2441 1678.12,47.2441 1680.06,47.2441 1682,47.2441 1683.94,47.2441 1685.88,47.2441 1687.82,47.2441 1689.76,47.2441 1691.69,47.2441 1693.63,47.2441 
  1695.57,47.2441 1697.51,47.2441 1699.45,47.2441 1701.39,47.2441 1703.33,47.2441 1705.27,47.2441 1707.2,47.2441 1709.14,47.2441 1711.08,47.2441 1713.02,47.2441 
  1714.96,47.2441 1716.9,47.2441 1718.84,47.2441 1720.78,47.2441 1722.71,47.2441 1724.65,47.2441 1726.59,47.2441 1728.53,47.2441 1730.47,47.2441 1732.41,47.2441 
  1734.35,47.2441 1736.29,47.2441 1738.22,47.2441 1740.16,47.2441 1742.1,47.2441 1744.04,47.2441 1745.98,47.2441 1747.92,47.2441 1749.86,47.2441 1751.8,47.2441 
  1753.74,47.2441 1755.67,47.2441 1757.61,47.2441 1759.55,47.2441 1761.49,47.2441 1763.43,47.2441 1765.37,47.2441 1767.31,47.2441 1769.25,47.2441 1771.18,47.2441 
  1773.12,47.2441 1775.06,47.2441 1777,47.2441 1778.94,47.2441 1780.88,47.2441 1782.82,47.2441 1784.76,47.2441 1786.69,47.2441 1788.63,47.2441 1790.57,47.2441 
  1792.51,47.2441 1794.45,47.2441 1796.39,47.2441 1798.33,47.2441 1800.27,47.2441 1802.2,47.2441 1804.14,47.2441 1806.08,47.2441 1808.02,47.2441 1809.96,47.2441 
  1811.9,47.2441 1813.84,47.2441 1815.78,47.2441 1817.71,47.2441 1819.65,47.2441 1821.59,47.2441 1823.53,47.2441 1825.47,47.2441 1827.41,47.2441 1829.35,47.2441 
  1831.29,47.2441 1833.22,47.2441 1835.16,47.2441 1837.1,47.2441 1839.04,47.2441 1840.98,47.2441 1842.92,47.2441 1844.86,47.2441 1846.8,47.2441 1848.73,47.2441 
  1850.67,47.2441 1852.61,47.2441 1854.55,47.2441 1856.49,47.2441 1858.43,47.2441 1860.37,47.2441 1862.31,47.2441 1864.24,47.2441 1866.18,47.2441 1868.12,47.2441 
  1870.06,47.2441 1872,47.2441 1873.94,47.2441 1875.88,47.2441 1877.82,47.2441 1879.75,47.2441 1881.69,47.2441 1883.63,47.2441 1885.57,47.2441 1887.51,47.2441 
  1889.45,47.2441 1891.39,47.2441 1893.33,47.2441 1895.27,47.2441 1897.2,47.2441 1899.14,47.2441 1901.08,47.2441 1903.02,47.2441 1904.96,47.2441 1906.9,47.2441 
  1908.84,47.2441 1910.78,47.2441 1912.71,47.2441 1914.65,47.2441 1916.59,47.2441 1918.53,47.2441 1920.47,47.2441 1922.41,47.2441 1924.35,47.2441 1926.29,47.2441 
  1928.22,47.2441 1930.16,47.2441 1932.1,47.2441 1934.04,47.2441 1935.98,47.2441 1937.92,47.2441 1939.86,47.2441 1941.8,47.2441 1943.73,47.2441 1945.67,47.2441 
  1947.61,47.2441 1949.55,47.2441 1951.49,47.2441 1953.43,47.2441 1955.37,47.2441 1957.31,47.2441 1959.24,47.2441 1961.18,47.2441 1963.12,47.2441 1965.06,47.2441 
  1967,47.2441 1968.94,47.2441 1970.88,47.2441 1972.82,47.2441 1974.75,47.2441 1976.69,47.2441 1978.63,47.2441 1980.57,47.2441 1982.51,47.2441 1984.45,47.2441 
  1986.39,47.2441 1988.33,47.2441 1990.26,47.2441 1992.2,47.2441 1994.14,47.2441 1996.08,47.2441 1998.02,47.2441 1999.96,47.2441 2001.9,47.2441 2003.84,47.2441 
  2005.77,47.2441 2007.71,47.2441 2009.65,47.2441 2011.59,47.2441 2013.53,47.2441 2015.47,47.2441 2017.41,47.2441 2019.35,47.2441 2021.28,47.2441 2023.22,47.2441 
  2025.16,47.2441 2027.1,47.2441 2029.04,47.2441 2030.98,47.2441 2032.92,47.2441 2034.86,47.2441 2036.8,47.2441 2038.73,47.2441 2040.67,47.2441 2042.61,47.2441 
  2044.55,47.2441 2046.49,47.2441 2048.43,47.2441 2050.37,47.2441 2052.31,47.2441 2054.24,47.2441 2056.18,47.2441 2058.12,47.2441 2060.06,47.2441 2062,47.2441 
  2063.94,47.2441 2065.88,47.2441 2067.82,47.2441 2069.75,47.2441 2071.69,47.2441 2073.63,47.2441 2075.57,47.2441 2077.51,47.2441 2079.45,47.2441 2081.39,47.2441 
  2083.33,47.2441 2085.26,47.2441 2087.2,47.2441 2089.14,47.2441 2091.08,47.2441 2093.02,47.2441 2094.96,47.2441 2096.9,47.2441 2098.84,47.2441 2100.77,47.2441 
  2102.71,47.2441 2104.65,47.2441 2106.59,47.2441 2108.53,47.2441 2110.47,47.2441 2112.41,47.2441 2114.35,47.2441 2116.28,47.2441 2118.22,47.2441 2120.16,47.2441 
  2122.1,47.2441 2124.04,47.2441 2125.98,47.2441 2127.92,47.2441 2129.86,47.2441 2131.79,47.2441 2133.73,47.2441 2135.67,47.2441 2137.61,47.2441 2139.55,47.2441 
  2141.49,47.2441 2143.43,47.2441 2145.37,47.2441 2147.3,47.2441 2149.24,47.2441 2151.18,47.2441 2153.12,47.2441 2155.06,47.2441 2157,47.2441 2158.94,47.2441 
  2160.88,47.2441 2162.81,47.2441 2164.75,47.2441 2166.69,47.2441 2168.63,47.2441 2170.57,47.2441 2172.51,47.2441 2174.45,47.2441 2176.39,47.2441 2178.33,47.2441 
  2180.26,47.2441 2182.2,47.2441 2184.14,47.2441 2186.08,47.2441 2188.02,47.2441 2189.96,47.2441 2191.9,47.2441 2193.84,47.2441 2195.77,47.2441 2197.71,47.2441 
  2199.65,47.2441 2201.59,47.2441 2203.53,47.2441 2205.47,47.2441 2207.41,47.2441 2209.35,47.2441 2211.28,47.2441 2213.22,47.2441 2215.16,47.2441 2217.1,47.2441 
  2219.04,47.2441 2220.98,47.2441 2222.92,47.2441 2224.86,47.2441 2226.79,47.2441 2228.73,47.2441 2230.67,47.2441 2232.61,47.2441 2234.55,47.2441 2236.49,47.2441 
  2238.43,47.2441 2240.37,47.2441 2242.3,47.2441 2244.24,47.2441 2246.18,47.2441 2248.12,47.2441 2250.06,47.2441 2252,47.2441 2253.94,47.2441 2255.88,47.2441 
  2257.81,47.2441 2259.75,47.2441 2261.69,47.2441 2263.63,47.2441 2265.57,47.2441 2267.51,47.2441 2269.45,47.2441 2271.39,47.2441 2273.32,47.2441 2275.26,47.2441 
  2277.2,47.2441 2279.14,47.2441 2281.08,47.2441 2283.02,47.2441 2284.96,47.2441 2286.9,47.2441 2288.83,47.2441 2290.77,47.2441 2292.71,47.2441 2294.65,47.2441 
  
  "/>
<path clip-path="url(#clip830)" d="
M1784.36 198.898 L2284.32 198.898 L2284.32 95.2176 L1784.36 95.2176  Z
  " fill="#ffffff" fill-rule="evenodd" fill-opacity="1"/>
<polyline clip-path="url(#clip830)" style="stroke:#000000; stroke-linecap:butt; stroke-linejoin:round; stroke-width:4; stroke-opacity:1; fill:none" points="
  1784.36,198.898 2284.32,198.898 2284.32,95.2176 1784.36,95.2176 1784.36,198.898 
  "/>
<polyline clip-path="url(#clip830)" style="stroke:#009af9; stroke-linecap:butt; stroke-linejoin:round; stroke-width:4; stroke-opacity:1; fill:none" points="
  1807.17,147.058 1944.04,147.058 
  "/>
<path clip-path="url(#clip830)" d="M1966.85 129.778 L1988.7 129.778 L1988.7 133.713 L1971.52 133.713 L1971.52 143.944 L1987.98 143.944 L1987.98 147.879 L1971.52 147.879 L1971.52 160.402 L1989.12 160.402 L1989.12 164.338 L1966.85 164.338 L1966.85 129.778 Z" fill="#000000" fill-rule="evenodd" fill-opacity="1" /><path clip-path="url(#clip830)" d="M2000.74 160.449 L2000.74 174.199 L1996.45 174.199 L1996.45 138.412 L2000.74 138.412 L2000.74 142.347 Q2002.08 140.032 2004.12 138.921 Q2006.18 137.787 2009.02 137.787 Q2013.75 137.787 2016.69 141.537 Q2019.65 145.287 2019.65 151.398 Q2019.65 157.509 2016.69 161.259 Q2013.75 165.009 2009.02 165.009 Q2006.18 165.009 2004.12 163.898 Q2002.08 162.763 2000.74 160.449 M2015.23 151.398 Q2015.23 146.699 2013.28 144.037 Q2011.36 141.352 2007.98 141.352 Q2004.6 141.352 2002.66 144.037 Q2000.74 146.699 2000.74 151.398 Q2000.74 156.097 2002.66 158.782 Q2004.6 161.444 2007.98 161.444 Q2011.36 161.444 2013.28 158.782 Q2015.23 156.097 2015.23 151.398 Z" fill="#000000" fill-rule="evenodd" fill-opacity="1" /><path clip-path="url(#clip830)" d="M2036.75 141.398 Q2033.33 141.398 2031.34 144.083 Q2029.35 146.745 2029.35 151.398 Q2029.35 156.051 2031.32 158.736 Q2033.31 161.398 2036.75 161.398 Q2040.16 161.398 2042.15 158.713 Q2044.14 156.027 2044.14 151.398 Q2044.14 146.791 2042.15 144.106 Q2040.16 141.398 2036.75 141.398 M2036.75 137.787 Q2042.31 137.787 2045.48 141.398 Q2048.65 145.009 2048.65 151.398 Q2048.65 157.764 2045.48 161.398 Q2042.31 165.009 2036.75 165.009 Q2031.18 165.009 2028 161.398 Q2024.86 157.764 2024.86 151.398 Q2024.86 145.009 2028 141.398 Q2031.18 137.787 2036.75 137.787 Z" fill="#000000" fill-rule="evenodd" fill-opacity="1" /><path clip-path="url(#clip830)" d="M2074.37 139.407 L2074.37 143.389 Q2072.56 142.393 2070.74 141.907 Q2068.93 141.398 2067.08 141.398 Q2062.94 141.398 2060.64 144.037 Q2058.35 146.652 2058.35 151.398 Q2058.35 156.143 2060.64 158.782 Q2062.94 161.398 2067.08 161.398 Q2068.93 161.398 2070.74 160.912 Q2072.56 160.402 2074.37 159.407 L2074.37 163.342 Q2072.59 164.176 2070.67 164.592 Q2068.77 165.009 2066.62 165.009 Q2060.76 165.009 2057.31 161.328 Q2053.86 157.648 2053.86 151.398 Q2053.86 145.055 2057.33 141.421 Q2060.83 137.787 2066.89 137.787 Q2068.86 137.787 2070.74 138.203 Q2072.61 138.597 2074.37 139.407 Z" fill="#000000" fill-rule="evenodd" fill-opacity="1" /><path clip-path="url(#clip830)" d="M2103.33 148.689 L2103.33 164.338 L2099.07 164.338 L2099.07 148.828 Q2099.07 145.148 2097.63 143.319 Q2096.2 141.49 2093.33 141.49 Q2089.88 141.49 2087.89 143.69 Q2085.9 145.889 2085.9 149.685 L2085.9 164.338 L2081.62 164.338 L2081.62 128.319 L2085.9 128.319 L2085.9 142.44 Q2087.43 140.102 2089.49 138.944 Q2091.57 137.787 2094.28 137.787 Q2098.75 137.787 2101.04 140.565 Q2103.33 143.319 2103.33 148.689 Z" fill="#000000" fill-rule="evenodd" fill-opacity="1" /><path clip-path="url(#clip830)" d="M2128.31 160.402 L2135.94 160.402 L2135.94 134.037 L2127.63 135.703 L2127.63 131.444 L2135.9 129.778 L2140.57 129.778 L2140.57 160.402 L2148.21 160.402 L2148.21 164.338 L2128.31 164.338 L2128.31 160.402 Z" fill="#000000" fill-rule="evenodd" fill-opacity="1" /><path clip-path="url(#clip830)" d="M2167.66 132.856 Q2164.05 132.856 2162.22 136.421 Q2160.41 139.963 2160.41 147.092 Q2160.41 154.199 2162.22 157.764 Q2164.05 161.305 2167.66 161.305 Q2171.29 161.305 2173.1 157.764 Q2174.93 154.199 2174.93 147.092 Q2174.93 139.963 2173.1 136.421 Q2171.29 132.856 2167.66 132.856 M2167.66 129.153 Q2173.47 129.153 2176.52 133.759 Q2179.6 138.342 2179.6 147.092 Q2179.6 155.819 2176.52 160.426 Q2173.47 165.009 2167.66 165.009 Q2161.85 165.009 2158.77 160.426 Q2155.71 155.819 2155.71 147.092 Q2155.71 138.342 2158.77 133.759 Q2161.85 129.153 2167.66 129.153 Z" fill="#000000" fill-rule="evenodd" fill-opacity="1" /><path clip-path="url(#clip830)" d="M2197.82 132.856 Q2194.21 132.856 2192.38 136.421 Q2190.57 139.963 2190.57 147.092 Q2190.57 154.199 2192.38 157.764 Q2194.21 161.305 2197.82 161.305 Q2201.45 161.305 2203.26 157.764 Q2205.09 154.199 2205.09 147.092 Q2205.09 139.963 2203.26 136.421 Q2201.45 132.856 2197.82 132.856 M2197.82 129.153 Q2203.63 129.153 2206.68 133.759 Q2209.76 138.342 2209.76 147.092 Q2209.76 155.819 2206.68 160.426 Q2203.63 165.009 2197.82 165.009 Q2192.01 165.009 2188.93 160.426 Q2185.87 155.819 2185.87 147.092 Q2185.87 138.342 2188.93 133.759 Q2192.01 129.153 2197.82 129.153 Z" fill="#000000" fill-rule="evenodd" fill-opacity="1" /><path clip-path="url(#clip830)" d="M2218.79 160.402 L2226.43 160.402 L2226.43 134.037 L2218.12 135.703 L2218.12 131.444 L2226.38 129.778 L2231.06 129.778 L2231.06 160.402 L2238.7 160.402 L2238.7 164.338 L2218.79 164.338 L2218.79 160.402 Z" fill="#000000" fill-rule="evenodd" fill-opacity="1" /></svg>
